<svg width="30" height="30" viewBox="0 0 30 30" fill="none" xmlns="http://www.w3.org/2000/svg">
<g clip-path="url(#clip0_1_2)">
<path d="M0.686276 19.152C0.754903 18.9608 0.794119 18.75 0.892158 18.5784C1.22549 17.9951 1.87255 17.7402 2.50981 17.9118C3.13726 18.0882 3.55882 18.6422 3.55882 19.3137C3.55882 21.1912 3.55882 23.0637 3.55882 24.9412C3.55882 25.6373 3.93137 26.1716 4.54902 26.3627C4.71079 26.4118 4.88726 26.4314 5.05392 26.4314C11.6814 26.4363 18.3088 26.4363 24.9412 26.4314C25.8333 26.4314 26.4363 25.8284 26.4363 24.9363C26.4363 23.0588 26.4363 21.1863 26.4363 19.3088C26.4363 18.2402 27.4804 17.5539 28.4559 17.9804C28.902 18.1765 29.1716 18.5343 29.2745 19.0147C29.2843 19.0588 29.299 19.1029 29.3088 19.1422C29.3088 21.1765 29.3088 23.2157 29.3088 25.25C29.299 25.2941 29.2843 25.3382 29.2794 25.3823C29.1078 27.2843 27.7206 28.8235 25.8431 29.201C25.6471 29.2402 25.451 29.2647 25.2549 29.299C18.4118 29.299 11.5686 29.299 4.73039 29.299C4.68628 29.2892 4.64216 29.2745 4.59804 29.2696C2.77451 29.1078 1.2451 27.799 0.818629 26.0196C0.759805 25.7647 0.725491 25.5049 0.681374 25.25C0.686276 23.2255 0.686276 21.1912 0.686276 19.152Z" fill="black"/>
<path d="M15.1373 0.686272C15.3284 0.754899 15.5392 0.794115 15.7108 0.892154C16.2059 1.17647 16.4314 1.62255 16.4314 2.18627C16.4314 6.11764 16.4314 10.0441 16.4314 13.9755C16.4314 14.5147 16.4314 15.049 16.4314 15.5882C16.4314 15.652 16.4314 15.7108 16.4314 15.8186C16.5098 15.7451 16.5588 15.7059 16.6029 15.6569C18.1029 14.1569 19.6029 12.6569 21.1029 11.1569C21.6275 10.6324 22.3824 10.5539 22.9657 10.9559C23.7059 11.4706 23.7941 12.5 23.152 13.1569C22.7304 13.5882 22.3039 14.0049 21.8774 14.4314C19.951 16.3578 18.0294 18.2843 16.1029 20.2059C15.4167 20.8922 14.5833 20.8922 13.8971 20.2059C11.5588 17.8676 9.22059 15.5294 6.88235 13.1912C6.34804 12.6569 6.26471 11.902 6.67157 11.3186C7.19118 10.5686 8.22549 10.4902 8.89706 11.1569C10.201 12.4559 11.5 13.7598 12.8039 15.0637C13.0441 15.3039 13.2843 15.549 13.5686 15.8284C13.5686 15.7059 13.5686 15.6373 13.5686 15.5637C13.5686 11.1274 13.5735 6.68627 13.5637 2.25C13.5588 1.37255 14.152 0.774507 14.8186 0.700978C14.8333 0.700978 14.848 0.686272 14.8627 0.676468C14.9559 0.686272 15.0441 0.686272 15.1373 0.686272Z" fill="black"/>
</g>
<defs>
<clipPath id="clip0_1_2">
<rect width="30" height="29.902" fill="white" transform="translate(0 0.0490189)"/>
</clipPath>
</defs>
</svg>
