<svg width="20" height="20" viewBox="0 0 20 20" fill="none" xmlns="http://www.w3.org/2000/svg">
<path d="M15.1167 18.0166C14.3833 18.2333 13.5167 18.3333 12.5 18.3333H7.5C6.48333 18.3333 5.61666 18.2333 4.88333 18.0166C5.06666 15.85 7.29166 14.1416 10 14.1416C12.7083 14.1416 14.9333 15.85 15.1167 18.0166Z" stroke="white" stroke-width="1.5" stroke-linecap="round" stroke-linejoin="round"/>
<path d="M12.5 1.66675H7.50001C3.33334 1.66675 1.66667 3.33341 1.66667 7.50008V12.5001C1.66667 15.6501 2.61667 17.3751 4.88334 18.0167C5.06667 15.8501 7.29167 14.1417 10 14.1417C12.7083 14.1417 14.9333 15.8501 15.1167 18.0167C17.3833 17.3751 18.3333 15.6501 18.3333 12.5001V7.50008C18.3333 3.33341 16.6667 1.66675 12.5 1.66675ZM10 11.8084C8.35001 11.8084 7.01667 10.4668 7.01667 8.81676C7.01667 7.16676 8.35001 5.83341 10 5.83341C11.65 5.83341 12.9833 7.16676 12.9833 8.81676C12.9833 10.4668 11.65 11.8084 10 11.8084Z" stroke="white" stroke-width="1.5" stroke-linecap="round" stroke-linejoin="round"/>
<path d="M12.9833 8.8166C12.9833 10.4666 11.65 11.8082 10 11.8082C8.35 11.8082 7.01666 10.4666 7.01666 8.8166C7.01666 7.1666 8.35 5.83325 10 5.83325C11.65 5.83325 12.9833 7.1666 12.9833 8.8166Z" stroke="white" stroke-width="1.5" stroke-linecap="round" stroke-linejoin="round"/>
</svg>
