<svg width="25" height="24" viewBox="0 0 25 24" fill="none" xmlns="http://www.w3.org/2000/svg">
<path d="M14.666 2H6.66602C6.13558 2 5.62687 2.21071 5.2518 2.58579C4.87673 2.96086 4.66602 3.46957 4.66602 4V20C4.66602 20.5304 4.87673 21.0391 5.2518 21.4142C5.62687 21.7893 6.13558 22 6.66602 22H18.666C19.1964 22 19.7052 21.7893 20.0802 21.4142C20.4553 21.0391 20.666 20.5304 20.666 20V8L14.666 2Z" stroke="#4775FF" stroke-width="2" stroke-linecap="round" stroke-linejoin="round"/>
<path d="M14.666 2V8H20.666" stroke="#4775FF" stroke-width="2" stroke-linecap="round" stroke-linejoin="round"/>
<path d="M16.666 13H8.66602" stroke="#4775FF" stroke-width="2" stroke-linecap="round" stroke-linejoin="round"/>
<path d="M16.666 17H8.66602" stroke="#4775FF" stroke-width="2" stroke-linecap="round" stroke-linejoin="round"/>
<path d="M10.666 9H9.66602H8.66602" stroke="#4775FF" stroke-width="2" stroke-linecap="round" stroke-linejoin="round"/>
</svg>
