<svg width="20" height="20" viewBox="0 0 20 20" fill="none" xmlns="http://www.w3.org/2000/svg">
<g clip-path="url(#clip0_3039_3261)">
<path d="M15.8327 8.33325V9.99992C15.8327 11.547 15.2181 13.0307 14.1241 14.1247C13.0302 15.2187 11.5464 15.8333 9.99935 15.8333M9.99935 15.8333C8.45225 15.8333 6.96852 15.2187 5.87456 14.1247C4.7806 13.0307 4.16602 11.547 4.16602 9.99992V8.33325M9.99935 15.8333V19.1666M6.66602 19.1666H13.3327M9.99935 0.833252C9.33631 0.833252 8.70042 1.09664 8.23158 1.56548C7.76274 2.03433 7.49935 2.67021 7.49935 3.33325V9.99992C7.49935 10.663 7.76274 11.2988 8.23158 11.7677C8.70042 12.2365 9.33631 12.4999 9.99935 12.4999C10.6624 12.4999 11.2983 12.2365 11.7671 11.7677C12.236 11.2988 12.4993 10.663 12.4993 9.99992V3.33325C12.4993 2.67021 12.236 2.03433 11.7671 1.56548C11.2983 1.09664 10.6624 0.833252 9.99935 0.833252Z" stroke="#344054" stroke-width="1.67" stroke-linecap="round" stroke-linejoin="round"/>
</g>
<defs>
<clipPath id="clip0_3039_3261">
<rect width="20" height="20" fill="white"/>
</clipPath>
</defs>
</svg>
