<svg width="16" height="12" viewBox="0 0 16 12" fill="none" xmlns="http://www.w3.org/2000/svg">
<path d="M5.63319 12C5.49664 11.9996 5.36165 11.971 5.23659 11.9162C5.11153 11.8614 4.99908 11.7815 4.90623 11.6813L0.255669 6.70215C0.0967655 6.50618 0.0181647 6.25721 0.0357483 6.00553C0.0533319 5.75385 0.165789 5.51822 0.350398 5.34626C0.535007 5.17429 0.778006 5.07881 1.0303 5.0791C1.28259 5.07938 1.52537 5.17542 1.70959 5.34781L5.63319 9.54028L14.1974 0.368623C14.2834 0.262579 14.3903 0.175349 14.5114 0.112352C14.6325 0.0493547 14.7653 0.0119368 14.9015 0.00242163C15.0377 -0.00709357 15.1744 0.0114973 15.3031 0.0570401C15.4318 0.102583 15.5498 0.174104 15.6496 0.267161C15.7495 0.360218 15.8292 0.472823 15.8838 0.59798C15.9383 0.723137 15.9666 0.858175 15.9667 0.994701C15.9669 1.13123 15.939 1.26633 15.8847 1.39161C15.8304 1.51689 15.751 1.62968 15.6513 1.72296L6.36015 11.6813C6.2673 11.7815 6.15485 11.8614 6.02979 11.9162C5.90473 11.971 5.76974 11.9996 5.63319 12Z" fill="white"/>
</svg>
