<svg width="65" height="68" viewBox="0 0 65 68" fill="none" xmlns="http://www.w3.org/2000/svg">
<path d="M33.473 7.07143C30.0849 8.20286 22.4062 7.07143 17.9441 10.3714C13.7085 14.1429 14.6501 20.7429 12.2973 24.5143C9.94444 28.2857 0.811853 32.3426 0.0624596 36.3C-0.651717 40.0714 4.99431 45.7286 4.99431 49.9714C4.99431 54.2143 -0.408111 59.4 0.0624596 63.6429C0.53303 67.8857 11.2431 73.0714 12.994 75.9C14.7449 78.7286 16.0619 87.2143 19.8264 90.0429C23.591 92.8714 31.5907 91.4571 35.3553 92.4C39.1198 93.3429 45.7078 99 50.8841 99C56.0604 99 57.9426 93.3429 63.1189 92.4C68.2952 91.4571 77.236 90.9857 80.53 87.2143C83.824 83.4429 83.824 78.7286 86.1769 74.0143C88.5297 69.3 97 66.9429 97 61.7571C97 56.5714 93.2354 51.8571 93.2354 48.0857C93.2354 44.3143 97.4706 36.3 95.1177 32.0571C92.7649 27.8143 84.7652 24.0429 82.4123 21.2143C80.0595 18.3857 79.1183 9.9 75.8243 8.01429C72.5303 6.12857 63.1189 8.01429 60.2955 7.07143C57.4721 6.12857 49.9429 0 47.1195 0C44.2961 0 37.7081 5.65714 33.473 7.07143Z" fill="#FFF301"/>
</svg>
