<svg width="320" height="300" viewBox="0 0 320 300" fill="none" xmlns="http://www.w3.org/2000/svg">
<g clip-path="url(#clip0_1751_251)">
<path d="M320 249.646C320 249.72 319.986 249.794 319.957 249.862C319.929 249.931 319.888 249.993 319.835 250.045C319.783 250.097 319.721 250.139 319.652 250.167C319.584 250.195 319.51 250.21 319.436 250.209H0.56359C0.414117 250.209 0.270764 250.15 0.165071 250.045C0.0593771 249.939 0 249.796 0 249.646C0 249.497 0.0593771 249.354 0.165071 249.248C0.270764 249.143 0.414117 249.083 0.56359 249.083H319.436C319.51 249.083 319.584 249.098 319.652 249.126C319.721 249.154 319.783 249.196 319.835 249.248C319.888 249.3 319.929 249.362 319.957 249.431C319.986 249.499 320 249.572 320 249.646Z" fill="#CCCCCC"/>
<path d="M132.134 225.645C188.371 225.645 233.959 180.105 233.959 123.929C233.959 67.7526 188.371 22.2126 132.134 22.2126C75.8981 22.2126 30.3096 67.7526 30.3096 123.929C30.3096 180.105 75.8981 225.645 132.134 225.645Z" fill="#E6E6E6"/>
<path d="M219.751 123.929C219.761 137.586 216.568 151.055 210.426 163.256C204.285 175.458 195.367 186.052 184.387 194.189C183.653 194.737 182.905 195.272 182.152 195.792C167.469 205.988 150.016 211.452 132.134 211.452C114.253 211.452 96.7996 205.988 82.117 195.792C81.364 195.272 80.6157 194.737 79.8816 194.189C68.9094 186.045 59.9968 175.449 53.8563 163.249C47.7157 151.049 44.5176 137.584 44.5176 123.929C44.5176 110.274 47.7157 96.8081 53.8563 84.6083C59.9968 72.4085 68.9094 61.813 79.8816 53.6689C80.6157 53.1201 81.364 52.5855 82.117 52.0651C96.7996 41.8699 114.253 36.4055 132.134 36.4055C150.016 36.4055 167.469 41.8699 182.152 52.0651C182.905 52.5855 183.653 53.1201 184.387 53.6689C195.367 61.8059 204.285 72.3999 210.426 84.6013C216.568 96.8027 219.761 110.272 219.751 123.929Z" fill="white"/>
<path d="M132.134 203.882C176.339 203.882 212.174 168.086 212.174 123.929C212.174 79.7716 176.339 43.9751 132.134 43.9751C87.9301 43.9751 52.0954 79.7716 52.0954 123.929C52.0954 168.086 87.9301 203.882 132.134 203.882Z" fill="#0487C8"/>
<path opacity="0.2" d="M132.343 44.1985C131.13 44.1985 129.924 44.2302 128.724 44.2836C148.953 46.0593 167.751 55.4501 181.308 70.5535C194.865 85.6568 202.167 105.343 201.736 125.624C201.305 145.906 193.173 165.265 178.987 179.78C164.801 194.295 145.621 202.881 125.335 203.797C127.645 203.998 129.981 204.106 132.343 204.106C153.571 204.106 173.929 195.682 188.939 180.688C203.95 165.694 212.382 145.357 212.382 124.152C212.382 102.947 203.95 82.6106 188.939 67.6164C173.929 52.6222 153.571 44.1985 132.343 44.1985Z" fill="black"/>
<path d="M132.371 38.2979C131.681 38.2991 131.019 38.5736 130.531 39.0613C130.043 39.549 129.768 40.2102 129.766 40.8999V52.2543C129.766 52.9444 130.041 53.6062 130.529 54.0942C131.018 54.5822 131.68 54.8563 132.371 54.8563C133.062 54.8563 133.725 54.5822 134.213 54.0942C134.702 53.6062 134.976 52.9444 134.976 52.2543V40.8999C134.975 40.2102 134.7 39.549 134.212 39.0613C133.724 38.5736 133.062 38.2991 132.371 38.2979Z" fill="white"/>
<path d="M184.387 53.6689C183.653 53.1201 182.905 52.5855 182.152 52.0651C181.7 52.0357 181.248 52.1245 180.841 52.3228C180.434 52.5211 180.086 52.822 179.831 53.1958L173.433 62.5773C173.044 63.1476 172.898 63.8488 173.027 64.5266C173.155 65.2045 173.549 65.8035 174.119 66.1918C174.69 66.5801 175.392 66.726 176.071 66.5974C176.749 66.4687 177.349 66.0761 177.738 65.5058L184.136 56.1243C184.38 55.7683 184.53 55.3573 184.574 54.9284C184.618 54.4996 184.554 54.0666 184.387 53.6689Z" fill="white"/>
<path d="M213.457 96.4465C213.328 96.1302 213.139 95.8423 212.898 95.5993C212.658 95.3563 212.373 95.1629 212.058 95.0302C211.743 94.8975 211.405 94.8281 211.063 94.826C210.721 94.8238 210.383 94.889 210.066 95.0177L199.533 99.2898C198.894 99.55 198.384 100.053 198.116 100.688C197.847 101.324 197.843 102.04 198.103 102.679C198.362 103.318 198.866 103.827 199.501 104.096C200.137 104.364 200.854 104.37 201.494 104.111L212.027 99.8386C212.666 99.5771 213.175 99.0734 213.443 98.4376C213.711 97.8018 213.716 97.0859 213.457 96.4465Z" fill="white"/>
<path d="M90.8363 62.5773L84.4379 53.1958C84.1829 52.822 83.8347 52.5211 83.4278 52.3228C83.0208 52.1245 82.5691 52.0357 82.1172 52.0651C81.3642 52.5855 80.6159 53.1201 79.8818 53.6689C79.7154 54.0666 79.6512 54.4996 79.695 54.9284C79.7389 55.3573 79.8894 55.7683 80.1328 56.1243L86.5312 65.5058C86.92 66.0761 87.5196 66.4687 88.1981 66.5974C88.8767 66.726 89.5787 66.5801 90.1495 66.1918C90.7204 65.8035 91.1135 65.2045 91.2423 64.5266C91.3711 63.8488 91.225 63.1476 90.8363 62.5773Z" fill="white"/>
<path d="M64.7358 99.2897L54.2029 95.0176C53.5629 94.758 52.846 94.763 52.2097 95.0314C51.5734 95.2998 51.0699 95.8097 50.81 96.4489C50.55 97.0881 50.5548 97.8043 50.8234 98.4399C51.092 99.0756 51.6023 99.5786 52.2422 99.8384L62.7751 104.111C63.4149 104.37 64.1315 104.364 64.7674 104.096C65.4033 103.827 65.9064 103.317 66.1663 102.678C66.4261 102.04 66.4214 101.324 66.1532 100.688C65.885 100.053 65.3752 99.5498 64.7358 99.2897Z" fill="white"/>
<path d="M132.371 193.001C131.681 193.002 131.019 193.277 130.531 193.765C130.043 194.252 129.768 194.914 129.766 195.603V206.958C129.766 207.648 130.041 208.31 130.529 208.798C131.018 209.286 131.68 209.56 132.371 209.56C133.062 209.56 133.725 209.286 134.213 208.798C134.702 208.31 134.976 207.648 134.976 206.958V195.603C134.975 194.914 134.7 194.252 134.212 193.765C133.724 193.277 133.062 193.002 132.371 193.001Z" fill="white"/>
<path d="M184.136 191.733L177.738 182.352C177.545 182.069 177.299 181.828 177.013 181.64C176.727 181.453 176.407 181.324 176.071 181.26C175.735 181.197 175.389 181.2 175.055 181.269C174.72 181.339 174.402 181.474 174.119 181.666C173.837 181.858 173.595 182.104 173.407 182.39C173.22 182.676 173.09 182.995 173.027 183.331C172.963 183.667 172.966 184.011 173.036 184.346C173.105 184.68 173.24 184.998 173.433 185.28L179.831 194.662C180.086 195.036 180.434 195.337 180.841 195.535C181.248 195.733 181.7 195.822 182.152 195.793C182.905 195.272 183.653 194.738 184.387 194.189C184.553 193.791 184.618 193.358 184.574 192.929C184.53 192.5 184.38 192.089 184.136 191.733Z" fill="white"/>
<path d="M212.027 148.019L201.494 143.747C200.854 143.487 200.137 143.492 199.501 143.761C198.864 144.029 198.361 144.539 198.101 145.178C197.841 145.817 197.846 146.534 198.114 147.169C198.383 147.805 198.893 148.308 199.533 148.568L210.066 152.84C210.706 153.099 211.422 153.093 212.058 152.825C212.694 152.556 213.197 152.047 213.457 151.408C213.717 150.769 213.712 150.053 213.444 149.418C213.176 148.782 212.666 148.279 212.027 148.019Z" fill="white"/>
<path d="M90.1495 181.666C89.5786 181.278 88.8767 181.132 88.1982 181.26C87.5197 181.389 86.9201 181.782 86.5312 182.352L80.1328 191.733C79.8894 192.089 79.7389 192.5 79.695 192.929C79.6512 193.358 79.7154 193.791 79.8818 194.189C80.6159 194.738 81.3642 195.272 82.1172 195.793C82.5691 195.822 83.0208 195.733 83.4278 195.535C83.8347 195.337 84.1829 195.036 84.4379 194.662L90.8363 185.28C91.0288 184.998 91.1637 184.68 91.2334 184.346C91.3031 184.012 91.3061 183.667 91.2423 183.331C91.1786 182.995 91.0492 182.675 90.8617 182.39C90.6742 182.104 90.4322 181.858 90.1495 181.666Z" fill="white"/>
<path d="M66.1662 145.175C66.0376 144.859 65.8478 144.571 65.6077 144.328C65.3676 144.085 65.082 143.892 64.767 143.759C64.4521 143.627 64.1141 143.557 63.7724 143.555C63.4306 143.553 63.0917 143.618 62.7752 143.747L52.2422 148.019C51.6029 148.279 51.0931 148.782 50.8249 149.417C50.5566 150.053 50.5519 150.769 50.8118 151.408C51.0716 152.047 51.5748 152.556 52.2107 152.825C52.8465 153.093 53.5631 153.099 54.203 152.84L64.7359 148.568C65.375 148.306 65.8843 147.802 66.1523 147.167C66.4204 146.531 66.4254 145.815 66.1662 145.175Z" fill="white"/>
<path d="M135.751 122.637C135.992 124.06 135.657 125.519 134.822 126.696C133.987 127.872 132.718 128.67 131.295 128.913L85.0721 136.767C84.367 136.887 83.6452 136.867 82.9478 136.708C82.2505 136.549 81.5913 136.255 81.0079 135.842C80.4245 135.428 79.9283 134.904 79.5477 134.299C79.1671 133.694 78.9094 133.021 78.7895 132.316C78.6695 131.612 78.6896 130.891 78.8487 130.194C79.0077 129.498 79.3025 128.839 79.7163 128.256C80.1301 127.674 80.6547 127.178 81.2602 126.798C81.8658 126.417 82.5404 126.16 83.2455 126.04L129.468 118.186C130.892 117.946 132.353 118.28 133.531 119.114C134.709 119.949 135.507 121.216 135.751 122.637Z" fill="#3F3D56"/>
<path d="M184.399 173.794C183.735 174.461 182.833 174.838 181.892 174.842C180.95 174.845 180.045 174.476 179.376 173.814L129.618 124.499C128.95 123.836 128.573 122.935 128.57 121.994C128.566 121.054 128.937 120.151 129.6 119.483C130.263 118.815 131.165 118.438 132.106 118.434C133.048 118.43 133.952 118.799 134.621 119.461L184.379 168.776C185.047 169.44 185.424 170.34 185.428 171.281C185.432 172.222 185.062 173.126 184.399 173.794Z" fill="#3F3D56"/>
<path d="M132.134 130.079C135.535 130.079 138.291 127.325 138.291 123.929C138.291 120.532 135.535 117.778 132.134 117.778C128.734 117.778 125.978 120.532 125.978 123.929C125.978 127.325 128.734 130.079 132.134 130.079Z" fill="#CCCCCC"/>
<path d="M89.7262 17.2824C80.2755 32.1247 65.8558 41.9748 48.0728 48.4457C47.7214 48.7086 47.3216 48.8997 46.8963 49.0083C46.4709 49.1169 46.0283 49.1407 45.5937 49.0784C45.1591 49.016 44.7411 48.8688 44.3635 48.6451C43.9859 48.4215 43.656 48.1256 43.3929 47.7746C33.7333 34.891 35.9144 16.4777 48.663 6.63306C51.7452 4.25711 55.2691 2.51641 59.0303 1.51204C62.7914 0.507659 66.7148 0.259601 70.5726 0.78227C74.4305 1.30494 78.146 2.58792 81.5035 4.55673C84.8609 6.52554 87.7934 9.14096 90.1308 12.2512L90.3979 12.6075C90.6611 12.9585 90.8525 13.3579 90.9612 13.7828C91.0699 14.2077 91.0937 14.6498 91.0313 15.0839C90.9689 15.5181 90.8216 15.9356 90.5976 16.3129C90.3737 16.6901 90.0776 17.0195 89.7262 17.2824Z" fill="#E6E6E6"/>
<path d="M174.138 12.2509C176.476 9.14071 179.408 6.52529 182.765 4.55648C186.123 2.58767 189.838 1.3047 193.696 0.782027C197.554 0.259358 201.478 0.50741 205.239 1.51179C209 2.51617 212.524 4.25686 215.606 6.63281C228.355 16.4774 230.536 34.8907 220.876 47.7744C220.613 48.1254 220.283 48.4212 219.905 48.6449C219.528 48.8686 219.11 49.0158 218.675 49.0781C218.241 49.1404 217.798 49.1166 217.373 49.008C216.947 48.8995 216.548 48.7083 216.196 48.4454C199.688 42.1317 186.15 31.2059 174.543 17.2822C173.833 16.7512 173.364 15.9604 173.238 15.0837C173.112 14.207 173.339 13.3162 173.871 12.6072L174.138 12.2509Z" fill="#E6E6E6"/>
<path d="M169.996 212.052C169.394 212.39 168.951 212.952 168.763 213.616C168.575 214.28 168.659 214.991 168.995 215.593L184.028 242.429C184.365 243.031 184.928 243.474 185.593 243.662C186.258 243.849 186.97 243.765 187.573 243.428C188.176 243.091 188.62 242.529 188.807 241.865C188.995 241.201 188.911 240.49 188.574 239.888L173.541 213.052C173.203 212.451 172.64 212.008 171.975 211.821C171.311 211.633 170.599 211.716 169.996 212.052Z" fill="#E6E6E6"/>
<path d="M90.7279 213.052L75.6948 239.888C75.3577 240.49 75.2737 241.201 75.4615 241.865C75.6493 242.529 76.0934 243.091 76.6962 243.428C77.299 243.765 78.0111 243.849 78.6758 243.662C79.3406 243.474 79.9036 243.031 80.241 242.429L95.2741 215.593C95.4413 215.295 95.548 214.967 95.5881 214.628C95.6283 214.288 95.6011 213.944 95.5082 213.615C95.4153 213.287 95.2584 212.979 95.0465 212.711C94.8346 212.442 94.5719 212.218 94.2733 212.052C93.9748 211.885 93.6462 211.778 93.3065 211.738C92.9667 211.698 92.6224 211.725 92.2931 211.818C91.9639 211.911 91.6562 212.068 91.3877 212.28C91.1191 212.491 90.8949 212.754 90.7279 213.052Z" fill="#E6E6E6"/>
<path d="M187.073 249.3C191.519 249.3 195.124 245.699 195.124 241.257C195.124 236.815 191.519 233.215 187.073 233.215C182.626 233.215 179.021 236.815 179.021 241.257C179.021 245.699 182.626 249.3 187.073 249.3Z" fill="#E6E6E6"/>
<path d="M192.756 43.5021C197.202 43.5021 200.807 39.9013 200.807 35.4594C200.807 31.0176 197.202 27.4167 192.756 27.4167C188.309 27.4167 184.705 31.0176 184.705 35.4594C184.705 39.9013 188.309 43.5021 192.756 43.5021Z" fill="#E6E6E6"/>
<path d="M131.661 24.578C136.107 24.578 139.712 20.9772 139.712 16.5354C139.712 12.0935 136.107 8.49268 131.661 8.49268C127.214 8.49268 123.61 12.0935 123.61 16.5354C123.61 20.9772 127.214 24.578 131.661 24.578Z" fill="#E6E6E6"/>
<path d="M73.4076 42.5558C77.8542 42.5558 81.4589 38.955 81.4589 34.5131C81.4589 30.0713 77.8542 26.4705 73.4076 26.4705C68.961 26.4705 65.3563 30.0713 65.3563 34.5131C65.3563 38.955 68.961 42.5558 73.4076 42.5558Z" fill="#E6E6E6"/>
<path d="M78.6172 249.3C83.0638 249.3 86.6685 245.699 86.6685 241.257C86.6685 236.815 83.0638 233.215 78.6172 233.215C74.1706 233.215 70.5659 236.815 70.5659 241.257C70.5659 245.699 74.1706 249.3 78.6172 249.3Z" fill="#E6E6E6"/>
<path d="M180.757 169.271C181.074 169.767 181.497 170.188 181.995 170.504C182.493 170.82 183.054 171.022 183.638 171.098C184.223 171.174 184.817 171.12 185.379 170.942C185.941 170.763 186.457 170.464 186.89 170.064L199.524 176.827L198.847 169.417L186.953 164.132C186.234 163.449 185.288 163.053 184.296 163.02C183.304 162.987 182.334 163.319 181.57 163.952C180.806 164.586 180.302 165.477 180.152 166.457C180.002 167.438 180.217 168.439 180.757 169.271Z" fill="#FFB7B7"/>
<path d="M189.962 171.857L194.913 165.03L218.764 176.293L248.443 170.73C249.91 170.455 251.42 170.506 252.865 170.88C254.31 171.253 255.655 171.94 256.804 172.891C257.954 173.842 258.88 175.034 259.516 176.383C260.153 177.732 260.484 179.204 260.487 180.695C260.489 183.388 259.421 185.972 257.518 187.88C255.616 189.787 253.033 190.863 250.337 190.871L216.324 190.934L189.962 171.857Z" fill="#3F3D56"/>
<path d="M182.337 289.765L177.328 287.373L184.209 266.458L191.601 269.99L182.337 289.765Z" fill="#FFB7B7"/>
<path d="M215.918 286.394C215.554 286.622 215.19 286.846 214.822 287.07C214.09 287.518 213.35 287.959 212.611 288.393C212.239 288.61 211.864 288.827 211.492 289.04V289.051L211.47 289.055L211.463 289.058L210.896 289.198L210.083 287.052L209.708 286.063L209.178 284.663L208.207 282.101L203.092 268.612L211.043 266.653L211.341 267.87H211.345L211.492 268.473L214.27 279.727L214.837 282.027L214.855 282.097L215.197 283.472L215.492 284.663L215.819 285.993L215.918 286.394Z" fill="#FFB7B7"/>
<path d="M263.349 239.025C262.845 239.833 262.33 240.638 261.811 241.436C260.847 242.921 259.857 244.384 258.842 245.824C258.842 245.828 258.838 245.828 258.835 245.832C258.242 246.38 257.588 246.857 256.885 247.254C256.855 247.276 256.822 247.291 256.793 247.309C256.275 247.595 255.724 247.816 255.152 247.967C254.946 248.018 254.736 248.07 254.53 248.121C253.787 248.298 253.051 248.448 252.319 248.581C251.016 248.812 249.728 248.978 248.448 249.081C248.345 249.092 248.242 249.099 248.139 249.106C242.874 249.492 237.749 248.871 232.399 247.853C229.757 247.353 227.06 246.754 224.268 246.133C223.355 245.927 222.439 245.725 221.512 245.523C221.442 245.508 221.368 245.49 221.295 245.475C219.97 245.185 218.624 244.898 217.244 244.615C215.507 244.259 213.715 243.913 211.854 243.586L211.986 246.206C212.096 248.222 212.516 250.209 213.23 252.098C214.024 254.421 214.654 256.259 213.325 260.085L212.685 261.937C213.017 262.857 213.131 263.841 213.018 264.812C212.905 265.784 212.568 266.715 212.034 267.535L211.905 267.73L217.244 281.222L217.59 282.097H214.856L211.493 282.1H205.794L197.571 265.62L197.177 264.833V264.793L198.027 233.122C198.038 232.843 198.06 232.56 198.097 232.28C198.247 231.011 198.648 229.783 199.278 228.67C199.908 227.557 200.753 226.58 201.765 225.797C202.734 225.04 203.845 224.483 205.032 224.159C206.219 223.835 207.458 223.749 208.678 223.908L211.493 224.272L217.244 225.014L221.295 225.54L221.376 225.551L233.322 227.095L234.18 223.603L234.338 223.544L239.367 221.703L256.763 215.333L256.807 215.319L257.952 214.9L258.088 215.12C258.128 215.186 258.169 215.252 258.205 215.319C259.336 217.344 260.257 219.479 260.954 221.692C262.125 225.306 263.09 228.983 263.842 232.707C263.875 232.869 263.905 233.016 263.93 233.148L263.942 233.188C263.953 233.251 263.96 233.291 263.964 233.302C264.365 234.971 264.085 237.007 263.349 239.025Z" fill="#2F2E41"/>
<path d="M264.083 227.353C264.028 227.118 263.958 226.879 263.885 226.647C263.301 224.894 262.62 223.173 261.846 221.495C260.978 219.583 259.937 217.536 258.697 215.32C258.097 214.247 257.452 213.131 256.762 211.972C256.416 211.391 256.056 210.799 255.684 210.196C255.669 210.169 255.653 210.142 255.636 210.116L255.529 209.939L238.317 212.24L231.908 213.096L231.525 216.287L231.433 217.077C231.43 217.077 231.43 217.077 231.433 217.08L231.176 219.234V219.238L230.834 222.083L230.804 222.079L221.293 220.848L211.491 219.58L206.226 218.9C205.006 218.741 203.767 218.826 202.58 219.151C201.393 219.475 200.282 220.032 199.313 220.789C198.301 221.572 197.456 222.549 196.826 223.662C196.197 224.775 195.795 226.003 195.645 227.272C195.612 227.53 195.589 227.794 195.578 228.055L190.611 239.813C187.639 246.844 185.746 254.284 184.997 261.88L181.354 273.512L181.873 273.56L189.592 274.277L191.631 274.468L196.119 267.922C196.631 267.176 197.116 266.408 197.569 265.621C198.314 264.337 198.976 263.006 199.552 261.637L209.262 238.556C210.012 238.684 210.756 238.807 211.491 238.923C214.895 239.475 218.162 239.924 221.293 240.272C231.474 241.408 240.289 241.496 248.137 240.533C250.341 240.265 252.471 239.912 254.528 239.475C255.283 239.317 256.027 239.146 256.762 238.964C256.934 238.923 257.104 238.883 257.273 238.839C258.794 238.447 260.191 237.681 261.339 236.61C262.486 235.539 263.346 234.197 263.841 232.708C264.431 230.983 264.515 229.125 264.083 227.353Z" fill="#2F2E41"/>
<path d="M183.937 286.35L178.517 283.756L177.668 283.348L176.31 286.678L166.832 288.761C166.363 288.864 165.94 289.114 165.623 289.474C165.307 289.834 165.114 290.286 165.073 290.763C165.032 291.241 165.145 291.719 165.395 292.128C165.645 292.537 166.02 292.855 166.464 293.036L175.725 296.811L178.665 294.168L177.943 297.715L181.431 299.137L185.254 286.983L183.937 286.35Z" fill="#2F2E41"/>
<path d="M217.244 281.222L217.59 282.096H217.244V281.222Z" fill="#2F2E41"/>
<path d="M215.356 282.283L209.678 284.249L208.786 284.556L210.167 287.877L204.9 296.019C204.639 296.422 204.514 296.897 204.543 297.375C204.572 297.853 204.753 298.31 205.06 298.678C205.367 299.046 205.784 299.307 206.25 299.421C206.716 299.536 207.206 299.499 207.65 299.315L216.889 295.488L217.116 291.544L219.102 294.571L222.583 293.13L216.738 281.807L215.356 282.283Z" fill="#2F2E41"/>
<path d="M262.667 232.678C262.33 232.678 261.998 232.595 261.7 232.438L231.733 216.797L231.386 215.381L230.734 210.9L230.743 210.858L233.593 197.732C233.54 197.62 233.431 197.435 233.308 197.226C232.036 195.072 228.164 188.518 235.553 179.494L248.528 164.383L259.664 163.905L259.791 164.065C262.768 167.798 264.776 172.208 265.636 176.904C266.497 181.599 266.182 186.434 264.721 190.979L263.561 211.897L264.805 216.122C265.532 218.605 265.412 221.258 264.463 223.665L264.748 230.506C264.759 230.786 264.714 231.066 264.614 231.328C264.515 231.591 264.364 231.831 264.169 232.033C263.975 232.236 263.742 232.398 263.484 232.508C263.226 232.619 262.948 232.677 262.667 232.678Z" fill="#3F3D56"/>
<path d="M236.673 249.93C237.181 249.631 237.616 249.223 237.949 248.737C238.283 248.251 238.505 247.698 238.601 247.117C238.697 246.536 238.664 245.941 238.505 245.374C238.346 244.807 238.064 244.281 237.68 243.835L244.885 231.457L237.448 231.876L231.747 243.565C231.038 244.26 230.61 245.191 230.542 246.18C230.474 247.169 230.773 248.149 231.38 248.934C231.987 249.718 232.861 250.253 233.837 250.437C234.812 250.62 235.821 250.44 236.673 249.93Z" fill="#FFB7B7"/>
<path d="M239.58 240.83L232.923 235.65L245.02 212.231L240.487 182.408C240.263 180.934 240.367 179.428 240.791 177.999C241.214 176.569 241.948 175.25 242.94 174.136C243.931 173.021 245.156 172.138 246.528 171.55C247.899 170.961 249.384 170.682 250.875 170.731C253.57 170.822 256.118 171.978 257.96 173.944C259.803 175.91 260.789 178.526 260.704 181.218L259.584 215.176L239.58 240.83Z" fill="#3F3D56"/>
<path d="M241.385 158.105V147.097C241.383 143.185 242.936 139.433 245.703 136.665C248.471 133.897 252.225 132.34 256.141 132.338C260.057 132.335 263.814 133.887 266.585 136.651C269.356 139.416 270.914 143.166 270.916 147.078V147.097C273.519 152.514 271.891 155.09 270.916 158.105C270.916 158.63 270.706 159.133 270.335 159.504C269.963 159.875 269.459 160.084 268.934 160.085H243.369C242.843 160.084 242.339 159.876 241.967 159.504C241.595 159.133 241.386 158.63 241.385 158.105Z" fill="#2F2E41"/>
<path d="M251.31 159.37C257.414 159.37 262.362 154.427 262.362 148.329C262.362 142.231 257.414 137.288 251.31 137.288C245.205 137.288 240.257 142.231 240.257 148.329C240.257 154.427 245.205 159.37 251.31 159.37Z" fill="#FFB7B7"/>
<path d="M262.877 151.223C262.776 151.208 262.676 151.186 262.576 151.171C260.852 150.865 259.128 150.565 257.409 150.254L257.251 146.362L255.168 149.849C250.418 151.423 245.974 150.533 241.793 148.569C240.414 147.915 239.076 147.178 237.786 146.362C238.137 144.21 238.966 142.163 240.211 140.371C241.456 138.58 243.086 137.089 244.982 136.008C245.141 135.918 245.293 135.839 245.452 135.76L245.454 135.76L245.455 135.759L245.457 135.757L245.457 135.755C245.726 135.629 246 135.508 246.274 135.397C248.421 134.559 250.761 134.347 253.023 134.785C255.285 135.223 257.377 136.294 259.054 137.872C262.428 141.09 263.947 146.404 262.877 151.223Z" fill="#2F2E41"/>
</g>
<defs>
<clipPath id="clip0_1751_251">
<rect width="320" height="298.973" fill="white" transform="translate(0 0.513428)"/>
</clipPath>
</defs>
</svg>
