<svg width="160" height="160" viewBox="0 0 160 160" fill="none" xmlns="http://www.w3.org/2000/svg">
<g clip-path="url(#clip0_350_14301)">
<path d="M136.322 122.205H119.836L116.774 130.162H105.523L122.746 89.1992H133.606L150.858 130.162H139.384L136.322 122.205ZM133.091 113.659L128.079 100.552L123.067 113.659H133.091Z" fill="#E0E0E0"/>
<path d="M60.0044 77.3495C60.0044 83.2109 55.151 86.6558 46.0262 86.6558H27.6848V52.7241H45.0633C53.9906 52.7241 58.3607 56.3593 58.3607 61.5936C58.3607 64.8413 56.71 67.4585 53.7966 68.9626C57.6236 70.3187 60.0044 73.2283 60.0044 77.3495ZM37.1906 59.6563V66.201H43.7935C46.9962 66.201 48.6469 65.0844 48.6469 62.904C48.6469 60.7236 46.9962 59.6563 43.7935 59.6563H37.1906ZM50.2976 76.2822C50.2976 73.9539 48.534 72.8408 45.2502 72.8408H37.1906V79.7237H45.2502C48.5481 79.7237 50.2976 78.607 50.2976 76.2822Z" fill="#EBEBEB"/>
<path d="M12.5991 156.541C12.5991 156.541 5.82338 121.479 5.80574 114.272C5.78458 104.293 13.435 100.316 13.435 100.316L10.4616 91.8618H26.8066L24.2317 100.256C24.2317 100.256 32.8451 104.814 31.6388 115.166C29.3991 134.519 25.819 156.541 25.819 156.541H12.5991Z" fill="#F5F5F5"/>
<path d="M28.1928 104.289C28.1329 104.295 28.0727 104.295 28.0129 104.289C27.8359 104.271 27.6581 104.263 27.4803 104.265C26.7958 104.276 26.1206 104.425 25.4945 104.701C24.5057 105.141 23.6337 105.806 22.9478 106.642C22.5124 107.158 22.1207 107.71 21.7768 108.291C21.3817 108.935 21.0374 109.608 20.7469 110.306C20.4248 111.069 20.2627 111.89 20.2707 112.718C20.2983 113.61 20.642 114.462 21.2407 115.124C21.5548 115.465 21.9542 115.715 22.3976 115.85C22.8602 115.985 23.3533 115.972 23.8085 115.815C24.2748 115.634 24.6938 115.35 25.0336 114.984C25.3735 114.618 25.6252 114.179 25.7696 113.701C25.907 113.195 25.9164 112.662 25.7969 112.151C25.6775 111.641 25.433 111.167 25.0853 110.774C24.3676 109.924 23.3763 109.35 22.2812 109.15C21.1326 108.974 19.9577 109.111 18.881 109.548C17.7727 109.989 16.7471 110.615 15.8476 111.397C14.0351 112.915 12.7773 114.99 12.2711 117.298C12.0421 118.39 12.0651 119.52 12.3381 120.602C12.5644 121.649 13.1311 122.593 13.95 123.286C14.3354 123.613 14.8042 123.828 15.3044 123.906C15.7925 123.985 16.2929 123.888 16.7153 123.631C17.1037 123.365 17.4207 123.008 17.6384 122.591C17.8561 122.174 17.9679 121.709 17.9639 121.239C17.9768 120.791 17.8875 120.345 17.7029 119.936C17.5122 119.547 17.2474 119.199 16.9234 118.911C16.2934 118.377 15.5305 118.023 14.7154 117.886C13.3019 117.648 11.8494 117.896 10.5957 118.59C9.64228 119.102 8.81181 119.815 8.1619 120.679C7.74675 121.223 7.41617 121.826 7.18135 122.469C7.01909 122.905 6.96266 123.148 6.94855 123.145C6.9933 122.906 7.05579 122.67 7.13549 122.44C7.35689 121.786 7.67941 121.17 8.09136 120.616C8.73504 119.726 9.56879 118.991 10.5322 118.463C11.8141 117.733 13.3083 117.464 14.7648 117.703C15.6121 117.84 16.406 118.205 17.061 118.759C17.4071 119.061 17.689 119.428 17.8899 119.841C18.0896 120.274 18.1873 120.748 18.1756 121.225C18.1816 121.729 18.0631 122.227 17.8306 122.674C17.598 123.121 17.2585 123.504 16.8423 123.789C16.3829 124.069 15.84 124.178 15.308 124.099C14.7696 124.017 14.2645 123.787 13.8477 123.437C12.9939 122.719 12.3992 121.742 12.1547 120.654C11.8741 119.54 11.8488 118.377 12.0806 117.252C12.5887 114.886 13.872 112.756 15.7277 111.2C16.6487 110.398 17.6995 109.759 18.8352 109.309C19.9441 108.858 21.1543 108.716 22.3376 108.897C23.4744 109.112 24.5006 109.716 25.2405 110.605C25.5993 111.042 25.8581 111.551 25.9989 112.098C26.1404 112.637 26.1257 113.205 25.9565 113.736C25.8003 114.248 25.5281 114.717 25.1611 115.107C24.7941 115.496 24.3421 115.797 23.8402 115.984C23.3505 116.152 22.8206 116.164 22.3235 116.019C21.8482 115.87 21.4203 115.599 21.082 115.233C20.4684 114.537 20.1221 113.646 20.1049 112.718C20.1019 111.871 20.2736 111.031 20.6093 110.253C20.9069 109.548 21.2608 108.868 21.6675 108.22C22.0196 107.635 22.4208 107.082 22.8667 106.565C23.5714 105.721 24.4658 105.056 25.4768 104.624C26.115 104.351 26.8037 104.215 27.4979 104.226C27.7312 104.221 27.9642 104.242 28.1928 104.289Z" fill="#E0E0E0"/>
<path d="M28.6196 130.771C28.6596 131.369 28.6084 131.97 28.4679 132.553C28.1204 134.168 27.2696 135.632 26.0377 136.734C25.1807 137.489 24.1549 138.026 23.0466 138.302C21.7718 138.632 20.4314 138.613 19.1667 138.246C17.7672 137.823 16.5431 136.957 15.6783 135.78C14.7176 134.534 14.2414 132.982 14.338 131.412C14.3807 130.603 14.727 129.84 15.308 129.274C15.6126 129.018 15.9771 128.844 16.3676 128.767C16.758 128.69 17.1616 128.713 17.5407 128.834C17.9073 128.934 18.2494 129.108 18.546 129.346C18.8427 129.583 19.0875 129.879 19.2655 130.214C19.5832 130.872 19.6642 131.618 19.4947 132.328C19.3429 132.997 19.0196 133.615 18.5565 134.121C18.1157 134.585 17.5822 134.953 16.9904 135.199C15.9282 135.629 14.772 135.775 13.6361 135.621C11.9967 135.417 10.4606 134.712 9.23769 133.603C8.78383 133.21 8.39358 132.749 8.08077 132.236C8.10983 132.264 8.13694 132.293 8.1619 132.324L8.37353 132.596C8.6574 132.932 8.96632 133.246 9.29765 133.536C9.82154 133.994 10.4039 134.38 11.0295 134.684C11.8528 135.095 12.7425 135.356 13.6572 135.456C14.7681 135.598 15.8969 135.446 16.9305 135.016C17.4956 134.778 18.0041 134.424 18.4225 133.976C18.859 133.497 19.1618 132.912 19.3007 132.279C19.456 131.619 19.38 130.927 19.0856 130.317C18.9202 130.009 18.6939 129.739 18.4204 129.522C18.1468 129.306 17.8319 129.147 17.4948 129.056C17.1532 128.945 16.789 128.924 16.4367 128.993C16.0844 129.062 15.7554 129.219 15.4808 129.45C14.9437 129.981 14.6263 130.694 14.5919 131.447C14.4997 132.957 14.9541 134.45 15.8723 135.653C16.7089 136.789 17.8902 137.626 19.2408 138.038C20.4668 138.4 21.7678 138.427 23.0078 138.115C24.0901 137.853 25.0938 137.336 25.9354 136.608C26.6305 136.007 27.2091 135.283 27.6425 134.473C27.9744 133.861 28.2246 133.209 28.3868 132.532C28.4895 132.105 28.5579 131.67 28.5913 131.232C28.5913 131.092 28.5913 130.979 28.6125 130.88C28.6095 130.844 28.6118 130.807 28.6196 130.771Z" fill="#E0E0E0"/>
<path d="M25.5721 147.295C25.5509 147.34 24.8384 146.942 23.6039 146.59C23.2676 146.491 22.9261 146.41 22.581 146.347C22.2283 146.262 21.8086 146.22 21.3853 146.167C20.4681 146.078 19.5443 146.078 18.627 146.167C17.7129 146.279 16.8116 146.478 15.9358 146.763C15.5372 146.907 15.1528 147.037 14.8106 147.199C14.4883 147.337 14.1739 147.492 13.8689 147.664C12.7402 148.284 12.13 148.816 12.1053 148.778C12.2307 148.636 12.3714 148.508 12.525 148.397C12.6908 148.257 12.8664 148.128 13.0506 148.013C13.2873 147.841 13.5334 147.682 13.7878 147.538C14.0927 147.354 14.4084 147.188 14.733 147.041C15.0858 146.868 15.4632 146.731 15.8688 146.576C16.7577 146.276 17.6747 146.067 18.6059 145.953C19.5439 145.854 20.4896 145.854 21.4276 145.953C21.8343 145.999 22.2381 146.067 22.6375 146.157C22.9858 146.228 23.3297 146.32 23.6674 146.432C23.9484 146.516 24.224 146.617 24.4928 146.734C24.7016 146.811 24.9045 146.902 25.0994 147.009C25.2668 147.087 25.4253 147.183 25.5721 147.295Z" fill="#E0E0E0"/>
<path d="M24.4328 100.742C24.2612 100.881 24.0796 101.007 23.8896 101.119C23.5369 101.352 23.0043 101.665 22.3341 102.021C20.5762 102.94 18.7228 103.664 16.807 104.18C14.889 104.698 12.9194 105.002 10.9343 105.085C10.1724 105.114 9.55866 105.11 9.13187 105.085C8.91196 105.086 8.69246 105.067 8.47581 105.029C8.694 104.996 8.91491 104.984 9.13539 104.994C9.55866 104.994 10.1689 104.969 10.9237 104.92C12.8887 104.792 14.8367 104.473 16.74 103.969C18.6393 103.454 20.4844 102.756 22.2495 101.887C22.9267 101.552 23.4699 101.264 23.8367 101.056C24.0239 100.931 24.2237 100.826 24.4328 100.742Z" fill="#E0E0E0"/>
<path d="M26.4891 92.2495C26.4891 92.2741 26.087 92.2107 25.364 92.2107C23.636 92.2199 21.942 92.6906 20.4577 93.5739C20.1227 93.7736 19.8011 93.9948 19.4947 94.2361C19.1607 94.4862 18.8607 94.7787 18.6024 95.1062C18.332 95.4316 18.1466 95.8189 18.0627 96.2333C18.025 96.4426 18.0398 96.6579 18.1056 96.8601C18.1715 97.0623 18.2864 97.2451 18.4401 97.3922C18.7867 97.6922 19.2024 97.9015 19.6499 98.0016C20.0935 98.1608 20.568 98.2151 21.0361 98.1601C21.2486 98.0942 21.4349 97.9631 21.5685 97.7854C21.7021 97.6077 21.7763 97.3925 21.7803 97.1703C21.8138 96.7153 21.7184 96.26 21.5052 95.8564C21.1072 95.0691 20.4685 94.4288 19.6817 94.0283C18.9762 93.6494 18.193 93.4373 17.3925 93.4083C16.6926 93.3931 15.9951 93.4955 15.3291 93.7113C14.3607 94.0328 13.4507 94.5086 12.6344 95.1203C12.3451 95.3386 12.1229 95.5148 11.9748 95.6345C11.9039 95.7026 11.8258 95.7628 11.742 95.8142C11.8031 95.7361 11.8716 95.6642 11.9466 95.5993C12.0841 95.469 12.2993 95.2788 12.5779 95.0498C13.3843 94.3985 14.2971 93.8908 15.2762 93.5492C15.9565 93.3128 16.6722 93.1937 17.3925 93.197C18.226 93.2184 19.0431 93.4318 19.7804 93.8205C20.6123 94.2382 21.2885 94.9109 21.7098 95.7402C21.9419 96.1819 22.0446 96.68 22.0061 97.1774C21.986 97.4404 21.8986 97.6939 21.7521 97.9136C21.5937 98.1411 21.3581 98.3037 21.089 98.3715C20.5812 98.4371 20.0651 98.3816 19.5829 98.2094C19.0978 98.0964 18.6483 97.8653 18.2743 97.5366C18.0964 97.3632 17.9636 97.1491 17.8873 96.9127C17.8111 96.6764 17.7938 96.425 17.837 96.1805C17.9302 95.73 18.1324 95.3092 18.426 94.9547C18.6955 94.6223 19.006 94.3252 19.3501 94.0706C19.6668 93.8279 19.9978 93.6044 20.3413 93.4013C20.9615 93.0432 21.6191 92.7538 22.3024 92.5383C23.2907 92.227 24.3245 92.0841 25.3604 92.1156C25.6415 92.1234 25.9218 92.1481 26.1999 92.1896C26.2983 92.1982 26.3954 92.2183 26.4891 92.2495Z" fill="#E0E0E0"/>
<path d="M148.65 6.47119H104.546V70.3155H148.65V6.47119Z" fill="#E0E0E0"/>
<path d="M146.438 6.47119H102.334V70.3155H146.438V6.47119Z" fill="#F5F5F5"/>
<path d="M140.96 13.3887H107.815V63.4039H140.96V13.3887Z" fill="white"/>
<path d="M140.96 63.4042C140.96 63.4042 140.96 63.3197 140.96 63.1612C140.96 63.0026 140.96 62.7596 140.96 62.4567C140.96 61.8297 140.96 60.9103 140.96 59.7127C140.96 57.3174 140.943 53.8232 140.929 49.413C140.929 40.6069 140.897 28.1058 140.876 13.3996L140.985 13.5088H107.829L107.932 13.3855C107.932 32.2517 107.914 49.6455 107.907 63.4042L107.812 63.3091L131.938 63.3584L138.604 63.3831H140.368H140.971C140.971 63.3831 140.777 63.3831 140.385 63.3831H138.653L132.012 63.4077L107.826 63.457H107.731V63.4042C107.731 49.6667 107.731 32.2587 107.706 13.3855V13.2622H107.829H140.985H141.087V13.3855C141.066 28.1199 141.048 40.6316 141.034 49.4694C141.034 53.8725 141.013 57.3562 141.006 59.7479C141.006 60.9314 141.006 61.8614 141.006 62.4672C141.006 62.7702 141.006 63.0026 141.006 63.1717C141.006 63.3408 140.96 63.4042 140.96 63.4042Z" fill="#E0E0E0"/>
<path d="M146.565 6.47119C146.338 6.87441 146.074 7.25637 145.778 7.61246C145.267 8.29934 144.54 9.22927 143.708 10.2332C142.875 11.2371 142.103 12.1318 141.528 12.7658C141.235 13.1242 140.911 13.4555 140.558 13.7556C140.807 13.3658 141.089 12.9981 141.401 12.6566C141.99 11.9521 142.72 11.0574 143.517 10.0817L145.634 7.51031C145.915 7.13879 146.226 6.79122 146.565 6.47119Z" fill="#E0E0E0"/>
<path d="M141.13 63.2388C142.779 65.8519 144.718 68.2706 146.911 70.4492L141.13 63.2388Z" fill="white"/>
<path d="M146.911 70.4492C146.543 70.18 146.205 69.873 145.902 69.5334C144.361 67.9741 142.984 66.2615 141.793 64.4223C141.527 64.0525 141.301 63.6558 141.119 63.2388C141.417 63.5807 141.69 63.9446 141.934 64.3272C142.417 65.0106 143.101 65.9405 143.898 66.9373C144.696 67.9342 145.457 68.8042 146.015 69.4277C146.339 69.745 146.638 70.0865 146.911 70.4492Z" fill="#E0E0E0"/>
<path d="M102.331 70.2658L108.105 63.147L102.331 70.2658Z" fill="white"/>
<path d="M108.105 63.1473C108.157 63.1896 106.905 64.817 105.311 66.7825C103.717 68.748 102.38 70.3049 102.331 70.2662C102.281 70.2274 103.53 68.5965 105.124 66.631C106.718 64.6655 108.055 63.1051 108.105 63.1473Z" fill="#E0E0E0"/>
<path d="M102.334 6.47095C102.387 6.4322 103.643 7.92924 105.138 9.82079C106.634 11.7123 107.808 13.2763 107.755 13.3151C107.702 13.3538 106.447 11.8603 104.951 9.96874C103.456 8.07718 102.288 6.51322 102.334 6.47095Z" fill="#E0E0E0"/>
<path d="M130.636 23.5405H119.536V55.01H130.636V23.5405Z" fill="#E0E0E0"/>
<path d="M153.337 128.284H146.561V136.329H153.337V128.284Z" fill="#F5F5F5"/>
<path d="M146.794 127.759H116.171V136.833H146.794V127.759Z" fill="#3366FF"/>
<path d="M153.542 128.52H145.972V127.759H153.542C153.592 127.758 153.642 127.768 153.689 127.787C153.735 127.806 153.778 127.834 153.813 127.869C153.849 127.904 153.877 127.946 153.897 127.993C153.916 128.039 153.926 128.089 153.926 128.139C153.926 128.189 153.916 128.239 153.897 128.286C153.877 128.332 153.849 128.374 153.813 128.409C153.778 128.445 153.735 128.473 153.689 128.492C153.642 128.511 153.592 128.52 153.542 128.52Z" fill="#3366FF"/>
<path d="M153.542 136.833H145.972V136.068H153.542C153.644 136.068 153.741 136.109 153.814 136.181C153.886 136.253 153.926 136.35 153.926 136.452C153.926 136.503 153.916 136.552 153.897 136.599C153.877 136.645 153.849 136.687 153.813 136.723C153.778 136.758 153.735 136.786 153.689 136.805C153.642 136.824 153.592 136.833 153.542 136.833Z" fill="#3366FF"/>
<g opacity="0.4">
<path d="M144.389 127.759H140.77V136.833H144.389V127.759Z" fill="black"/>
</g>
<g opacity="0.4">
<path d="M122.506 127.759H118.887V136.833H122.506V127.759Z" fill="black"/>
</g>
<path d="M153.337 129.626C153.337 129.65 151.87 129.668 150.06 129.668C148.251 129.668 146.787 129.65 146.787 129.626C146.787 129.601 148.251 129.587 150.06 129.587C151.87 129.587 153.337 129.59 153.337 129.626Z" fill="#E0E0E0"/>
<path d="M153.337 130.82C153.337 130.841 151.87 130.859 150.06 130.859C148.251 130.859 146.787 130.841 146.787 130.82C146.787 130.799 148.251 130.778 150.06 130.778C151.87 130.778 153.337 130.799 153.337 130.82Z" fill="#E0E0E0"/>
<path d="M153.337 132.306C153.337 132.328 151.87 132.345 150.06 132.345C148.251 132.345 146.787 132.328 146.787 132.306C146.787 132.285 148.251 132.264 150.06 132.264C151.87 132.264 153.337 132.282 153.337 132.306Z" fill="#E0E0E0"/>
<path d="M153.337 133.789C153.337 133.814 151.87 133.832 150.06 133.832C148.251 133.832 146.787 133.814 146.787 133.789C146.787 133.765 148.251 133.75 150.06 133.75C151.87 133.75 153.337 133.768 153.337 133.789Z" fill="#E0E0E0"/>
<path d="M153.337 135.261C153.337 135.283 151.87 135.3 150.06 135.3C148.251 135.3 146.787 135.3 146.787 135.261C146.787 135.223 148.251 135.223 150.06 135.223C151.87 135.223 153.337 135.261 153.337 135.261Z" fill="#E0E0E0"/>
<g opacity="0.2">
<path d="M138.823 131.489H125.046V133.124H138.823V131.489Z" fill="black"/>
</g>
<path d="M153.27 137.012H146.389V141.915H153.27V137.012Z" fill="#FAFAFA"/>
<path d="M146.463 136.833H117.184V142.092H146.463V136.833Z" fill="#455A64"/>
<path d="M146.251 137.189H153.658C153.705 137.189 153.75 137.17 153.783 137.137C153.816 137.104 153.834 137.059 153.834 137.013C153.835 136.989 153.831 136.966 153.822 136.944C153.813 136.922 153.801 136.903 153.784 136.886C153.768 136.869 153.748 136.856 153.726 136.847C153.705 136.838 153.682 136.833 153.658 136.833H146.251V137.189Z" fill="#455A64"/>
<path d="M146.251 141.736H153.679C153.719 141.736 153.756 141.751 153.784 141.779C153.812 141.807 153.827 141.845 153.827 141.884V141.954C153.827 141.993 153.812 142.031 153.784 142.059C153.756 142.087 153.719 142.102 153.679 142.102H146.251V141.75V141.736Z" fill="#455A64"/>
<path d="M153.27 137.942C153.27 137.963 151.746 137.981 149.866 137.981C147.986 137.981 146.466 137.963 146.466 137.942C146.466 137.921 147.986 137.903 149.866 137.903C151.746 137.903 153.27 137.921 153.27 137.942Z" fill="#E0E0E0"/>
<path d="M153.27 138.869C153.27 138.893 151.746 138.911 149.866 138.911C147.986 138.911 146.466 138.893 146.466 138.869C146.466 138.844 147.986 138.83 149.866 138.83C151.746 138.83 153.27 138.848 153.27 138.869Z" fill="#E0E0E0"/>
<path d="M153.27 139.798C153.27 139.819 151.746 139.837 149.866 139.837C147.986 139.837 146.466 139.819 146.466 139.798C146.466 139.777 147.986 139.756 149.866 139.756C151.746 139.756 153.27 139.773 153.27 139.798Z" fill="#E0E0E0"/>
<path d="M153.27 140.725C153.27 140.746 151.746 140.764 149.866 140.764C147.986 140.764 146.466 140.746 146.466 140.725C146.466 140.704 147.986 140.683 149.866 140.683C151.746 140.683 153.27 140.704 153.27 140.725Z" fill="#E0E0E0"/>
<path d="M154.311 142.556H147.288V155.846H154.311V142.556Z" fill="#EBEBEB"/>
<path d="M147.292 142.092H114.327V156.499H147.292V142.092Z" fill="#3366FF"/>
<path d="M154.861 156.499H146.378V155.565H154.843C154.968 155.565 155.087 155.615 155.175 155.703C155.263 155.79 155.312 155.91 155.312 156.034C155.312 156.155 155.264 156.27 155.18 156.357C155.096 156.443 154.982 156.494 154.861 156.499Z" fill="#3366FF"/>
<path d="M146.378 142.092H154.931C155.034 142.092 155.133 142.133 155.206 142.205C155.279 142.278 155.319 142.376 155.319 142.479V142.638C155.319 142.741 155.279 142.839 155.206 142.912C155.133 142.984 155.034 143.025 154.931 143.025H146.378V142.092Z" fill="#3366FF"/>
<path d="M154.311 144.339C154.311 144.36 152.741 144.381 150.801 144.381C148.861 144.381 147.274 144.36 147.274 144.339C147.274 144.318 148.847 144.3 150.801 144.3C152.755 144.3 154.311 144.318 154.311 144.339Z" fill="#E0E0E0"/>
<path d="M154.311 146.044C154.311 146.065 152.741 146.083 150.801 146.083C148.861 146.083 147.274 146.065 147.274 146.044C147.274 146.023 148.847 146.005 150.801 146.005C152.755 146.005 154.311 146.023 154.311 146.044Z" fill="#E0E0E0"/>
<path d="M154.311 147.749C154.311 147.77 152.741 147.788 150.801 147.788C148.861 147.788 147.274 147.77 147.274 147.749C147.274 147.728 148.847 147.707 150.801 147.707C152.755 147.707 154.311 147.728 154.311 147.749Z" fill="#E0E0E0"/>
<path d="M154.311 149.453C154.311 149.475 152.741 149.492 150.801 149.492C148.861 149.492 147.274 149.492 147.274 149.453C147.274 149.415 148.847 149.411 150.801 149.411C152.755 149.411 154.311 149.429 154.311 149.453Z" fill="#E0E0E0"/>
<path d="M154.311 151.155C154.311 151.18 152.741 151.197 150.801 151.197C148.861 151.197 147.274 151.18 147.274 151.155C147.274 151.13 148.847 151.116 150.801 151.116C152.755 151.116 154.311 151.134 154.311 151.155Z" fill="#E0E0E0"/>
<path d="M154.311 152.874C154.311 152.898 152.741 152.916 150.801 152.916C148.861 152.916 147.274 152.898 147.274 152.874C147.274 152.849 148.847 152.835 150.801 152.835C152.755 152.835 154.311 152.838 154.311 152.874Z" fill="#E0E0E0"/>
<path d="M154.311 154.565C154.311 154.586 152.741 154.607 150.801 154.607C148.861 154.607 147.274 154.586 147.274 154.565C147.274 154.543 148.847 154.526 150.801 154.526C152.755 154.526 154.311 154.543 154.311 154.565Z" fill="#E0E0E0"/>
<g opacity="0.3">
<path d="M122.506 142.092L117.967 156.499H114.327V142.092H122.506Z" fill="black"/>
</g>
<path d="M118.298 148.379H119.571C120.492 148.379 121.127 148.936 121.127 149.788C121.127 150.641 120.492 151.197 119.571 151.197H118.288L118.298 148.379ZM119.55 150.662C119.784 150.662 120.008 150.569 120.174 150.404C120.339 150.239 120.432 150.015 120.432 149.781C120.432 149.548 120.339 149.324 120.174 149.159C120.008 148.994 119.784 148.901 119.55 148.901H118.951V150.662H119.55Z" fill="white"/>
<path d="M121.631 148.379H122.284V151.197H121.631V148.379Z" fill="white"/>
<path d="M122.774 149.788C122.793 149.485 122.901 149.193 123.084 148.95C123.267 148.707 123.518 148.523 123.805 148.421C124.092 148.319 124.403 148.303 124.698 148.376C124.994 148.449 125.262 148.607 125.469 148.83L125.049 149.218C124.964 149.113 124.856 149.03 124.734 148.972C124.612 148.915 124.479 148.886 124.344 148.886C124.104 148.886 123.875 148.981 123.705 149.151C123.536 149.32 123.441 149.549 123.441 149.788C123.441 150.027 123.536 150.257 123.705 150.426C123.875 150.595 124.104 150.69 124.344 150.69C124.479 150.691 124.613 150.661 124.735 150.603C124.857 150.545 124.964 150.46 125.049 150.355L125.469 150.743C125.263 150.968 124.995 151.127 124.699 151.201C124.403 151.275 124.092 151.26 123.805 151.158C123.517 151.056 123.266 150.872 123.083 150.628C122.899 150.384 122.792 150.092 122.774 149.788Z" fill="white"/>
<path d="M126.464 148.911H125.568V148.379H128.037V148.911H127.134V151.197H126.481L126.464 148.911Z" fill="white"/>
<path d="M128.389 148.379H129.042V151.197H128.389V148.379Z" fill="white"/>
<path d="M129.518 149.788C129.501 149.48 129.577 149.174 129.736 148.909C129.895 148.644 130.13 148.434 130.411 148.304C130.691 148.174 131.004 148.131 131.309 148.181C131.614 148.23 131.897 148.37 132.122 148.582C132.347 148.794 132.502 149.069 132.569 149.37C132.636 149.671 132.611 149.986 132.497 150.273C132.383 150.56 132.185 150.806 131.929 150.979C131.674 151.153 131.372 151.246 131.063 151.246C130.864 151.258 130.665 151.229 130.478 151.161C130.291 151.092 130.12 150.987 129.975 150.85C129.831 150.714 129.715 150.549 129.637 150.366C129.558 150.184 129.518 149.987 129.518 149.788ZM131.945 149.788C131.941 149.614 131.886 149.444 131.787 149.301C131.687 149.158 131.548 149.048 131.385 148.984C131.223 148.919 131.046 148.905 130.875 148.941C130.704 148.977 130.548 149.063 130.426 149.188C130.304 149.313 130.222 149.47 130.19 149.642C130.157 149.813 130.176 149.99 130.244 150.15C130.312 150.311 130.426 150.448 130.572 150.544C130.718 150.64 130.889 150.69 131.063 150.69C131.181 150.693 131.299 150.671 131.409 150.627C131.519 150.582 131.618 150.516 131.701 150.431C131.784 150.346 131.848 150.246 131.89 150.135C131.932 150.024 131.951 149.906 131.945 149.788Z" fill="white"/>
<path d="M135.687 148.379V151.197H135.151L133.74 149.485V151.197H133.095V148.379H133.634L135.045 150.091V148.379H135.687Z" fill="white"/>
<path d="M138.216 150.591H136.904L136.654 151.197H135.987L137.243 148.379H137.888L139.151 151.197H138.463L138.216 150.591ZM138.008 150.098L137.56 149.02L137.116 150.098H138.008Z" fill="white"/>
<path d="M141.242 151.197L140.699 150.408H140.096V151.193H139.444V148.375H140.668C141.419 148.375 141.891 148.766 141.891 149.397C141.899 149.587 141.847 149.776 141.743 149.935C141.638 150.095 141.487 150.218 141.309 150.288L141.944 151.193L141.242 151.197ZM140.629 148.911H140.096V149.894H140.629C141.031 149.894 141.232 149.707 141.232 149.401C141.232 149.094 141.031 148.911 140.629 148.911Z" fill="white"/>
<path d="M143.722 150.197V151.197H143.07V150.19L141.976 148.379H142.682L143.436 149.63L144.188 148.379H144.83L143.722 150.197Z" fill="white"/>
<path d="M126.083 138.524L125.885 139.51H127.116L127.084 139.665H125.853L125.649 140.683H125.479L125.945 138.372H127.494L127.462 138.524H126.083Z" fill="white"/>
<path d="M128.647 138.946L128.619 139.108H128.566C128.174 139.108 127.917 139.344 127.825 139.813L127.645 140.697H127.479L127.832 138.974H127.994L127.92 139.326C127.995 139.202 128.102 139.101 128.23 139.034C128.358 138.967 128.502 138.937 128.647 138.946Z" fill="white"/>
<path d="M128.88 139.858C128.88 139.894 128.88 139.932 128.88 139.968C128.88 140.341 129.098 140.549 129.518 140.549C129.628 140.553 129.737 140.535 129.839 140.495C129.941 140.455 130.034 140.394 130.111 140.316L130.188 140.433C130.098 140.52 129.99 140.589 129.873 140.634C129.755 140.679 129.63 140.701 129.504 140.697C129.403 140.708 129.301 140.698 129.205 140.667C129.108 140.636 129.02 140.584 128.945 140.516C128.87 140.447 128.811 140.363 128.772 140.27C128.733 140.177 128.714 140.076 128.717 139.975C128.708 139.845 128.726 139.714 128.769 139.591C128.812 139.468 128.879 139.355 128.967 139.259C129.055 139.162 129.162 139.085 129.281 139.031C129.4 138.978 129.529 138.949 129.659 138.946C129.755 138.937 129.852 138.949 129.944 138.981C130.035 139.013 130.118 139.064 130.188 139.131C130.258 139.198 130.313 139.279 130.349 139.368C130.384 139.458 130.401 139.554 130.396 139.651C130.395 139.716 130.388 139.78 130.375 139.844L128.88 139.858ZM128.897 139.728H130.231C130.232 139.7 130.232 139.672 130.231 139.644C130.235 139.567 130.223 139.49 130.195 139.419C130.166 139.347 130.123 139.283 130.067 139.23C130.011 139.177 129.945 139.136 129.872 139.112C129.799 139.087 129.722 139.079 129.645 139.087C129.465 139.089 129.291 139.154 129.154 139.271C129.017 139.389 128.926 139.55 128.897 139.728Z" fill="white"/>
<path d="M132.484 139.489C132.484 139.552 132.477 139.614 132.463 139.675L132.266 140.672H132.1L132.298 139.675C132.31 139.621 132.316 139.566 132.315 139.51C132.315 139.242 132.153 139.084 131.828 139.084C131.643 139.075 131.461 139.138 131.32 139.259C131.179 139.381 131.09 139.551 131.07 139.735L130.88 140.672H130.714L131.067 138.95H131.211L131.144 139.274C131.224 139.162 131.33 139.071 131.453 139.01C131.576 138.948 131.712 138.918 131.85 138.922C132.269 138.946 132.484 139.158 132.484 139.489Z" fill="white"/>
<path d="M132.918 139.982C132.911 139.847 132.931 139.713 132.978 139.587C133.025 139.461 133.098 139.345 133.191 139.248C133.284 139.151 133.396 139.074 133.52 139.022C133.645 138.97 133.778 138.944 133.913 138.946C134.042 138.935 134.171 138.959 134.286 139.016C134.402 139.074 134.5 139.161 134.569 139.27L134.431 139.351C134.375 139.265 134.296 139.195 134.202 139.15C134.109 139.105 134.006 139.085 133.902 139.094C133.79 139.094 133.679 139.117 133.575 139.162C133.472 139.207 133.379 139.273 133.303 139.355C133.226 139.437 133.167 139.534 133.129 139.64C133.092 139.746 133.076 139.859 133.084 139.971C133.079 140.052 133.092 140.134 133.123 140.21C133.153 140.286 133.2 140.354 133.26 140.409C133.321 140.464 133.392 140.506 133.47 140.53C133.549 140.554 133.631 140.56 133.712 140.549C133.82 140.551 133.927 140.531 134.026 140.487C134.124 140.444 134.212 140.38 134.283 140.299L134.4 140.39C134.312 140.491 134.204 140.57 134.082 140.623C133.96 140.676 133.827 140.701 133.694 140.697C133.595 140.707 133.495 140.695 133.4 140.664C133.305 140.632 133.219 140.581 133.145 140.513C133.072 140.446 133.014 140.364 132.975 140.272C132.936 140.18 132.916 140.081 132.918 139.982Z" fill="white"/>
<path d="M136.52 139.489C136.519 139.552 136.512 139.614 136.498 139.675L136.301 140.672H136.149L136.35 139.675C136.355 139.62 136.355 139.565 136.35 139.51C136.35 139.242 136.188 139.084 135.864 139.084C135.678 139.076 135.497 139.139 135.356 139.26C135.215 139.381 135.126 139.551 135.105 139.735L134.918 140.672H134.738L135.229 138.207H135.394L135.186 139.263C135.265 139.15 135.371 139.059 135.494 138.998C135.617 138.936 135.754 138.906 135.892 138.911C136.304 138.946 136.52 139.158 136.52 139.489Z" fill="white"/>
<path d="M126.393 130.876H126.823L126.361 133.19H125.92L126.393 130.876Z" fill="white"/>
<path d="M127.529 132.599C127.527 132.624 127.527 132.65 127.529 132.676C127.529 132.799 127.592 132.873 127.737 132.873C127.819 132.874 127.9 132.851 127.97 132.806L128.04 133.109C127.91 133.183 127.763 133.22 127.613 133.215C127.548 133.222 127.482 133.214 127.42 133.193C127.358 133.172 127.302 133.138 127.254 133.094C127.206 133.049 127.168 132.994 127.143 132.934C127.118 132.873 127.107 132.808 127.109 132.743C127.106 132.696 127.106 132.649 127.109 132.602L127.278 131.771H126.993L127.056 131.44H127.345L127.426 131.038H127.839L127.755 131.44H128.234L128.167 131.771H127.684L127.529 132.599Z" fill="white"/>
<path d="M130.368 131.425L130.015 133.187H129.624L129.659 133.007C129.499 133.143 129.295 133.216 129.084 133.211C128.98 133.217 128.877 133.201 128.779 133.163C128.682 133.126 128.594 133.069 128.521 132.996C128.447 132.922 128.39 132.834 128.353 132.737C128.315 132.64 128.299 132.536 128.305 132.433C128.298 132.299 128.32 132.165 128.367 132.039C128.415 131.914 128.488 131.799 128.581 131.703C128.675 131.607 128.787 131.53 128.911 131.479C129.035 131.428 129.169 131.402 129.303 131.404C129.419 131.393 129.535 131.414 129.64 131.462C129.746 131.511 129.836 131.587 129.903 131.682L129.952 131.422L130.368 131.425ZM129.797 132.2C129.801 132.139 129.792 132.077 129.77 132.02C129.748 131.963 129.714 131.911 129.669 131.868C129.625 131.826 129.571 131.794 129.513 131.774C129.454 131.755 129.392 131.749 129.331 131.756C129.247 131.757 129.163 131.775 129.086 131.809C129.009 131.844 128.94 131.893 128.882 131.955C128.825 132.018 128.781 132.091 128.754 132.17C128.726 132.25 128.715 132.335 128.721 132.419C128.717 132.48 128.726 132.542 128.749 132.599C128.771 132.656 128.806 132.708 128.851 132.75C128.896 132.792 128.95 132.823 129.008 132.842C129.067 132.861 129.129 132.867 129.19 132.859C129.275 132.859 129.358 132.842 129.436 132.808C129.513 132.775 129.583 132.725 129.64 132.663C129.697 132.602 129.741 132.528 129.769 132.449C129.796 132.369 129.807 132.284 129.8 132.2H129.797Z" fill="white"/>
<path d="M131.049 130.739H131.462L130.971 133.205H130.559L131.049 130.739Z" fill="white"/>
<path d="M131.867 131.426H132.269L131.917 133.187H131.504L131.867 131.426ZM131.92 130.904C131.92 130.868 131.927 130.833 131.942 130.8C131.956 130.767 131.976 130.737 132.003 130.712C132.029 130.688 132.059 130.668 132.093 130.656C132.127 130.644 132.163 130.638 132.199 130.64C132.23 130.637 132.262 130.641 132.291 130.651C132.321 130.66 132.349 130.676 132.372 130.697C132.396 130.718 132.415 130.743 132.428 130.771C132.441 130.8 132.448 130.831 132.449 130.862C132.451 130.899 132.444 130.936 132.431 130.971C132.417 131.005 132.396 131.036 132.37 131.062C132.343 131.088 132.311 131.108 132.276 131.121C132.241 131.134 132.204 131.139 132.167 131.137C132.135 131.139 132.103 131.135 132.073 131.124C132.042 131.114 132.014 131.097 131.991 131.075C131.967 131.053 131.949 131.027 131.936 130.998C131.923 130.968 131.917 130.936 131.917 130.904H131.92Z" fill="white"/>
<path d="M134.548 131.426L134.195 133.187H133.8L133.839 133.008C133.678 133.145 133.472 133.218 133.26 133.212C133.157 133.217 133.053 133.2 132.957 133.163C132.86 133.126 132.772 133.068 132.699 132.995C132.626 132.922 132.569 132.834 132.532 132.737C132.495 132.64 132.479 132.537 132.484 132.434C132.478 132.3 132.499 132.166 132.547 132.041C132.594 131.916 132.666 131.801 132.76 131.705C132.853 131.609 132.965 131.532 133.088 131.481C133.212 131.429 133.345 131.403 133.479 131.405C133.595 131.395 133.712 131.415 133.818 131.464C133.924 131.513 134.015 131.588 134.082 131.683L134.132 131.423L134.548 131.426ZM133.98 132.201C133.985 132.14 133.976 132.078 133.953 132.021C133.931 131.963 133.897 131.912 133.852 131.869C133.808 131.827 133.754 131.795 133.696 131.775C133.638 131.756 133.576 131.75 133.514 131.757C133.43 131.757 133.346 131.775 133.269 131.809C133.191 131.843 133.122 131.893 133.064 131.955C133.007 132.017 132.963 132.091 132.936 132.171C132.908 132.25 132.897 132.335 132.904 132.419C132.9 132.48 132.91 132.542 132.932 132.599C132.954 132.656 132.989 132.707 133.033 132.749C133.078 132.791 133.131 132.823 133.189 132.842C133.247 132.861 133.309 132.867 133.37 132.86C133.454 132.86 133.538 132.843 133.615 132.809C133.693 132.775 133.762 132.726 133.82 132.664C133.877 132.602 133.921 132.529 133.949 132.449C133.976 132.37 133.987 132.285 133.98 132.201Z" fill="white"/>
<path d="M136.699 132.003C136.699 132.074 136.692 132.145 136.678 132.215L136.481 133.19H136.068L136.259 132.222C136.263 132.177 136.263 132.132 136.259 132.088C136.259 131.884 136.146 131.767 135.906 131.767C135.762 131.761 135.622 131.81 135.514 131.904C135.406 131.999 135.339 132.132 135.327 132.275L135.14 133.19H134.738L135.091 131.429H135.486L135.447 131.626C135.615 131.481 135.832 131.404 136.054 131.412C136.137 131.401 136.221 131.408 136.301 131.433C136.38 131.458 136.454 131.501 136.515 131.557C136.577 131.613 136.625 131.683 136.657 131.76C136.689 131.837 136.703 131.92 136.699 132.003Z" fill="white"/>
<path d="M65.9018 78.6953L72.3531 75.9724L87.7845 72.9185L104.44 76.1838L82.4408 99.7947L72.0109 100.386L64.1065 84.7046L65.9018 78.6953Z" fill="#FFBE9D"/>
<path d="M121.97 96.6981C121.97 96.6981 111.459 79.8397 108.637 77.846C105.815 75.8523 96.7858 74.5596 96.7858 74.5596C96.7858 74.5596 86.8533 96.9623 77.3863 96.1733C67.9194 95.3843 66.893 78.2546 66.893 78.2546L62.7274 79.9137C61.9893 80.2063 61.3234 80.6551 60.7755 81.2291C60.2275 81.803 59.8104 82.4887 59.5529 83.2389L51.2111 107.47L65.3728 110.841C67.8665 120.105 71.369 128.161 75.7744 135.146L76.2259 132.835L105.685 132.38L114.221 129.083L103.946 105.758L121.97 96.6981Z" fill="#3366FF"/>
<path d="M67.542 117.509C67.5104 117.448 67.4833 117.384 67.4609 117.319C67.408 117.175 67.3445 116.991 67.2598 116.766L66.5544 114.723C65.9618 112.993 65.1435 110.609 64.3816 107.918C64.0289 106.572 63.715 105.276 63.4857 104.085C63.2565 102.895 63.133 101.817 63.0378 100.915C62.9849 100.461 62.9743 100.045 62.9496 99.682C62.9249 99.3192 62.9214 99.0057 62.9249 98.7521V98.1639C62.9165 98.0949 62.9165 98.0251 62.9249 97.9561C62.9413 98.0229 62.9496 98.0915 62.9496 98.1604C62.9496 98.3153 62.9672 98.5126 62.9813 98.7486C62.9955 98.9846 63.006 99.3157 63.0378 99.675C63.0695 100.034 63.0942 100.45 63.1542 100.901C63.2459 101.81 63.4117 102.88 63.6374 104.071C63.8631 105.262 64.1771 106.537 64.5474 107.889C65.2917 110.57 66.1029 112.962 66.6637 114.698C66.9424 115.568 67.1716 116.273 67.3198 116.759L67.4856 117.326C67.5135 117.384 67.5325 117.446 67.542 117.509Z" fill="#263238"/>
<path d="M97.2056 113.624C97.2056 113.624 97.1562 113.663 97.0504 113.716C96.9445 113.768 96.7894 113.853 96.5813 113.937C95.9971 114.191 95.3931 114.396 94.7753 114.55C92.7256 115.074 90.5762 115.071 88.5283 114.54C86.4803 114.009 84.6006 112.968 83.0651 111.514C82.6005 111.08 82.1722 110.609 81.7847 110.105C81.6472 109.929 81.5519 109.777 81.4849 109.682C81.4179 109.587 81.3862 109.531 81.3932 109.527C81.5518 109.697 81.7013 109.874 81.8412 110.059C82.2463 110.542 82.6848 110.997 83.1533 111.419C84.6915 112.829 86.5527 113.84 88.5735 114.364C90.5943 114.887 92.713 114.908 94.7436 114.424C95.3588 114.281 95.9635 114.097 96.553 113.871C96.766 113.777 96.9838 113.695 97.2056 113.624Z" fill="#263238"/>
<path d="M100.331 87.1245C100.342 86.9815 100.371 86.8406 100.419 86.7053C100.486 86.4341 100.602 86.0536 100.772 85.5887C101.651 83.1511 103.08 80.9481 104.948 79.1496C105.3 78.7974 105.604 78.5438 105.822 78.3747C105.932 78.2791 106.05 78.1942 106.175 78.1211C106.196 78.1458 105.731 78.5403 105.043 79.2412C104.149 80.1582 103.347 81.1597 102.648 82.2318C101.948 83.3047 101.358 84.4445 100.884 85.6345C100.525 86.5468 100.362 87.1315 100.331 87.1245Z" fill="#263238"/>
<path d="M101.304 105.917C101.255 105.917 100.839 102.789 100.38 98.9178C99.9215 95.0466 99.5864 91.9011 99.6358 91.8941C99.6852 91.887 100.101 95.022 100.563 98.8967C101.026 102.771 101.354 105.91 101.304 105.917Z" fill="#263238"/>
<g opacity="0.3">
<path d="M81.5802 110.182C83.0828 112.391 84.6488 114.624 86.7863 116.23C88.9238 117.837 91.7596 118.745 94.3168 117.96C95.1271 117.695 95.8946 117.314 96.5954 116.829C97.6077 116.153 98.5918 115.226 98.7364 114.011C98.7723 113.876 98.767 113.733 98.7212 113.6C98.6753 113.468 98.591 113.352 98.4789 113.268C98.3196 113.203 98.143 113.195 97.978 113.243C96.1757 113.596 94.6096 114.85 92.779 114.987C91.8374 115.005 90.899 114.871 89.9996 114.592C86.8251 113.793 83.7529 112.62 81.5802 110.175" fill="black"/>
</g>
<g opacity="0.3">
<path d="M102.736 119.946C103.195 119.393 103.505 118.943 103.935 118.428C104.148 118.162 104.302 117.853 104.387 117.523C104.472 117.141 104.472 116.746 104.387 116.364C103.915 113.099 103.124 109.888 102.027 106.776C101.991 106.709 101.972 106.634 101.972 106.558C101.972 106.481 101.991 106.406 102.027 106.339C102.09 106.279 102.168 106.236 102.253 106.216C102.789 106.05 103.417 105.832 103.95 105.667C104.74 109.541 105.392 113.846 106.168 117.558C106.168 117.509 103.872 119.196 102.736 119.946Z" fill="black"/>
</g>
<g opacity="0.3">
<path d="M65.2529 110.883C63.9802 109.641 62.9356 108.185 62.1666 106.582C61.8265 105.9 61.5729 105.178 61.4118 104.434C61.2671 103.598 61.2174 102.748 61.2636 101.901C61.3394 99.0289 61.7309 96.1738 62.4311 93.3872C62.544 93.5518 62.6143 93.7419 62.6357 93.9402C63.1754 96.8216 62.8473 99.8051 63.2953 102.704C63.4787 103.87 63.7856 105.015 63.976 106.181C64.0499 106.781 64.1618 107.377 64.3111 107.963C64.4698 108.491 64.7097 108.988 64.8755 109.513C65.025 110.01 65.1428 110.516 65.2282 111.028" fill="black"/>
</g>
<path d="M87.2166 130.993L106.168 117.509L103.95 105.674L116.369 99.2627C116.369 99.2627 120.873 118.097 117.896 125.368C116.873 127.861 86.2008 137.612 86.2008 137.612L87.2166 130.993Z" fill="#FFBE9D"/>
<path d="M113.321 116.347C113.321 116.382 112.898 116.223 112.207 116.1C111.801 116.027 111.391 115.986 110.979 115.977C110.477 115.972 109.976 116.011 109.48 116.093C108.985 116.182 108.499 116.315 108.027 116.491C107.642 116.637 107.27 116.812 106.912 117.016C106.306 117.368 105.967 117.653 105.946 117.625C105.925 117.597 106.016 117.537 106.165 117.407C106.378 117.221 106.605 117.052 106.845 116.903C107.201 116.679 107.576 116.488 107.967 116.332C108.926 115.949 109.954 115.771 110.986 115.811C111.406 115.826 111.822 115.88 112.231 115.973C112.507 116.031 112.777 116.112 113.039 116.216C113.139 116.246 113.234 116.29 113.321 116.347Z" fill="#EB996E"/>
<path d="M110.634 113.99C110.38 114.146 110.119 114.288 109.851 114.416C109.371 114.681 108.722 115.082 108.027 115.551C107.431 115.936 106.898 116.412 106.447 116.96C106.115 117.393 105.992 117.713 105.964 117.703C106.026 117.406 106.155 117.126 106.341 116.886C106.772 116.296 107.309 115.79 107.925 115.396C108.519 114.985 109.143 114.618 109.791 114.297C110.054 114.151 110.338 114.048 110.634 113.99Z" fill="#EB996E"/>
<path d="M72.1273 140.091C73.1431 140.091 73.965 140.091 73.965 140.116C73.965 140.141 73.1431 140.141 72.1273 140.141C71.1115 140.141 70.2896 140.141 70.2896 140.116C70.2896 140.091 71.1115 140.091 72.1273 140.091Z" fill="#EB996E"/>
<path d="M74.4235 132.303C74.4235 132.303 39.3916 117.949 33.5788 116.706C27.766 115.462 17.5795 114.849 13.2939 123.398C10.3029 129.358 9.97486 136.431 21.4065 142.455C32.8381 148.478 66.8648 154.061 66.8648 154.061C66.8648 154.061 97.5795 161.729 102.56 159.655C107.54 157.58 114.401 153.233 112.327 144.941C110.253 136.65 110.708 132.377 103.223 131.908C95.837 131.454 94.0241 131.204 86.9979 137.967L74.4235 132.303Z" fill="#263238"/>
<path d="M114.083 128.682C114.083 128.682 120.372 139.179 117.988 145.238C115.603 151.296 109.522 155.245 109.522 155.245L99.3854 133.149L114.083 128.682Z" fill="#263238"/>
<path d="M70.988 147.049L70.8575 146.989L70.5048 146.795C70.1803 146.626 69.7006 146.376 69.0939 146.031C67.8771 145.351 66.1276 144.333 64.0677 142.924C62.0078 141.515 59.6094 139.715 57.038 137.658C55.7506 136.626 54.3927 135.544 53.0065 134.41C51.6203 133.276 50.1847 132.099 48.6363 130.99C47.1359 129.909 45.556 128.944 43.9099 128.101C42.3668 127.33 40.7778 126.653 39.1517 126.076C36.3959 125.112 33.5784 124.334 30.7182 123.748C28.2774 123.233 26.2881 122.895 24.9125 122.659L23.3288 122.388L22.9267 122.314C22.8798 122.308 22.8337 122.298 22.7891 122.282H22.9302L23.3429 122.339L24.9336 122.578C26.3128 122.793 28.3091 123.11 30.757 123.61C33.6284 124.18 36.4569 124.947 39.2222 125.907C40.854 126.481 42.4479 127.158 43.9945 127.932C45.6519 128.775 47.2415 129.744 48.7492 130.831C50.2976 131.944 51.7332 133.124 53.1229 134.262C54.5126 135.4 55.8635 136.481 57.1474 137.513C59.7152 139.581 62.0854 141.388 64.1241 142.797C66.1629 144.206 67.9088 145.263 69.1116 145.967C69.7147 146.319 70.1697 146.58 70.5225 146.76L70.8752 146.968C70.9155 146.991 70.9533 147.018 70.988 147.049Z" fill="#455A64"/>
<path d="M71.4219 146.82C72.921 146.207 68.2263 147.76 66.6673 147.33C64.1982 146.643 62.5158 143.808 59.9409 143.755C58.2831 143.713 56.8617 144.847 55.3097 145.414C53.4086 146.119 51.3099 145.943 49.3135 145.647C47.3171 145.351 45.2925 144.942 43.282 145.157C42.6877 145.173 42.117 145.393 41.6666 145.78C41.4143 146.077 41.2619 146.446 41.2308 146.834C41.1998 147.222 41.2918 147.61 41.4938 147.943C41.9153 148.605 42.5655 149.089 43.3208 149.303C44.0699 149.514 44.8358 149.66 45.61 149.74C49.2077 150.275 52.6114 151.698 56.1457 152.579C59.7928 153.488 63.5528 153.808 67.3057 154.129C67.3022 154.129 67.0447 148.613 71.4219 146.82Z" fill="#FFBE9D"/>
<path d="M103.928 147.042C103.954 147.086 103.974 147.133 103.988 147.182C104.02 147.278 104.077 147.415 104.126 147.598C104.492 148.896 104.552 150.261 104.302 151.585C104.118 152.559 103.742 153.486 103.195 154.312C102.635 155.13 101.9 155.815 101.043 156.316C100.347 156.728 99.5783 157.003 98.7787 157.126C98.2422 157.208 97.6963 157.208 97.1597 157.126C97.0143 157.106 96.8705 157.075 96.7294 157.035C96.6775 157.027 96.6273 157.011 96.5813 156.985C97.3022 157.1 98.0366 157.1 98.7575 156.985C99.5351 156.844 100.281 156.564 100.959 156.158C101.787 155.661 102.498 154.992 103.043 154.196C103.574 153.388 103.946 152.487 104.136 151.54C104.294 150.765 104.346 149.972 104.292 149.183C104.257 148.65 104.178 148.121 104.055 147.602C104.002 147.418 103.96 147.23 103.928 147.042Z" fill="#455A64"/>
<path d="M79.7319 140.12L101.096 130.363L107.904 131.786L108.2 132.515L83.2309 142.515L79.7319 141.673V140.12Z" fill="white"/>
<path d="M101.689 131.264L79.7319 141.673L86.9379 143.406L109.635 132.793L101.689 131.264Z" fill="#455A64"/>
<path d="M71.4219 146.819C71.4219 146.819 82.7089 139.126 85.6752 137.59C88.6416 136.054 104.369 132.458 108.299 134.092C112.228 135.727 96.5813 149.746 96.5813 149.746L71.4219 146.819Z" fill="#263238"/>
<path d="M94.3979 140.641L94.3168 140.613L94.077 140.511L93.1599 140.109C92.0475 139.601 90.8978 139.178 89.7209 138.844C88.9094 138.621 88.0752 138.49 87.2342 138.453C86.7631 138.436 86.2914 138.456 85.8234 138.513C85.3322 138.582 84.8474 138.69 84.3737 138.837C82.4161 139.433 80.5467 140.739 78.6209 142.103C76.695 143.466 74.741 144.649 73.0373 145.766C72.1767 146.323 71.3655 146.865 70.6212 147.39C69.9143 147.844 69.2993 148.427 68.8083 149.109C68.4149 149.68 68.0972 150.299 67.863 150.951C67.6478 151.525 67.5102 152.036 67.3903 152.455C67.2704 152.874 67.2034 153.184 67.1399 153.42C67.1152 153.522 67.094 153.603 67.0764 153.67C67.0698 153.699 67.0603 153.728 67.0482 153.755C67.0435 153.726 67.0435 153.696 67.0482 153.667C67.0482 153.6 67.0764 153.515 67.094 153.413C67.1399 153.188 67.2069 152.857 67.3092 152.438C67.4115 152.018 67.549 151.501 67.7536 150.916C67.9814 150.251 68.2957 149.618 68.6883 149.035C69.1859 148.34 69.8077 147.743 70.5225 147.274C71.2667 146.745 72.0744 146.196 72.9351 145.636C74.6493 144.509 76.5716 143.325 78.5045 141.962C80.4374 140.599 82.3174 139.285 84.3137 138.686C84.7966 138.538 85.2909 138.431 85.7916 138.365C86.2598 138.31 86.7315 138.293 87.2025 138.313C88.0543 138.354 88.8983 138.495 89.7174 138.732C90.8972 139.076 92.0463 139.518 93.1529 140.053C93.5444 140.236 93.8583 140.384 94.0523 140.486L94.2851 140.606C94.3733 140.623 94.4015 140.637 94.3979 140.641Z" fill="#455A64"/>
<path d="M96.2286 140.025C96.2074 140.049 95.9111 139.76 95.3397 139.447C94.5902 139.047 93.7714 138.794 92.9271 138.7C92.0797 138.601 91.2253 138.575 90.3734 138.623C90.0218 138.656 89.6684 138.668 89.3153 138.658C89.6605 138.562 90.0155 138.507 90.3734 138.492C91.2336 138.408 92.1004 138.416 92.9589 138.517C93.8306 138.611 94.6722 138.89 95.4279 139.334C95.6519 139.471 95.8622 139.629 96.0557 139.806C96.1721 139.936 96.2356 140.014 96.2286 140.025Z" fill="#455A64"/>
<path d="M110.986 135.544C110.986 135.544 110.757 135.396 110.351 135.125C109.765 134.759 109.141 134.459 108.489 134.23C107.52 133.9 106.512 133.696 105.491 133.624C104.239 133.532 102.98 133.566 101.735 133.723C100.412 133.885 99.1526 134.128 98.0133 134.343C96.8741 134.558 95.8512 134.787 94.9976 134.987C94.144 135.188 93.4527 135.34 92.9765 135.477L92.4122 135.614C92.3492 135.634 92.284 135.646 92.2182 135.65C92.2769 135.62 92.3383 135.597 92.4016 135.579C92.525 135.537 92.7049 135.477 92.9412 135.407C93.4139 135.266 94.0982 135.075 94.9517 134.861C95.8053 134.646 96.8282 134.41 97.9675 134.177C99.1068 133.945 100.362 133.705 101.699 133.54C102.957 133.383 104.227 133.355 105.491 133.455C106.525 133.537 107.544 133.756 108.521 134.107C109.176 134.351 109.798 134.672 110.376 135.065C110.577 135.206 110.729 135.333 110.828 135.417C110.926 135.502 110.99 135.537 110.986 135.544Z" fill="#455A64"/>
<path d="M57.0451 109.027C57.0451 109.027 58.9392 123.268 59.7011 125.533C60.4629 127.798 66.4521 136.079 66.4521 136.079L74.4235 132.303L69.0904 122.282L65.408 110.957L57.0451 109.027Z" fill="#FFBE9D"/>
<path d="M74.1026 131.782C74.7921 131.677 75.4909 131.645 76.1871 131.687C76.453 131.682 76.7145 131.755 76.9384 131.898C77.0664 132.007 77.1718 132.14 77.2488 132.289C77.6491 133.003 77.8683 133.804 77.8872 134.621C77.9052 134.776 77.8677 134.932 77.7814 135.062C77.6086 135.262 77.2806 135.202 77.0372 135.097C76.6936 134.949 76.3747 134.75 76.0919 134.505C75.7197 134.165 75.384 133.787 75.0902 133.378L74.7763 132.973L73.9897 131.948" fill="#EB996E"/>
<path d="M71.2208 125.636C71.8028 127.126 73.5629 131.849 73.5629 131.849L74.7762 133.181L72.0286 125.34C71.9916 125.237 71.9174 125.152 71.8206 125.102C71.7239 125.052 71.6117 125.04 71.5065 125.068C71.4489 125.085 71.3953 125.113 71.3492 125.15C71.303 125.188 71.2653 125.236 71.2384 125.289C71.2115 125.342 71.1961 125.401 71.193 125.46C71.19 125.52 71.1995 125.58 71.2208 125.636Z" fill="#E0E0E0"/>
<path d="M69.7041 132.257C69.7041 132.257 68.0005 132.388 67.5243 132.884C67.0482 133.381 66.893 134.892 66.893 134.892C66.893 134.892 65.916 136.27 66.4344 137.471C66.4344 137.471 65.6161 139.362 66.2828 139.993C66.5598 140.289 66.881 140.541 67.2351 140.74H74.9244L77.9683 136.079L74.9244 133.173C74.9244 133.173 73.0197 130.355 71.9933 130.25C70.9669 130.144 68.8964 130.355 69.7041 132.257Z" fill="#FFBE9D"/>
<path d="M69.7041 132.258C69.7041 132.258 69.6794 132.205 69.6442 132.117C69.5853 131.986 69.5438 131.849 69.5207 131.708C69.4701 131.472 69.4947 131.225 69.5913 131.004C69.7382 130.714 69.9906 130.491 70.2967 130.38C70.67 130.24 71.0655 130.168 71.4642 130.169C71.6926 130.155 71.9219 130.174 72.1449 130.225C72.3769 130.304 72.5931 130.423 72.7834 130.577C73.627 131.335 74.3681 132.2 74.9879 133.149L78.0389 136.048L78.0882 136.097L78.0494 136.157L75.0125 140.821L74.9879 140.863H74.5328H67.2457H67.2139C66.9104 140.686 66.6297 140.474 66.378 140.229C66.2374 140.118 66.125 139.976 66.05 139.813C65.9877 139.653 65.9554 139.482 65.9547 139.31C65.9762 138.681 66.1199 138.062 66.378 137.488V137.545C66.1979 137.081 66.1756 136.571 66.3145 136.094C66.4264 135.669 66.6088 135.267 66.8542 134.903V134.931C66.9089 134.303 67.0775 133.689 67.3515 133.121C67.4192 133 67.5104 132.895 67.6196 132.811C67.7227 132.741 67.8326 132.682 67.9476 132.635C68.1468 132.557 68.3521 132.496 68.5613 132.451C68.8466 132.39 69.1351 132.346 69.4255 132.317L69.6477 132.3C69.6732 132.294 69.6998 132.294 69.7253 132.3H69.6512L69.429 132.332C69.2315 132.363 68.9423 132.406 68.5754 132.497C68.3717 132.545 68.1723 132.61 67.9793 132.691C67.8701 132.737 67.766 132.795 67.669 132.863C67.5722 132.942 67.4918 133.039 67.4326 133.149C67.1756 133.71 67.0203 134.312 66.9741 134.928C66.7407 135.281 66.5679 135.67 66.4627 136.079C66.3382 136.53 66.363 137.008 66.5332 137.443V137.471V137.499C66.288 138.055 66.1527 138.653 66.1346 139.26C66.1358 139.413 66.1645 139.565 66.2193 139.708C66.2873 139.846 66.3863 139.966 66.5085 140.06C66.7477 140.288 67.0128 140.488 67.2986 140.655H67.2669H74.554H74.9561L74.882 140.697L77.926 136.041V136.15L74.8891 133.24C74.2831 132.313 73.5613 131.467 72.741 130.722C72.5651 130.57 72.3632 130.45 72.1449 130.37C71.9336 130.32 71.7164 130.3 71.4995 130.31C71.1128 130.304 70.7281 130.367 70.3637 130.496C70.0724 130.593 69.8289 130.797 69.683 131.067C69.5864 131.274 69.5556 131.505 69.5948 131.729C69.6137 131.872 69.6468 132.012 69.6936 132.148C69.699 132.185 69.7025 132.221 69.7041 132.258Z" fill="#EB996E"/>
<path d="M73.3089 138.468C72.9757 138.472 72.6428 138.446 72.3143 138.39C72.0109 138.351 71.6512 138.309 71.2561 138.249C70.8008 138.199 70.3703 138.017 70.0181 137.724C69.3727 137.239 68.7929 136.672 68.2933 136.037C68.0748 135.785 67.892 135.504 67.7501 135.202C67.7748 135.185 67.9935 135.495 68.3956 135.956C68.9153 136.556 69.4956 137.1 70.1274 137.58C70.3012 137.719 70.4906 137.837 70.6918 137.932C70.8826 138.008 71.0813 138.063 71.2843 138.094L72.3425 138.27C72.6699 138.307 72.9933 138.373 73.3089 138.468Z" fill="#EB996E"/>
<path d="M72.9879 140.451C72.6737 140.526 72.3517 140.563 72.0286 140.563C71.6754 140.581 71.3214 140.568 70.9704 140.525C70.5374 140.468 70.1167 140.341 69.7253 140.148C69.0312 139.785 68.4029 139.309 67.8665 138.739C67.6284 138.522 67.4144 138.279 67.2281 138.017C67.488 138.205 67.7311 138.416 67.9547 138.647C68.5067 139.176 69.13 139.625 69.8064 139.982C70.4997 140.302 71.2581 140.457 72.0215 140.433C72.3436 140.414 72.6667 140.42 72.9879 140.451Z" fill="#EB996E"/>
<path d="M74.3424 136.506C74.0725 136.414 73.8162 136.286 73.5805 136.126C72.9919 135.77 72.4349 135.365 71.9157 134.914C71.3976 134.462 70.9186 133.967 70.4837 133.434C70.2903 133.223 70.1265 132.986 69.9969 132.73C70.0428 132.695 70.8293 133.734 72.0356 134.773C73.2419 135.812 74.3741 136.457 74.3424 136.506Z" fill="#EB996E"/>
<path d="M57.0451 142.828V140.12H79.7319V140.993V141.173L76.5539 143.406L57.0451 142.828Z" fill="white"/>
<path d="M76.1342 143.604H55.3485V142.515H77.7673L76.1342 143.604Z" fill="#455A64"/>
<path d="M83.573 131.832C83.3296 131.881 78.2822 132.744 78.2822 132.744L74.6775 137.066V140.12C74.6775 140.12 75.7815 140.764 76.3105 139.803C76.3105 139.803 75.203 142.927 75.6369 143.382C76.0707 143.836 76.7691 144.22 77.3687 143.382C77.9683 142.543 78.8113 140.476 78.8113 140.476L78.9559 141.761C78.9559 141.761 81.9858 140.282 82.3209 139.852C82.6559 139.422 84.6312 136.587 84.6312 136.587L85.5447 135.77L84.6312 137.21C84.6312 137.21 82.9946 138.94 83.6682 139.274C84.3419 139.609 85.5447 138.362 85.5447 138.362L87.4176 136.203L89.0049 136.009C89.0463 134.963 88.9658 133.916 88.765 132.888C88.6557 132.219 87.5164 130.873 87.6293 130.736V130.711L83.573 131.832Z" fill="#FFBE9D"/>
<path d="M79.3792 134.121C79.188 134.387 78.9806 134.641 78.7584 134.882C78.2565 135.486 77.7856 136.115 77.3475 136.766C77.1536 137.146 77.0214 137.554 76.956 137.975C76.8537 138.366 76.7373 138.711 76.6351 138.996C76.5401 139.311 76.4124 139.616 76.2541 139.905C76.3147 139.583 76.4008 139.266 76.5116 138.957C76.5998 138.665 76.6985 138.32 76.7938 137.932C76.8432 137.739 76.882 137.538 76.9278 137.319C76.9759 137.089 77.0655 136.87 77.1924 136.671C77.6338 136.009 78.1268 135.382 78.6667 134.797C78.8747 134.543 79.1141 134.316 79.3792 134.121Z" fill="#EB996E"/>
<path d="M81.9364 134.839C81.9364 134.839 81.8764 134.917 81.7565 135.044L81.2592 135.593C81.0511 135.826 80.8042 136.104 80.5537 136.421C80.4197 136.579 80.2821 136.745 80.1446 136.921C79.9923 137.088 79.8726 137.281 79.7919 137.492C79.3616 138.947 78.9912 140.201 78.836 140.613L78.7902 140.722V140.609C78.7902 140.482 78.7902 140.419 78.7902 140.419C78.7902 140.419 78.8219 140.475 78.8536 140.599H78.7972C78.8854 140.162 79.1993 138.911 79.6367 137.428C79.6742 137.304 79.7288 137.185 79.7989 137.076C79.8659 136.977 79.9365 136.886 80.007 136.794C80.1481 136.615 80.2927 136.442 80.4268 136.294C80.7019 135.984 80.9594 135.713 81.1816 135.491C81.3983 135.236 81.6529 135.017 81.9364 134.839Z" fill="#EB996E"/>
<path d="M83.2415 135.749C83.1069 135.99 82.9383 136.21 82.7407 136.404L82.1551 137.069C82.0407 137.198 81.9335 137.334 81.8342 137.475C81.7368 137.626 81.6564 137.788 81.5943 137.957C81.4638 138.309 81.3792 138.662 81.2839 138.993C81.1887 139.324 81.1111 139.584 81.0335 139.849C80.9704 140.117 80.8769 140.377 80.7548 140.624C80.7768 140.349 80.8276 140.077 80.9065 139.813C80.9735 139.546 81.0441 139.257 81.1217 138.95C81.2035 138.593 81.3036 138.241 81.4215 137.894C81.4882 137.71 81.577 137.535 81.686 137.372C81.7945 137.226 81.9123 137.088 82.0387 136.957C82.2645 136.71 82.4761 136.495 82.656 136.316C82.837 136.113 83.0327 135.923 83.2415 135.749Z" fill="#EB996E"/>
<path d="M89.1707 135.808L89.0578 135.843L88.7262 135.928L87.4247 136.234L86.5358 137.291L85.9997 137.914C85.8093 138.152 85.6055 138.379 85.3895 138.594C85.1453 138.826 84.8755 139.029 84.5853 139.2C84.4286 139.293 84.2584 139.36 84.0809 139.401C83.9822 139.427 83.8787 139.429 83.7792 139.406C83.6796 139.383 83.5871 139.337 83.5095 139.271C83.4749 139.228 83.4497 139.178 83.4357 139.124C83.4217 139.071 83.4192 139.015 83.4284 138.961C83.4392 138.86 83.4653 138.761 83.506 138.668C83.5849 138.485 83.6818 138.311 83.7952 138.147C84.0263 137.808 84.2821 137.487 84.5606 137.185L85.4671 135.745L85.5835 135.84L84.67 136.657L82.536 139.718C82.4866 139.785 82.4478 139.852 82.3914 139.922C82.3285 139.987 82.26 140.046 82.1868 140.098C82.0493 140.197 81.9082 140.289 81.7636 140.377C81.4743 140.553 81.1745 140.729 80.8747 140.884C80.2716 141.211 79.6508 141.528 79.0124 141.842L78.8995 141.898V141.772C78.8537 141.366 78.8043 140.93 78.7514 140.486L78.9277 140.51C78.6879 141.085 78.4304 141.666 78.1447 142.251C78.0001 142.539 77.8519 142.832 77.6826 143.114C77.5235 143.428 77.2791 143.692 76.9772 143.874C76.8681 143.928 76.7494 143.958 76.6281 143.964C76.5068 143.97 76.3856 143.952 76.2718 143.91C76.0544 143.828 75.8563 143.702 75.6898 143.54C75.6452 143.5 75.6039 143.456 75.5663 143.409C75.5302 143.352 75.5051 143.289 75.4922 143.223C75.4708 143.107 75.4637 142.988 75.4711 142.871C75.4847 142.65 75.513 142.432 75.5557 142.215C75.7349 141.384 75.9706 140.566 76.2612 139.767L76.4234 139.838C76.3451 139.991 76.2306 140.122 76.0899 140.221C75.9491 140.32 75.7864 140.383 75.6157 140.405C75.2852 140.428 74.9552 140.353 74.6669 140.19L74.621 140.165V140.112C74.621 139.056 74.621 138.045 74.621 137.058V137.023L74.6387 137.002L78.254 132.687L78.2717 132.666H78.2999L83.5907 131.775L86.6029 130.965L87.4035 130.757L87.6081 130.708C87.6293 130.708 87.654 130.708 87.6645 130.708V130.729C87.6928 130.69 87.5905 130.729 87.4141 130.785L86.6205 131.017L83.5942 131.88L78.3034 132.814L78.3493 132.789L74.7515 137.118V137.066C74.7515 138.052 74.7515 139.07 74.7515 140.119L74.7057 140.046C74.9619 140.187 75.253 140.253 75.5452 140.236C75.6878 140.217 75.8237 140.164 75.9411 140.081C76.0585 139.999 76.1539 139.888 76.2188 139.76L76.3811 139.834C76.1001 140.626 75.8716 141.436 75.6968 142.258C75.6559 142.465 75.6288 142.674 75.6157 142.885C75.609 142.985 75.6149 143.085 75.6333 143.184C75.6508 143.274 75.7027 143.354 75.7779 143.406C75.9065 143.569 76.0839 143.688 76.2844 143.743C76.4848 143.799 76.6979 143.79 76.8925 143.716C77.1576 143.541 77.3698 143.298 77.5063 143.011C77.672 142.733 77.8202 142.444 77.9648 142.159C78.247 141.581 78.5045 141 78.7408 140.429L78.8748 140.105L78.9171 140.458C78.9665 140.901 79.0124 141.342 79.0582 141.747L78.9312 141.676C79.5661 141.362 80.1846 141.044 80.7865 140.722C81.0864 140.56 81.3826 140.394 81.6683 140.222C81.8094 140.137 81.9505 140.046 82.081 139.95C82.1446 139.909 82.2027 139.859 82.2539 139.802C82.3032 139.746 82.3491 139.672 82.3985 139.605L84.5783 136.534L85.4918 135.72L85.901 135.368L85.6082 135.826L84.6911 137.266C84.4162 137.56 84.1628 137.873 83.9328 138.203C83.8265 138.361 83.7333 138.527 83.6541 138.7C83.5871 138.862 83.5377 139.052 83.633 139.168C83.6966 139.218 83.7706 139.252 83.8495 139.269C83.9283 139.285 84.0099 139.283 84.088 139.264C84.252 139.224 84.4098 139.162 84.5571 139.08C84.8402 138.915 85.104 138.719 85.3437 138.496C85.5601 138.286 85.7638 138.064 85.9539 137.83L86.497 137.213L87.4035 136.185L88.7121 135.91L89.0472 135.843L89.1707 135.808Z" fill="#EB996E"/>
<path d="M63.3482 57.2929C62.531 56.6883 61.9037 55.8633 61.54 54.9148C61.1764 53.9663 61.0915 52.9338 61.2953 51.9388C61.3712 51.7234 61.3712 51.4885 61.2953 51.2731C61.1817 51.115 61.025 50.9927 60.8439 50.9208C60.3672 50.6732 59.9464 50.3307 59.6073 49.9146C59.2682 49.4984 59.018 49.0173 58.8722 48.5009C58.7336 47.9823 58.7343 47.4364 58.8742 46.9182C59.0142 46.4 59.2884 45.9278 59.6693 45.5491C58.1103 44.9961 57.4507 42.8967 58.1879 41.4137C58.9251 39.9308 60.7275 39.1664 62.3711 39.3602C61.8068 38.5253 62.0537 37.3242 62.7238 36.5774C63.394 35.8307 64.4063 35.4643 65.401 35.2812C66.7378 35.0381 68.3426 35.1931 69.108 36.3168C69.1786 35.489 70.011 34.9289 70.8223 34.7317C71.9172 34.501 73.0588 34.6813 74.029 35.2382C74.9991 35.7951 75.7298 36.6895 76.0813 37.7504C76.7442 37.2022 77.5615 36.8735 78.4198 36.8099C79.2734 36.8099 80.1834 37.3277 80.3668 38.159C80.7195 37.3982 81.6472 37.1023 82.4831 37.0107C83.086 36.9251 83.7007 37.0233 84.2467 37.2925C84.5171 37.4325 84.7377 37.6524 84.8785 37.9222C85.0192 38.192 85.0733 38.4985 85.0333 38.8001C85.5911 38.5679 86.2166 38.5569 86.7823 38.7694C87.348 38.9818 87.8112 39.4018 88.0775 39.9436C88.3438 40.4854 88.3932 41.1082 88.2155 41.6851C88.0378 42.262 87.6465 42.7495 87.1214 43.0482C87.5722 43.299 87.951 43.6613 88.2216 44.1002C88.4921 44.5391 88.6454 45.0401 88.6666 45.5551C88.6878 46.0701 88.5764 46.5819 88.3429 47.0415C88.1094 47.5012 87.7617 47.8933 87.333 48.1804C87.8409 48.2226 88.0949 48.9095 87.8691 49.3674C87.7331 49.5846 87.5473 49.7666 87.3272 49.8982C87.1071 50.0298 86.8589 50.1075 86.6029 50.1247C86.8074 51.8742 87.0097 53.6249 87.2095 55.3767C87.3987 56.4988 87.4082 57.6438 87.2378 58.7688C87.012 59.8819 86.3595 60.9703 85.319 61.4318" fill="#263238"/>
<path d="M62.7838 52.2347C62.5228 47.976 66.5544 43.189 70.8258 43.1045L84.8252 43.9957L85.065 46.2747L88.3241 75.6695L73.0832 84.3558L72.1485 73.2918C72.1485 73.2918 66.632 73.0699 64.6285 66.1659C63.6339 62.7315 63.0907 56.9688 62.7838 52.2347Z" fill="#FFBE9D"/>
<path d="M65.0306 57.3915C65.0582 57.6275 65.1768 57.8433 65.3612 57.9933C65.5456 58.1433 65.7813 58.2155 66.0182 58.1947C66.1346 58.1893 66.2487 58.1608 66.3538 58.1106C66.4589 58.0605 66.5529 57.9898 66.6301 57.9028C66.7074 57.8158 66.7664 57.7142 66.8037 57.604C66.841 57.4938 66.8557 57.3772 66.8471 57.2612C66.8204 57.0256 66.7026 56.8097 66.5187 56.6597C66.3349 56.5096 66.0996 56.4373 65.863 56.4581C65.7467 56.4639 65.6327 56.4928 65.5277 56.543C65.4226 56.5933 65.3286 56.6639 65.2511 56.7508C65.1737 56.8376 65.1143 56.939 65.0764 57.049C65.0386 57.159 65.023 57.2755 65.0306 57.3915Z" fill="#263238"/>
<path d="M64.4204 55.0666C64.5474 55.1723 65.1682 54.5805 66.1417 54.4608C67.1152 54.341 67.9053 54.739 67.9829 54.6052C68.0287 54.5488 67.8877 54.348 67.5455 54.1613C67.0888 53.9212 66.5683 53.8301 66.057 53.9007C65.5494 53.96 65.0745 54.1811 64.7026 54.5312C64.4345 54.7954 64.3569 55.0208 64.4204 55.0666Z" fill="#263238"/>
<path d="M73.7428 56.6836C73.7695 56.9189 73.8874 57.1344 74.0714 57.2839C74.2554 57.4334 74.4907 57.5049 74.7269 57.4832C74.8432 57.4783 74.9574 57.4501 75.0626 57.4004C75.1679 57.3507 75.2621 57.2804 75.3397 57.1937C75.4173 57.107 75.4767 57.0057 75.5144 56.8957C75.5521 56.7857 75.5674 56.6692 75.5593 56.5532C75.5317 56.3173 75.4131 56.1014 75.2287 55.9515C75.0443 55.8015 74.8086 55.7293 74.5717 55.7501C74.4555 55.7559 74.3416 55.7848 74.2367 55.8351C74.1319 55.8854 74.0381 55.9561 73.9609 56.043C73.8837 56.1299 73.8247 56.2313 73.7872 56.3413C73.7498 56.4513 73.7347 56.5677 73.7428 56.6836Z" fill="#263238"/>
<path d="M74.0108 54.2672C74.1378 54.3693 74.7621 53.7775 75.7356 53.6578C76.7091 53.538 77.4816 53.9361 77.5733 53.8057C77.6192 53.7458 77.4781 53.5486 77.1359 53.3619C76.6796 53.1206 76.1591 53.0282 75.6475 53.0977C75.1413 53.1585 74.6679 53.3794 74.2966 53.7282C74.025 53.9959 73.9509 54.2214 74.0108 54.2672Z" fill="#263238"/>
<path d="M71.3831 61.7031C71.3831 61.6502 70.7623 61.6185 69.7641 61.6185C69.5137 61.6185 69.2703 61.6009 69.2068 61.4389C69.1572 61.1846 69.183 60.9214 69.2809 60.6816C69.4396 60.051 69.6054 59.3923 69.7818 58.6984C70.466 55.8805 70.9246 53.5768 70.8117 53.5486C70.6988 53.5204 70.0534 55.7854 69.3691 58.6068C69.2068 59.3113 69.0481 59.963 68.9035 60.5935C68.7836 60.9126 68.7836 61.2642 68.9035 61.5833C68.9498 61.6665 69.0145 61.738 69.0928 61.7924C69.1711 61.8467 69.2607 61.8824 69.355 61.8968C69.4979 61.9142 69.6424 61.9142 69.7853 61.8968C70.7729 61.8334 71.3831 61.7594 71.3831 61.7031Z" fill="#263238"/>
<path d="M72.1485 73.2922C75.4764 72.9289 78.6378 71.6497 81.2803 69.5972C81.2803 69.5972 79.3898 74.8315 72.2472 75.0534L72.1485 73.2922Z" fill="#EB996E"/>
<path d="M72.085 63.996C72.2411 63.74 72.46 63.5279 72.7211 63.38C72.9822 63.232 73.2768 63.1531 73.577 63.1506C73.7942 63.1421 74.011 63.1777 74.214 63.2552C74.4171 63.3327 74.6024 63.4505 74.7586 63.6015C74.9088 63.748 75.0105 63.9368 75.0503 64.1427C75.09 64.3486 75.0657 64.5616 74.9808 64.7534C74.8456 64.9472 74.6556 65.0963 74.435 65.1816C74.2145 65.2669 73.9734 65.2846 73.7428 65.2324C73.263 65.1273 72.8087 64.9286 72.406 64.6477C72.286 64.5841 72.1794 64.4979 72.0921 64.3941C72.0523 64.3454 72.0272 64.2865 72.0197 64.2241C72.0122 64.1617 72.0226 64.0985 72.0497 64.0418" fill="#EB996E"/>
<path d="M74.3318 62.0202C74.1695 62.0202 74.3 63.0769 73.4888 63.947C72.6775 64.817 71.5418 64.8346 71.5524 64.9826C71.5524 65.0495 71.8275 65.1552 72.3037 65.1094C72.9233 65.0408 73.499 64.7565 73.9297 64.3062C74.3427 63.8722 74.5715 63.2953 74.5681 62.6965C74.554 62.2527 74.4023 61.9955 74.3318 62.0202Z" fill="#263238"/>
<path d="M73.2842 50.8287C73.4112 51.0824 74.3671 50.8287 75.5275 50.8287C76.688 50.8287 77.6438 51.019 77.7708 50.7653C77.8237 50.6421 77.6332 50.4131 77.2276 50.2053C76.6944 49.9458 76.1063 49.8189 75.5134 49.8354C74.9202 49.8373 74.336 49.981 73.8098 50.2546C73.4112 50.4765 73.2278 50.7231 73.2842 50.8287Z" fill="#263238"/>
<path d="M64.4275 52.2104C64.625 52.4111 65.2669 52.0976 66.0711 51.9849C66.8753 51.8722 67.5808 51.9462 67.7078 51.6961C67.7642 51.5763 67.6266 51.3685 67.3021 51.1959C66.8708 50.9911 66.387 50.9234 65.9159 51.0022C65.4438 51.0688 65.0045 51.282 64.6603 51.6115C64.4028 51.8722 64.3358 52.1117 64.4275 52.2104Z" fill="#263238"/>
<path d="M64.6885 43.756C64.5408 44.4305 64.5992 45.1337 64.8561 45.7747C65.1131 46.4156 65.5568 46.9648 66.1298 47.3511C66.7028 47.7374 67.3787 47.943 68.0701 47.9414C68.7614 47.9397 69.4363 47.7309 70.0075 47.3419C69.5948 47.8456 69.7747 48.6593 70.265 49.1031C70.7886 49.5061 71.45 49.6871 72.1062 49.6068C72.7925 49.5595 73.4606 49.3652 74.065 49.037C74.6694 48.7087 75.1959 48.2543 75.6087 47.7047C75.7459 48.2382 76.0077 48.7318 76.3726 49.1449C76.7375 49.5581 77.1951 49.8791 77.708 50.0818C78.2209 50.2845 78.7746 50.3631 79.3238 50.3112C79.8729 50.2592 80.402 50.0782 80.8677 49.7829C80.547 50.1665 80.3208 50.6197 80.2071 51.1063C80.0935 51.593 80.0956 52.0994 80.2132 52.585C80.3309 53.0707 80.5609 53.5221 80.8847 53.903C81.2086 54.2839 81.6173 54.5837 82.0781 54.7784C82.5389 54.9731 83.0389 55.0573 83.5382 55.0242C84.0374 54.9911 84.522 54.8417 84.9529 54.5878C85.3839 54.334 85.7494 53.9829 86.02 53.5626C86.2906 53.1423 86.4588 52.6645 86.5112 52.1676C86.9862 51.8906 87.3909 51.5079 87.6939 51.0494C87.9969 50.5909 88.19 50.0688 88.2582 49.5237C88.3264 48.9786 88.2679 48.4251 88.0873 47.9062C87.9067 47.3873 87.6087 46.917 87.2166 46.5317C87.5501 46.3582 87.8322 46.1003 88.0346 45.7838C88.237 45.4674 88.3526 45.1033 88.37 44.7282C88.3941 43.9749 88.2215 43.2284 87.8691 42.5619C87.0861 40.9064 85.7211 39.4586 83.9892 38.8915C82.2574 38.3244 80.1093 38.7859 78.9983 40.2336C78.8943 40.4149 78.7348 40.5581 78.5433 40.6422C78.403 40.6579 78.2609 40.6399 78.129 40.5897C77.9971 40.5394 77.8791 40.4584 77.7849 40.3533C76.8114 39.5573 75.7956 38.6943 74.5505 38.5146C73.795 38.4253 73.0314 38.593 72.3831 38.9906C71.7347 39.3881 71.2395 39.9923 70.9775 40.7056C69.9581 39.3671 68.0429 38.6731 66.4909 39.3318C64.9389 39.9905 64.1312 42.1216 65.08 43.5165" fill="#263238"/>
<path d="M83.1462 53.4079C83.3974 54.8306 83.8511 56.2102 84.4936 57.5045C84.7652 58.054 85.1638 58.6493 85.774 58.7092C86.054 58.7094 86.3268 58.6203 86.5526 58.4549C86.7784 58.2896 86.9456 58.0566 87.0296 57.7898C87.1837 57.2522 87.2043 56.6852 87.0896 56.1378C86.7686 54.1881 86.3184 52.2618 85.7422 50.3716" fill="#263238"/>
<path d="M84.8851 54.8763C84.9662 54.8235 88.2889 53.1926 88.7968 56.7784C89.3047 60.3643 85.5941 60.1353 85.5729 60.0332C85.5518 59.931 84.8851 54.8763 84.8851 54.8763Z" fill="#FFBE9D"/>
<path d="M86.4794 58.5183C86.4794 58.5183 86.5464 58.5535 86.6593 58.5887C86.8171 58.6302 86.9849 58.61 87.1284 58.5324C87.4811 58.3386 87.721 57.6905 87.6469 57.0424C87.6139 56.7335 87.5114 56.4361 87.3471 56.1723C87.2973 56.0651 87.2222 55.9716 87.1282 55.8998C87.0342 55.828 86.9241 55.7801 86.8074 55.7602C86.7319 55.7499 86.6552 55.7665 86.5907 55.8071C86.5262 55.8477 86.478 55.9097 86.4547 55.9821C86.423 56.0913 86.4547 56.1583 86.4547 56.1688C86.4547 56.1794 86.37 56.1195 86.3771 55.9645C86.3848 55.8734 86.4234 55.7877 86.4864 55.7215C86.5296 55.6772 86.5811 55.6419 86.638 55.6177C86.6949 55.5935 86.7561 55.5809 86.818 55.5806C86.97 55.5886 87.1174 55.6355 87.2459 55.717C87.3744 55.7984 87.4797 55.9116 87.5517 56.0455C87.7467 56.3348 87.8678 56.6674 87.9044 57.0142C87.982 57.7398 87.7069 58.469 87.1989 58.6909C87.1077 58.7351 87.0076 58.7581 86.9062 58.7581C86.8048 58.7581 86.7047 58.7351 86.6134 58.6909C86.497 58.6063 86.4653 58.5289 86.4794 58.5183Z" fill="#EB996E"/>
<path d="M65.5668 60.9036C64.7097 60.9036 63.6409 60.8437 63.2917 60.5514C62.7768 60.1392 62.1101 58.4766 61.5281 56.9021C61.4541 56.7013 61.4047 56.5499 61.3871 56.5287L61.6939 56.3561C61.7151 56.3949 61.7433 56.4653 61.8597 56.7788C62.1736 57.6242 63.0025 59.8715 63.5104 60.2731C64.11 60.7521 68.6742 60.5021 69.0622 60.1428C69.2985 59.8927 69.6936 57.751 69.8982 56.3103L69.9193 56.18L71.7147 55.9158L71.7746 56.0285C72.2296 56.9338 73.5911 59.3678 74.4341 59.7518C75.4923 60.2308 79.3263 59.4946 79.5767 59.0473C79.7919 58.6669 80.2116 56.1765 80.4409 54.5949L80.4621 54.454L85.9892 54.0454L86.0138 54.3977L80.7725 54.8098C80.6561 55.5918 80.1799 58.7267 79.8871 59.2445C79.4921 59.949 75.3582 60.576 74.293 60.0899C73.2278 59.6038 71.824 56.9197 71.5207 56.3174L70.2332 56.5076C70.1168 57.3213 69.7006 60.0054 69.3197 60.4034C68.9388 60.8015 66.6743 60.8754 66.4133 60.886C66.1523 60.8966 65.8983 60.9036 65.5668 60.9036Z" fill="#455A64"/>
<path d="M71.8875 56.532L71.4677 55.9649C73.7075 54.3164 77.8837 53.2526 80.7337 54.415L80.4691 55.0666C77.9295 54.031 73.9826 54.9892 71.8875 56.532Z" fill="#455A64"/>
<path d="M61.6445 56.8771L61.2918 56.2571C64.0571 54.7671 67.8206 54.7108 70.2403 56.1268L69.8876 56.7326C67.7219 55.4575 64.1665 55.5174 61.6445 56.8771Z" fill="#455A64"/>
<path d="M87.661 56.7824C87.466 56.6657 87.2429 56.604 87.0156 56.604C86.7882 56.604 86.5651 56.6657 86.3701 56.7824C86.2428 56.8788 86.1465 57.0102 86.0928 57.1604C86.0392 57.3107 86.0305 57.4733 86.0679 57.6284C86.1054 57.7835 86.1872 57.9244 86.3035 58.0337C86.4198 58.1431 86.5655 58.2162 86.7228 58.2442C86.8879 58.2474 87.0513 58.2784 87.206 58.3358C87.2817 58.3863 87.3439 58.4543 87.3875 58.534C87.4311 58.6138 87.4548 58.7029 87.4565 58.7937C87.4583 58.9759 87.4405 59.1577 87.4036 59.3361C87.3385 59.7533 87.3626 60.1794 87.4741 60.5866C87.4984 60.7052 87.5588 60.8135 87.6469 60.8966C87.7296 60.957 87.8302 60.988 87.9326 60.9846C88.0895 60.9781 88.2425 60.9341 88.3787 60.8562C88.515 60.7784 88.6305 60.669 88.7157 60.5373C88.8851 60.2736 88.9925 59.9749 89.0296 59.6637C89.1101 59.1829 89.1219 58.6931 89.0649 58.209C89.0459 57.9107 88.9512 57.6222 88.7897 57.3706C88.5111 56.9867 87.4388 56.6661 86.9662 56.6203" fill="#263238"/>
<path d="M75.6933 46.9583C75.6933 46.9583 75.658 46.9794 75.5875 47.0005L75.2595 47.0957C74.8419 47.1995 74.413 47.2516 73.9826 47.2506C73.674 47.247 73.367 47.2044 73.0691 47.1238C72.712 47.0315 72.3781 46.8659 72.0885 46.6377C71.7593 46.3733 71.5002 46.0322 71.3337 45.6444C71.1445 45.2085 71.1219 44.7185 71.2702 44.2671L71.4007 44.3517C70.6358 45.0485 69.6658 45.4798 68.6354 45.581C68.0736 45.6373 67.5063 45.5932 66.96 45.4507C66.6718 45.376 66.397 45.2572 66.1452 45.0984C65.8818 44.9341 65.6694 44.7 65.5315 44.4221C65.3829 44.0987 65.3093 43.7459 65.3163 43.39C65.3152 43.0527 65.3411 42.7158 65.3939 42.3826C65.4304 42.0516 65.5185 41.7283 65.655 41.4245C65.717 41.2694 65.8124 41.1298 65.9342 41.0154C66.0561 40.901 66.2016 40.8146 66.3604 40.7623L66.4204 40.9243C65.8346 41.1829 65.1791 41.2387 64.558 41.0828C63.9944 40.9486 63.4791 40.6608 63.0695 40.2515C62.7066 39.8837 62.4611 39.4167 62.3641 38.9095C62.287 38.4789 62.3038 38.0367 62.4135 37.6132C62.5674 37.0113 62.9067 36.4729 63.3834 36.0739C63.5489 35.9255 63.7386 35.8064 63.9443 35.7217C63.7625 35.8387 63.5881 35.967 63.4222 36.1056C62.9736 36.5096 62.6587 37.0403 62.5193 37.6273C62.4204 38.035 62.412 38.4594 62.4946 38.8707C62.5899 39.3497 62.8271 39.789 63.1753 40.1318C63.5648 40.5162 64.0531 40.7856 64.5862 40.9102C65.175 41.0551 65.7954 41.0006 66.3498 40.7553L66.4098 40.9173C66.2729 40.9621 66.1476 41.0364 66.0427 41.135C65.9379 41.2337 65.856 41.3541 65.8031 41.4879C65.6795 41.7764 65.5987 42.0814 65.5633 42.3932C65.4821 43.0308 65.3975 43.7317 65.6867 44.327C65.8248 44.5664 66.0134 44.7729 66.2393 44.9322C66.4653 45.0916 66.7232 45.2 66.9953 45.2499C67.5205 45.3888 68.0664 45.4329 68.6072 45.3802C69.6008 45.2864 70.538 44.8765 71.2808 44.2108L71.5207 43.9924L71.4113 44.2953C71.2685 44.7105 71.2861 45.164 71.4607 45.5669C71.616 45.9339 71.8581 46.2578 72.1661 46.5109C72.4384 46.7337 72.7544 46.8969 73.0938 46.99C73.3828 47.0747 73.6815 47.122 73.9826 47.1309C74.4064 47.1434 74.8301 47.1068 75.2454 47.0217C75.5381 46.99 75.6933 46.9512 75.6933 46.9583Z" fill="white"/>
<path d="M64.3746 46.7713C64.3746 46.7713 64.3076 46.8418 64.1488 46.9157C63.9269 47.0173 63.6873 47.0747 63.4434 47.0848C63.0718 47.1038 62.703 47.0105 62.3852 46.8171C62.2847 46.7568 62.197 46.6772 62.1274 46.5828C62.0578 46.4885 62.0076 46.3814 61.9796 46.2676C61.9502 46.1392 61.9574 46.0051 62.0004 45.8806C62.0434 45.7561 62.1205 45.6461 62.223 45.5631L62.3147 45.7216L62.2547 45.7498C61.8686 45.9104 61.452 45.9847 61.034 45.9677C60.616 45.9507 60.2069 45.8426 59.8351 45.6512C59.6106 45.5375 59.4048 45.3902 59.2249 45.2144C59.1014 45.0876 59.0485 45.0066 59.0556 44.9995C59.3155 45.2056 59.5956 45.385 59.8915 45.5349C60.2497 45.6986 60.6376 45.787 61.0313 45.7949C61.4251 45.8028 61.8163 45.7299 62.1807 45.5807L62.2371 45.5561L63.066 45.2038L62.3288 45.704C62.2536 45.7649 62.1973 45.846 62.1667 45.9377C62.1361 46.0294 62.1324 46.128 62.156 46.2218C62.2026 46.407 62.3188 46.5672 62.4805 46.6692C62.7706 46.8521 63.1074 46.9475 63.4505 46.9439C63.7656 46.9345 64.0773 46.8762 64.3746 46.7713Z" fill="white"/>
<path d="M68.3744 54.4366C68.3744 54.4613 68.1416 54.2993 67.7501 54.1337C67.2425 53.9121 66.6888 53.8162 66.1361 53.8542C65.5834 53.8922 65.048 54.063 64.5756 54.3521C64.2229 54.567 64.0184 54.7537 63.9972 54.7325C64.1269 54.5328 64.3006 54.3653 64.5051 54.2429C64.9805 53.9113 65.5372 53.7152 66.1157 53.6755C66.6942 53.6358 67.2726 53.754 67.7889 54.0175C68.016 54.1063 68.2173 54.2504 68.3744 54.4366Z" fill="#EB996E"/>
<path d="M77.919 53.221C77.7435 53.1564 77.5726 53.0799 77.4075 52.992C76.9996 52.8184 76.5564 52.7432 76.114 52.7726C75.6715 52.8019 75.2422 52.935 74.8609 53.1611C74.7077 53.2683 74.5487 53.3671 74.3847 53.457C74.3847 53.457 74.5011 53.2597 74.7904 53.0519C75.1768 52.7819 75.6298 52.6225 76.1004 52.5908C76.5709 52.5591 77.0412 52.6565 77.4604 52.8722C77.6398 52.9488 77.7974 53.0686 77.919 53.221Z" fill="#EB996E"/>
<path d="M75.2383 62.2772C75.2136 62.2772 75.1642 62.2208 75.0655 62.1469C74.938 62.0516 74.7911 61.9854 74.6352 61.9531C74.2613 61.8897 73.9297 61.925 73.9297 61.8651C74.1608 61.7368 74.433 61.7039 74.6881 61.7735C74.8786 61.8096 75.0514 61.9089 75.1784 62.0553C75.2524 62.175 75.2595 62.2702 75.2383 62.2772Z" fill="#EB996E"/>
<path d="M75.986 62.7173C75.9331 62.7173 75.8273 62.4672 75.6333 62.1783C75.4393 61.8895 75.2806 61.6676 75.3124 61.6288C75.3441 61.5901 75.6016 61.7662 75.7921 62.0832C75.9825 62.4002 76.0319 62.6997 75.986 62.7173Z" fill="#EB996E"/>
<path d="M68.5014 71.9568C68.5189 72.006 68.5319 72.0567 68.5402 72.1083C68.5649 72.2139 68.5966 72.3619 68.639 72.5521C68.7236 72.9501 68.8471 73.5243 68.9917 74.257C69.3197 75.7364 69.7747 77.8886 70.593 80.4706C71.4113 83.0525 72.6705 86.0748 74.9173 88.8681C75.4782 89.5726 76.0884 90.2489 76.7197 90.9463C77.0164 91.3067 77.3537 91.6318 77.725 91.915C78.1067 92.1846 78.5788 92.2946 79.0406 92.2214C79.5117 92.1249 79.956 91.9265 80.3421 91.6402C80.7423 91.3489 81.1185 91.0261 81.4673 90.6751C82.2045 89.9706 82.9029 89.245 83.5836 88.4771C86.3242 85.3949 88.3771 81.9324 89.347 78.4874C89.8234 76.8637 90.0831 75.1842 90.1195 73.4926C90.1505 72.0177 90.0608 70.5428 89.8514 69.0825C89.5308 66.9672 89.0915 64.8716 88.5358 62.8055L88.0949 61.1147C88.049 60.928 88.0102 60.7801 87.982 60.6744C87.9667 60.625 87.956 60.5743 87.9503 60.5229C87.9715 60.5705 87.9881 60.6201 87.9997 60.6709C88.0314 60.7766 88.0773 60.921 88.1302 61.1042C88.2395 61.4987 88.4018 62.0623 88.6028 62.7879C89.1864 64.85 89.6469 66.9448 89.9819 69.0614C90.2008 70.5291 90.2975 72.0124 90.2712 73.4961C90.2513 75.2057 90.0058 76.9053 89.541 78.5508C88.5675 82.024 86.5041 85.5147 83.7494 88.6145C83.044 89.3823 82.3385 90.1291 81.6084 90.8195C81.2526 91.1779 80.868 91.5066 80.4585 91.8023C80.0512 92.1051 79.5812 92.3133 79.0829 92.4117C78.5768 92.4927 78.0589 92.3726 77.6403 92.077C77.2577 91.784 76.9098 91.4483 76.6033 91.0766C75.972 90.3722 75.3618 89.6888 74.8009 88.9878C72.8475 86.4628 71.3833 83.5957 70.4837 80.534C69.86 78.4838 69.3432 76.4028 68.9352 74.2992C68.7906 73.5595 68.6813 72.9854 68.6037 72.5838C68.5684 72.3936 68.5402 72.2316 68.5226 72.1364C68.5092 72.0775 68.5021 72.0173 68.5014 71.9568Z" fill="#263238"/>
<path d="M81.5237 131.462C81.508 131.429 81.4962 131.395 81.4885 131.36C81.4708 131.282 81.4426 131.183 81.4109 131.06C81.3791 130.937 81.3368 130.761 81.2874 130.571C81.2426 130.345 81.2108 130.117 81.1922 129.887C81.062 128.424 81.1885 126.95 81.5661 125.53C81.9752 123.719 82.7653 121.655 83.3296 119.281C83.6434 118.047 83.7963 116.778 83.7846 115.505C83.7366 114.139 83.4464 112.793 82.9275 111.528C82.4267 110.214 81.8024 108.985 81.238 107.777C80.6737 106.569 80.1199 105.374 80.0494 104.117C79.9788 102.859 80.4726 101.743 80.7372 100.707C80.8821 100.208 80.9557 99.6911 80.9558 99.1715C80.9427 98.6889 80.8461 98.2122 80.6701 97.7625C80.3485 96.9974 79.9713 96.2569 79.5414 95.5469C79.2201 95.0024 78.9644 94.4218 78.7796 93.8173C78.7161 93.5952 78.6736 93.3676 78.6526 93.1375C78.6437 92.9686 78.6437 92.7992 78.6526 92.6303C78.6738 92.5035 78.6914 92.4013 78.702 92.3238C78.7054 92.2888 78.7137 92.2544 78.7267 92.2217C78.6489 92.7501 78.6899 93.2891 78.8466 93.7997C79.0434 94.3936 79.3073 94.9632 79.6332 95.4975C80.0731 96.2078 80.4598 96.9495 80.7901 97.7167C80.9733 98.1738 81.0783 98.6584 81.1005 99.1503C81.1029 99.6826 81.0304 100.213 80.8853 100.725C80.6208 101.782 80.1481 102.881 80.2187 104.089C80.2892 105.297 80.8394 106.484 81.4038 107.682C81.9681 108.879 82.5925 110.119 83.1004 111.447C83.6252 112.731 83.9178 114.098 83.9645 115.484C83.9762 116.772 83.8185 118.055 83.4954 119.302C82.9029 121.683 82.1022 123.744 81.6789 125.544C81.2936 126.949 81.1482 128.409 81.2486 129.863C81.2804 130.12 81.2804 130.352 81.3262 130.542C81.3721 130.733 81.4038 130.895 81.432 131.035C81.4602 131.176 81.4779 131.261 81.492 131.338C81.5078 131.378 81.5185 131.419 81.5237 131.462Z" fill="#263238"/>
<path d="M77.7673 91.8477L77.6544 92.2386L78.5115 93.32H78.8748L79.8201 92.2386L79.6684 91.8477H77.7673Z" fill="#455A64"/>
<path d="M6.26427 128.714L22.0696 156.52L83.3403 156.541C83.463 156.541 83.5845 156.516 83.6977 156.469C83.8109 156.422 83.9137 156.352 84.0002 156.265C84.0866 156.178 84.1551 156.075 84.2016 155.962C84.2482 155.848 84.2719 155.727 84.2714 155.604C84.2705 155.358 84.1729 155.122 83.9994 154.946C83.8259 154.771 83.5905 154.671 83.3438 154.667L62.9884 154.104C62.5296 154.099 62.0807 153.97 61.6894 153.73C61.2981 153.491 60.9791 153.15 60.7663 152.744L47.5464 127.576C47.4118 127.319 47.209 127.104 46.9602 126.954C46.7113 126.804 46.4261 126.726 46.1355 126.727L7.66456 126.343C7.38521 126.341 7.11006 126.411 6.8668 126.549C6.62353 126.686 6.42073 126.884 6.27879 127.125C6.13685 127.365 6.06078 127.638 6.05823 127.917C6.05568 128.196 6.12675 128.471 6.26427 128.714Z" fill="#455A64"/>
<path d="M6.34892 127.668H6.53234H7.05436H9.12481L16.7294 127.735L41.8218 128.024L43.6489 128.048H44.5518C44.8668 128.047 45.1777 128.12 45.4583 128.263C45.7397 128.407 45.9818 128.618 46.1637 128.876C46.3366 129.14 46.4494 129.397 46.5941 129.658C46.8645 130.179 47.1349 130.695 47.4053 131.205C48.4635 133.248 49.5216 135.22 50.4986 137.098L55.7295 147.094C57.2109 149.933 58.4066 152.233 59.239 153.829C59.6482 154.622 59.9656 155.238 60.1878 155.668C60.2901 155.872 60.3712 156.02 60.4277 156.147C60.4564 156.201 60.4823 156.256 60.5053 156.312C60.5053 156.312 60.47 156.26 60.4136 156.154L60.1525 155.685C59.9268 155.259 59.5988 154.65 59.179 153.864C58.3325 152.272 57.1156 149.99 55.6166 147.154L50.3505 137.189L47.2501 131.3L46.4353 129.753C46.2978 129.503 46.1673 129.218 46.0156 128.989C45.8517 128.757 45.6339 128.567 45.3808 128.437C45.1278 128.307 44.847 128.24 44.5624 128.242H43.6559L41.8288 128.217L16.74 127.865L9.13187 127.742L7.05436 127.696H6.51823L6.34892 127.668Z" fill="#263238"/>
<path d="M31.9351 140.711C31.9614 141.013 31.8959 141.315 31.7473 141.578C31.5987 141.842 31.3738 142.054 31.1022 142.188C30.8305 142.321 30.5248 142.37 30.225 142.327C29.9253 142.284 29.6455 142.152 29.4224 141.947C29.1993 141.743 29.0432 141.476 28.9746 141.181C28.9061 140.887 28.9282 140.578 29.0382 140.297C29.1482 140.015 29.3408 139.773 29.5909 139.602C29.8409 139.432 30.1368 139.341 30.4396 139.341C30.8196 139.326 31.1902 139.461 31.4704 139.718C31.7506 139.975 31.9177 140.332 31.9351 140.711Z" fill="white"/>
<path d="M160 156.499C160 156.552 124.181 156.591 80.0035 156.591C35.8256 156.591 0 156.552 0 156.499C0 156.446 35.8115 156.397 80.0035 156.397C124.196 156.397 160 156.45 160 156.499Z" fill="#263238"/>
<path d="M99.6923 65.3379L105.519 62.0373C108.839 64.0803 112.803 64.8094 116.634 64.0813C120.464 63.3531 123.883 61.2205 126.219 58.1025C128.555 54.9845 129.638 51.1067 129.257 47.2314C128.875 43.3561 127.055 39.7636 124.155 37.1602C121.256 34.5567 117.486 33.1306 113.587 33.1621C109.688 33.1937 105.941 34.6806 103.084 37.3306C100.227 39.9807 98.4663 43.6021 98.1473 47.483C97.8283 51.364 98.9745 55.2237 101.361 58.3035L99.6923 65.3379Z" fill="white"/>
<path d="M99.6922 65.3382L101.308 58.2934V58.2264L101.364 58.2687L101.301 58.3321C100.534 57.3442 99.8863 56.2695 99.3713 55.1302C98.7611 53.7743 98.35 52.3376 98.1509 50.8645C98.0368 50.0479 97.9943 49.2228 98.0239 48.3988C98.0486 47.9761 98.0591 47.5429 98.0944 47.1096C98.1297 46.6763 98.2285 46.236 98.2955 45.7922C99.0661 41.8743 101.302 38.3967 104.549 36.0667C106.344 34.7722 108.396 33.8762 110.567 33.439C112.863 32.9887 115.231 33.0513 117.501 33.6222C119.873 34.2089 122.07 35.3525 123.91 36.9579L124.615 37.592C124.852 37.8033 125.046 38.0499 125.264 38.2964C125.483 38.543 125.698 38.7473 125.878 39.0009L126.439 39.7477C126.636 39.989 126.816 40.2432 126.979 40.5085L127.458 41.3011L127.86 42.1253C128 42.396 128.124 42.6747 128.231 42.9602C129.108 45.1762 129.476 47.561 129.306 49.9381C129.153 52.185 128.505 54.3703 127.409 56.3384C126.389 58.1702 125.013 59.7807 123.363 61.0761C121.852 62.2563 120.139 63.1548 118.309 63.7285C116.657 64.2093 114.942 64.435 113.223 64.3978C111.734 64.3551 110.26 64.0989 108.845 63.6369C107.67 63.2484 106.545 62.7248 105.491 62.0765H105.537L99.6887 65.3382L105.494 61.9954H105.519H105.54C106.59 62.6342 107.711 63.1484 108.881 63.5277C110.287 63.9813 111.752 64.2304 113.23 64.2674C114.93 64.2878 116.623 64.0503 118.252 63.5629C122.081 62.3595 125.302 59.7344 127.25 56.2292C128.33 54.2779 128.967 52.1133 129.116 49.8888C129.286 47.5397 128.924 45.1824 128.058 42.9919C127.958 42.7097 127.841 42.4344 127.705 42.1676C127.575 41.8964 127.441 41.6252 127.31 41.3504L126.834 40.5719C126.683 40.3053 126.513 40.0499 126.326 39.8076L125.776 39.0679C125.596 38.8178 125.367 38.6064 125.166 38.3634C124.964 38.1203 124.76 37.8914 124.527 37.6835L123.822 37.0565C121.999 35.4681 119.822 34.3377 117.473 33.7595C115.23 33.194 112.89 33.1302 110.619 33.5728C108.471 34.0028 106.44 34.8868 104.662 36.1654C101.447 38.4695 99.2287 41.9065 98.4542 45.7816C98.3872 46.2219 98.3202 46.6552 98.2531 47.0849C98.1861 47.5147 98.2038 47.9444 98.1791 48.3636C98.1461 49.1803 98.185 49.9983 98.2955 50.8082C98.4919 52.2661 98.8933 53.6891 99.4877 55.0351C99.9962 56.1692 100.635 57.2402 101.392 58.2264L101.604 58.5047L101.329 58.2898L101.399 58.2617L99.6922 65.3382Z" fill="#263238"/>
<path d="M110.965 48.0391H106.965L106.168 49.8884H104.637L108.239 41.896H109.695L113.307 49.8884H111.752L110.965 48.0391ZM110.475 46.8732L108.965 43.3825L107.466 46.8732H110.475Z" fill="#263238"/>
<path d="M122.654 49.7057H115.339C115.199 49.7057 115.064 49.65 114.965 49.5509C114.865 49.4518 114.81 49.3174 114.81 49.1773C114.81 49.0372 114.865 48.9028 114.965 48.8037C115.064 48.7046 115.199 48.6489 115.339 48.6489H122.644C122.784 48.6489 122.919 48.7046 123.018 48.8037C123.117 48.9028 123.173 49.0372 123.173 49.1773C123.173 49.3174 123.117 49.4518 123.018 49.5509C122.919 49.65 122.784 49.7057 122.644 49.7057H122.654Z" fill="#263238"/>
<path d="M119 49.7057C118.86 49.7048 118.726 49.6488 118.627 49.5499C118.528 49.451 118.472 49.3172 118.471 49.1773V47.2012C118.471 47.0611 118.527 46.9267 118.626 46.8276C118.725 46.7285 118.86 46.6729 119 46.6729C119.14 46.6729 119.275 46.7285 119.374 46.8276C119.473 46.9267 119.529 47.0611 119.529 47.2012V49.1738C119.53 49.2435 119.516 49.3126 119.49 49.3771C119.463 49.4416 119.425 49.5002 119.375 49.5497C119.326 49.5991 119.268 49.6384 119.203 49.6651C119.139 49.6919 119.07 49.7057 119 49.7057Z" fill="#263238"/>
<path d="M115.533 55.9862C115.41 55.9876 115.29 55.9459 115.194 55.8685C115.098 55.791 115.033 55.6825 115.008 55.5619C114.984 55.4412 115.003 55.3159 115.061 55.2075C115.12 55.0991 115.214 55.0145 115.328 54.9683C115.378 54.9506 120.224 52.8794 120.644 49.1175C120.651 49.0481 120.673 48.9809 120.706 48.9197C120.74 48.8585 120.785 48.8046 120.84 48.7609C120.894 48.7172 120.957 48.6847 121.024 48.6652C121.091 48.6457 121.162 48.6396 121.231 48.6472C121.3 48.6549 121.368 48.6761 121.429 48.7097C121.49 48.7433 121.544 48.7886 121.588 48.8431C121.632 48.8975 121.664 48.9601 121.684 49.0271C121.703 49.0941 121.71 49.1643 121.702 49.2337C121.212 53.6192 115.967 55.8524 115.744 55.9264C115.679 55.9608 115.607 55.9812 115.533 55.9862Z" fill="#263238"/>
<path d="M121.335 55.9863C121.285 55.9862 121.235 55.979 121.187 55.9651C118.478 55.1726 116.333 51.6501 116.249 51.4987C116.177 51.3781 116.156 51.234 116.19 51.0979C116.224 50.9618 116.312 50.845 116.432 50.773C116.553 50.7011 116.697 50.68 116.834 50.7143C116.97 50.7487 117.087 50.8357 117.159 50.9562C117.176 50.9879 119.18 54.2779 121.49 54.9507C121.613 54.9863 121.718 55.0647 121.787 55.1716C121.856 55.2785 121.884 55.4067 121.866 55.5326C121.848 55.6585 121.785 55.7737 121.689 55.857C121.593 55.9404 121.469 55.9863 121.342 55.9863H121.335Z" fill="#263238"/>
</g>
<defs>
<clipPath id="clip0_350_14301">
<rect width="160" height="160" fill="white"/>
</clipPath>
</defs>
</svg>
