<svg width="14" height="16" viewBox="0 0 14 16" fill="none" xmlns="http://www.w3.org/2000/svg">
<path d="M9.69238 15.9988H4.76931C3.95326 15.9988 3.17063 15.6746 2.59359 15.0976C2.01656 14.5206 1.69238 13.7379 1.69238 12.9219V5.53726C1.69238 5.37405 1.75722 5.21752 1.87262 5.10212C1.98803 4.98671 2.14456 4.92188 2.30777 4.92188C2.47098 4.92188 2.6275 4.98671 2.74291 5.10212C2.85832 5.21752 2.92315 5.37405 2.92315 5.53726V12.9219C2.92315 13.4115 3.11766 13.8811 3.46388 14.2273C3.8101 14.5735 4.27968 14.768 4.76931 14.768H9.69238C10.182 14.768 10.6516 14.5735 10.9978 14.2273C11.344 13.8811 11.5385 13.4115 11.5385 12.9219V5.53726C11.5385 5.37405 11.6034 5.21752 11.7188 5.10212C11.8342 4.98671 11.9907 4.92188 12.1539 4.92188C12.3171 4.92188 12.4737 4.98671 12.5891 5.10212C12.7045 5.21752 12.7693 5.37405 12.7693 5.53726V12.9219C12.7693 13.7379 12.4451 14.5206 11.8681 15.0976C11.2911 15.6746 10.5084 15.9988 9.69238 15.9988Z" fill="#404A4D"/>
<path d="M13.385 3.69171H1.0773C0.914089 3.69171 0.757563 3.62687 0.642156 3.51146C0.526749 3.39606 0.461914 3.23953 0.461914 3.07632C0.461914 2.91311 0.526749 2.75659 0.642156 2.64118C0.757563 2.52577 0.914089 2.46094 1.0773 2.46094H13.385C13.5482 2.46094 13.7047 2.52577 13.8201 2.64118C13.9355 2.75659 14.0004 2.91311 14.0004 3.07632C14.0004 3.23953 13.9355 3.39606 13.8201 3.51146C13.7047 3.62687 13.5482 3.69171 13.385 3.69171Z" fill="#404A4D"/>
<path d="M9.69276 3.69231H4.76968C4.60647 3.69231 4.44995 3.62747 4.33454 3.51207C4.21913 3.39666 4.1543 3.24013 4.1543 3.07692V1.84615C4.1543 1.35652 4.3488 0.886947 4.69502 0.540726C5.04124 0.194505 5.51082 0 6.00045 0H8.46199C8.95162 0 9.4212 0.194505 9.76742 0.540726C10.1136 0.886947 10.3081 1.35652 10.3081 1.84615V3.07692C10.3081 3.24013 10.2433 3.39666 10.1279 3.51207C10.0125 3.62747 9.85597 3.69231 9.69276 3.69231ZM5.38507 2.46154H9.07737V1.84615C9.07737 1.68294 9.01254 1.52642 8.89713 1.41101C8.78173 1.2956 8.6252 1.23077 8.46199 1.23077H6.00045C5.83724 1.23077 5.68072 1.2956 5.56531 1.41101C5.4499 1.52642 5.38507 1.68294 5.38507 1.84615V2.46154Z" fill="#404A4D"/>
<path d="M6.00015 12.308C5.83694 12.308 5.68041 12.2432 5.56501 12.1278C5.4496 12.0123 5.38477 11.8558 5.38477 11.6926V7.38492C5.38477 7.22171 5.4496 7.06518 5.56501 6.94977C5.68041 6.83437 5.83694 6.76953 6.00015 6.76953C6.16336 6.76953 6.31989 6.83437 6.43529 6.94977C6.5507 7.06518 6.61553 7.22171 6.61553 7.38492V11.6926C6.61553 11.8558 6.5507 12.0123 6.43529 12.1278C6.31989 12.2432 6.16336 12.308 6.00015 12.308Z" fill="#404A4D"/>
<path d="M8.46206 12.308C8.29885 12.308 8.14233 12.2432 8.02692 12.1278C7.91151 12.0123 7.84668 11.8558 7.84668 11.6926V7.38492C7.84668 7.22171 7.91151 7.06518 8.02692 6.94977C8.14233 6.83437 8.29885 6.76953 8.46206 6.76953C8.62527 6.76953 8.7818 6.83437 8.89721 6.94977C9.01261 7.06518 9.07745 7.22171 9.07745 7.38492V11.6926C9.07745 11.8558 9.01261 12.0123 8.89721 12.1278C8.7818 12.2432 8.62527 12.308 8.46206 12.308Z" fill="#404A4D"/>
</svg>
