<svg width="19" height="18" viewBox="0 0 19 18" fill="none" xmlns="http://www.w3.org/2000/svg">
<path fill-rule="evenodd" clip-rule="evenodd" d="M9.08091 1.5273C9.39141 1.5273 9.64341 1.7793 9.64341 2.0898C9.64341 2.4003 9.39141 2.6523 9.08091 2.6523H6.27666C4.33866 2.6523 3.08691 3.9798 3.08691 6.03405V12.2695C3.08691 14.3238 4.33866 15.6513 6.27666 15.6513H12.8947C14.8327 15.6513 16.0852 14.3238 16.0852 12.2695V9.24855C16.0852 8.93805 16.3372 8.68605 16.6477 8.68605C16.9582 8.68605 17.2102 8.93805 17.2102 9.24855V12.2695C17.2102 14.965 15.4754 16.7763 12.8947 16.7763H6.27666C3.69591 16.7763 1.96191 14.965 1.96191 12.2695V6.03405C1.96191 3.33855 3.69591 1.5273 6.27666 1.5273H9.08091ZM15.6131 2.18625L16.5259 3.099C16.9706 3.543 17.2151 4.13325 17.2144 4.76175C17.2144 5.39025 16.9699 5.97975 16.5259 6.423L10.8941 12.0547C10.4809 12.468 9.93036 12.696 9.34536 12.696H6.53586C6.38436 12.696 6.23886 12.6345 6.13311 12.5257C6.02736 12.4177 5.96961 12.2715 5.97336 12.1192L6.04386 9.285C6.05811 8.721 6.28536 8.19075 6.68436 7.791H6.68511L12.2899 2.18625C13.2064 1.27125 14.6966 1.27125 15.6131 2.18625ZM11.8282 4.23825L7.48011 8.58675C7.28586 8.781 7.17561 9.039 7.16886 9.31275L7.11261 11.571H9.34536C9.63036 11.571 9.89736 11.4607 10.0991 11.259L14.4734 6.8835L11.8282 4.23825ZM13.0849 2.982L12.6232 3.4425L15.2684 6.0885L15.7309 5.62725C15.9619 5.39625 16.0894 5.08875 16.0894 4.76175C16.0894 4.434 15.9619 4.12575 15.7309 3.89475L14.8181 2.982C14.3404 2.50575 13.5634 2.50575 13.0849 2.982Z" fill="#404A4D"/>
</svg>
