<svg width="18" height="19" viewBox="0 0 18 19" fill="none" xmlns="http://www.w3.org/2000/svg">
<path opacity="0.4" fill-rule="evenodd" clip-rule="evenodd" d="M12.2507 2.24551H5.74899C3.48324 2.24551 2.06274 3.84976 2.06274 6.12001V12.246C2.06274 14.5163 3.47649 16.1205 5.74899 16.1205H12.25C14.5232 16.1205 15.9377 14.5163 15.9377 12.246V6.12001C15.9377 3.84976 14.5232 2.24551 12.2507 2.24551Z" stroke="#252424" stroke-opacity="0.65" stroke-width="1.5" stroke-linecap="round" stroke-linejoin="round"/>
<path fill-rule="evenodd" clip-rule="evenodd" d="M8.01916 9.18301C8.01916 9.94951 7.39741 10.572 6.63016 10.572C5.86366 10.572 5.24191 9.94951 5.24191 9.18301C5.24191 8.41651 5.86366 7.79401 6.63016 7.79401C7.39741 7.79401 8.01916 8.41651 8.01916 9.18301Z" stroke="#252424" stroke-opacity="0.65" stroke-width="1.5" stroke-linecap="round" stroke-linejoin="round"/>
<path d="M8.01917 9.18301H12.7577V10.572" stroke="#252424" stroke-opacity="0.65" stroke-width="1.5" stroke-linecap="round" stroke-linejoin="round"/>
<path d="M10.6361 10.5716V9.18264" stroke="#252424" stroke-opacity="0.65" stroke-width="1.5" stroke-linecap="round" stroke-linejoin="round"/>
</svg>
