<svg width="184" height="160" viewBox="0 0 184 160" fill="none" xmlns="http://www.w3.org/2000/svg">
<path d="M183.607 159.452C183.607 159.508 142.571 159.557 91.9637 159.557C41.3561 159.557 0.312317 159.508 0.312317 159.452C0.312317 159.396 41.34 159.347 91.9637 159.347C142.587 159.347 183.607 159.396 183.607 159.452Z" fill="#263238"/>
<path d="M135.119 158.625H142.813V144.052H135.119V158.625Z" fill="#F5F5F5"/>
<path d="M142.809 159.339H178.916V143.536H142.809V159.339Z" fill="#455A64"/>
<path d="M134.519 159.339H143.788V158.315H134.519C134.383 158.315 134.253 158.369 134.157 158.465C134.061 158.561 134.007 158.692 134.007 158.827C134.007 158.963 134.061 159.093 134.157 159.189C134.253 159.285 134.383 159.339 134.519 159.339Z" fill="#455A64"/>
<path d="M143.796 144.564H134.446C134.329 144.564 134.216 144.517 134.133 144.434C134.05 144.351 134.003 144.238 134.003 144.121V143.984C134.003 143.866 134.05 143.753 134.133 143.67C134.216 143.587 134.329 143.54 134.446 143.54H143.796V144.564Z" fill="#455A64"/>
<path d="M135.119 146.003C135.119 146.027 136.84 146.047 138.964 146.047C141.088 146.047 142.813 146.027 142.813 146.003C142.813 145.979 141.088 145.958 138.964 145.958C136.84 145.958 135.119 145.979 135.119 146.003Z" fill="#E0E0E0"/>
<path d="M135.119 147.873C135.119 147.897 136.84 147.917 138.964 147.917C141.088 147.917 142.813 147.917 142.813 147.873C142.813 147.829 141.088 147.829 138.964 147.829C136.84 147.829 135.119 147.849 135.119 147.873Z" fill="#E0E0E0"/>
<path d="M135.119 149.743C135.119 149.767 136.84 149.787 138.964 149.787C141.088 149.787 142.813 149.767 142.813 149.743C142.813 149.718 141.088 149.698 138.964 149.698C136.84 149.698 135.119 149.718 135.119 149.743Z" fill="#E0E0E0"/>
<path d="M135.119 151.613C135.119 151.637 136.84 151.653 138.964 151.653C141.088 151.653 142.813 151.653 142.813 151.613C142.813 151.572 141.088 151.568 138.964 151.568C136.84 151.568 135.119 151.584 135.119 151.613Z" fill="#E0E0E0"/>
<path d="M135.119 153.479C135.119 153.503 136.84 153.523 138.964 153.523C141.088 153.523 142.813 153.503 142.813 153.479C142.813 153.455 141.088 153.435 138.964 153.435C136.84 153.435 135.119 153.455 135.119 153.479Z" fill="#E0E0E0"/>
<path d="M135.119 155.35C135.119 155.374 136.84 155.394 138.964 155.394C141.088 155.394 142.813 155.374 142.813 155.35C142.813 155.325 141.088 155.305 138.964 155.305C136.84 155.305 135.119 155.325 135.119 155.35Z" fill="#E0E0E0"/>
<path d="M135.119 157.219C135.119 157.243 136.84 157.263 138.964 157.263C141.088 157.263 142.813 157.263 142.813 157.219C142.813 157.175 141.088 157.179 138.952 157.179C136.816 157.179 135.119 157.179 135.119 157.219Z" fill="#E0E0E0"/>
<path d="M176.735 128.391H169.312V137.213H176.735V128.391Z" fill="#F5F5F5"/>
<path d="M169.57 127.814H136.026V137.769H169.57V127.814Z" fill="#3366FF"/>
<path d="M176.961 128.653H168.671V127.814H176.961C177.068 127.814 177.171 127.857 177.246 127.932C177.322 128.008 177.364 128.111 177.364 128.217C177.369 128.273 177.362 128.329 177.343 128.382C177.325 128.434 177.296 128.483 177.258 128.524C177.22 128.564 177.174 128.597 177.123 128.619C177.072 128.642 177.017 128.653 176.961 128.653Z" fill="#3366FF"/>
<path d="M176.961 137.769H168.671V136.935H176.961C177.068 136.935 177.171 136.978 177.246 137.053C177.322 137.129 177.364 137.231 177.364 137.338C177.368 137.393 177.361 137.449 177.342 137.501C177.324 137.553 177.294 137.601 177.257 137.641C177.219 137.682 177.173 137.714 177.122 137.736C177.071 137.758 177.017 137.769 176.961 137.769Z" fill="#3366FF"/>
<g opacity="0.4">
<path d="M166.93 127.814H162.968V137.769H166.93V127.814Z" fill="black"/>
</g>
<g opacity="0.4">
<path d="M142.966 127.814H139.005V137.769H142.966V127.814Z" fill="black"/>
</g>
<path d="M176.736 129.85C176.736 129.874 175.123 129.894 173.149 129.894C171.174 129.894 169.562 129.874 169.562 129.85C169.562 129.826 171.174 129.806 173.149 129.806C175.123 129.806 176.736 129.826 176.736 129.85Z" fill="#E0E0E0"/>
<path d="M176.736 131.175C176.736 131.199 175.123 131.22 173.149 131.22C171.174 131.22 169.562 131.22 169.562 131.175C169.562 131.131 171.174 131.131 173.149 131.131C175.123 131.131 176.736 131.151 176.736 131.175Z" fill="#E0E0E0"/>
<path d="M176.736 132.804C176.736 132.828 175.123 132.848 173.149 132.848C171.174 132.848 169.562 132.828 169.562 132.804C169.562 132.78 171.174 132.76 173.149 132.76C175.123 132.76 176.736 132.78 176.736 132.804Z" fill="#E0E0E0"/>
<path d="M176.736 134.432C176.736 134.456 175.123 134.476 173.149 134.476C171.174 134.476 169.562 134.456 169.562 134.432C169.562 134.408 171.174 134.388 173.149 134.388C175.123 134.388 176.736 134.408 176.736 134.432Z" fill="#E0E0E0"/>
<path d="M176.736 136.06C176.736 136.085 175.123 136.105 173.149 136.105C171.174 136.105 169.562 136.105 169.562 136.06C169.562 136.016 171.174 136.016 173.149 136.016C175.123 136.016 176.736 136.036 176.736 136.06Z" fill="#E0E0E0"/>
<g opacity="0.2">
<path d="M160.836 131.909H145.747V133.702H160.836V131.909Z" fill="black"/>
</g>
<path d="M176.663 137.967H169.126V143.343H176.663V137.967Z" fill="#FAFAFA"/>
<path d="M169.211 137.769H137.139V143.536H169.211V137.769Z" fill="#263238"/>
<path d="M168.977 138.16H177.074C177.126 138.16 177.175 138.14 177.212 138.104C177.249 138.067 177.27 138.018 177.271 137.967C177.271 137.914 177.251 137.864 177.214 137.827C177.177 137.79 177.126 137.769 177.074 137.769H168.977V138.16Z" fill="#263238"/>
<path d="M168.977 143.145H177.102C177.147 143.145 177.19 143.163 177.222 143.195C177.254 143.227 177.271 143.27 177.271 143.315V143.367C177.271 143.389 177.267 143.411 177.259 143.432C177.25 143.452 177.238 143.471 177.222 143.487C177.206 143.502 177.188 143.515 177.167 143.523C177.146 143.532 177.124 143.536 177.102 143.536H168.977V143.133V143.145Z" fill="#263238"/>
<path d="M176.659 138.987C176.659 139.011 174.99 139.031 172.935 139.031C170.88 139.031 169.207 139.011 169.207 138.987C169.207 138.963 170.876 138.942 172.935 138.942C174.994 138.942 176.659 138.963 176.659 138.987Z" fill="#E0E0E0"/>
<path d="M176.659 140.006C176.659 140.03 174.99 140.047 172.935 140.047C170.88 140.047 169.207 140.047 169.207 140.006C169.207 139.966 170.876 139.962 172.935 139.962C174.994 139.962 176.659 139.978 176.659 140.006Z" fill="#E0E0E0"/>
<path d="M176.659 141.022C176.659 141.046 174.99 141.066 172.935 141.066C170.88 141.066 169.207 141.066 169.207 141.022C169.207 140.978 170.876 140.978 172.935 140.978C174.994 140.978 176.659 140.998 176.659 141.022Z" fill="#E0E0E0"/>
<path d="M176.659 142.037C176.659 142.062 174.99 142.082 172.935 142.082C170.88 142.082 169.207 142.062 169.207 142.037C169.207 142.013 170.876 141.993 172.935 141.993C174.994 141.993 176.659 142.013 176.659 142.037Z" fill="#E0E0E0"/>
<path d="M147.013 150.432H148.415C149.427 150.432 150.12 151.033 150.12 151.952C150.12 152.87 149.427 153.471 148.415 153.471H147.013V150.432ZM148.379 152.895C148.51 152.907 148.642 152.891 148.767 152.85C148.892 152.808 149.007 152.74 149.104 152.651C149.202 152.563 149.279 152.455 149.333 152.334C149.386 152.214 149.413 152.083 149.413 151.952C149.413 151.82 149.386 151.689 149.333 151.569C149.279 151.448 149.202 151.34 149.104 151.252C149.007 151.163 148.892 151.095 148.767 151.054C148.642 151.012 148.51 150.996 148.379 151.008H147.726V152.895H148.379Z" fill="white"/>
<path d="M150.64 150.432H151.353V153.471H150.64V150.432Z" fill="white"/>
<path d="M151.897 151.939C151.897 151.724 151.942 151.511 152.027 151.313C152.113 151.116 152.238 150.938 152.395 150.79C152.552 150.643 152.738 150.53 152.941 150.457C153.143 150.384 153.359 150.354 153.574 150.367C153.813 150.357 154.051 150.401 154.271 150.494C154.492 150.587 154.688 150.729 154.847 150.908L154.388 151.311C154.293 151.198 154.173 151.107 154.039 151.046C153.904 150.985 153.758 150.954 153.61 150.956C153.477 150.947 153.344 150.966 153.218 151.011C153.093 151.056 152.978 151.127 152.88 151.218C152.783 151.309 152.705 151.419 152.652 151.542C152.599 151.664 152.572 151.796 152.572 151.929C152.572 152.063 152.599 152.194 152.652 152.317C152.705 152.439 152.783 152.549 152.88 152.641C152.978 152.732 153.093 152.802 153.218 152.847C153.344 152.892 153.477 152.911 153.61 152.902C153.759 152.904 153.905 152.872 154.04 152.809C154.175 152.747 154.294 152.654 154.388 152.54L154.847 152.943C154.688 153.122 154.491 153.264 154.27 153.357C154.049 153.451 153.809 153.494 153.57 153.483C153.358 153.496 153.145 153.466 152.944 153.395C152.744 153.323 152.56 153.212 152.404 153.068C152.248 152.924 152.122 152.749 152.035 152.555C151.948 152.361 151.901 152.152 151.897 151.939Z" fill="white"/>
<path d="M155.94 151.004H154.948V150.432H157.644V151.004H156.653V153.471H155.94V151.004Z" fill="white"/>
<path d="M158.027 150.432H158.745V153.471H158.027V150.432Z" fill="white"/>
<path d="M159.281 151.939C159.255 151.599 159.333 151.26 159.504 150.965C159.675 150.67 159.93 150.433 160.238 150.285C160.545 150.137 160.889 150.086 161.226 150.137C161.564 150.188 161.877 150.339 162.127 150.571C162.377 150.803 162.551 151.105 162.627 151.437C162.703 151.77 162.677 152.117 162.552 152.434C162.428 152.752 162.21 153.024 161.929 153.216C161.647 153.408 161.314 153.511 160.973 153.511C160.757 153.525 160.541 153.495 160.337 153.423C160.133 153.351 159.946 153.237 159.788 153.09C159.629 152.943 159.503 152.765 159.415 152.567C159.328 152.369 159.282 152.156 159.281 151.939ZM161.94 151.939C161.939 151.748 161.881 151.562 161.774 151.404C161.666 151.246 161.515 151.123 161.338 151.051C161.161 150.98 160.967 150.961 160.78 151C160.593 151.038 160.421 151.131 160.286 151.266C160.152 151.402 160.061 151.574 160.024 151.762C159.987 151.949 160.007 152.143 160.08 152.319C160.154 152.496 160.278 152.646 160.437 152.752C160.596 152.858 160.782 152.915 160.973 152.915C161.101 152.917 161.228 152.893 161.346 152.845C161.464 152.796 161.571 152.724 161.66 152.633C161.749 152.541 161.818 152.433 161.864 152.313C161.909 152.194 161.93 152.067 161.924 151.939H161.94Z" fill="white"/>
<path d="M166.039 150.432V153.471H165.451L163.911 151.625V153.471H163.206V150.432H163.794L165.334 152.278V150.432H166.039Z" fill="white"/>
<path d="M168.808 152.822H167.373L167.099 153.471H166.358L167.736 150.432H168.441L169.824 153.471H169.074L168.808 152.822ZM168.582 152.286L168.095 151.133L167.603 152.298L168.582 152.286Z" fill="white"/>
<path d="M172.125 153.471L171.528 152.625H170.871V153.471H170.154V150.432H171.492C172.318 150.432 172.838 150.855 172.838 151.536C172.845 151.743 172.787 151.946 172.673 152.118C172.559 152.29 172.394 152.422 172.201 152.496L172.895 153.471H172.125ZM171.456 151.004H170.871V152.064H171.456C171.891 152.064 172.113 151.867 172.113 151.536C172.113 151.206 171.891 151.004 171.456 151.004Z" fill="white"/>
<path d="M174.841 152.395V153.471H174.128V152.387L172.919 150.432H173.677L174.503 151.782L175.329 150.432H176.03L174.841 152.395Z" fill="white"/>
<path d="M146.884 139.623L146.666 140.707H148.016L147.984 140.873H146.634L146.408 141.993H146.207L146.73 139.446H148.427L148.391 139.611L146.884 139.623Z" fill="white"/>
<path d="M149.693 140.086L149.66 140.264H149.604C149.173 140.264 148.891 140.522 148.798 141.025L148.6 141.997H148.419L148.798 140.107H148.975L148.895 140.51C148.976 140.373 149.094 140.261 149.235 140.186C149.375 140.112 149.534 140.077 149.693 140.086Z" fill="white"/>
<path d="M149.947 141.09C149.944 141.129 149.944 141.168 149.947 141.207C149.947 141.61 150.184 141.848 150.648 141.848C150.767 141.851 150.887 141.83 150.998 141.787C151.11 141.743 151.211 141.677 151.297 141.594L151.377 141.719C151.279 141.815 151.163 141.891 151.034 141.941C150.906 141.99 150.769 142.014 150.632 142.009C150.52 142.023 150.406 142.013 150.299 141.978C150.191 141.944 150.093 141.886 150.011 141.809C149.928 141.732 149.864 141.638 149.822 141.533C149.78 141.428 149.762 141.315 149.769 141.203C149.759 141.06 149.779 140.917 149.826 140.782C149.873 140.647 149.947 140.523 150.043 140.418C150.14 140.312 150.257 140.227 150.387 140.168C150.517 140.109 150.658 140.077 150.801 140.074C150.909 140.064 151.019 140.077 151.122 140.114C151.224 140.151 151.317 140.21 151.395 140.287C151.472 140.364 151.531 140.457 151.567 140.56C151.604 140.662 151.618 140.772 151.607 140.88C151.605 140.952 151.598 141.023 151.587 141.094L149.947 141.09ZM149.967 140.945H151.446C151.448 140.914 151.448 140.883 151.446 140.852C151.45 140.768 151.437 140.684 151.406 140.606C151.375 140.528 151.327 140.458 151.266 140.4C151.205 140.342 151.132 140.298 151.053 140.271C150.973 140.244 150.889 140.235 150.805 140.244C150.604 140.24 150.409 140.309 150.255 140.438C150.101 140.567 149.999 140.747 149.967 140.945Z" fill="white"/>
<path d="M153.892 140.691C153.893 140.762 153.886 140.832 153.872 140.901L153.654 141.993H153.461L153.679 140.901C153.693 140.841 153.7 140.78 153.699 140.719C153.699 140.425 153.517 140.252 153.163 140.252C152.96 140.244 152.762 140.314 152.608 140.446C152.454 140.578 152.356 140.764 152.332 140.965L152.127 141.993H151.946L152.324 140.103H152.502L152.429 140.461C152.518 140.339 152.636 140.24 152.772 140.175C152.909 140.109 153.06 140.079 153.211 140.087C153.658 140.087 153.892 140.32 153.892 140.691Z" fill="white"/>
<path d="M154.372 141.223C154.363 141.076 154.385 140.928 154.435 140.789C154.486 140.651 154.565 140.524 154.668 140.417C154.77 140.31 154.893 140.226 155.029 140.169C155.166 140.112 155.312 140.084 155.46 140.087C155.601 140.074 155.742 140.1 155.869 140.163C155.995 140.225 156.102 140.322 156.177 140.441L156.028 140.534C155.967 140.438 155.88 140.361 155.778 140.312C155.675 140.262 155.561 140.241 155.448 140.252C155.325 140.252 155.203 140.278 155.091 140.327C154.978 140.376 154.876 140.448 154.793 140.538C154.709 140.628 154.644 140.734 154.603 140.85C154.562 140.965 154.545 141.088 154.553 141.211C154.547 141.301 154.561 141.39 154.593 141.474C154.626 141.557 154.678 141.632 154.743 141.693C154.809 141.755 154.888 141.8 154.973 141.827C155.059 141.854 155.149 141.861 155.238 141.848C155.357 141.851 155.475 141.827 155.584 141.779C155.692 141.731 155.789 141.66 155.867 141.57L155.992 141.671C155.897 141.781 155.779 141.869 155.646 141.928C155.512 141.986 155.368 142.014 155.222 142.009C155.113 142.022 155.002 142.011 154.897 141.977C154.793 141.943 154.697 141.887 154.616 141.812C154.535 141.737 154.471 141.646 154.429 141.544C154.387 141.443 154.368 141.333 154.372 141.223Z" fill="white"/>
<path d="M158.317 140.692C158.317 140.762 158.309 140.832 158.293 140.901L158.076 141.993H157.894L158.112 140.901C158.119 140.841 158.119 140.78 158.112 140.72C158.112 140.426 157.934 140.252 157.576 140.252C157.373 140.245 157.175 140.314 157.021 140.446C156.867 140.579 156.769 140.764 156.746 140.966L156.54 141.993H156.359L156.895 139.305H157.088L156.862 140.454C156.951 140.333 157.068 140.237 157.203 140.173C157.338 140.109 157.487 140.079 157.636 140.087C158.08 140.087 158.317 140.321 158.317 140.692Z" fill="white"/>
<path d="M147.222 131.24H147.694L147.186 133.775H146.714L147.222 131.24Z" fill="white"/>
<path d="M148.467 133.126C148.466 133.155 148.466 133.183 148.467 133.211C148.464 133.242 148.467 133.272 148.478 133.301C148.488 133.33 148.505 133.356 148.528 133.377C148.55 133.399 148.577 133.414 148.606 133.423C148.636 133.432 148.667 133.434 148.697 133.429C148.788 133.429 148.876 133.402 148.951 133.352L149.028 133.687C148.885 133.768 148.724 133.808 148.56 133.803C148.489 133.811 148.416 133.803 148.348 133.78C148.28 133.757 148.217 133.72 148.165 133.67C148.112 133.621 148.071 133.561 148.044 133.494C148.017 133.427 148.005 133.356 148.008 133.284C148.004 133.233 148.004 133.181 148.008 133.13L148.193 132.216H147.879L147.952 131.857H148.266L148.355 131.414H148.806L148.717 131.857H149.237L149.165 132.216H148.645L148.467 133.126Z" fill="white"/>
<path d="M151.575 131.841L151.192 133.775H150.761L150.801 133.578C150.625 133.729 150.4 133.809 150.168 133.803C150.055 133.81 149.941 133.792 149.834 133.752C149.728 133.711 149.631 133.648 149.551 133.567C149.471 133.487 149.408 133.39 149.368 133.283C149.328 133.177 149.311 133.063 149.318 132.949C149.311 132.802 149.334 132.655 149.386 132.517C149.437 132.38 149.517 132.254 149.619 132.148C149.722 132.042 149.845 131.959 149.981 131.902C150.117 131.846 150.263 131.818 150.41 131.821C150.537 131.81 150.664 131.832 150.78 131.886C150.895 131.94 150.994 132.023 151.067 132.127L151.123 131.841H151.575ZM150.954 132.687C150.959 132.62 150.949 132.553 150.924 132.49C150.9 132.427 150.862 132.37 150.813 132.324C150.764 132.278 150.705 132.243 150.641 132.222C150.577 132.201 150.509 132.195 150.442 132.203C150.35 132.204 150.258 132.223 150.173 132.26C150.089 132.298 150.012 132.352 149.95 132.42C149.887 132.488 149.839 132.569 149.808 132.656C149.778 132.744 149.766 132.837 149.773 132.929C149.769 132.996 149.779 133.064 149.803 133.126C149.828 133.189 149.866 133.246 149.915 133.292C149.964 133.338 150.022 133.373 150.086 133.394C150.15 133.415 150.218 133.421 150.285 133.413C150.378 133.413 150.47 133.394 150.555 133.357C150.64 133.32 150.716 133.265 150.779 133.197C150.842 133.129 150.89 133.048 150.92 132.96C150.95 132.873 150.962 132.78 150.954 132.687Z" fill="white"/>
<path d="M152.324 131.087H152.776L152.252 133.775H151.796L152.324 131.087Z" fill="white"/>
<path d="M153.219 131.841H153.67L153.288 133.775H152.832L153.219 131.841ZM153.276 131.269C153.275 131.229 153.284 131.189 153.299 131.153C153.315 131.116 153.338 131.083 153.368 131.056C153.397 131.029 153.431 131.008 153.469 130.994C153.506 130.981 153.546 130.976 153.586 130.978C153.62 130.976 153.654 130.98 153.686 130.991C153.718 131.001 153.748 131.019 153.773 131.041C153.798 131.064 153.818 131.091 153.833 131.122C153.847 131.153 153.855 131.186 153.856 131.22C153.858 131.261 153.851 131.301 153.836 131.339C153.821 131.377 153.799 131.411 153.77 131.439C153.741 131.468 153.706 131.49 153.669 131.504C153.631 131.519 153.59 131.525 153.55 131.522C153.515 131.525 153.48 131.52 153.447 131.508C153.414 131.496 153.384 131.478 153.358 131.454C153.333 131.43 153.312 131.402 153.298 131.37C153.284 131.338 153.276 131.303 153.276 131.269Z" fill="white"/>
<path d="M156.157 131.841L155.774 133.775H155.343L155.383 133.578C155.208 133.729 154.982 133.809 154.751 133.804C154.637 133.81 154.523 133.792 154.417 133.752C154.31 133.711 154.214 133.648 154.133 133.567C154.053 133.487 153.991 133.39 153.951 133.283C153.91 133.177 153.893 133.063 153.9 132.949C153.893 132.803 153.916 132.656 153.968 132.518C154.019 132.381 154.098 132.256 154.2 132.15C154.302 132.044 154.425 131.96 154.56 131.904C154.696 131.847 154.842 131.819 154.988 131.821C155.116 131.809 155.244 131.832 155.36 131.885C155.476 131.939 155.576 132.023 155.649 132.127L155.706 131.841H156.157ZM155.532 132.687C155.537 132.62 155.527 132.553 155.503 132.491C155.478 132.429 155.441 132.372 155.392 132.326C155.344 132.28 155.286 132.245 155.222 132.224C155.159 132.203 155.091 132.196 155.025 132.204C154.932 132.204 154.84 132.223 154.756 132.261C154.671 132.298 154.595 132.352 154.532 132.42C154.469 132.488 154.421 132.569 154.391 132.656C154.36 132.744 154.348 132.837 154.356 132.929C154.351 132.996 154.361 133.064 154.386 133.126C154.41 133.189 154.448 133.246 154.497 133.292C154.546 133.338 154.605 133.373 154.669 133.394C154.733 133.415 154.801 133.421 154.867 133.413C154.96 133.412 155.051 133.393 155.136 133.356C155.221 133.318 155.297 133.264 155.359 133.196C155.421 133.128 155.469 133.047 155.499 132.96C155.529 132.872 155.54 132.779 155.532 132.687Z" fill="white"/>
<path d="M158.515 132.47C158.513 132.548 158.503 132.627 158.487 132.704L158.273 133.776H157.822L158.031 132.716C158.037 132.666 158.037 132.616 158.031 132.567C158.031 132.341 157.906 132.216 157.628 132.216C157.471 132.209 157.318 132.263 157.2 132.367C157.082 132.471 157.009 132.616 156.995 132.772L156.794 133.776H156.339L156.742 131.841H157.173L157.132 132.055C157.316 131.895 157.554 131.812 157.797 131.821C157.889 131.807 157.982 131.814 158.071 131.841C158.16 131.867 158.241 131.913 158.31 131.975C158.379 132.037 158.433 132.114 158.468 132.2C158.503 132.285 158.519 132.377 158.515 132.47Z" fill="white"/>
<path d="M129.332 57.3213H163.133C164.136 57.3213 165.098 57.7196 165.807 58.4285C166.516 59.1375 166.914 60.099 166.914 61.1016V72.1606C166.914 73.1632 166.516 74.1247 165.807 74.8337C165.098 75.5427 164.136 75.9409 163.133 75.9409H158.599C158.753 78.5082 160.518 80.5354 160.518 80.5354C156.326 79.8624 154.472 77.545 153.703 75.9409H129.332C128.329 75.9409 127.368 75.5427 126.659 74.8337C125.95 74.1247 125.552 73.1632 125.552 72.1606V61.1016C125.552 60.099 125.95 59.1375 126.659 58.4285C127.368 57.7196 128.329 57.3213 129.332 57.3213Z" fill="#FAFAFA"/>
<path d="M129.332 57.3216C129.026 57.3406 128.723 57.3851 128.425 57.4546C127.682 57.6404 127.014 58.0488 126.51 58.625C126.006 59.2013 125.69 59.9178 125.604 60.6787C125.579 61.0449 125.572 61.4121 125.584 61.779C125.584 62.182 125.584 62.5649 125.584 62.9881C125.584 64.6445 125.584 66.5387 125.584 68.6304C125.584 69.6823 125.584 70.7906 125.584 71.9473C125.562 72.5291 125.669 73.1086 125.898 73.644C126.141 74.1988 126.518 74.6848 126.994 75.0586C127.484 75.4502 128.068 75.7072 128.687 75.8042C129.007 75.8542 129.331 75.8717 129.654 75.8566H134.813H153.662H153.727L153.755 75.917C154.372 77.1621 155.313 78.2176 156.48 78.9719C157.077 79.3608 157.718 79.6787 158.39 79.919C159.075 80.1557 159.779 80.335 160.494 80.4551L160.397 80.6243C159.868 79.9735 159.43 79.2535 159.095 78.4843C158.735 77.6889 158.518 76.8362 158.454 75.9654V75.8566H161.868C162.384 75.8566 162.92 75.8566 163.416 75.8566C164.166 75.7929 164.879 75.499 165.456 75.0149C166.033 74.5308 166.446 73.8803 166.64 73.1523C166.754 72.6708 166.797 72.1753 166.769 71.6813V70.182C166.769 68.1938 166.769 66.2418 166.769 64.3261C166.769 63.3696 166.769 62.4292 166.769 61.5049C166.833 60.5946 166.574 59.6908 166.035 58.9538C165.505 58.2412 164.735 57.7445 163.867 57.5553C163.439 57.477 163.004 57.4473 162.569 57.4666H156.258H147.218L134.116 57.3619L130.561 57.3417H129.634C129.425 57.3417 129.32 57.3417 129.32 57.3417H129.634H130.561L134.116 57.3216L147.206 57.2893H156.246H162.589C163.037 57.2692 163.486 57.2989 163.927 57.378C164.84 57.5754 165.65 58.0965 166.209 58.845C166.774 59.6145 167.049 60.5601 166.982 61.513C166.982 62.448 166.982 63.3884 166.982 64.3342C166.982 66.2499 166.982 68.2018 166.982 70.1901V71.6893C167.008 72.201 166.962 72.7139 166.845 73.2127C166.711 73.7229 166.474 74.2004 166.149 74.6162C165.824 75.0319 165.418 75.3771 164.955 75.6309C164.49 75.8865 163.977 76.0416 163.448 76.0863C162.912 76.1226 162.404 76.0863 161.88 76.1064H158.579L158.684 75.9936C158.845 77.6604 159.503 79.2402 160.574 80.5276L160.752 80.7493L160.478 80.7009C159.751 80.5772 159.035 80.3952 158.337 80.1568C157.653 79.9076 156.998 79.5817 156.387 79.1855C155.19 78.4089 154.224 77.3245 153.59 76.046L153.683 76.1024H134.833H129.683C129.351 76.1138 129.019 76.0949 128.691 76.046C128.057 75.9416 127.459 75.68 126.952 75.2851C126.445 74.8901 126.046 74.3744 125.789 73.785C125.553 73.2305 125.443 72.6303 125.467 72.0279C125.467 70.8712 125.467 69.7629 125.467 68.711C125.467 66.6032 125.467 64.709 125.467 63.0687C125.467 62.6656 125.467 62.2626 125.467 61.8596C125.467 61.4566 125.467 61.1059 125.499 60.7513C125.59 59.9809 125.916 59.2569 126.431 58.6768C126.946 58.0968 127.627 57.6885 128.381 57.507C128.604 57.4513 128.832 57.4202 129.062 57.4143C129.251 57.3175 129.332 57.3216 129.332 57.3216Z" fill="#263238"/>
<path d="M132.774 69.223L133.334 67.9858C134.024 68.4627 134.841 68.721 135.68 68.7273C136.655 68.7273 137.05 68.4009 137.05 67.9656C137.05 66.6356 132.915 67.5626 132.915 64.9067C132.915 63.6976 133.89 62.6941 135.913 62.6941C136.779 62.6747 137.633 62.8921 138.384 63.3228L137.876 64.5721C137.277 64.2181 136.597 64.0251 135.901 64.0119C134.926 64.0119 134.551 64.3787 134.551 64.818C134.551 66.1278 138.686 65.221 138.686 67.8326C138.686 69.0215 137.703 70.0412 135.667 70.0412C134.642 70.0674 133.633 69.7821 132.774 69.223Z" fill="#3366FF"/>
<path d="M144.538 66.8047V69.9241H143.055V69.243C142.761 69.7427 142.192 70.0047 141.39 70.0047C140.109 70.0047 139.347 69.2954 139.347 68.3523C139.347 67.4092 140.028 66.716 141.693 66.716H142.954C142.954 66.0349 142.551 65.6359 141.693 65.6359C141.127 65.6313 140.575 65.8109 140.121 66.1478L139.549 65.0395C140.251 64.5898 141.072 64.3597 141.906 64.3785C143.575 64.3785 144.538 65.1483 144.538 66.8047ZM142.954 68.1992V67.639H141.866C141.124 67.639 140.891 67.913 140.891 68.2798C140.891 68.6465 141.225 68.9407 141.785 68.9407C142.034 68.9571 142.281 68.8941 142.491 68.7607C142.701 68.6274 142.863 68.4308 142.954 68.1992Z" fill="#3366FF"/>
<path d="M145.969 62.3877H147.557V69.9242H145.969V62.3877Z" fill="#3366FF"/>
<path d="M154.533 64.4592V69.9242H153.03V69.2754C152.816 69.512 152.554 69.6997 152.261 69.8256C151.968 69.9515 151.652 70.0126 151.333 70.0048C149.963 70.0048 148.999 69.2351 148.999 67.5464V64.4592H150.583V67.3046C150.583 68.2194 150.986 68.6265 151.692 68.6265C152.397 68.6265 152.949 68.159 152.949 67.1555V64.4512L154.533 64.4592Z" fill="#3366FF"/>
<path d="M159.534 69.6622C159.147 69.9034 158.697 70.0227 158.241 70.0048C156.951 70.0048 156.201 69.3478 156.201 68.0461V65.8013H155.359V64.5922H156.201V63.2622H157.785V64.5922H159.148V65.8013H157.785V68.0259C157.772 68.1202 157.781 68.2162 157.81 68.3069C157.839 68.3975 157.888 68.4805 157.953 68.5497C158.019 68.6189 158.099 68.6726 158.187 68.7068C158.276 68.741 158.372 68.7549 158.466 68.7473C158.697 68.7497 158.921 68.6776 159.107 68.5418L159.534 69.6622Z" fill="#3366FF"/>
<path d="M107.158 0.0849609H83.6615C82.0667 0.0849609 80.5372 0.718482 79.4096 1.84616C78.2819 2.97383 77.6484 4.50329 77.6484 6.09806V16.7177C77.6494 18.3118 78.2834 19.8402 79.411 20.967C80.5386 22.0938 82.0674 22.7268 83.6615 22.7268H98.791C98.791 25.7938 96.6227 28.2764 96.6227 28.2764C101.677 27.4704 103.692 24.5283 104.461 22.7268H107.158C108.75 22.7236 110.275 22.0892 111.4 20.9627C112.525 19.8363 113.158 18.3097 113.159 16.7177V6.09806C113.159 4.50538 112.527 2.97775 111.402 1.85043C110.277 0.723098 108.75 0.0881634 107.158 0.0849609Z" fill="#FAFAFA"/>
<path d="M107.158 0.0846998H107.311H107.758C108.339 0.136712 108.909 0.272459 109.451 0.487722C110.48 0.905522 111.375 1.59901 112.036 2.49201C112.697 3.38501 113.1 4.44297 113.199 5.54969C113.199 5.72702 113.199 5.90838 113.227 6.08974C113.255 6.2711 113.227 6.45649 113.227 6.64188V7.78646C113.227 8.5643 113.227 9.39855 113.227 10.2288C113.227 11.9295 113.227 13.7673 113.227 15.722C113.227 16.2137 113.227 16.7094 113.203 17.2212C113.183 17.4751 113.139 17.729 113.094 17.987C112.831 19.2093 112.198 20.3209 111.281 21.1705C110.363 22.02 109.207 22.5662 107.968 22.7346C107.387 22.7983 106.802 22.8198 106.219 22.7991H104.441L104.53 22.7426C103.883 24.2647 102.824 25.5755 101.471 26.527C100.764 27.0193 100.001 27.4252 99.198 27.7361C98.3727 28.0308 97.5231 28.252 96.6589 28.397L96.3929 28.4454L96.5662 28.2318C97.1812 27.4678 97.6859 26.6213 98.0655 25.7169C98.467 24.7769 98.6845 23.7686 98.7063 22.7467L98.8111 22.8514H83.6614C83.4156 22.8514 83.1657 22.8515 82.9158 22.8031C81.9317 22.6804 80.9916 22.3224 80.1753 21.7593C79.3795 21.2073 78.7264 20.4739 78.2702 19.6196C77.814 18.7654 77.5677 17.8148 77.5516 16.8464C77.5516 15.9154 77.5516 14.9965 77.5516 14.0817C77.5516 12.26 77.5516 10.4773 77.5516 8.73357C77.5516 7.86304 77.5516 7.00326 77.5516 6.15422C77.5426 4.9056 77.9174 3.68435 78.6252 2.65572C79.3331 1.62709 80.3399 0.840745 81.5093 0.403088C82.2338 0.133125 83.0011 -0.00341849 83.7743 6.50076e-05H90.1098L102.583 0.036337L105.977 0.0564882H106.859H107.158H106.859H105.977H102.583L90.1098 0.157244H85.9748H83.7743C83.0211 0.15724 82.2742 0.293789 81.5697 0.560266C80.8316 0.84261 80.1569 1.26873 79.5847 1.8139C79.0126 2.35907 78.5544 3.01243 78.2368 3.73609C77.5194 5.2313 77.8015 6.98848 77.7451 8.71745C77.6886 10.4464 77.7451 12.2439 77.7451 14.0656C77.7451 14.9764 77.7451 15.8993 77.7451 16.8263C77.7585 17.7618 77.9956 18.6806 78.4366 19.5058C78.8777 20.331 79.5097 21.0388 80.2801 21.5698C81.0705 22.1121 81.9803 22.455 82.932 22.5693C83.1698 22.6016 83.4116 22.5975 83.6493 22.6137H98.8836V22.7144C98.8705 23.7721 98.6543 24.8174 98.2468 25.7935C97.8595 26.7191 97.3425 27.5849 96.7113 28.3648L96.6186 28.1955C97.4694 28.055 98.3057 27.8378 99.1174 27.5467C99.9067 27.2534 100.657 26.8635 101.35 26.386C102.687 25.4698 103.74 24.1962 104.389 22.7104L104.413 22.654H106.251C106.826 22.674 107.403 22.6551 107.976 22.5975C109.054 22.4515 110.07 22.0107 110.914 21.3238C111.757 20.6368 112.395 19.7304 112.756 18.7043C112.842 18.4646 112.914 18.2196 112.969 17.9708C113.018 17.725 113.058 17.4751 113.082 17.2293C113.118 16.7336 113.106 16.2338 113.11 15.7421C113.11 13.7875 113.11 11.9497 113.11 10.2489C113.11 9.40258 113.11 8.58445 113.11 7.80661V6.66203C113.11 6.47664 113.11 6.29125 113.11 6.10989L113.086 5.5779C112.99 4.48727 112.598 3.44354 111.953 2.5593C111.307 1.67506 110.432 0.983862 109.423 0.560266C108.702 0.268044 107.935 0.106988 107.158 0.0846998Z" fill="#263238"/>
<path d="M91.4156 8.02002V14.1822H90.537V11.4336H86.9985V14.1822H86.1199V8.02002H86.9985V10.6679H90.537V8.02002H91.4156Z" fill="#3366FF"/>
<path d="M92.7093 11.8488C92.7093 11.2075 92.9641 10.5924 93.4175 10.1389C93.871 9.68543 94.4861 9.43066 95.1274 9.43066C95.7688 9.43066 96.3838 9.68543 96.8373 10.1389C97.2908 10.5924 97.5456 11.2075 97.5456 11.8488C97.5456 12.4901 97.2908 13.1052 96.8373 13.5587C96.3838 14.0122 95.7688 14.2669 95.1274 14.2669C94.4861 14.2669 93.871 14.0122 93.4175 13.5587C92.9641 13.1052 92.7093 12.4901 92.7093 11.8488ZM96.7032 11.8488C96.714 11.636 96.6814 11.4232 96.6074 11.2233C96.5334 11.0235 96.4195 10.8408 96.2727 10.6863C96.1259 10.5319 95.9491 10.4089 95.7533 10.3248C95.5575 10.2408 95.3466 10.1974 95.1335 10.1974C94.9204 10.1974 94.7095 10.2408 94.5136 10.3248C94.3178 10.4089 94.1411 10.5319 93.9943 10.6863C93.8474 10.8408 93.7336 11.0235 93.6595 11.2233C93.5855 11.4232 93.5529 11.636 93.5637 11.8488C93.5529 12.0616 93.5855 12.2744 93.6595 12.4743C93.7336 12.6741 93.8474 12.8568 93.9943 13.0113C94.1411 13.1658 94.3178 13.2887 94.5136 13.3728C94.7095 13.4568 94.9204 13.5002 95.1335 13.5002C95.3466 13.5002 95.5575 13.4568 95.7533 13.3728C95.9491 13.2887 96.1259 13.1658 96.2727 13.0113C96.4195 12.8568 96.5334 12.6741 96.6074 12.4743C96.6814 12.2744 96.714 12.0616 96.7032 11.8488Z" fill="#3366FF"/>
<path d="M98.7264 7.65771H99.5728V14.1827H98.7264V7.65771Z" fill="#3366FF"/>
<path d="M104.877 11.3655V14.1867H104.071V13.566C103.892 13.797 103.658 13.9794 103.39 14.0963C103.123 14.2132 102.83 14.2609 102.539 14.235C101.483 14.235 100.814 13.6708 100.814 12.8607C100.814 12.1111 101.298 11.4985 102.688 11.4985H104.026V11.3292C104.026 10.6159 103.623 10.2048 102.777 10.2048C102.241 10.1989 101.72 10.3751 101.298 10.7046L100.951 10.0758C101.51 9.6672 102.189 9.45596 102.882 9.47535C104.155 9.47132 104.877 10.0758 104.877 11.3655ZM104.034 12.7559V12.091H102.732C101.894 12.091 101.656 12.4174 101.656 12.8124C101.656 13.2799 102.059 13.5701 102.688 13.5701C102.969 13.5914 103.25 13.5245 103.492 13.3785C103.733 13.2326 103.923 13.0149 104.034 12.7559Z" fill="#3366FF"/>
<path d="M24.933 93.4531H46.4625C47.4173 93.4542 48.3327 93.8343 49.0076 94.5098C49.6824 95.1854 50.0614 96.1013 50.0614 97.0561V106.124C50.062 106.597 49.9693 107.066 49.7886 107.503C49.608 107.94 49.343 108.337 49.0087 108.672C48.6745 109.006 48.2776 109.272 47.8407 109.453C47.4037 109.634 46.9354 109.727 46.4625 109.727H31.3007C30.3738 111.267 28.5078 113.141 24.804 113.737C25.7504 112.578 26.3882 111.199 26.6579 109.727H24.933C23.9774 109.727 23.061 109.348 22.3853 108.672C21.7096 107.996 21.33 107.08 21.33 106.124V97.0561C21.33 96.1006 21.7096 95.1841 22.3853 94.5084C23.061 93.8327 23.9774 93.4531 24.933 93.4531Z" fill="#FAFAFA"/>
<path d="M24.933 93.4532C24.4056 93.4747 23.8878 93.6008 23.4096 93.824C22.9443 94.0458 22.5327 94.3661 22.2036 94.7628C21.8744 95.1595 21.6354 95.623 21.5033 96.1212C21.3957 96.5627 21.355 97.0178 21.3824 97.4714C21.3824 99.4059 21.3824 101.751 21.3824 104.448C21.3824 104.782 21.3824 105.125 21.3824 105.475C21.3824 105.826 21.3824 106.177 21.4065 106.523C21.4956 107.264 21.8162 107.958 22.3228 108.506C22.8294 109.054 23.4961 109.428 24.2277 109.574C24.6196 109.634 25.0165 109.656 25.4126 109.639H26.7506V109.743C26.4903 111.233 25.8519 112.63 24.8967 113.802L24.8121 113.645C26.07 113.458 27.2846 113.048 28.399 112.436C29.5578 111.776 30.5289 110.831 31.2201 109.691L31.2524 109.643H46.132C46.5105 109.659 46.8896 109.628 47.2604 109.55C47.9821 109.383 48.632 108.991 49.116 108.43C49.6 107.869 49.893 107.169 49.9526 106.431C49.9849 103.464 49.9526 100.579 49.9526 97.8462C50.0117 97.1816 49.9391 96.5119 49.739 95.8754C49.5222 95.2788 49.1475 94.7523 48.655 94.352C48.1624 93.9517 47.5703 93.6926 46.9421 93.6023C46.6358 93.5666 46.3273 93.5532 46.0191 93.562H45.1002H38.3254L28.5239 93.5016H25.8599H25.1627H24.929H25.1627H25.8599L28.5239 93.4814L38.3335 93.4492H45.1083H46.0272C46.3435 93.4388 46.6601 93.4523 46.9743 93.4895C47.6275 93.5794 48.2443 93.844 48.7597 94.2552C49.2893 94.6757 49.6935 95.2333 49.9285 95.8673C50.0484 96.191 50.1204 96.5304 50.1421 96.8749C50.1662 97.2255 50.1421 97.556 50.1421 97.9026C50.1421 100.643 50.1421 103.505 50.1421 106.503C50.0781 107.286 49.7673 108.028 49.2545 108.622C48.7417 109.217 48.0534 109.634 47.2887 109.812C46.9032 109.892 46.5093 109.925 46.1159 109.909H31.3007L31.3854 109.856C30.6737 111.031 29.6716 112.002 28.4756 112.677C27.3408 113.306 26.1029 113.726 24.8201 113.919L24.5743 113.959L24.7315 113.762C25.6738 112.62 26.3067 111.256 26.5693 109.8L26.6579 109.905H25.4247C25.0202 109.92 24.6153 109.896 24.2156 109.832C23.4353 109.668 22.7286 109.257 22.2005 108.659C21.6997 108.096 21.3845 107.393 21.2977 106.644C21.2655 106.277 21.2735 105.927 21.2735 105.58C21.2735 105.234 21.2735 104.887 21.2735 104.552C21.2735 101.856 21.2735 99.5107 21.2937 97.5761C21.2702 97.1138 21.3164 96.6505 21.4307 96.2018C21.5409 95.8092 21.7152 95.4374 21.9466 95.1016C22.3161 94.577 22.8181 94.1598 23.4015 93.8925C23.7619 93.7266 24.1473 93.6217 24.5421 93.5822C24.796 93.4492 24.933 93.4532 24.933 93.4532Z" fill="#263238"/>
<path d="M31.5264 99.3779V104.065H30.4423V102.143H28.3103V104.065H27.2262V99.3779H28.3103V101.224H30.4423V99.3779H31.5264Z" fill="#3366FF"/>
<path d="M36.0725 102.558H33.3602C33.4162 102.782 33.5515 102.979 33.7411 103.112C33.9307 103.244 34.1619 103.304 34.3919 103.279C34.5582 103.287 34.7241 103.26 34.8795 103.2C35.0348 103.141 35.1762 103.049 35.2947 102.933L35.8509 103.537C35.66 103.736 35.4281 103.891 35.1713 103.991C34.9144 104.092 34.6389 104.135 34.3637 104.118C33.1184 104.118 32.3083 103.336 32.3083 102.264C32.3047 102.013 32.3524 101.765 32.4487 101.534C32.5449 101.303 32.6875 101.094 32.8677 100.92C33.0479 100.746 33.2618 100.611 33.4963 100.524C33.7307 100.436 33.9807 100.397 34.2307 100.41C34.4796 100.396 34.7285 100.436 34.9614 100.525C35.1942 100.614 35.4058 100.75 35.5824 100.926C35.7591 101.102 35.8968 101.313 35.9868 101.546C36.0768 101.778 36.117 102.027 36.1048 102.276C36.0927 102.368 36.0806 102.469 36.0725 102.558ZM33.332 101.965H35.1093C35.072 101.757 34.9625 101.568 34.8001 101.432C34.6376 101.296 34.4325 101.222 34.2206 101.222C34.0088 101.222 33.8037 101.296 33.6412 101.432C33.4787 101.568 33.3693 101.757 33.332 101.965Z" fill="#3366FF"/>
<path d="M36.7899 99.0952H37.8337V104.064H36.7899V99.0952Z" fill="#3366FF"/>
<path d="M38.805 99.0952H39.8488V104.064H38.805V99.0952Z" fill="#3366FF"/>
<path d="M40.5501 102.264C40.5242 101.867 40.6182 101.472 40.8198 101.129C41.0214 100.787 41.3212 100.512 41.6805 100.342C42.0398 100.172 42.4419 100.114 42.8346 100.176C43.2274 100.237 43.5926 100.415 43.883 100.686C44.1733 100.958 44.3754 101.31 44.4629 101.698C44.5505 102.086 44.5195 102.491 44.374 102.861C44.2284 103.231 43.9751 103.548 43.6468 103.772C43.3185 103.996 42.9305 104.117 42.533 104.118C42.2789 104.135 42.0239 104.1 41.7838 104.015C41.5438 103.93 41.3239 103.796 41.1379 103.622C40.9518 103.448 40.8036 103.238 40.7025 103.004C40.6014 102.77 40.5495 102.518 40.5501 102.264ZM43.4519 102.264C43.4378 102.085 43.3718 101.914 43.262 101.772C43.1522 101.63 43.0034 101.523 42.8338 101.464C42.6642 101.405 42.4811 101.397 42.307 101.441C42.1329 101.485 41.9754 101.578 41.8536 101.71C41.7319 101.842 41.6512 102.007 41.6216 102.184C41.5919 102.361 41.6145 102.543 41.6866 102.707C41.7587 102.871 41.8772 103.011 42.0275 103.109C42.1778 103.207 42.3535 103.259 42.533 103.259C42.6594 103.259 42.7843 103.232 42.8997 103.18C43.0152 103.129 43.1186 103.054 43.2036 102.96C43.2885 102.867 43.353 102.756 43.3929 102.636C43.4329 102.516 43.4475 102.39 43.4357 102.264H43.4519Z" fill="#3366FF"/>
<path d="M55.6312 23.6533H19.9355C18.0938 23.6533 16.3275 24.3849 15.0253 25.6872C13.723 26.9895 12.9914 28.7557 12.9914 30.5974V41.9626C12.9914 42.8744 13.171 43.7771 13.5201 44.6194C13.8691 45.4617 14.3806 46.2269 15.0255 46.8714C15.6704 47.5159 16.4359 48.027 17.2784 48.3756C18.1209 48.7241 19.0238 48.9032 19.9355 48.9027H49.8841C50.5249 50.809 52.6488 54.948 59.21 56.016C59.21 56.016 56.3284 52.7072 56.7476 48.806C58.3709 48.5376 59.8463 47.7015 60.9107 46.4468C61.975 45.192 62.5592 43.6 62.5592 41.9546V30.5974C62.5581 28.7588 61.8284 26.9956 60.5298 25.6941C59.2313 24.3925 57.4698 23.6587 55.6312 23.6533Z" fill="#FAFAFA"/>
<path d="M55.6312 23.6533H56.2115C56.7754 23.6955 57.3319 23.8078 57.868 23.9878C58.7425 24.2734 59.5491 24.7357 60.2377 25.3459L60.5481 25.624C60.6448 25.7248 60.7375 25.8336 60.8382 25.9384C61.0399 26.1637 61.2283 26.4005 61.4025 26.6477C61.7739 27.198 62.0694 27.7958 62.2811 28.425C62.5028 29.1323 62.6195 29.8683 62.6277 30.6094C62.6277 31.3792 62.6277 32.1893 62.6277 33.0276C62.6277 34.7149 62.6277 36.5392 62.6277 38.5006C62.6277 39.4759 62.6277 40.4862 62.6277 41.5313C62.6429 42.0706 62.6092 42.6102 62.5269 43.1434C62.4361 43.6858 62.2791 44.2151 62.0594 44.7192C61.6085 45.7769 60.9039 46.7071 60.008 47.4276C59.5435 47.7975 59.036 48.1101 58.4967 48.3585C57.9399 48.6045 57.3552 48.7817 56.7556 48.8865L56.8282 48.814C56.5863 51.2643 57.5979 53.8679 59.2745 55.9555L59.4277 56.149L59.1899 56.1087C57.187 55.8142 55.2748 55.0777 53.5919 53.9525C52.7264 53.3475 51.9573 52.6151 51.3108 51.7802C50.6534 50.9198 50.139 49.959 49.7874 48.9349L49.88 49.0034H20.7697C20.1274 49.0267 19.4843 48.9957 18.8473 48.9107C17.5768 48.716 16.3845 48.175 15.4015 47.347C14.9195 46.9363 14.4927 46.4648 14.1319 45.9444C13.7763 45.4273 13.4917 44.8647 13.2856 44.2719C13.0723 43.6878 12.9474 43.0752 12.9148 42.4543C12.8664 41.8336 12.9148 41.2452 12.8906 40.6286V37.0538C12.8906 35.8729 12.8906 34.7001 12.8906 33.5434V31.8386C12.8906 31.2663 12.8906 30.7061 12.9148 30.1298C12.9859 28.9955 13.3391 27.897 13.9425 26.9339C14.2332 26.4624 14.5766 26.0257 14.9662 25.6321C15.3566 25.2497 15.7893 24.913 16.2559 24.6286C17.1632 24.0597 18.1891 23.7067 19.2544 23.5968C19.7783 23.5606 20.2942 23.5646 20.806 23.5646H22.3254H33.5012L49.6826 23.5968H54.0795H55.2241H55.6272H55.2241H54.0795H49.6826L33.5012 23.6331H22.3254H20.8221C20.3103 23.6331 19.7944 23.6331 19.2866 23.6694C18.2466 23.7671 17.2436 24.1051 16.3566 24.6568C15.9021 24.9332 15.4814 25.2619 15.1032 25.6361C14.7171 26.0494 14.3828 26.5082 14.1078 27.0024C13.5233 27.9395 13.1812 29.0074 13.1123 30.1097C13.072 30.6618 13.1123 31.2381 13.0881 31.8064V33.5313C13.0881 34.688 13.0881 35.8608 13.0881 37.0417V40.6245C13.0881 41.8336 13.0277 43.0427 13.4911 44.1993C13.6866 44.7703 13.9577 45.3125 14.2972 45.8114C14.6495 46.3142 15.0639 46.7705 15.5304 47.1696C16.4852 47.9722 17.6425 48.4965 18.8755 48.685C19.502 48.7674 20.1343 48.7971 20.7657 48.7737H26.5813H49.9002H49.9727L49.9969 48.8422C50.3427 49.8439 50.8461 50.784 51.4881 51.6271C52.1205 52.4474 52.8733 53.1676 53.7209 53.7631C55.3795 54.8726 57.2641 55.5994 59.2382 55.891L59.1536 56.0442C58.3058 54.9986 57.6409 53.8172 57.1868 52.55C56.7358 51.3412 56.5623 50.0465 56.679 48.7616V48.6971H56.7435C57.3288 48.5926 57.8996 48.4195 58.4443 48.1812C58.9717 47.939 59.4683 47.6346 59.9234 47.2744C61.2251 46.2372 62.1047 44.7616 62.3979 43.1233C62.4775 42.606 62.5112 42.0827 62.4987 41.5595C62.4987 40.5171 62.4987 39.5068 62.4987 38.5288C62.4987 36.5701 62.4987 34.7458 62.4987 33.0558C62.4987 32.2135 62.4987 31.4034 62.4987 30.6376C62.4916 29.9082 62.3803 29.1835 62.1682 28.4855C61.9633 27.8622 61.6745 27.2697 61.3098 26.7243C61.145 26.4743 60.9632 26.2359 60.7657 26.0109C60.669 25.9021 60.5763 25.7973 60.4795 25.6966L60.1773 25.4185C59.4996 24.8082 58.704 24.3433 57.8397 24.0522C57.3076 23.8694 56.7556 23.7503 56.1954 23.6976C55.8287 23.6734 55.6312 23.6533 55.6312 23.6533Z" fill="#263238"/>
<path d="M23.5869 38.8872L24.2478 37.404C24.9497 37.8504 25.7617 38.0931 26.5934 38.1053C27.4277 38.1053 27.7501 37.8715 27.7501 37.5249C27.7501 36.3965 23.7199 37.2187 23.7199 34.5789C23.7199 33.3093 24.7556 32.2736 26.8715 32.2736C27.7693 32.26 28.6562 32.472 29.4508 32.8902L28.8302 34.3854C28.2236 34.0463 27.5422 33.8635 26.8473 33.8534C26.005 33.8534 25.6987 34.1355 25.6987 34.4942C25.6987 35.5783 29.7289 34.7683 29.7289 37.3879C29.7289 38.6292 28.6932 39.6851 26.5813 39.6851C25.528 39.7062 24.49 39.4296 23.5869 38.8872Z" fill="#263238"/>
<path d="M35.7259 36.4696V39.5285H33.9284V38.8152C33.6544 39.3431 33.1224 39.6212 32.3163 39.6212C30.9944 39.6212 30.2609 38.8797 30.2609 37.9245C30.2609 36.9089 31.0025 36.2802 32.7113 36.2802H33.8075C33.7793 35.72 33.4045 35.4056 32.6388 35.4056C32.1012 35.3965 31.5746 35.5588 31.1355 35.8691L30.4826 34.5552C31.2155 34.1264 32.0517 33.9062 32.9007 33.9185C34.7022 33.9305 35.7259 34.7205 35.7259 36.4696ZM33.7954 37.7593V37.2797H32.9571C32.3365 37.2797 32.1108 37.5054 32.1108 37.8399C32.1108 38.1744 32.3768 38.4001 32.8322 38.4001C33.0408 38.4133 33.2479 38.3578 33.4219 38.2421C33.5959 38.1263 33.7271 37.9567 33.7954 37.7593Z" fill="#263238"/>
<path d="M36.947 31.9878H38.8775V39.5283H36.947V31.9878Z" fill="#263238"/>
<path d="M45.9264 34.019L43.6493 39.5284H41.6584L39.4055 34.019H41.3884L42.7063 37.3843L44.1007 34.019H45.9264Z" fill="#263238"/>
<path d="M51.871 37.2593H47.869C47.9576 37.5407 48.1409 37.7828 48.3877 37.9444C48.6346 38.106 48.9297 38.1772 49.2231 38.1459C49.4559 38.1535 49.6878 38.115 49.9057 38.0327C50.1235 37.9504 50.323 37.8259 50.4926 37.6663L51.4962 38.7222C51.1936 39.0339 50.8265 39.2755 50.4205 39.4301C50.0146 39.5846 49.5798 39.6484 49.1465 39.6169C47.1879 39.6169 45.9224 38.4079 45.9224 36.7635C45.9224 35.1192 47.212 33.9424 48.9491 33.9424C50.5612 33.9424 51.8952 34.9782 51.8952 36.7958C51.8992 36.9248 51.8992 37.1101 51.871 37.2593ZM47.8408 36.2436H50.0936C50.0461 35.9795 49.9072 35.7405 49.7013 35.5684C49.4954 35.3963 49.2356 35.302 48.9672 35.302C48.6988 35.302 48.439 35.3963 48.2331 35.5684C48.0272 35.7405 47.8883 35.9795 47.8408 36.2436Z" fill="#263238"/>
<path d="M113.679 81.6355C113.115 81.7027 112.544 81.6161 112.026 81.3848C111.508 81.1534 111.062 80.786 110.737 80.3216C111.494 80.4385 112.312 80.5473 112.997 80.1967C113.683 79.8461 114.065 78.8425 113.529 78.2944C113.126 77.8632 112.425 77.9398 111.825 77.8914C111.126 77.8289 110.461 77.5681 109.906 77.1396C109.351 76.7112 108.93 76.133 108.693 75.4733C108.185 74.0224 108.649 72.4385 108.83 70.911C109.066 68.6844 108.703 66.4352 107.779 64.3959C106.854 62.3567 105.401 60.6015 103.571 59.3121L94.007 53.8027C90.537 58.236 89.4569 64.2209 90.1743 69.8108C90.8917 75.4007 93.2655 80.6481 96.1148 85.5085C96.8972 86.9534 97.8675 88.2883 99.0005 89.4783C100.144 90.6757 101.657 91.4524 103.297 91.6828C103.507 91.0079 103.552 90.2924 103.43 89.5963C103.307 88.9001 103.02 88.2433 102.591 87.6808C103.887 87.7568 105.184 87.5704 106.406 87.1327C107.628 86.695 108.748 86.0151 109.701 85.1337L107.653 83.5619C108.737 83.7002 109.839 83.5994 110.88 83.2666C111.92 82.9337 112.876 82.377 113.679 81.6355Z" fill="#263238"/>
<path d="M76.8463 66.0351C77.0156 62.0411 79.5022 58.696 83.3511 57.5958L95.337 54.1701C100.54 53.4567 104.204 59.7802 104.703 65.0074C105.247 70.8149 105.658 76.953 105.106 81.3137C103.986 90.0915 97.3279 91.4094 97.3279 91.4094C97.3279 91.4094 97.5496 99.3167 97.6181 101.868L91.5164 114.619L79.7078 98.3091L76.8262 66.1439C76.8101 65.9948 76.8383 66.2366 76.8463 66.0351Z" fill="#FFBF9D"/>
<path d="M101.112 72.6486C101.125 72.9405 101.022 73.2257 100.827 73.4433C100.632 73.6608 100.36 73.7936 100.069 73.8133C99.9246 73.8318 99.7784 73.821 99.6388 73.7815C99.4991 73.742 99.3689 73.6747 99.256 73.5836C99.143 73.4925 99.0497 73.3794 98.9815 73.2513C98.9134 73.1232 98.8719 72.9826 98.8595 72.838C98.8483 72.5464 98.9509 72.2618 99.1457 72.0445C99.3405 71.8271 99.6122 71.694 99.9033 71.6733C100.047 71.6548 100.193 71.6657 100.333 71.7052C100.473 71.7446 100.603 71.812 100.716 71.9031C100.829 71.9942 100.922 72.1072 100.99 72.2353C101.058 72.3635 101.1 72.504 101.112 72.6486Z" fill="#263238"/>
<path d="M103.486 68.4649C103.349 68.6181 102.483 68.0135 101.278 68.0619C100.073 68.1103 99.206 68.7309 99.073 68.5899C99.0045 68.5254 99.1375 68.2594 99.5164 67.9652C100.026 67.5887 100.64 67.379 101.274 67.3647C101.901 67.3423 102.519 67.5202 103.039 67.8725C103.422 68.1385 103.555 68.3964 103.486 68.4649Z" fill="#263238"/>
<path d="M90.4806 72.6487C90.4917 72.941 90.3885 73.2261 90.1929 73.4436C89.9973 73.6611 89.7246 73.7937 89.4327 73.8134C89.2906 73.829 89.1467 73.8159 89.0097 73.7751C88.8726 73.7342 88.7452 73.6663 88.6348 73.5755C88.5243 73.4846 88.4332 73.3725 88.3668 73.2459C88.3003 73.1193 88.2599 72.9806 88.2478 72.8381C88.2366 72.5465 88.3393 72.2619 88.5341 72.0445C88.7289 71.8272 89.0005 71.6941 89.2917 71.6734C89.434 71.6578 89.5781 71.6708 89.7154 71.7116C89.8527 71.7525 89.9804 71.8203 90.0911 71.9111C90.2019 72.0019 90.2934 72.114 90.3602 72.2406C90.4271 72.3673 90.468 72.506 90.4806 72.6487Z" fill="#263238"/>
<path d="M92.0443 68.7915C91.9073 68.9446 91.0408 68.3401 89.8357 68.3885C88.6307 68.4368 87.7642 69.0615 87.6312 68.9164C87.5627 68.8519 87.6957 68.5859 88.0745 68.2917C88.5844 67.9153 89.1981 67.7055 89.8317 67.6912C90.459 67.6695 91.0771 67.8473 91.597 68.199C91.9758 68.465 92.1088 68.727 92.0443 68.7915Z" fill="#263238"/>
<path d="M96.0786 78.1494C96.0786 78.0809 96.8161 77.9318 98.0252 77.7464C98.3355 77.7021 98.6216 77.6336 98.67 77.424C98.6835 77.1053 98.6022 76.7897 98.4363 76.5172L97.4408 74.1918C96.0745 70.895 95.075 68.1787 95.208 68.1263C95.341 68.0739 96.5582 70.7016 97.9244 73.9983C98.2549 74.8043 98.5692 75.5862 98.8675 76.3318C99.0749 76.6986 99.1449 77.1272 99.065 77.5409C99.0234 77.6507 98.9576 77.7498 98.8725 77.8307C98.7874 77.9117 98.6851 77.9724 98.5733 78.0084C98.4039 78.0574 98.2295 78.0872 98.0534 78.097C96.8443 78.1857 96.0866 78.2179 96.0786 78.1494Z" fill="#263238"/>
<path d="M85.6524 88.6323C85.6524 88.6323 88.667 94.5487 97.3804 93.4686L97.3239 91.4172C93.2507 91.5864 89.2104 90.6223 85.6524 88.6323Z" fill="#FF9A6C"/>
<path d="M91.5405 64.9064C91.4317 65.2369 90.2227 65.12 88.8161 65.3336C87.4096 65.5472 86.273 65.9664 86.0756 65.6802C85.9909 65.5391 86.1803 65.2248 86.6317 64.8943C87.2349 64.4871 87.9229 64.2225 88.6435 64.1205C89.3641 64.0186 90.0984 64.082 90.7909 64.3059C91.3189 64.4832 91.5849 64.7492 91.5405 64.9064Z" fill="#263238"/>
<path d="M102.99 64.7896C102.785 65.0717 101.947 64.8137 100.947 64.8299C99.9476 64.846 99.1093 65.0717 98.9078 64.7896C98.8191 64.6525 98.9441 64.3865 99.3108 64.1044C99.7973 63.7785 100.37 63.6045 100.955 63.6045C101.541 63.6045 102.113 63.7785 102.599 64.1044C102.954 64.3745 103.083 64.6525 102.99 64.7896Z" fill="#263238"/>
<path d="M91.5607 80.5034C91.6386 80.1389 91.8435 79.814 92.1388 79.5867C92.434 79.3593 92.8005 79.2443 93.1727 79.262C93.4422 79.29 93.7006 79.3836 93.9255 79.5347C94.1503 79.6858 94.3347 79.8897 94.4624 80.1286C94.5853 80.369 94.6586 80.6317 94.678 80.901C94.6974 81.1703 94.6624 81.4408 94.5753 81.6963L94.5551 81.8132C94.3106 82.0924 93.9854 82.2889 93.6245 82.3755C93.2636 82.4621 92.8846 82.4346 92.54 82.2968C92.2011 82.1487 91.9209 81.8922 91.7437 81.5675C91.5664 81.2429 91.502 80.8686 91.5607 80.5034Z" fill="#FF9A6C"/>
<path d="M95.4257 81.8132C95.4257 81.6278 94.2166 81.7205 93.2574 80.7493C92.2982 79.778 92.3466 78.4681 92.1733 78.4722C92.0967 78.4722 91.9597 78.7785 91.9879 79.3266C92.0337 80.041 92.3307 80.7162 92.8262 81.2329C93.3031 81.7245 93.9513 82.0133 94.6358 82.0389C95.1315 82.055 95.4257 81.8938 95.4257 81.8132Z" fill="#263238"/>
<path d="M80.8766 52.1267C82.2267 49.9826 85.4106 47.7458 87.9053 47.2904C90.7506 46.7906 92.4635 47.2904 94.3335 48.9871C94.3335 48.9871 95.7884 50.3896 97.1547 50.6556C98.5209 50.9216 99.6574 50.6959 101.286 51.5262C103.506 52.6627 104.482 55.637 105.513 57.91C106.791 60.7312 108.617 63.3347 109.451 66.3211C110.285 69.3075 109.854 72.979 107.323 74.7846C107.754 72.4954 108.129 69.9765 107.17 67.905C107.293 68.7328 107.24 69.5772 107.017 70.3836C106.549 69.0415 106.049 67.6551 105.074 66.6153C104.099 65.5755 102.882 65.0516 101.935 64.1005C100.54 62.702 99.9194 60.57 98.2066 59.5544C96.4454 58.5025 94.2166 59.0264 92.1612 59.0385C90.4326 59.033 88.7272 58.6407 87.1699 57.8903C85.6127 57.1399 84.2432 56.0505 83.1617 54.702L83.6736 54.6576C82.634 53.9406 81.6936 53.0896 80.8766 52.1267Z" fill="#263238"/>
<path d="M68.0201 73.487C68.806 70.9197 70.1803 68.5701 71.0428 66.027C71.8811 63.5484 72.2277 60.9006 73.34 58.5348C74.8393 55.3509 77.6403 51.228 82.005 51.4537L82.2992 51.7157C83.787 51.5349 85.2965 51.7146 86.7002 52.2396L86.7647 55.6411L87.603 56.3786C87.2524 57.0517 86.9179 57.7046 86.5995 58.3454C86.3417 59.6242 85.9694 60.8773 85.4871 62.0895C85.0045 63.2781 84.2923 64.36 83.3914 65.2734C75.875 83.2643 82.6942 84.4048 79.3048 94.694L77.1768 88.7938C75.3509 87.7361 73.8839 86.1554 72.9652 84.2557L72.5904 86.1257C70.8667 84.2978 69.8286 81.9298 69.6524 79.4235L68.6771 81.2169C67.1415 79.0446 67.2504 76.0582 68.0201 73.487Z" fill="#263238"/>
<path d="M80.8564 72.8299C80.7395 72.5398 75.3068 70.7503 75.3995 76.4571C75.4882 82.0108 81.062 80.7574 81.066 80.6002C81.07 80.443 80.8564 72.8299 80.8564 72.8299Z" fill="#FFBF9D"/>
<path d="M79.3048 78.5409C79.2806 78.5409 79.208 78.6094 79.0468 78.686C78.8195 78.7895 78.561 78.801 78.3254 78.7183C77.733 78.5127 77.2211 77.5898 77.1768 76.5903C77.1537 76.1146 77.2363 75.6398 77.4186 75.1999C77.468 75.0256 77.5586 74.8658 77.6827 74.7339C77.8069 74.602 77.961 74.502 78.132 74.4422C78.2426 74.4104 78.3608 74.4184 78.4661 74.4648C78.5714 74.5111 78.6571 74.593 78.7083 74.6961C78.7889 74.8492 78.7526 74.9621 78.7849 74.9701C78.8171 74.9782 78.9017 74.8774 78.8534 74.6477C78.8192 74.5113 78.7396 74.3905 78.6277 74.3052C78.4766 74.188 78.2857 74.1345 78.0957 74.156C77.8686 74.2057 77.6581 74.3129 77.4844 74.4675C77.3108 74.6221 77.1799 74.8188 77.1043 75.0387C76.8749 75.5224 76.7697 76.0557 76.798 76.5903C76.8544 77.7107 77.4468 78.7465 78.2529 78.9641C78.403 79.004 78.5602 79.0098 78.7129 78.9812C78.8656 78.9527 79.0099 78.8903 79.1355 78.7989C79.3048 78.6739 79.333 78.549 79.3048 78.5409Z" fill="#FF9A6C"/>
<path d="M78.7124 79.5405C78.4331 79.487 78.144 79.5445 77.9065 79.7007C77.6689 79.857 77.5017 80.0997 77.4403 80.3773C77.3789 80.6549 77.4281 80.9456 77.5776 81.1874C77.7271 81.4293 77.965 81.6033 78.2408 81.6725C78.5067 81.7424 78.7892 81.7098 79.0322 81.5813C79.2752 81.4527 79.461 81.2375 79.5528 80.9783C79.6446 80.7192 79.6356 80.435 79.5278 80.1821C79.4199 79.9292 79.2209 79.7261 78.9703 79.6131" fill="white"/>
<path d="M78.9702 79.6129C79.2156 79.7982 79.3984 80.0541 79.4942 80.3464C79.5362 80.4975 79.5406 80.6566 79.5068 80.8097C79.4731 80.9629 79.4023 81.1055 79.3007 81.2249C79.1811 81.3752 79.0195 81.4867 78.8365 81.5451C78.6535 81.6036 78.4573 81.6065 78.2726 81.5534C78.088 81.5003 77.9232 81.3937 77.7992 81.247C77.6752 81.1003 77.5974 80.9201 77.5758 80.7292C77.5526 80.5738 77.5685 80.4151 77.622 80.2673C77.6754 80.1196 77.7648 79.9875 77.8821 79.8829C78.117 79.6861 78.4069 79.5665 78.7123 79.5403C78.7123 79.5403 78.6236 79.4839 78.4503 79.4839C78.199 79.4973 77.958 79.5889 77.7612 79.7458C77.6126 79.8664 77.4975 80.0231 77.4269 80.201C77.3563 80.3788 77.3327 80.5718 77.3582 80.7615C77.3886 80.9952 77.4867 81.2149 77.6404 81.3936C77.7941 81.5722 77.9967 81.7021 78.2232 81.7672C78.4497 81.8323 78.6903 81.8298 78.9154 81.7599C79.1405 81.6901 79.3403 81.5559 79.4901 81.3741C79.6124 81.2257 79.6938 81.0481 79.7263 80.8586C79.7588 80.6692 79.7413 80.4746 79.6755 80.294C79.5977 80.056 79.4433 79.8505 79.2362 79.7096C79.075 79.6129 78.9783 79.6008 78.9702 79.6129Z" fill="#263238"/>
<path d="M87.1718 57.7691C87.063 57.8134 86.5471 55.9313 84.9995 54.1822C83.4519 52.433 81.6826 51.6512 81.739 51.5464C82.1573 51.6246 82.5559 51.7849 82.9118 52.0179C84.7098 53.0285 86.1057 54.6264 86.8655 56.5439C87.0489 56.9275 87.1531 57.3442 87.1718 57.7691Z" fill="#455A64"/>
<path d="M106.227 98.1035C105.699 97.9665 112.345 129.092 112.345 129.092L123.226 144.81H133.632L136.619 142.5C136.619 142.5 131.065 131.405 128.441 127.411C125.818 123.417 115.508 100.489 106.227 98.1035Z" fill="#455A64"/>
<path d="M106.227 98.1038L97.7914 96.4111C95.7763 104.141 85.0599 103.46 79.2524 96.4111L74.6055 97.6726C68.3869 99.5023 66.9481 100.196 66.9481 100.196C62.4222 101.969 59.605 106.829 58.4846 110.199L69.5798 140.965L66.7587 159.504L114.585 159.452L110.233 143.734L111.184 138.676L112.582 134.291C113.985 129.789 112.095 121.528 110.72 117.018L109.221 110.469L106.227 98.1038Z" fill="#455A64"/>
<g opacity="0.3">
<path d="M72.5985 111.117C72.5985 111.117 73.1385 117.565 72.5985 120.789C72.0584 124.013 70.7647 139.909 70.7647 139.909L86.9058 144.717L95.7723 141.626L90.6297 154.039L81.203 155.389L70.535 143.975L67.7864 135.774L69.3017 131.385L72.5985 111.117Z" fill="black"/>
</g>
<path d="M105.687 149.336L97.0942 145.051L98.4926 144.245L101.173 145.104C101.173 145.225 103.663 146.313 104.582 146.071C105.175 145.919 105.686 145.541 106.005 145.019C106.138 144.769 102.845 143.089 102.845 143.089L98.7022 140.969L94.269 142.129L86.3697 147.062L80.4413 145.217C80.2962 145.462 78.1763 154.833 78.1763 154.833C78.1763 154.833 83.9959 156.739 87.341 156.445C89.6141 156.255 91.5647 154.672 92.6972 153.551L93.7128 154.091C93.7128 154.091 97.4287 155.905 99.0085 155.977C100.588 156.05 99.5647 154.563 99.5647 154.563L96.7919 152.765L95.6675 151.774L97.3763 152.382C97.3763 152.382 100.278 153.865 100.862 154.031C101.616 154.24 102.217 154.071 102.499 153.023C102.781 151.975 96.8564 148.497 96.8564 148.497L102.632 150.915C103.168 151.148 103.756 151.233 104.336 151.161C104.581 151.154 104.819 151.082 105.027 150.952C105.234 150.823 105.404 150.64 105.517 150.424C105.949 149.372 105.687 149.336 105.687 149.336Z" fill="#FFBF9D"/>
<path d="M92.2216 145.837C92.3768 145.627 92.5763 145.454 92.806 145.329C93.3365 144.995 93.9308 144.774 94.5511 144.681C95.1724 144.584 95.8071 144.622 96.4131 144.789C96.6687 144.838 96.9099 144.944 97.1183 145.1C96.8681 145.058 96.6205 145.001 96.3768 144.93C95.1849 144.69 93.9465 144.877 92.8785 145.458C92.4715 145.68 92.2418 145.861 92.2216 145.837Z" fill="#FF9A6C"/>
<path d="M97.8801 149.086C97.6092 148.957 97.3526 148.8 97.1144 148.618C96.531 148.214 95.8968 147.889 95.2282 147.651C94.5583 147.433 93.8387 147.419 93.1607 147.611C92.8839 147.716 92.6146 147.84 92.3547 147.981C92.5466 147.738 92.8081 147.56 93.1043 147.47C93.8097 147.228 94.5753 147.228 95.2806 147.47C95.9723 147.706 96.6184 148.059 97.1909 148.513C97.4437 148.675 97.6752 148.867 97.8801 149.086Z" fill="#FF9A6C"/>
<path d="M94.4141 150.351C94.394 150.379 94.2328 150.275 93.9507 150.178C93.5818 150.052 93.1897 150.008 92.802 150.049C92.4144 150.09 92.041 150.218 91.7098 150.424C91.4559 150.581 91.3068 150.718 91.3068 150.694C91.3068 150.67 91.3874 150.504 91.6413 150.291C91.9751 150.033 92.3744 149.874 92.794 149.831C93.2078 149.787 93.6259 149.857 94.003 150.033C94.2932 150.182 94.4303 150.327 94.4141 150.351Z" fill="#FF9A6C"/>
<path d="M96.7355 152.907C95.9496 152.451 95.288 151.809 94.8091 151.037C95.1727 151.3 95.5065 151.603 95.8045 151.939C96.1505 152.225 96.4629 152.55 96.7355 152.907Z" fill="#FF9A6C"/>
<path d="M73.469 116.401C75.8549 103.709 62.0715 100.022 58.7708 109.38C58.7708 109.38 55.47 118.919 54.0756 124.231C52.7778 129.176 51.2544 135.516 50.2589 141.658C49.5698 145.898 50.7264 150.927 53.1325 151.947C59.4156 154.615 84.3426 158.605 84.3426 158.605L85.8902 145.894L67.4156 141.529C67.4156 141.529 68.1854 139.449 66.7627 139.256L71.2202 123.848L73.469 116.401Z" fill="#455A64"/>
<path d="M66.7627 139.256C66.8201 139.278 66.8754 139.305 66.9279 139.337C66.9972 139.369 67.0622 139.41 67.1214 139.458C67.2076 139.516 67.285 139.587 67.3511 139.667C67.5503 139.889 67.6608 140.176 67.6614 140.473C67.6517 140.876 67.5273 141.268 67.3027 141.602L67.2705 141.513C68.7697 141.783 70.8373 142.235 73.2675 142.819L81.4771 144.834C83.0166 145.201 84.5118 145.535 85.9103 145.801L86.003 145.822V145.914L84.8584 155.015C84.7093 156.127 84.5924 157.03 84.5078 157.658C84.4635 157.953 84.4312 158.186 84.403 158.364C84.3967 158.447 84.3805 158.53 84.3546 158.609C84.3493 158.526 84.3493 158.443 84.3546 158.36C84.3748 158.182 84.399 157.957 84.4272 157.65C84.4957 157.014 84.5964 156.115 84.7174 154.998C84.9874 152.717 85.3582 149.55 85.7894 145.89L85.87 146.003C84.4675 145.737 82.9682 145.402 81.4367 145.04C78.4503 144.326 75.6574 143.601 73.2312 143.004C70.805 142.408 68.7496 141.928 67.2544 141.634L67.1738 141.614L67.2221 141.546C67.437 141.23 67.5611 140.862 67.5808 140.482C67.5884 140.201 67.4939 139.928 67.3148 139.712C67.2541 139.631 67.1822 139.559 67.1012 139.498C67.0466 139.446 66.9857 139.402 66.9199 139.365C66.8632 139.335 66.8104 139.299 66.7627 139.256Z" fill="#263238"/>
<path d="M72.409 120.245C72.4077 120.312 72.3955 120.379 72.3728 120.443L72.2277 121.003C72.0826 121.519 71.8891 122.212 71.6554 123.05C71.1597 124.775 70.4463 127.157 69.6886 129.781C68.9309 132.404 68.1894 134.778 67.6735 136.491C67.4116 137.325 67.1939 138.01 67.0367 138.506C66.9642 138.724 66.9037 138.909 66.8514 139.054C66.799 139.199 66.7828 139.244 66.7748 139.24C66.7761 139.172 66.7883 139.106 66.8111 139.042L66.9561 138.482L67.5325 136.435C68.0241 134.71 68.7173 132.328 69.4992 129.704C70.2811 127.08 70.9944 124.707 71.5143 122.99C71.7763 122.159 71.9939 121.474 72.1511 120.975C72.2277 120.757 72.2881 120.572 72.3365 120.426C72.3535 120.363 72.3779 120.303 72.409 120.245Z" fill="#263238"/>
<path d="M73.1224 112.314C73.0472 111.636 72.9287 110.963 72.7678 110.299C72.3419 108.692 71.4744 107.236 70.2635 106.096C69.0526 104.956 67.5467 104.179 65.9164 103.851C65.2401 103.726 64.556 103.648 63.869 103.617C64.0535 103.581 64.2414 103.566 64.4292 103.573C64.9388 103.568 65.4476 103.613 65.9486 103.706C67.6209 104.001 69.1704 104.778 70.4064 105.942C71.6423 107.107 72.5108 108.607 72.9048 110.259C73.028 110.753 73.1036 111.258 73.1305 111.766C73.1478 111.949 73.1451 112.132 73.1224 112.314Z" fill="#263238"/>
<path d="M66.7627 139.417C66.7627 139.449 66.4766 139.373 66.0292 139.349C65.4451 139.311 64.8599 139.407 64.3186 139.63C63.7773 139.853 63.294 140.196 62.9058 140.634C62.6035 140.969 62.4665 141.219 62.4343 141.203C62.5001 140.957 62.623 140.731 62.793 140.542C63.1703 140.054 63.6687 139.674 64.2385 139.438C64.8083 139.203 65.4298 139.121 66.0413 139.2C66.2962 139.211 66.5441 139.286 66.7627 139.417Z" fill="#263238"/>
<path d="M67.2383 141.203C67.2383 141.267 66.5048 141.332 65.6826 141.682C64.8605 142.033 64.2962 142.509 64.2559 142.46C64.6256 142.039 65.0861 141.707 65.6027 141.489C66.1192 141.271 66.6785 141.173 67.2383 141.203Z" fill="#263238"/>
<path d="M108.641 111.601C108.697 111.676 108.746 111.757 108.786 111.842L109.165 112.552C109.33 112.862 109.531 113.241 109.737 113.696C109.943 114.152 110.205 114.651 110.434 115.236C110.664 115.82 110.946 116.445 111.188 117.146C111.309 117.493 111.45 117.847 111.571 118.222L111.933 119.379C112.446 121.106 112.825 122.87 113.07 124.654C113.297 126.444 113.373 128.249 113.296 130.051C113.227 130.877 113.187 131.663 113.062 132.397C113.006 132.763 112.969 133.118 112.901 133.452C112.832 133.787 112.764 134.109 112.695 134.416C112.582 135.036 112.405 135.576 112.272 136.056C112.199 136.298 112.143 136.519 112.075 136.721L111.873 137.273L111.591 138.027C111.561 138.116 111.523 138.202 111.478 138.285C111.491 138.191 111.515 138.099 111.551 138.011C111.611 137.817 111.696 137.563 111.796 137.245C111.853 137.076 111.913 136.894 111.978 136.693C112.042 136.491 112.095 136.266 112.159 136.024C112.28 135.544 112.449 135.004 112.562 134.387C112.623 134.081 112.687 133.759 112.756 133.424C112.824 133.09 112.848 132.735 112.901 132.372C113.018 131.647 113.05 130.865 113.114 130.043C113.18 128.253 113.099 126.46 112.873 124.683C112.631 122.911 112.259 121.16 111.76 119.443C111.639 119.04 111.522 118.662 111.406 118.287C111.289 117.912 111.156 117.561 111.035 117.211C110.805 116.513 110.539 115.885 110.309 115.3C110.08 114.716 109.838 114.208 109.64 113.753C109.443 113.297 109.257 112.91 109.104 112.596C108.951 112.282 108.846 112.052 108.758 111.867C108.707 111.783 108.668 111.694 108.641 111.601Z" fill="#263238"/>
<path d="M109.153 108.816C109.205 108.848 108.923 109.416 108.778 110.178C108.633 110.94 108.673 111.573 108.613 111.577C108.493 111.105 108.479 110.613 108.573 110.136C108.666 109.658 108.864 109.208 109.153 108.816Z" fill="#263238"/>
<g opacity="0.3">
<path d="M114.517 120.503C113.997 118.46 113.026 116.566 112.058 114.692L109.701 110.125C109.552 109.835 109.358 109.513 109.04 109.448C108.84 109.436 108.643 109.503 108.492 109.635C108.341 109.767 108.248 109.953 108.234 110.153C108.223 110.554 108.322 110.95 108.52 111.298C109.894 114.336 111.085 117.452 112.087 120.632C113.074 123.727 113.783 127.858 113.231 131.062C115.113 127.915 115.416 124.026 114.517 120.503Z" fill="black"/>
</g>
<path d="M99.8589 128.87C99.8622 128.931 99.8553 128.993 99.8388 129.051C99.8146 129.172 99.7864 129.35 99.7259 129.575C99.5708 130.211 99.366 130.834 99.1133 131.437C98.2863 133.449 97.0026 135.24 95.3637 136.67C93.7248 138.1 91.7757 139.129 89.6705 139.675C89.0386 139.843 88.3944 139.96 87.7441 140.026C87.5143 140.054 87.341 140.058 87.2121 140.066C87.1506 140.076 87.0881 140.076 87.0267 140.066C87.2595 140.015 87.495 139.976 87.732 139.949C88.3737 139.854 89.009 139.719 89.6342 139.546C91.6982 138.966 93.6066 137.932 95.2201 136.52C96.8335 135.108 98.1113 133.354 98.9602 131.385C99.2227 130.791 99.4475 130.181 99.6332 129.559C99.6938 129.325 99.7692 129.095 99.8589 128.87Z" fill="#263238"/>
<path d="M149.531 135.069L148.476 133.884C148.476 133.884 140.75 137.358 138.122 138.829C134.333 140.949 133.85 142.029 133.85 142.029L133.346 144.447L135.131 145.656L149.531 135.069Z" fill="white"/>
<path d="M135.131 145.664L133.342 144.455L133.842 142.037C134.031 141.726 134.275 141.453 134.563 141.231C135.658 140.304 136.852 139.5 138.122 138.833C140.717 137.378 148.399 133.924 148.476 133.888L149.54 135.077L135.131 145.664ZM133.358 144.455L135.131 145.664L149.515 135.089L148.472 133.92C148.206 134.041 140.689 137.426 138.126 138.861C136.859 139.53 135.668 140.333 134.571 141.255C134.289 141.481 134.048 141.754 133.858 142.061L133.358 144.455Z" fill="#263238"/>
<path d="M134.793 145.422C134.793 145.422 134.265 140.284 130.92 138.829C127.575 137.374 117.37 142.597 117.153 142.67C116.935 142.742 96.2318 156.143 96.2318 156.143L97.3804 157.549L116.197 155.268L134.793 145.422Z" fill="white"/>
<path d="M96.9209 156.715L117.366 143.415C117.366 143.415 128.208 137.938 131.226 139.695C134.245 141.452 133.918 144.822 133.918 144.822L114.211 156.126L97.8882 158.105L96.9209 156.715Z" fill="#E0E0E0"/>
<path d="M133.773 143.073C133.773 143.073 132.097 140.316 124.907 141.553C122.183 142.038 119.509 142.77 116.919 143.742L97.3683 157.082L98.0454 157.888L129.078 146.325L133.951 145.362L134.354 144.507L133.773 143.073Z" fill="white"/>
<path d="M95.7723 158.633L113.743 146.535L131.956 143.778L134.712 145.096L149.914 134.311L150.648 135.153L126.483 154.668L121.3 153.418L115.653 157.396L96.2317 159.452L95.7723 158.633Z" fill="#3366FF"/>
<path d="M96.2317 159.452C96.2317 159.452 96.1914 159.391 96.1149 159.258L95.7562 158.646C97.735 157.284 104.276 152.85 113.691 146.491L131.899 143.718H131.931H131.956L134.712 145.036H134.612L149.814 134.247L149.89 134.194L149.955 134.263L150.152 134.493L150.684 135.101L150.761 135.19L150.668 135.258L135.228 146.62L135.176 146.656L135.119 146.628L132.093 145.015H132.153L114.323 147.909H114.352L101.116 156.373L97.4892 158.674L96.5461 159.266L96.2196 159.464C96.2196 159.464 96.3244 159.387 96.534 159.25L97.465 158.634L101.056 156.3L114.255 147.768L132.125 144.822H132.157H132.185L135.216 146.434H135.111L150.543 135.065V135.218L150.035 134.609L149.838 134.384H149.975L134.769 145.161L134.72 145.197L134.668 145.169L131.911 143.879H131.972L113.755 146.62H113.787C104.357 152.951 97.7914 157.348 95.7803 158.67V158.646C95.9335 158.928 96.0423 159.133 96.1189 159.27L96.2317 159.452Z" fill="#263238"/>
<path d="M113.562 146.829C113.61 146.796 113.787 146.99 113.965 147.256C114.142 147.522 114.239 147.768 114.19 147.8C114.142 147.832 113.961 147.639 113.787 147.373C113.614 147.107 113.493 146.861 113.562 146.829Z" fill="#263238"/>
<path d="M132.266 145.043C132.221 145.098 132.17 145.147 132.113 145.188L131.645 145.567L129.9 146.942C128.425 148.094 126.374 149.674 124.105 151.411C122.96 152.27 121.896 153.124 120.881 153.829L118.176 155.707L116.343 156.957L115.839 157.287C115.783 157.33 115.722 157.365 115.657 157.392C115.704 157.34 115.757 157.294 115.815 157.255L116.298 156.892L118.092 155.586L120.768 153.672C121.775 152.955 122.835 152.1 123.992 151.254C126.261 149.521 128.324 147.957 129.824 146.821L131.605 145.499C131.803 145.358 131.968 145.245 132.097 145.148C132.226 145.051 132.262 145.035 132.266 145.043Z" fill="#263238"/>
<path d="M138.682 145.749C138.19 146.422 136.808 148.626 136.808 148.626C136.555 149.967 136.189 151.284 135.716 152.564C135.233 153.663 134.477 154.621 133.521 155.348C132.565 156.074 131.439 156.545 130.251 156.715C127.482 157.062 122.863 155.288 122.863 155.288L116.931 153.08C116.931 153.08 115.597 151.939 116.701 151.246C116.701 151.246 115.722 150.142 117.66 149.658C119.599 149.175 124.915 151.673 124.915 151.673C124.915 151.673 122.702 149.807 121.388 149.32C120.075 148.832 120.627 147.732 121.731 147.591C122.835 147.45 123.661 147.861 125.527 148.485C127.393 149.11 129.066 150.359 129.828 150.359C130.589 150.359 130.114 149.126 129.425 148.643C126.604 146.712 127.555 146.071 127.555 146.071C127.555 146.071 127.833 145.1 129.284 145.725C130.651 146.388 131.977 147.133 133.253 147.957C134.865 147.853 135.373 147.454 135.74 146.503C135.961 145.951 136.324 145.467 136.792 145.1L137.501 144.528C137.661 144.401 137.86 144.335 138.064 144.343C138.268 144.35 138.462 144.43 138.612 144.569C138.762 144.707 138.857 144.894 138.881 145.096C138.905 145.299 138.856 145.503 138.743 145.672L138.682 145.749Z" fill="#FFBF9D"/>
<path d="M123.891 154.571C122.624 154.098 121.383 153.56 120.171 152.959C118.932 152.423 117.721 151.823 116.544 151.162C117.812 151.635 119.055 152.173 120.268 152.774C121.506 153.309 122.716 153.909 123.891 154.571Z" fill="#FF9A6C"/>
<path d="M126.745 153.281C126.326 153.081 125.941 152.819 125.6 152.504C125.215 152.243 124.873 151.925 124.584 151.561C125.387 152.022 126.116 152.602 126.745 153.281Z" fill="#FF9A6C"/>
<path d="M133.858 150.295C133.882 150.295 133.951 150.432 133.93 150.674C133.915 150.834 133.866 150.989 133.787 151.13C133.707 151.27 133.599 151.391 133.47 151.487C133.34 151.582 133.191 151.649 133.034 151.684C132.877 151.718 132.714 151.718 132.556 151.685C132.314 151.629 132.201 151.524 132.214 151.504C132.226 151.484 132.359 151.524 132.576 151.536C132.85 151.553 133.122 151.476 133.346 151.319C133.564 151.153 133.718 150.916 133.781 150.65C133.838 150.444 133.826 150.303 133.858 150.295Z" fill="#FF9A6C"/>
<path d="M130.086 153.705C130.11 153.705 130.086 153.834 129.985 153.987C129.834 154.185 129.621 154.327 129.38 154.39C129.143 154.455 128.89 154.438 128.663 154.341C128.494 154.261 128.421 154.164 128.437 154.144C128.728 154.221 129.032 154.235 129.328 154.184C129.803 154.059 130.021 153.676 130.086 153.705Z" fill="#FF9A6C"/>
<path d="M126.62 155.482C126.652 155.526 126.35 155.736 125.93 155.671C125.511 155.607 125.282 155.325 125.326 155.288C125.37 155.252 125.612 155.417 125.963 155.466C126.313 155.514 126.591 155.425 126.62 155.482Z" fill="#FF9A6C"/>
<path d="M135.595 146.813C135.615 146.813 135.595 147.011 135.426 147.264C135.186 147.578 134.853 147.807 134.475 147.917C134.103 148.042 133.704 148.062 133.322 147.974C133.028 147.893 132.891 147.752 132.919 147.736C132.947 147.72 133.088 147.792 133.362 147.829C133.72 147.867 134.081 147.829 134.422 147.716C134.765 147.612 135.075 147.424 135.325 147.168C135.494 146.97 135.559 146.801 135.595 146.813Z" fill="#FF9A6C"/>
<path d="M133.681 142.843C133.661 142.817 133.644 142.788 133.632 142.758C133.604 142.69 133.564 142.605 133.519 142.504C133.373 142.177 133.206 141.859 133.02 141.553C132.73 141.065 132.353 140.635 131.907 140.284C131.624 140.072 131.314 139.9 130.984 139.772C130.611 139.637 130.223 139.546 129.828 139.502C129.389 139.451 128.947 139.434 128.506 139.453C128.28 139.478 128.046 139.478 127.809 139.522C127.571 139.566 127.333 139.607 127.091 139.663C126.052 139.915 125.03 140.234 124.032 140.618C121.712 141.5 119.438 142.5 117.221 143.617L114.972 145.027C109.931 148.191 105.388 151.101 102.128 153.237L98.2711 155.784L97.2232 156.477L96.9491 156.654C96.9197 156.678 96.8871 156.697 96.8524 156.711C96.8524 156.711 96.8806 156.683 96.9371 156.638L97.199 156.445L98.2227 155.715C99.1174 155.091 100.419 154.196 102.043 153.112C105.288 150.944 109.818 148.018 114.859 144.846L117.112 143.443C119.342 142.329 121.629 141.332 123.964 140.457C124.972 140.078 126.003 139.764 127.051 139.518C127.297 139.461 127.543 139.425 127.78 139.381C128.018 139.337 128.264 139.337 128.498 139.316C128.946 139.301 129.395 139.321 129.84 139.377C130.245 139.429 130.642 139.528 131.025 139.671C131.363 139.808 131.681 139.99 131.972 140.211C132.42 140.578 132.796 141.025 133.08 141.529C133.327 141.944 133.528 142.385 133.681 142.843Z" fill="#263238"/>
<path d="M133.596 143.427C133.549 143.385 133.508 143.336 133.475 143.282C133.377 143.137 133.265 143.002 133.141 142.879C132.681 142.415 132.133 142.049 131.528 141.803C130.637 141.432 129.691 141.207 128.727 141.138C127.54 141.096 126.35 141.157 125.173 141.32C123.033 141.638 120.935 142.194 118.918 142.976C118.144 143.274 117.523 143.54 117.1 143.726L116.609 143.947C116.5 143.996 116.439 144.02 116.435 144.012C116.633 143.873 116.844 143.753 117.064 143.653C117.467 143.439 118.092 143.153 118.865 142.847C120.88 142.018 122.989 141.439 125.145 141.122C126.335 140.955 127.539 140.898 128.74 140.953C129.723 141.031 130.687 141.275 131.589 141.674C132.204 141.939 132.754 142.333 133.201 142.831C133.322 142.965 133.426 143.114 133.511 143.274C133.576 143.367 133.604 143.427 133.596 143.427Z" fill="#263238"/>
<path d="M117.366 145.946C117.318 145.99 116.963 145.611 116.725 145.063C116.528 144.747 116.429 144.38 116.439 144.007C116.626 144.314 116.785 144.636 116.915 144.971C117.093 145.282 117.244 145.608 117.366 145.946Z" fill="#263238"/>
<path d="M9.98488 129.773L16.0302 159.572H68.7335C69.0125 159.572 69.28 159.462 69.4773 159.264C69.6746 159.067 69.7854 158.8 69.7854 158.521C69.7854 158.242 69.6746 157.974 69.4773 157.777C69.28 157.58 69.0125 157.469 68.7335 157.469H58.1259L52.4836 129.749C52.431 129.491 52.2914 129.259 52.0882 129.092C51.8849 128.924 51.6304 128.832 51.3672 128.83L11.0932 128.391C10.9239 128.393 10.7572 128.433 10.6051 128.507C10.453 128.581 10.3192 128.689 10.2133 128.821C10.1074 128.953 10.032 129.107 9.99249 129.271C9.953 129.436 9.9504 129.607 9.98488 129.773Z" fill="#E0E0E0"/>
<path d="M9.98488 129.773C9.98488 129.773 9.98488 129.745 9.98488 129.685C9.9549 129.461 9.99126 129.234 10.0894 129.031C10.1876 128.828 10.3433 128.659 10.537 128.544C10.6456 128.479 10.764 128.431 10.8877 128.403C11.0208 128.381 11.1559 128.373 11.2907 128.379H12.2418L14.6116 128.399L29.8136 128.564L40.4292 128.673L46.3778 128.733L49.4972 128.766H51.0892C51.2262 128.766 51.3552 128.766 51.4922 128.766C51.6327 128.779 51.7694 128.819 51.8952 128.883C52.153 129.009 52.3573 129.224 52.4715 129.487C52.5238 129.617 52.5603 129.752 52.5803 129.89L52.665 130.293C52.7174 130.563 52.7738 130.829 52.8262 131.099C52.939 131.639 53.0479 132.183 53.1607 132.711C53.3837 133.802 53.6081 134.908 53.8337 136.028C54.2878 138.264 54.7526 140.547 55.2282 142.88C56.1793 147.555 57.1667 152.415 58.1864 157.421L58.1138 157.364H68.5481C68.6829 157.357 68.8182 157.365 68.9511 157.388C69.1756 157.437 69.3798 157.554 69.5363 157.722C69.6929 157.89 69.7944 158.102 69.8272 158.329C69.8601 158.557 69.8227 158.789 69.7202 158.994C69.6177 159.2 69.4548 159.369 69.2534 159.48C69.1001 159.561 68.9308 159.606 68.7577 159.613H40.7798H16.0423H15.9939V159.569C14.14 150.408 12.6287 142.956 11.5849 137.805C11.065 135.222 10.662 133.215 10.3758 131.849C10.2428 131.168 10.138 130.64 10.0695 130.297C10.001 129.955 9.98488 129.773 9.98488 129.773C9.98488 129.773 10.0292 129.951 10.1018 130.301L10.4242 131.853L11.6373 137.793C12.6932 142.956 14.2206 150.404 16.0947 159.557L16.0302 159.516H40.7678H68.7577C68.908 159.508 69.0549 159.468 69.1889 159.399C69.364 159.303 69.5056 159.156 69.5948 158.977C69.684 158.798 69.7165 158.596 69.688 158.398C69.6596 158.2 69.5715 158.016 69.4355 157.869C69.2996 157.723 69.1221 157.621 68.9269 157.578C68.8016 157.559 68.6747 157.552 68.5481 157.558H58.0695V157.497C57.0539 152.492 56.0544 147.631 55.1194 142.956C54.6438 140.619 54.1803 138.335 53.729 136.105C53.4992 134.988 53.2776 133.88 53.0559 132.788C52.9431 132.244 52.8343 131.7 52.7254 131.176C52.673 130.906 52.6166 130.636 52.5642 130.37L52.4796 129.967C52.4613 129.837 52.4275 129.71 52.3788 129.588C52.275 129.352 52.0927 129.16 51.863 129.044C51.748 128.987 51.6238 128.952 51.4962 128.939C51.3753 128.939 51.2343 128.939 51.0932 128.939L49.5013 128.919L46.3819 128.883L40.4332 128.814L29.8176 128.689L14.5914 128.5L12.2217 128.467H11.2705C11.1357 128.461 11.0006 128.469 10.8675 128.492C10.7483 128.516 10.6339 128.559 10.529 128.621C10.3765 128.71 10.2466 128.833 10.1495 128.98C10.0523 129.128 9.99047 129.296 9.96876 129.471C9.96403 129.572 9.96943 129.673 9.98488 129.773Z" fill="#263238"/>
<path d="M34.2508 143.407C34.2516 143.752 34.1502 144.089 33.9594 144.376C33.7686 144.663 33.4969 144.886 33.1789 145.019C32.8608 145.151 32.5106 145.186 32.1726 145.12C31.8346 145.053 31.524 144.887 31.2801 144.644C31.0362 144.401 30.87 144.09 30.8025 143.753C30.735 143.415 30.7692 143.065 30.9009 142.746C31.0325 142.428 31.2557 142.156 31.5421 141.964C31.8285 141.773 32.1653 141.67 32.5098 141.67C32.7382 141.67 32.9645 141.714 33.1758 141.801C33.387 141.889 33.5789 142.016 33.7407 142.178C33.9024 142.339 34.0307 142.531 34.1182 142.742C34.2058 142.953 34.2508 143.179 34.2508 143.407Z" fill="white"/>
<path d="M10.0171 130.011H10.2025H12.7818L20.3183 130.047L45.1728 130.224L48.7677 130.253H49.6503C49.8014 130.246 49.9527 130.256 50.1017 130.281C50.2542 130.309 50.3995 130.368 50.5289 130.454C50.7917 130.621 50.9828 130.879 51.0649 131.18C51.1294 131.47 51.1818 131.744 51.2382 132.026C51.6816 134.271 52.1128 136.459 52.5239 138.502L54.6881 149.465C55.3007 152.584 55.7964 155.107 56.139 156.86C56.3042 157.727 56.4332 158.404 56.542 158.875C56.5823 159.101 56.6146 159.278 56.6388 159.399C56.6629 159.52 56.667 159.576 56.667 159.576C56.6491 159.518 56.6343 159.459 56.6226 159.399C56.5984 159.278 56.5581 159.105 56.5098 158.879C56.4171 158.416 56.276 157.743 56.1068 156.864C55.7521 155.115 55.2443 152.596 54.6115 149.481L52.4151 138.523C52.0121 136.459 51.5687 134.295 51.1214 132.05C51.0649 131.772 51.0126 131.482 50.9521 131.212C50.8776 130.947 50.7083 130.719 50.4765 130.571C50.3625 130.494 50.2334 130.442 50.0977 130.418C49.9647 130.395 49.8295 130.387 49.6947 130.394H48.812L45.2171 130.365L20.3587 130.148L12.8262 130.063L10.7788 130.035H10.2468L10.0171 130.011Z" fill="#263238"/>
</svg>
