<svg width="248" height="160" viewBox="0 0 248 160" fill="none" xmlns="http://www.w3.org/2000/svg">
<g clip-path="url(#clip0_350_14669)">
<path d="M56.8385 129.355C56.8876 126.748 57.8927 124.251 59.6629 122.337C60.5189 125.858 56.8385 129.355 56.8385 129.355Z" fill="#455A64"/>
<path d="M60.9414 127.368C63.3528 126.374 66.0453 126.299 68.508 127.158C65.6186 129.347 60.9414 127.368 60.9414 127.368Z" fill="#455A64"/>
<path d="M61.4074 125.085C61.0174 123.065 61.3838 120.972 62.4367 119.205C63.6756 121.787 61.4074 125.085 61.4074 125.085Z" fill="#455A64"/>
<path d="M45.541 116.851C51.5401 118.447 54.7582 123.662 54.7582 123.662C49.6295 123.666 45.541 116.851 45.541 116.851Z" fill="#455A64"/>
<path d="M55.1194 119.31C54.8088 112.845 61.1293 105.528 61.1293 105.528C60.1722 113.553 55.1194 119.31 55.1194 119.31Z" fill="#455A64"/>
<path d="M55.0905 100.897C55.2137 104.136 54.4266 107.344 52.8187 110.158C51.9266 105.997 55.0905 100.897 55.0905 100.897Z" fill="#455A64"/>
<path d="M52.6525 114.029C47.9284 113.524 45.3568 108.821 45.3568 108.821C51.0706 110.421 52.6525 114.029 52.6525 114.029Z" fill="#455A64"/>
<path d="M42.4565 133.797C44.6729 132.419 47.3185 131.905 49.8895 132.352C47.3938 134.992 42.4565 133.797 42.4565 133.797Z" fill="#455A64"/>
<path d="M54.7112 135.917C54.1096 137.449 52.9831 138.718 51.5328 139.496C51.7315 137.315 54.7112 135.917 54.7112 135.917Z" fill="#455A64"/>
<path d="M54.1008 135.224C52.3925 136.214 50.39 136.57 48.4448 136.231C50.2651 134.335 54.1008 135.224 54.1008 135.224Z" fill="#455A64"/>
<path d="M56.5171 143.924C56.5125 143.893 56.5125 143.862 56.5171 143.83C56.5171 143.755 56.5171 143.661 56.5171 143.549V142.465C56.5171 141.992 56.5171 141.418 56.5171 140.75C56.5171 140.081 56.5171 139.323 56.4701 138.481C56.4304 136.802 56.3112 134.801 56.1378 132.587C55.9645 130.373 55.6755 127.942 55.3071 125.407C54.5595 120.329 53.5374 115.789 52.7175 112.531C52.3058 110.899 51.9554 109.584 51.7026 108.677L51.4209 107.634L51.3523 107.359C51.3421 107.329 51.3361 107.297 51.3342 107.265C51.3342 107.265 51.3523 107.294 51.374 107.352L51.4606 107.619L51.7821 108.656C52.0602 109.555 52.4322 110.866 52.8656 112.491C53.9837 116.734 54.8687 121.035 55.5166 125.374C55.8778 127.903 56.1523 130.351 56.3329 132.569C56.5135 134.787 56.5965 136.795 56.6182 138.478C56.6471 139.319 56.6363 140.081 56.6363 140.75C56.6363 141.418 56.6363 141.996 56.611 142.465C56.5857 142.935 56.5821 143.281 56.5712 143.549C56.5712 143.661 56.5712 143.755 56.5712 143.83C56.5586 143.864 56.5403 143.896 56.5171 143.924Z" fill="#263238"/>
<path d="M47.8489 130.239C47.8814 130.192 49.792 131.445 52.1144 133.038C54.4367 134.631 56.2967 135.96 56.2606 136.007C56.2245 136.054 54.3175 134.804 51.9952 133.212C49.6728 131.619 47.8092 130.29 47.8489 130.239Z" fill="#263238"/>
<path d="M56.2534 130.929C56.3404 130.812 56.4397 130.704 56.5496 130.608L57.3983 129.788L60.2408 127.123C61.3243 126.104 62.3139 125.179 63.0796 124.461C63.4191 124.146 63.7044 123.876 63.9428 123.652C64.0419 123.546 64.1534 123.452 64.2751 123.374C64.1993 123.497 64.1069 123.61 64.0006 123.709C63.8128 123.919 63.5347 124.211 63.1843 124.569C62.4873 125.291 61.4977 126.241 60.3852 127.278C59.2728 128.314 58.2507 129.243 57.4959 129.9C57.1347 130.229 56.8168 130.492 56.6001 130.669C56.4958 130.77 56.3793 130.857 56.2534 130.929Z" fill="#263238"/>
<path d="M41.7704 127.177C41.7704 127.177 46.6571 127.083 48.723 130.93C47.3518 130.889 46.009 130.529 44.8018 129.878C43.5946 129.226 42.5565 128.301 41.7704 127.177Z" fill="#455A64"/>
<path d="M48.4448 125.215C48.4448 125.215 52.4177 128.054 51.7893 132.37C50.7126 131.521 49.8494 130.432 49.2687 129.189C48.688 127.947 48.4059 126.586 48.4448 125.215Z" fill="#455A64"/>
<path d="M69.3929 118.227C69.3929 118.227 67.8255 123.695 62.8376 124.678C63.3521 123.166 64.2128 121.796 65.3509 120.676C66.4891 119.556 67.8732 118.717 69.3929 118.227Z" fill="#455A64"/>
<path d="M46.2742 97.896C46.2742 97.896 52.5044 101.963 51.8146 108.576C50.1231 107.35 48.7414 105.746 47.7794 103.892C46.8175 102.038 46.3021 99.9847 46.2742 97.896Z" fill="#455A64"/>
<path d="M67.0165 134.057C66.8923 134.178 66.7568 134.287 66.6119 134.382C66.3411 134.577 65.9582 134.866 65.4923 135.235C64.2835 136.198 63.1553 137.259 62.1189 138.406C61.0873 139.559 60.1535 140.796 59.3271 142.104C59.0092 142.603 58.7636 143.018 58.6047 143.307C58.5243 143.462 58.43 143.609 58.323 143.747C58.3715 143.581 58.4407 143.42 58.5289 143.271C58.6697 142.967 58.89 142.548 59.2043 142.028C60.0004 140.689 60.9245 139.43 61.9636 138.268C63.0044 137.109 64.1573 136.055 65.4056 135.123C65.886 134.761 66.2833 134.491 66.5686 134.317C66.7085 134.215 66.8586 134.128 67.0165 134.057Z" fill="#263238"/>
<path d="M61.5916 138.116C61.1446 135.547 61.6589 132.902 63.0363 130.687C63.6936 135.321 61.5916 138.116 61.5916 138.116Z" fill="#455A64"/>
<path d="M65.7848 135.83C67.4347 134.892 69.3716 134.592 71.2277 134.988C68.2155 136.585 65.7848 135.83 65.7848 135.83Z" fill="#455A64"/>
<path d="M47.4299 144.434L49.7667 159.802H63.3505L66.5035 144.658L47.4299 144.434Z" fill="#3366FF"/>
<path d="M45.8696 141.393V144.282C45.8696 144.431 45.899 144.578 45.956 144.715C46.0131 144.853 46.0967 144.978 46.202 145.083C46.3074 145.188 46.4324 145.271 46.57 145.327C46.7076 145.384 46.855 145.413 47.0037 145.412H66.6732C66.9734 145.412 67.2613 145.293 67.4739 145.082C67.6865 144.87 67.8064 144.582 67.8073 144.282V141.393H45.8696Z" fill="#3366FF"/>
<path d="M66.1063 145.452C66.1063 145.506 61.8047 145.546 56.4991 145.546C51.1934 145.546 46.8918 145.506 46.8918 145.452C46.8918 145.398 51.1934 145.358 56.4991 145.358C61.8047 145.358 66.1063 145.401 66.1063 145.452Z" fill="#263238"/>
<path d="M164.028 65.1338V83.7884L157.639 90.676H164.028V123.929H225.196V65.1338H164.028Z" fill="white"/>
<path d="M225.218 65.1992H164.046V69.6019H225.218V65.1992Z" fill="#F5F5F5"/>
<path d="M164.064 114.651V123.994H167.253H175.282H225.218V114.651H164.064Z" fill="#EBEBEB"/>
<path d="M172.699 67.5613C172.699 67.7241 172.651 67.8834 172.561 68.0188C172.47 68.1542 172.342 68.2597 172.191 68.3221C172.041 68.3844 171.875 68.4007 171.715 68.3689C171.556 68.3371 171.409 68.2587 171.294 68.1436C171.179 68.0284 171.1 67.8817 171.068 67.7219C171.037 67.5622 171.053 67.3966 171.115 67.2461C171.177 67.0957 171.283 66.9671 171.418 66.8766C171.554 66.7861 171.713 66.7378 171.876 66.7378C172.094 66.7378 172.304 66.8246 172.458 66.979C172.613 67.1334 172.699 67.3429 172.699 67.5613Z" fill="white"/>
<path d="M167.712 67.5613C167.712 67.7241 167.663 67.8834 167.573 68.0188C167.482 68.1542 167.354 68.2597 167.203 68.3221C167.053 68.3844 166.887 68.4007 166.728 68.3689C166.568 68.3371 166.421 68.2587 166.306 68.1436C166.191 68.0284 166.112 67.8817 166.081 67.7219C166.049 67.5622 166.065 67.3966 166.127 67.2461C166.19 67.0957 166.295 66.9671 166.431 66.8766C166.566 66.7861 166.725 66.7378 166.888 66.7378C167.107 66.7378 167.316 66.8246 167.47 66.979C167.625 67.1334 167.712 67.3429 167.712 67.5613Z" fill="white"/>
<path d="M170.204 67.5613C170.204 67.7243 170.155 67.8837 170.065 68.0191C169.974 68.1546 169.845 68.2602 169.695 68.3224C169.544 68.3846 169.378 68.4007 169.218 68.3687C169.058 68.3366 168.912 68.2578 168.797 68.1423C168.682 68.0267 168.604 67.8797 168.572 67.7197C168.541 67.5597 168.558 67.394 168.62 67.2436C168.683 67.0932 168.789 66.9649 168.925 66.8748C169.061 66.7848 169.221 66.7371 169.384 66.7378C169.602 66.7388 169.81 66.8259 169.964 66.9803C170.117 67.1346 170.204 67.3435 170.204 67.5613Z" fill="white"/>
<path d="M219.273 79.877C218.245 79.877 217.259 79.4687 216.533 78.7419C215.806 78.0151 215.397 77.0294 215.397 76.0016C215.397 74.9734 215.806 73.9873 216.532 73.26C217.259 72.5326 218.245 72.1235 219.273 72.1226C220.302 72.1226 221.288 72.5312 222.016 73.2587C222.743 73.9861 223.152 74.9728 223.152 76.0016C223.152 76.5108 223.051 77.015 222.857 77.4854C222.662 77.9559 222.376 78.3833 222.015 78.7432C221.655 79.1031 221.228 79.3885 220.757 79.583C220.286 79.7775 219.782 79.8774 219.273 79.877Z" fill="#EBEBEB"/>
<path d="M219.139 76.0271C219.281 75.9838 219.402 75.8912 219.481 75.766C219.56 75.6409 219.591 75.4915 219.569 75.3452C219.548 75.1988 219.474 75.0652 219.362 74.9686C219.25 74.872 219.107 74.8188 218.959 74.8188C218.811 74.8188 218.668 74.872 218.555 74.9686C218.443 75.0652 218.37 75.1988 218.348 75.3452C218.326 75.4915 218.357 75.6409 218.436 75.766C218.515 75.8912 218.637 75.9838 218.778 76.0271C218.526 76.0697 218.297 76.2 218.132 76.3949C217.967 76.5899 217.876 76.837 217.875 77.0925H220.042C220.041 76.837 219.95 76.5899 219.785 76.3949C219.62 76.2 219.391 76.0697 219.139 76.0271Z" fill="#263238"/>
<path d="M220.349 76.2075C220.326 76.2075 220.303 76.1985 220.286 76.1823C220.27 76.1662 220.26 76.1441 220.259 76.1208V75.124C220.259 75.1 220.268 75.0771 220.285 75.0601C220.302 75.0432 220.325 75.0337 220.349 75.0337C220.373 75.0337 220.396 75.0432 220.413 75.0601C220.43 75.0771 220.439 75.1 220.439 75.124V76.1172C220.439 76.1412 220.43 76.1641 220.413 76.1811C220.396 76.198 220.373 76.2075 220.349 76.2075Z" fill="#263238"/>
<path d="M220.851 75.7164H219.858C219.838 75.7122 219.819 75.7012 219.806 75.685C219.793 75.6689 219.786 75.6487 219.786 75.6279C219.786 75.6071 219.793 75.5869 219.806 75.5707C219.819 75.5546 219.838 75.5435 219.858 75.5394H220.851C220.864 75.5367 220.878 75.537 220.891 75.5402C220.904 75.5435 220.916 75.5495 220.926 75.558C220.937 75.5664 220.945 75.5771 220.951 75.5892C220.956 75.6013 220.959 75.6145 220.959 75.6279C220.959 75.6413 220.956 75.6545 220.951 75.6666C220.945 75.6787 220.937 75.6893 220.926 75.6978C220.916 75.7063 220.904 75.7123 220.891 75.7155C220.878 75.7188 220.864 75.719 220.851 75.7164Z" fill="#263238"/>
<path d="M205.53 121.98C207.134 121.98 208.434 120.679 208.434 119.076C208.434 117.472 207.134 116.172 205.53 116.172C203.926 116.172 202.626 117.472 202.626 119.076C202.626 120.679 203.926 121.98 205.53 121.98Z" fill="#3366FF"/>
<path d="M205.472 118.415H204.949C204.693 118.415 204.486 118.622 204.486 118.877V119.401C204.486 119.656 204.693 119.863 204.949 119.863H205.472C205.728 119.863 205.935 119.656 205.935 119.401V118.877C205.935 118.622 205.728 118.415 205.472 118.415Z" fill="white"/>
<path d="M206.068 119.396V118.905L206.43 118.515C206.44 118.503 206.454 118.494 206.469 118.49C206.485 118.487 206.501 118.488 206.516 118.494C206.531 118.5 206.543 118.51 206.552 118.524C206.56 118.538 206.564 118.553 206.563 118.569V119.685C206.564 119.701 206.56 119.716 206.552 119.73C206.544 119.743 206.532 119.753 206.518 119.76C206.504 119.766 206.488 119.768 206.473 119.765C206.458 119.762 206.444 119.754 206.433 119.743L206.068 119.396Z" fill="white"/>
<path d="M194.76 121.142C194.359 120.741 194.086 120.231 193.975 119.675C193.865 119.12 193.921 118.544 194.138 118.02C194.355 117.497 194.722 117.049 195.193 116.734C195.664 116.419 196.218 116.251 196.784 116.251C197.351 116.251 197.905 116.419 198.376 116.734C198.847 117.049 199.214 117.497 199.431 118.02C199.647 118.544 199.704 119.12 199.593 119.675C199.482 120.231 199.209 120.741 198.809 121.142C198.543 121.408 198.227 121.619 197.88 121.763C197.533 121.907 197.16 121.981 196.784 121.981C196.408 121.981 196.036 121.907 195.688 121.763C195.341 121.619 195.026 121.408 194.76 121.142Z" fill="#3366FF"/>
<path d="M195.529 119.588L196.042 119.466C196.072 119.458 196.099 119.441 196.118 119.417C196.137 119.393 196.147 119.363 196.147 119.332V119.227C196.147 119.227 196.125 119.047 196.295 119.036C196.465 119.025 197.183 119.036 197.183 119.036C197.183 119.036 197.386 119.036 197.382 119.191V119.343C197.382 119.369 197.39 119.394 197.406 119.415C197.422 119.436 197.444 119.451 197.469 119.458L198.021 119.628C198.05 119.636 198.081 119.632 198.107 119.619C198.134 119.606 198.155 119.583 198.166 119.556L198.238 119.386C198.25 119.355 198.256 119.322 198.256 119.289C198.251 119.195 198.216 119.106 198.159 119.032C198.05 118.891 197.534 118.559 196.544 118.606C195.555 118.653 195.399 119.05 195.345 119.144C195.316 119.23 195.316 119.322 195.345 119.408C195.345 119.43 195.37 119.469 195.388 119.505C195.4 119.532 195.42 119.555 195.446 119.569C195.471 119.584 195.5 119.591 195.529 119.588Z" fill="white"/>
<path d="M188.038 121.979C189.628 121.979 190.917 120.691 190.917 119.101C190.917 117.511 189.628 116.222 188.038 116.222C186.449 116.222 185.16 117.511 185.16 119.101C185.16 120.691 186.449 121.979 188.038 121.979Z" fill="#3366FF"/>
<path d="M187.125 119.386C187.05 119.385 186.978 119.355 186.925 119.302C186.873 119.248 186.843 119.176 186.843 119.101C186.843 119.026 186.873 118.955 186.926 118.902C186.978 118.849 187.05 118.819 187.125 118.819C187.2 118.819 187.272 118.849 187.325 118.902C187.379 118.954 187.409 119.026 187.41 119.101C187.409 119.176 187.379 119.248 187.325 119.302C187.272 119.355 187.2 119.385 187.125 119.386Z" fill="white"/>
<path d="M188.01 119.386C187.934 119.386 187.861 119.356 187.808 119.303C187.754 119.249 187.724 119.176 187.724 119.101C187.724 119.044 187.741 118.989 187.772 118.942C187.804 118.895 187.848 118.859 187.9 118.837C187.953 118.816 188.01 118.81 188.065 118.821C188.121 118.832 188.172 118.859 188.211 118.899C188.251 118.939 188.279 118.99 188.29 119.045C188.301 119.1 188.295 119.158 188.273 119.21C188.252 119.262 188.215 119.307 188.168 119.338C188.121 119.369 188.066 119.386 188.01 119.386Z" fill="white"/>
<path d="M188.952 119.386C189.11 119.386 189.238 119.258 189.238 119.101C189.238 118.943 189.11 118.815 188.952 118.815C188.795 118.815 188.667 118.943 188.667 119.101C188.667 119.258 188.795 119.386 188.952 119.386Z" fill="white"/>
<path d="M171.204 76.2582C171.204 76.6268 171.095 76.9871 170.89 77.2936C170.685 77.6001 170.394 77.8389 170.054 77.98C169.713 78.121 169.339 78.1579 168.977 78.086C168.615 78.0141 168.283 77.8366 168.023 77.576C167.762 77.3154 167.585 76.9833 167.513 76.6218C167.441 76.2603 167.478 75.8855 167.619 75.545C167.76 75.2045 167.999 74.9134 168.305 74.7086C168.612 74.5038 168.972 74.3945 169.341 74.3945C169.835 74.3945 170.309 74.5909 170.658 74.9404C171.008 75.2899 171.204 75.7639 171.204 76.2582Z" fill="#455A64"/>
<path d="M182.484 76.5939C182.484 76.6445 180.161 76.6878 177.294 76.6878C174.426 76.6878 172.104 76.6445 172.104 76.5939C172.104 76.5433 174.429 76.5 177.294 76.5C180.158 76.5 182.484 76.5397 182.484 76.5939Z" fill="#455A64"/>
<path d="M164.046 65.1991H165.158H168.409L180.811 65.1774L225.207 65.1377H225.29V65.2172C225.29 82.3223 225.29 102.465 225.29 124.013V124.107H220.779H164.046H164.013L163.988 124.081L163.963 124.056V124.023C163.963 111.458 163.963 100.244 163.981 90.7702L164.046 90.8352H157.66H157.526L157.617 90.7377L164.01 83.8754V83.9079C164.01 77.9232 164.031 73.2569 164.035 70.0822C164.035 68.5002 164.035 67.2939 164.035 66.4704C164.035 66.0659 164.035 65.7481 164.035 65.553C164.035 65.358 164.035 65.246 164.035 65.246C164.035 65.246 164.035 65.3544 164.035 65.5639C164.035 65.7734 164.035 66.0804 164.035 66.4885C164.035 67.3083 164.035 68.5183 164.035 70.1002C164.035 73.2677 164.053 77.9269 164.064 83.8971V83.9151C162.15 85.9883 160.023 88.2865 157.685 90.8099L157.642 90.7088H164.111V90.7738C164.111 100.247 164.111 111.462 164.132 124.027L164.107 123.966L164.046 123.944H220.779H225.218L225.124 124.038C225.124 102.49 225.124 82.3476 225.124 65.2424L225.203 65.3219L180.858 65.2822L168.438 65.2605H165.162H164.32L164.046 65.1991Z" fill="#263238"/>
<path d="M206.849 95.4332C206.849 95.4837 205.169 95.5993 203.092 95.6932C201.016 95.7871 199.325 95.8124 199.322 95.7618C199.318 95.7113 201.005 95.5957 203.081 95.5054C204.335 95.4182 205.592 95.3941 206.849 95.4332Z" fill="white"/>
<path d="M188.475 82.0336C188.804 80.2278 189.241 78.3677 190.354 76.9086C191.466 75.4494 193.438 74.4851 195.179 75.0738L197.324 76.3199C196.879 81.318 195.864 86.2488 194.298 91.016C194.176 91.4946 193.948 91.9392 193.629 92.3163C192.932 93.0205 191.795 92.9555 190.812 92.8436C189.624 92.7063 188.237 92.4318 187.728 91.3483C187.525 90.8068 187.462 90.2231 187.544 89.6508C187.705 87.0957 188.017 84.5523 188.475 82.0336Z" fill="#3366FF"/>
<path d="M200.55 78.8188L193.94 76.6265C191.798 76.24 190.169 78.7935 189.877 80.9606C189.548 83.3552 189.245 86.2915 189.4 88.1082C189.707 91.7561 192.441 92.417 192.441 92.417C192.224 93.316 192.152 94.2439 192.228 95.1655C192.398 97.6504 194.001 98.2933 195.313 98.3836C197.386 98.6039 199.545 97.9466 199.784 95.8771L201.59 80.2057C201.622 79.8862 201.533 79.566 201.341 79.3091C201.148 79.0521 200.865 78.8771 200.55 78.8188Z" fill="#FFBE9D"/>
<path d="M190.812 83.7924C190.801 83.9134 190.838 84.0339 190.915 84.1279C190.992 84.2218 191.103 84.2817 191.224 84.2944C191.283 84.3031 191.342 84.3 191.399 84.2854C191.456 84.2707 191.51 84.2448 191.557 84.2092C191.604 84.1735 191.644 84.1288 191.673 84.0777C191.703 84.0267 191.722 83.9702 191.73 83.9116C191.741 83.7906 191.704 83.6701 191.627 83.5761C191.55 83.4822 191.439 83.4224 191.318 83.4096C191.26 83.4009 191.2 83.404 191.143 83.4187C191.086 83.4333 191.032 83.4592 190.985 83.4949C190.938 83.5305 190.898 83.5752 190.869 83.6263C190.839 83.6774 190.82 83.7338 190.812 83.7924Z" fill="#263238"/>
<path d="M190.588 82.8282C190.643 82.8932 191.011 82.6584 191.509 82.6981C192.008 82.7379 192.355 83.0087 192.412 82.9546C192.47 82.9004 192.391 82.8137 192.239 82.6873C192.038 82.5245 191.791 82.4274 191.533 82.4093C191.274 82.3912 191.017 82.453 190.794 82.5862C190.625 82.709 190.563 82.7993 190.588 82.8282Z" fill="#263238"/>
<path d="M195.327 84.392C195.317 84.5129 195.354 84.6329 195.431 84.7266C195.508 84.8203 195.618 84.8804 195.739 84.8941C195.797 84.9027 195.857 84.8996 195.914 84.885C195.971 84.8703 196.025 84.8444 196.072 84.8088C196.119 84.7732 196.158 84.7285 196.188 84.6774C196.218 84.6263 196.237 84.5698 196.244 84.5112C196.256 84.3908 196.219 84.2708 196.143 84.1769C196.066 84.0831 195.956 84.0229 195.836 84.0092C195.778 84.0005 195.718 84.0036 195.66 84.0182C195.603 84.0328 195.549 84.0587 195.502 84.0943C195.454 84.1299 195.414 84.1745 195.384 84.2257C195.354 84.2768 195.335 84.3333 195.327 84.392Z" fill="#263238"/>
<path d="M195.569 83.3302C195.623 83.3952 195.991 83.1604 196.49 83.2002C196.988 83.2399 197.335 83.5144 197.393 83.4566C197.451 83.3988 197.371 83.3193 197.219 83.1893C197.014 83.0236 196.761 82.9263 196.497 82.9112C196.237 82.8901 195.978 82.9534 195.757 83.0918C195.601 83.1965 195.54 83.3013 195.569 83.3302Z" fill="#263238"/>
<path d="M193.42 86.5519C193.164 86.4489 192.896 86.3797 192.622 86.346C192.495 86.3243 192.38 86.2882 192.362 86.2015C192.364 86.0723 192.404 85.9466 192.477 85.8403L192.922 84.9013C193.546 83.5577 194.005 82.4525 193.951 82.4272C193.481 83.1882 193.071 83.9853 192.727 84.811L192.293 85.7609C192.202 85.9073 192.166 86.0815 192.192 86.2521C192.208 86.2981 192.233 86.3401 192.267 86.3751C192.301 86.4101 192.342 86.4371 192.387 86.4543C192.456 86.4784 192.528 86.4942 192.6 86.5013C192.871 86.5491 193.146 86.566 193.42 86.5519Z" fill="#263238"/>
<path d="M192.441 92.4029C194.204 92.5675 195.978 92.2491 197.574 91.4819C197.574 91.4819 195.963 93.9162 192.376 93.3167L192.441 92.4029Z" fill="#EB996E"/>
<path d="M195.327 81.7988C195.363 81.936 195.865 81.9108 196.447 82.0227C197.028 82.1347 197.487 82.3297 197.574 82.2142C197.61 82.1564 197.537 82.0227 197.357 81.8783C197.114 81.6998 196.833 81.5789 196.537 81.5245C196.24 81.47 195.935 81.4836 195.645 81.564C195.425 81.6254 195.309 81.7338 195.327 81.7988Z" fill="#3366FF"/>
<path d="M190.559 81.3438C190.661 81.463 191.094 81.3763 191.607 81.4088C192.12 81.4413 192.546 81.5533 192.654 81.4449C192.701 81.3908 192.654 81.2716 192.463 81.1488C192.209 80.9974 191.92 80.9129 191.625 80.9032C191.331 80.8836 191.037 80.9408 190.773 81.0693C190.585 81.1741 190.512 81.286 190.559 81.3438Z" fill="#3366FF"/>
<path d="M193.272 77.5152C193.554 77.968 193.898 78.379 194.294 78.7359L196.1 80.5418C196.524 80.9758 196.974 81.3835 197.447 81.7626C197.88 82.08 198.33 82.3742 198.794 82.6438C199.275 82.9364 199.517 83.684 200.001 83.9729C200.109 84.038 200.459 83.9982 200.575 84.0813C200.553 84.8903 200.539 87.4619 200.532 88.484C200.532 90.0985 199.939 94.4037 199.939 94.4037H201.348C202.431 94.2411 203.562 92.9987 203.789 91.9332C203.999 90.9364 203.948 89.5495 204.013 88.7332C204.183 86.6348 203.771 84.5111 203.634 82.4127C203.621 81.5614 203.483 80.7167 203.222 79.9061C202.74 78.7972 201.969 77.838 200.99 77.1287C199.936 76.2288 198.691 75.5793 197.35 75.2289C196.68 75.0609 195.983 75.0294 195.3 75.1361C194.618 75.2428 193.963 75.4856 193.377 75.8501C193.187 75.9524 193.042 76.1227 192.972 76.3269C192.77 76.8181 193.008 77.0492 193.272 77.5152ZM200.625 84.0994C200.625 84.4605 200.676 84.1969 200.625 84.0994V84.0994Z" fill="#3366FF"/>
<path d="M200.38 85.0705C200.399 84.8933 200.463 84.7238 200.565 84.5778C200.667 84.4319 200.805 84.3143 200.965 84.236C201.125 84.1577 201.303 84.1213 201.481 84.1302C201.659 84.1391 201.832 84.193 201.983 84.2868C202.345 84.5215 202.583 84.9658 202.493 85.7784C202.251 87.9455 200.123 87.2556 200.127 87.1942C200.131 87.1328 200.264 85.959 200.38 85.0705Z" fill="#FFBE9D"/>
<path d="M200.882 86.4471C200.882 86.4471 200.918 86.476 200.976 86.5121C201.061 86.561 201.162 86.5753 201.258 86.5518C201.408 86.4785 201.536 86.3667 201.628 86.2277C201.721 86.0887 201.775 85.9276 201.785 85.7609C201.811 85.5757 201.797 85.387 201.742 85.2083C201.728 85.1384 201.698 85.0727 201.654 85.0167C201.61 84.9608 201.553 84.9162 201.489 84.8868C201.446 84.8708 201.4 84.87 201.357 84.8845C201.314 84.899 201.278 84.9279 201.254 84.9663C201.218 85.0241 201.229 85.0674 201.214 85.071C201.2 85.0746 201.171 85.0277 201.214 84.941C201.233 84.8888 201.268 84.8443 201.315 84.8146C201.379 84.7759 201.456 84.7642 201.528 84.7821C201.616 84.8099 201.695 84.8597 201.759 84.9267C201.822 84.9937 201.867 85.0757 201.89 85.1649C201.961 85.3624 201.984 85.5744 201.955 85.7825C201.944 85.9768 201.875 86.1635 201.758 86.319C201.641 86.4746 201.481 86.592 201.297 86.6566C201.237 86.667 201.175 86.6637 201.116 86.6468C201.057 86.6299 201.003 86.5999 200.958 86.5591C200.878 86.5013 200.875 86.4507 200.882 86.4471Z" fill="#EB996E"/>
<path d="M201.55 87.4404C201.544 87.5244 201.514 87.6047 201.462 87.6713C201.41 87.7379 201.34 87.7878 201.261 87.8146C201.181 87.8414 201.095 87.8439 201.013 87.8219C200.932 87.7999 200.859 87.7543 200.804 87.6908C200.748 87.6274 200.713 87.549 200.702 87.4655C200.691 87.382 200.706 87.2971 200.743 87.2216C200.78 87.1462 200.839 87.0834 200.912 87.0414C200.985 86.9993 201.069 86.9798 201.153 86.9853C201.209 86.9885 201.264 87.0029 201.314 87.0276C201.365 87.0523 201.41 87.0869 201.447 87.1293C201.484 87.1717 201.512 87.221 201.53 87.2744C201.548 87.3279 201.554 87.3843 201.55 87.4404Z" fill="#263238"/>
<path d="M194.713 87.5595C194.801 87.6928 194.856 87.8455 194.872 88.0044C194.888 88.1633 194.866 88.3238 194.806 88.4721C194.747 88.6205 194.653 88.7523 194.531 88.8563C194.41 88.9602 194.266 89.0333 194.11 89.0692C193.99 89.1001 193.864 89.0938 193.749 89.0512C193.655 88.9893 193.575 88.9091 193.512 88.8154C193.45 88.7217 193.408 88.6164 193.388 88.5058C193.33 88.3288 193.272 88.1446 193.218 87.9749C193.205 87.946 193.198 87.9146 193.198 87.8828C193.198 87.851 193.205 87.8196 193.218 87.7907C193.239 87.7646 193.265 87.7433 193.295 87.7283C193.325 87.7133 193.358 87.705 193.391 87.704L194.699 87.4873" fill="#EB996E"/>
<path d="M193.763 88.9896C193.959 89.0281 194.161 89.017 194.352 88.9571C194.574 88.9035 194.767 88.768 194.894 88.5779C194.968 88.462 195.005 88.3256 194.998 88.1878C195.002 88.0448 194.978 87.9024 194.926 87.7689C194.878 87.6355 194.805 87.5128 194.709 87.4077L194.677 87.3716H194.634C193.763 87.61 193.088 87.7328 193.091 87.7508C193.628 87.757 194.162 87.6777 194.673 87.516L194.597 87.4944C194.678 87.5827 194.74 87.6857 194.782 87.7978C194.831 87.8942 194.858 88.0005 194.861 88.1088C194.864 88.2171 194.842 88.3247 194.798 88.4236C194.754 88.5224 194.687 88.61 194.605 88.6799C194.522 88.7497 194.424 88.8001 194.319 88.8271C193.994 88.9607 193.763 88.9607 193.763 88.9896Z" fill="#263238"/>
<path d="M198.458 78.8331C199.819 79.8032 200.976 81.0302 201.864 82.4449L200.69 84.4349C198.7 84.2471 198.466 84.0449 197.079 82.6291C195.692 81.2133 192.889 78.3672 192.745 76.3735C194.587 76.9297 196.851 77.6954 198.458 78.8331Z" fill="#3366FF"/>
<path d="M201.593 94.3168C201.615 94.2444 201.647 94.1752 201.687 94.111C201.756 93.9773 201.853 93.7787 201.976 93.5259C202.321 92.8037 202.608 92.0549 202.832 91.2866C203.164 90.1488 203.356 88.9747 203.403 87.7904C203.445 87.0939 203.409 86.3949 203.294 85.7065C203.183 84.9727 202.848 84.2908 202.337 83.7525C201.78 83.2553 201.147 82.8494 200.463 82.5498C199.825 82.2465 199.209 81.8977 198.621 81.506C197.634 80.8235 196.741 80.0134 195.966 79.097C195.444 78.4837 194.971 77.8304 194.55 77.143C194.402 76.901 194.294 76.7096 194.225 76.576C194.183 76.5122 194.149 76.4429 194.124 76.3701C194.174 76.4282 194.217 76.4911 194.254 76.5579C194.334 76.688 194.449 76.8721 194.615 77.1105C195.051 77.7798 195.534 78.4171 196.06 79.0175C196.84 79.9094 197.731 80.6972 198.711 81.3615C199.294 81.7493 199.905 82.0934 200.539 82.3909C201.241 82.6941 201.889 83.1101 202.457 83.6225C202.993 84.1848 203.343 84.8985 203.461 85.6667C203.572 86.3676 203.606 87.0786 203.562 87.7868C203.506 88.9818 203.3 90.165 202.948 91.3083C202.711 92.079 202.407 92.8271 202.038 93.5439C201.904 93.7968 201.796 93.9882 201.716 94.1146C201.682 94.1861 201.641 94.2539 201.593 94.3168Z" fill="white"/>
<path d="M203.132 82.9906C203.019 82.4397 202.779 81.9227 202.431 81.4809C202.054 81.0062 201.594 80.6036 201.073 80.2926C200.428 79.9152 199.759 79.5775 199.072 79.2813C197.818 78.7174 196.657 77.9673 195.627 77.0565C195.316 76.7815 195.021 76.4898 194.742 76.1825C194.632 76.0732 194.536 75.9521 194.453 75.8213C194.573 75.9157 194.685 76.0196 194.789 76.1319C194.998 76.3342 195.305 76.6267 195.706 76.9626C196.747 77.8399 197.904 78.5691 199.145 79.1296C199.838 79.4278 200.51 79.7729 201.156 80.1626C201.688 80.4891 202.154 80.9131 202.529 81.4123C202.783 81.748 202.967 82.1311 203.071 82.5391C203.098 82.6495 203.116 82.7618 203.125 82.875C203.154 82.9509 203.154 82.9906 203.132 82.9906Z" fill="white"/>
<path d="M188.183 92.0995C188.175 92.0383 188.175 91.9764 188.183 91.9153C188.183 91.7744 188.183 91.601 188.183 91.3879C188.201 90.9293 188.226 90.2683 188.27 89.4521C188.356 87.8159 188.494 85.555 188.837 83.0773C188.963 81.9044 189.214 80.7482 189.584 79.6281C189.898 78.7074 190.416 77.87 191.101 77.1794C191.563 76.7138 192.124 76.3572 192.741 76.1356C192.908 76.0764 193.079 76.0329 193.254 76.0056C193.314 75.9911 193.376 75.9838 193.438 75.9839C193.438 76.0019 193.189 76.0344 192.766 76.2006C192.171 76.4398 191.634 76.8016 191.188 77.2624C190.534 77.9525 190.04 78.7789 189.743 79.6823C189.389 80.7954 189.147 81.9412 189.021 83.1026C188.681 85.5694 188.526 87.8268 188.407 89.4593C188.349 90.2575 188.302 90.904 188.27 91.3916C188.27 91.6047 188.237 91.778 188.223 91.9153C188.218 91.9781 188.204 92.0401 188.183 92.0995Z" fill="white"/>
<path d="M182.502 103.198C182.502 103.198 182.892 100.07 184.398 98.503C185.904 96.9355 192.21 94.9887 192.21 94.9887C192.21 94.9887 192.474 97.2172 193.983 97.7553C195.583 98.326 197.393 98.1165 198.567 96.7513C199.28 95.8743 199.782 94.8448 200.033 93.7427C200.033 93.7427 207.564 94.4361 208.792 96.502C210.02 98.568 211.609 106.568 211.609 106.568L204.566 108.06L205.017 114.561L187.714 114.662L187.179 108.919L182.086 109.642L182.502 103.198Z" fill="#455A64"/>
<path d="M203.154 108.515C203.132 108.413 203.124 108.308 203.128 108.204C203.128 108.006 203.128 107.717 203.128 107.359C203.128 106.637 203.128 105.658 203.161 104.567C203.193 103.477 203.215 102.491 203.244 101.775C203.244 101.414 203.273 101.133 203.287 100.93C203.287 100.826 203.299 100.721 203.323 100.62C203.347 100.721 203.355 100.826 203.349 100.93C203.349 101.133 203.349 101.421 203.349 101.779C203.349 102.501 203.349 103.48 203.313 104.571C203.276 105.662 203.262 106.648 203.23 107.363C203.23 107.724 203.201 108.006 203.186 108.208C203.19 108.311 203.179 108.415 203.154 108.515Z" fill="#263238"/>
<path d="M185.456 102.84C185.5 102.84 185.937 104.227 186.435 105.964C186.764 107.004 187.04 108.06 187.262 109.128C186.882 108.106 186.554 107.064 186.28 106.008C185.952 104.966 185.677 103.909 185.456 102.84Z" fill="#263238"/>
<path d="M208.004 96.0036C208.004 96.0325 207.668 96.0975 207.155 96.2925C205.808 96.809 204.686 97.785 203.988 99.0483C203.724 99.5286 203.627 99.8573 203.587 99.8465C203.59 99.7643 203.608 99.6835 203.641 99.6081C203.704 99.3964 203.786 99.1908 203.887 98.9941C204.217 98.3346 204.674 97.7469 205.232 97.2646C205.789 96.7824 206.437 96.4152 207.137 96.1842C207.346 96.1112 207.561 96.058 207.78 96.0253C207.853 96.0057 207.929 95.9984 208.004 96.0036Z" fill="#263238"/>
<path d="M184.286 99.1387C184.446 99.4431 184.557 99.771 184.615 100.11C184.726 100.436 184.785 100.777 184.788 101.122C184.628 100.817 184.517 100.489 184.459 100.15C184.348 99.8242 184.29 99.4828 184.286 99.1387Z" fill="#263238"/>
<path d="M203.331 100.62C203.331 100.674 199.358 101.212 194.399 101.826C189.44 102.44 185.453 102.909 185.445 102.841C185.438 102.772 189.418 102.252 194.377 101.638C199.336 101.024 203.327 100.569 203.331 100.62Z" fill="white"/>
<path d="M210.059 100.385C208.981 100.749 207.884 101.054 206.773 101.299C205.676 101.601 204.563 101.842 203.439 102.021C204.517 101.657 205.614 101.353 206.726 101.111C207.823 100.809 208.936 100.566 210.059 100.385Z" fill="white"/>
<path d="M211.201 104.741C211.201 104.791 209.489 105.203 207.351 105.662C205.212 106.12 203.475 106.445 203.464 106.384C203.453 106.323 205.176 105.922 207.314 105.467C209.453 105.011 211.19 104.69 211.201 104.741Z" fill="white"/>
<path d="M192.163 96.5015C192.163 96.5521 190.52 97.018 188.461 97.5453C186.402 98.0726 184.734 98.4591 184.734 98.4085C184.734 98.358 186.377 97.892 188.432 97.3647C190.487 96.8374 192.149 96.451 192.163 96.5015Z" fill="white"/>
<path d="M203.052 107.207C203.052 107.258 199.47 107.514 195.049 107.774C190.628 108.034 187.038 108.208 187.034 108.157C187.031 108.107 190.614 107.85 195.038 107.587C199.462 107.323 203.049 107.157 203.052 107.207Z" fill="white"/>
<path d="M183.058 104.975C183.986 104.773 184.93 104.652 185.879 104.614C185.432 104.786 184.962 104.889 184.485 104.921C184.015 105.012 183.533 105.03 183.058 104.975Z" fill="white"/>
<path d="M202.793 112.517C202.613 112.55 202.43 112.57 202.247 112.574L200.759 112.672L195.851 113.001L190.946 113.383L189.462 113.499C189.279 113.521 189.096 113.528 188.913 113.521C189.09 113.472 189.271 113.44 189.454 113.427C189.816 113.38 190.307 113.318 190.935 113.25C192.188 113.116 193.918 112.95 195.836 112.813C197.754 112.676 199.495 112.585 200.752 112.542C201.384 112.517 201.893 112.506 202.244 112.502C202.427 112.489 202.61 112.494 202.793 112.517Z" fill="white"/>
<path d="M187.179 108.909L184.774 109.219L182.502 103.357L178.821 104.845C178.821 104.845 180.898 111.874 181.693 114.651H189.162L187.179 108.909Z" fill="#FFBE9D"/>
<path d="M187.439 113.484C186.99 113.009 186.576 112.502 186.2 111.967C185.899 111.527 185.631 111.064 185.398 110.584C185.2 110.172 185.066 109.829 184.972 109.591C184.933 109.466 184.883 109.345 184.82 109.229C184.835 109.362 184.866 109.492 184.914 109.616C185.014 109.964 185.135 110.305 185.276 110.638C185.497 111.131 185.758 111.606 186.056 112.057C186.429 112.603 186.845 113.118 187.298 113.6C187.636 113.92 187.94 114.275 188.205 114.658H188.392C188.116 114.235 187.797 113.841 187.439 113.484Z" fill="#EB996E"/>
<path d="M182.502 103.357C182.502 103.357 182.502 100.789 182.289 100.067L180.483 96.0181C180.483 96.0181 180.017 95.7291 179.793 96.5381C179.569 97.3472 180.277 98.1779 180.277 98.1779L180.331 99.2361L179.609 98.6402L178.197 95.9928C178.197 95.9928 177.225 94.0677 176.972 94.3711C176.719 94.6745 176.802 95.2993 177.221 96.13C177.64 96.9607 178.175 98.0153 178.175 98.0153C178.175 98.0153 178.319 98.3512 177.814 97.8637C177.308 97.3761 176.228 95.0248 176.008 94.7323C175.788 94.4397 175.477 93.5765 174.989 93.7716C174.502 93.9666 175.127 94.9995 175.127 94.9995L176.683 98.4885C176.683 98.4885 175.78 97.1666 175.6 96.9463C175.419 96.726 175.062 95.9639 174.765 95.581C174.469 95.1982 174.144 95.0465 173.931 95.1368C173.827 95.1746 173.741 95.2504 173.691 95.3489C173.641 95.4474 173.63 95.5614 173.66 95.6677L175.325 98.5571C175.325 98.5571 176.156 99.8537 176.152 99.9512C176.149 100.049 175.43 99.5214 175.43 99.5214L174.733 98.633C174.733 98.633 173.978 97.3038 173.581 97.3761C173.183 97.4483 173.259 97.7372 173.259 97.7372L174.661 100.161L176.69 102.772L178.858 104.939L180.111 104.535L182.502 103.357Z" fill="#FFBE9D"/>
<path d="M178.504 102.935C178.569 102.669 178.612 102.398 178.634 102.126C178.693 101.487 178.991 100.894 179.468 100.464C179.706 100.266 180.003 100.153 180.313 100.143H180.418V100.031C180.385 99.5325 180.418 99.0593 180.385 98.7451C180.399 98.5724 180.376 98.3987 180.317 98.2358C180.28 98.4018 180.263 98.5715 180.266 98.7415C180.266 99.0665 180.205 99.5 180.226 100.06L180.32 99.9478C179.964 99.9504 179.62 100.078 179.349 100.309C179.05 100.549 178.822 100.866 178.691 101.226C178.584 101.512 178.518 101.811 178.496 102.115C178.45 102.386 178.453 102.664 178.504 102.935Z" fill="#EB996E"/>
<path d="M203.851 108.211L202.511 114.654H208.799C209.041 113.737 210.355 106.835 210.355 106.835L203.851 108.211Z" fill="#FFBE9D"/>
<path d="M189.375 0.00341797H128.882V58.1488H189.375V0.00341797Z" fill="white"/>
<path d="M189.375 0.00341797H128.882V4.35917H189.375V0.00341797Z" fill="#F5F5F5"/>
<path d="M189.375 48.9062H128.9V58.1487H132.053V66.7699L139.992 58.1487H189.375V48.9062Z" fill="#EBEBEB"/>
<path d="M189.386 48.9968C189.386 48.9968 189.386 49.358 189.386 50.0804C189.386 50.8027 189.386 51.8321 189.386 53.1973C189.386 54.5625 189.386 56.2492 189.386 58.2321V58.2537C189.313 58.326 189.36 58.2754 189.339 58.2898H182.585L139.999 58.3223L140.057 58.2971C137.557 61.0167 134.885 63.9241 132.111 66.9219L131.966 67.0808V66.8641C131.966 64.1698 131.966 61.237 131.966 58.2429L132.053 58.3332H128.842L128.813 58.2971L128.795 58.2754V58.2429C128.795 45.06 128.795 30.6167 128.795 15.5485V0H128.889L189.386 0.0180587H189.458V0.0939052C189.429 15.0284 189.429 27.2542 189.429 35.7562C189.429 40 189.429 43.312 189.429 45.5657C189.429 46.6889 189.429 47.5449 189.429 48.1264C189.429 48.7079 189.429 49.0041 189.429 49.0041C189.429 49.0041 189.429 48.7079 189.429 48.1264C189.429 47.5449 189.429 46.6817 189.429 45.5657C189.429 43.312 189.429 40 189.429 35.7562C189.429 27.2614 189.429 15.0357 189.397 0.101129L189.472 0.173363L128.889 0.18781L128.983 0.0939052V15.5305C128.983 30.5986 128.983 45.042 128.983 58.2248L128.965 58.1743L128.893 58.1381H132.143V66.846L132.002 66.8172C134.765 63.823 137.442 60.9156 139.948 58.1995L139.974 58.1743H140.006L182.592 58.2104H189.378C189.378 58.2104 189.422 58.1743 189.357 58.2429V58.2212C189.357 56.2384 189.357 54.5517 189.357 53.1865C189.357 51.8212 189.357 50.7774 189.357 50.0695C189.357 49.3616 189.386 48.9968 189.386 48.9968Z" fill="#263238"/>
<path d="M137.438 2.34067C137.438 2.50227 137.39 2.66022 137.3 2.79453C137.21 2.92884 137.083 3.03346 136.933 3.09513C136.784 3.15681 136.62 3.17276 136.461 3.14097C136.303 3.10918 136.157 3.03108 136.043 2.91656C135.929 2.80205 135.852 2.65627 135.821 2.49769C135.79 2.33912 135.806 2.17488 135.869 2.0258C135.931 1.87671 136.036 1.74948 136.171 1.66023C136.306 1.57097 136.464 1.52371 136.625 1.52442C136.732 1.52442 136.838 1.54556 136.937 1.58662C137.036 1.62769 137.126 1.68787 137.201 1.76371C137.277 1.83956 137.337 1.92957 137.377 2.02858C137.418 2.12759 137.439 2.23365 137.438 2.34067Z" fill="white"/>
<path d="M132.504 2.34067C132.504 2.50124 132.455 2.658 132.366 2.79116C132.276 2.92432 132.149 3.02792 132 3.08887C131.852 3.14982 131.688 3.1654 131.531 3.13364C131.374 3.10188 131.229 3.0242 131.116 2.9104C131.003 2.79661 130.926 2.65181 130.895 2.49427C130.863 2.33673 130.88 2.17352 130.941 2.02524C131.003 1.87696 131.107 1.75026 131.241 1.66112C131.374 1.57199 131.531 1.52442 131.692 1.52441C131.799 1.52441 131.905 1.54555 132.004 1.58662C132.102 1.62768 132.192 1.68786 132.268 1.76371C132.343 1.83955 132.403 1.92956 132.444 2.02857C132.484 2.12758 132.505 2.23365 132.504 2.34067Z" fill="white"/>
<path d="M134.971 2.34031C134.971 2.50236 134.923 2.66073 134.833 2.79526C134.742 2.92979 134.614 3.03438 134.464 3.09571C134.314 3.15704 134.149 3.17234 133.99 3.13966C133.832 3.10697 133.686 3.02778 133.573 2.91218C133.459 2.79658 133.383 2.64979 133.353 2.49051C133.323 2.33123 133.341 2.16668 133.405 2.0178C133.469 1.86892 133.576 1.74247 133.712 1.65454C133.848 1.56661 134.007 1.52119 134.169 1.52405C134.384 1.52691 134.588 1.61428 134.738 1.76715C134.889 1.92002 134.972 2.12602 134.971 2.34031Z" fill="white"/>
<path d="M183.499 14.5228C182.484 14.519 181.512 14.1132 180.796 13.3943C180.079 12.6754 179.677 11.7019 179.677 10.6871C179.679 9.67394 180.082 8.70273 180.798 7.98595C181.515 7.26917 182.485 6.86517 183.499 6.8623C184.002 6.8623 184.501 6.96154 184.966 7.15435C185.431 7.34715 185.854 7.62974 186.21 7.98596C186.565 8.34219 186.848 8.76505 187.04 9.2304C187.232 9.69574 187.331 10.1944 187.331 10.698C187.328 11.7127 186.923 12.685 186.205 13.4019C185.486 14.1188 184.513 14.5219 183.499 14.5228Z" fill="#EBEBEB"/>
<path d="M183.365 10.716C183.506 10.6741 183.627 10.5826 183.706 10.4583C183.785 10.334 183.817 10.1853 183.795 10.0397C183.773 9.89411 183.699 9.76135 183.587 9.66594C183.474 9.57053 183.332 9.51889 183.184 9.52055C183.04 9.52174 182.901 9.57394 182.792 9.66789C182.682 9.76184 182.61 9.89148 182.587 10.0338C182.564 10.1762 182.592 10.3221 182.666 10.4456C182.741 10.5692 182.856 10.6624 182.993 10.7088C182.744 10.7526 182.518 10.8819 182.355 11.0745C182.191 11.2671 182.1 11.5108 182.097 11.7634H184.232C184.233 11.515 184.146 11.2742 183.988 11.0828C183.83 10.8914 183.609 10.7617 183.365 10.716Z" fill="#263238"/>
<path d="M184.56 10.8967C184.537 10.8967 184.515 10.8875 184.499 10.8713C184.483 10.855 184.474 10.833 184.474 10.81V9.8276C184.473 9.81591 184.475 9.80425 184.479 9.79332C184.483 9.78238 184.49 9.77239 184.498 9.76396C184.506 9.75552 184.516 9.74881 184.526 9.74423C184.537 9.73965 184.549 9.73729 184.56 9.7373C184.584 9.73824 184.606 9.74816 184.622 9.765C184.638 9.78183 184.647 9.80426 184.647 9.8276V10.81C184.647 10.8214 184.645 10.8326 184.64 10.8432C184.636 10.8537 184.63 10.8632 184.622 10.8713C184.614 10.8793 184.604 10.8857 184.594 10.8901C184.583 10.8944 184.572 10.8967 184.56 10.8967Z" fill="#263238"/>
<path d="M185.052 10.405H184.069C184.049 10.4009 184.031 10.3898 184.017 10.3737C184.004 10.3575 183.997 10.3373 183.997 10.3165C183.997 10.2957 184.004 10.2755 184.017 10.2594C184.031 10.2432 184.049 10.2322 184.069 10.228H185.052C185.072 10.2322 185.09 10.2432 185.104 10.2594C185.117 10.2755 185.124 10.2957 185.124 10.3165C185.124 10.3373 185.117 10.3575 185.104 10.3737C185.09 10.3898 185.072 10.4009 185.052 10.405Z" fill="#263238"/>
<path d="M172.736 53.7477C172.991 52.1825 171.928 50.7072 170.363 50.4526C168.798 50.1979 167.322 51.2604 167.068 52.8256C166.813 54.3908 167.876 55.8661 169.441 56.1207C171.006 56.3753 172.481 55.3129 172.736 53.7477Z" fill="#3366FF"/>
<path d="M169.846 52.6338H169.337C169.082 52.6338 168.875 52.8408 168.875 53.0961V53.6053C168.875 53.8607 169.082 54.0676 169.337 54.0676H169.846C170.102 54.0676 170.308 53.8607 170.308 53.6053V53.0961C170.308 52.8408 170.102 52.6338 169.846 52.6338Z" fill="white"/>
<path d="M170.438 53.6056V53.118L170.8 52.7316C170.81 52.7202 170.824 52.7122 170.839 52.7087C170.854 52.7051 170.87 52.7061 170.885 52.7114C170.9 52.7168 170.912 52.7264 170.922 52.739C170.931 52.7515 170.936 52.7666 170.937 52.7821V53.8873C170.937 53.9028 170.932 53.9179 170.924 53.9308C170.915 53.9437 170.903 53.9538 170.889 53.9599C170.875 53.9661 170.859 53.9679 170.844 53.9653C170.829 53.9627 170.815 53.9556 170.803 53.9451L170.438 53.6056Z" fill="white"/>
<path d="M159.253 55.328C158.857 54.932 158.588 54.4274 158.478 53.8782C158.369 53.3289 158.425 52.7596 158.64 52.2423C158.854 51.725 159.217 51.2828 159.683 50.9717C160.148 50.6607 160.696 50.4946 161.256 50.4946C161.816 50.4946 162.363 50.6607 162.829 50.9717C163.294 51.2828 163.657 51.725 163.872 52.2423C164.086 52.7596 164.142 53.3289 164.033 53.8782C163.924 54.4274 163.654 54.932 163.258 55.328C162.727 55.8584 162.007 56.1563 161.256 56.1563C160.505 56.1563 159.785 55.8584 159.253 55.328Z" fill="#3366FF"/>
<path d="M160.015 53.7894L160.521 53.6702C160.551 53.6636 160.579 53.6468 160.598 53.6225C160.618 53.5982 160.629 53.5679 160.629 53.5366V53.4318C160.629 53.4318 160.607 53.2549 160.774 53.244C160.94 53.2332 161.651 53.244 161.651 53.244C161.651 53.244 161.853 53.244 161.85 53.3993V53.551C161.85 53.5762 161.858 53.6007 161.873 53.6209C161.888 53.6411 161.909 53.6559 161.933 53.663L162.478 53.8291C162.507 53.8385 162.537 53.8366 162.564 53.8238C162.591 53.811 162.612 53.7884 162.623 53.7605L162.695 53.5907C162.703 53.5587 162.703 53.5253 162.695 53.4932C162.689 53.4017 162.656 53.3139 162.601 53.2404C162.493 53.1032 161.98 52.7745 161.005 52.8214C160.03 52.8684 159.874 53.2585 159.82 53.3524C159.785 53.4346 159.779 53.5261 159.802 53.6124C159.802 53.6341 159.827 53.6738 159.842 53.7099C159.848 53.7266 159.857 53.742 159.869 53.755C159.881 53.7681 159.896 53.7786 159.912 53.786C159.928 53.7934 159.945 53.7975 159.963 53.7981C159.981 53.7987 159.998 53.7957 160.015 53.7894Z" fill="white"/>
<path d="M155.381 53.9698C155.743 52.4403 154.797 50.9066 153.268 50.5442C151.738 50.1818 150.204 51.1279 149.842 52.6574C149.48 54.1869 150.426 55.7205 151.955 56.0829C153.485 56.4453 155.018 55.4992 155.381 53.9698Z" fill="#3366FF"/>
<path d="M151.704 53.5913C151.649 53.5913 151.594 53.5747 151.548 53.5438C151.502 53.5128 151.466 53.4688 151.444 53.4174C151.423 53.3659 151.417 53.3092 151.428 53.2546C151.439 53.1999 151.466 53.1497 151.505 53.1103C151.545 53.0709 151.595 53.0441 151.649 53.0332C151.704 53.0224 151.761 53.028 151.812 53.0493C151.864 53.0706 151.908 53.1067 151.939 53.153C151.97 53.1994 151.986 53.2538 151.986 53.3095C151.986 53.3843 151.956 53.4559 151.904 53.5088C151.851 53.5616 151.779 53.5913 151.704 53.5913Z" fill="white"/>
<path d="M152.589 53.5913C152.515 53.5913 152.443 53.5616 152.39 53.5088C152.337 53.4559 152.308 53.3843 152.308 53.3095C152.308 53.2348 152.337 53.1632 152.39 53.1103C152.443 53.0575 152.515 53.0278 152.589 53.0278C152.664 53.0278 152.736 53.0575 152.789 53.1103C152.841 53.1632 152.871 53.2348 152.871 53.3095C152.871 53.3843 152.841 53.4559 152.789 53.5088C152.736 53.5616 152.664 53.5913 152.589 53.5913Z" fill="white"/>
<path d="M153.51 53.5913C153.455 53.5913 153.4 53.5747 153.354 53.5438C153.307 53.5128 153.271 53.4688 153.25 53.4174C153.229 53.3659 153.223 53.3092 153.234 53.2546C153.245 53.1999 153.272 53.1497 153.311 53.1103C153.35 53.0709 153.401 53.0441 153.455 53.0332C153.51 53.0224 153.567 53.028 153.618 53.0493C153.67 53.0706 153.714 53.1067 153.744 53.153C153.775 53.1994 153.792 53.2538 153.792 53.3095C153.792 53.3843 153.762 53.4559 153.709 53.5088C153.657 53.5616 153.585 53.5913 153.51 53.5913Z" fill="white"/>
<path d="M133.534 12.2977C134.551 12.2977 135.376 11.4731 135.376 10.4558C135.376 9.43846 134.551 8.61377 133.534 8.61377C132.516 8.61377 131.692 9.43846 131.692 10.4558C131.692 11.4731 132.516 12.2977 133.534 12.2977Z" fill="#455A64"/>
<path d="M143.694 10.1562C142.556 10.2492 141.414 10.2806 140.273 10.2501C139.131 10.2806 137.988 10.2493 136.849 10.1562C137.988 10.061 139.131 10.0296 140.273 10.0623C141.414 10.0297 142.556 10.061 143.694 10.1562Z" fill="#455A64"/>
<path d="M147.602 16.0976C148.158 15.397 148.84 14.7252 148.981 13.8475C149.111 13.0421 148.757 12.1572 149.118 11.4204C149.566 10.5175 150.845 10.3369 151.401 9.5026C151.672 9.09808 151.733 8.5816 152.001 8.17348C152.452 7.47641 153.38 7.25248 154.211 7.29944C155.042 7.34639 155.851 7.60643 156.681 7.62088C157.819 7.64616 158.975 7.21998 160.08 7.49086C161.301 7.79424 162.088 8.82359 162.923 9.81321L164.006 10.9581C164.23 11.154 164.472 11.3281 164.728 11.4782C165.195 11.6893 165.64 11.9445 166.058 12.2403C166.251 12.4278 166.405 12.6524 166.51 12.9005C166.615 13.1487 166.669 13.4155 166.669 13.685C166.669 13.9545 166.615 14.2213 166.51 14.4694C166.405 14.7176 166.251 14.9421 166.058 15.1297C166.499 15.2607 166.887 15.5288 167.165 15.895C167.444 16.2613 167.598 16.7066 167.607 17.1667C167.562 17.6714 167.455 18.1687 167.289 18.6475C167.126 19.1296 167.137 19.6539 167.322 20.1283C167.546 20.5834 168.152 20.8723 168.579 20.6015C168.514 20.9366 168.374 21.2528 168.169 21.5261C167.965 21.7995 167.701 22.023 167.397 22.1798C167.649 22.415 167.981 22.5443 168.326 22.541C167.509 24.7514 165.075 26.0082 162.709 26.131C160.344 26.2538 158.065 25.4737 155.847 24.6863L149.436 23.3392C148.876 23.2416 148.613 22.5735 148.591 22.0028C148.569 21.4322 148.689 20.8326 148.461 20.3089C148.147 19.5866 147.28 19.2471 146.951 18.5356C146.587 17.7374 147.049 16.7947 147.602 16.0976Z" fill="#263238"/>
<path d="M162.854 21.1612C163.286 19.7196 163.591 18.2427 163.764 16.7477C163.94 15.246 163.739 13.7242 163.179 12.3197C163.089 12.1102 162.341 10.7161 162.114 10.7486C161.955 10.7739 162.439 12.0886 162.363 12.233C161.695 13.6492 161.473 15.2351 161.727 16.7802C161.938 18.2781 162.316 19.7476 162.854 21.1612Z" fill="#263238"/>
<path d="M162.702 15.4223C162.63 11.6516 160.376 8.55998 156.609 8.72612L156.248 8.76224C154.565 8.94033 153.01 9.74478 151.892 11.016C150.774 12.2871 150.174 13.9321 150.213 15.6245C150.296 18.8751 150.426 22.4868 150.628 24.2385C151.054 27.8503 154.713 28.0128 154.713 28.0128L154.912 30.9239L163.58 30.3099L162.702 15.4223Z" fill="#B28F83"/>
<path d="M154.731 28.0202C156.393 27.8415 157.969 27.1897 159.271 26.1421C159.271 26.1421 158.422 28.8798 154.796 28.934L154.731 28.0202Z" fill="#826A63"/>
<path d="M151.603 18.7122C151.617 18.8463 151.682 18.9699 151.785 19.0568C151.888 19.1437 152.021 19.1872 152.156 19.1781C152.221 19.1762 152.286 19.1613 152.346 19.1343C152.406 19.1072 152.46 19.0685 152.504 19.0205C152.549 18.9724 152.584 18.9159 152.606 18.8543C152.629 18.7927 152.639 18.7272 152.636 18.6616C152.624 18.5271 152.56 18.4027 152.457 18.3149C152.355 18.2271 152.222 18.183 152.087 18.1921C152.021 18.1939 151.956 18.2089 151.896 18.2362C151.836 18.2634 151.781 18.3024 151.736 18.3508C151.691 18.3992 151.656 18.456 151.633 18.5181C151.611 18.5801 151.6 18.6461 151.603 18.7122Z" fill="#263238"/>
<path d="M151.145 17.0437C151.217 17.1051 151.574 16.7765 152.127 16.7187C152.68 16.6609 153.117 16.8957 153.167 16.8234C153.218 16.7512 153.117 16.6754 152.925 16.5634C152.668 16.4233 152.374 16.3665 152.084 16.4009C151.794 16.4338 151.522 16.5606 151.311 16.762C151.17 16.8921 151.123 17.0185 151.145 17.0437Z" fill="#263238"/>
<path d="M156.591 18.4202C156.603 18.5547 156.667 18.6792 156.77 18.767C156.872 18.8547 157.005 18.8988 157.14 18.8898C157.206 18.8884 157.271 18.8738 157.332 18.8466C157.392 18.8195 157.446 18.7805 157.491 18.7319C157.536 18.6834 157.57 18.6263 157.593 18.564C157.615 18.5018 157.624 18.4357 157.62 18.3697C157.608 18.2355 157.544 18.1114 157.441 18.0242C157.339 17.937 157.206 17.8937 157.071 17.9038C157.006 17.9051 156.941 17.9197 156.881 17.9466C156.821 17.9735 156.767 18.0122 156.722 18.0603C156.677 18.1085 156.643 18.1652 156.62 18.227C156.598 18.2888 156.588 18.3545 156.591 18.4202Z" fill="#263238"/>
<path d="M156.602 16.6967C156.671 16.7581 157.032 16.4294 157.584 16.3716C158.137 16.3138 158.57 16.5486 158.625 16.4728C158.679 16.3969 158.574 16.3283 158.383 16.2163C158.125 16.077 157.832 16.0191 157.541 16.0502C157.252 16.0866 156.982 16.2129 156.768 16.4114C156.613 16.5414 156.562 16.6714 156.602 16.6967Z" fill="#263238"/>
<path d="M155.063 21.1574C154.763 21.0966 154.456 21.0735 154.15 21.0887C154.005 21.0887 153.868 21.0887 153.835 20.9804C153.809 20.8365 153.826 20.6879 153.886 20.5542L154.189 19.4346C154.608 17.8418 154.912 16.5452 154.832 16.5199C154.753 16.4946 154.377 17.784 153.958 19.3768C153.857 19.7668 153.763 20.1425 153.673 20.5C153.6 20.6784 153.593 20.8771 153.655 21.0599C153.681 21.108 153.717 21.1495 153.762 21.1815C153.806 21.2134 153.857 21.2348 153.911 21.244C153.992 21.2546 154.073 21.2546 154.153 21.244C154.459 21.2543 154.765 21.2251 155.063 21.1574Z" fill="#263238"/>
<path d="M156.732 21.367C156.642 21.367 156.703 21.9737 156.234 22.4505C155.764 22.9272 155.118 22.9345 155.118 23.0175C155.118 23.1006 155.273 23.1187 155.544 23.1006C155.895 23.0656 156.223 22.9099 156.472 22.66C156.713 22.4199 156.85 22.0939 156.851 21.7534C156.855 21.5006 156.772 21.3597 156.732 21.367Z" fill="#263238"/>
<path d="M156.392 14.4466C156.465 14.591 157.01 14.4466 157.667 14.4718C158.325 14.4971 158.866 14.6019 158.939 14.4718C158.971 14.4032 158.863 14.2732 158.639 14.1504C158.339 13.9985 158.007 13.9194 157.671 13.9192C157.334 13.9136 157.001 13.9892 156.699 14.1396C156.472 14.2515 156.364 14.3815 156.392 14.4466Z" fill="#263238"/>
<path d="M151.195 15.1691C151.303 15.2847 151.672 15.1113 152.131 15.0572C152.589 15.003 152.983 15.0572 153.059 14.9127C153.091 14.8441 153.019 14.7249 152.835 14.6238C152.593 14.5005 152.319 14.4563 152.051 14.4974C151.782 14.5307 151.529 14.6468 151.329 14.8296C151.184 14.9886 151.145 15.1258 151.195 15.1691Z" fill="#263238"/>
<path d="M162.702 18.1162C162.76 18.0837 165.097 17.1266 165.277 19.5934C165.458 22.0603 162.944 21.7352 162.933 21.6666C162.922 21.598 162.702 18.1162 162.702 18.1162Z" fill="#B28F83"/>
<path d="M163.612 20.6734C163.612 20.6734 163.659 20.7023 163.732 20.7312C163.836 20.7719 163.952 20.7719 164.057 20.7312C164.207 20.6174 164.325 20.4662 164.399 20.2926C164.474 20.119 164.501 19.9291 164.479 19.7416C164.469 19.5296 164.412 19.3224 164.313 19.1348C164.283 19.0575 164.235 18.9889 164.172 18.9353C164.108 18.8816 164.033 18.8447 163.952 18.8278C163.902 18.8183 163.85 18.8263 163.805 18.8507C163.76 18.8751 163.725 18.9142 163.706 18.9615C163.677 19.0337 163.706 19.0843 163.685 19.0879C163.663 19.0915 163.627 19.0518 163.641 18.947C163.648 18.8844 163.677 18.8264 163.724 18.7845C163.79 18.729 163.874 18.7006 163.959 18.705C164.063 18.7189 164.161 18.7595 164.245 18.8228C164.329 18.8861 164.394 18.97 164.436 19.0662C164.557 19.2715 164.625 19.5035 164.634 19.7416C164.663 19.9605 164.626 20.1831 164.529 20.3811C164.431 20.5791 164.277 20.7437 164.085 20.854C164.021 20.8786 163.951 20.8881 163.883 20.8818C163.814 20.8756 163.747 20.8537 163.688 20.8179C163.623 20.7348 163.605 20.6807 163.612 20.6734Z" fill="#826A63"/>
<path d="M151.567 11.4383C151.152 11.2433 152.272 9.87085 153.225 9.36159C154.67 8.59229 156.905 8.03247 158.299 8.33225C159.979 8.69342 161.402 9.41577 162.327 10.8605C163.221 12.3372 163.707 14.0247 163.735 15.7508C163.789 16.2743 163.703 16.8027 163.486 17.2821C163.175 17.8528 162.536 18.2392 162.612 18.9905C162.63 19.1262 162.621 19.2642 162.585 19.3963C162.549 19.5284 162.487 19.652 162.402 19.7598C161.983 20.269 161.402 19.8537 161.117 19.3986C160.513 18.4668 160.376 17.3146 160.257 16.2094C160.129 15.4285 160.129 14.6319 160.257 13.851C160.351 13.432 160.521 13.0311 160.589 12.6049C160.638 12.3953 160.641 12.1775 160.598 11.9666C160.554 11.7558 160.465 11.557 160.337 11.3842C160.272 11.3137 160.2 11.2496 160.123 11.1927C159.759 10.914 159.327 10.7374 158.872 10.6809C158.417 10.6244 157.955 10.6901 157.534 10.8713C156.176 11.4528 153.846 12.3413 153.2 11.9079C152.738 11.6436 152.337 11.2856 152.022 10.8569L151.567 11.4383Z" fill="#263238"/>
<path d="M158.148 8.00377C157.456 7.8085 156.733 7.75202 156.019 7.83756C155.306 7.9231 154.616 8.14898 153.991 8.50219C153.655 8.6836 153.359 8.93101 153.122 9.22954C152.884 9.52808 152.709 9.87159 152.607 10.2394C152.518 10.6101 152.563 11.0003 152.733 11.3412C152.904 11.6822 153.189 11.952 153.539 12.1031L153.59 12.132C154.673 12.4173 155.345 12.2331 156.371 11.7997C157.234 11.4385 157.989 10.8426 158.852 10.485C159.78 10.1013 160.802 10.0056 161.785 10.2105C160.787 9.16815 159.533 8.407 158.148 8.00377Z" fill="#263238"/>
<path d="M167.397 23.8012C167.397 23.8012 167.307 23.8012 167.145 23.8012C166.907 23.7865 166.678 23.7051 166.484 23.5664C166.175 23.351 165.953 23.0339 165.855 22.6707C165.743 22.1823 165.753 21.6736 165.884 21.1899C166.007 20.6481 166.245 20.0739 166.383 19.4129C166.455 19.0688 166.474 18.7153 166.437 18.3655C166.395 17.9896 166.248 17.633 166.014 17.3362C165.74 17.0474 165.399 16.8314 165.021 16.7077C164.646 16.5891 164.283 16.4343 163.937 16.2454C163.264 15.7701 162.78 15.0714 162.572 14.2734C162.301 13.468 162.211 12.6301 161.973 11.8391C161.803 11.0565 161.423 10.3348 160.875 9.75153C160.336 9.25454 159.632 8.97525 158.899 8.96778C158.274 8.95368 157.654 9.09124 157.093 9.36868C156.295 9.79095 155.608 10.3962 155.089 11.1348C154.901 11.3913 154.771 11.6007 154.684 11.7416C154.638 11.8129 154.599 11.8878 154.565 11.9655C154.623 11.9043 154.674 11.8364 154.717 11.7633C154.811 11.626 154.951 11.4238 155.143 11.1782C155.674 10.4689 156.359 9.88972 157.147 9.48426C157.695 9.22401 158.297 9.10009 158.903 9.12309C159.597 9.13669 160.261 9.4054 160.77 9.87794C161.291 10.4442 161.652 11.1383 161.817 11.8897C162.03 12.6626 162.135 13.5041 162.413 14.3348C162.634 15.1725 163.146 15.9039 163.858 16.3971C164.213 16.5905 164.585 16.749 164.97 16.8703C165.323 16.9825 165.642 17.1812 165.899 17.4481C166.117 17.7213 166.255 18.0504 166.296 18.398C166.335 18.7306 166.319 19.0674 166.249 19.3949C166.123 20.0378 165.888 20.6156 165.776 21.1755C165.645 21.6776 165.645 22.2047 165.776 22.7068C165.884 23.0885 166.126 23.4182 166.458 23.6351C166.665 23.7755 166.909 23.8498 167.159 23.8481C167.241 23.8471 167.322 23.8312 167.397 23.8012Z" fill="#455A64"/>
<path d="M155.551 7.9781C155.295 7.95111 155.037 7.98964 154.8 8.09006C154.207 8.2887 153.696 8.67579 153.343 9.19227C152.991 9.70875 152.818 10.3263 152.849 10.9506C152.845 11.2017 152.904 11.4499 153.019 11.6729C153.048 11.6729 152.969 11.3876 152.976 10.9506C152.987 10.3601 153.166 9.78512 153.492 9.29277C153.83 8.80863 154.3 8.43237 154.847 8.20925C155.266 8.03588 155.555 8.00699 155.551 7.9781Z" fill="#455A64"/>
<path d="M150.574 10.4741C150.405 10.7414 150.338 11.0608 150.386 11.3734C150.376 11.691 150.481 12.0015 150.682 12.2475C150.729 12.2258 150.592 11.8466 150.567 11.3626C150.541 10.8786 150.624 10.4741 150.574 10.4741Z" fill="#455A64"/>
<path d="M171.952 31.9208L162.955 29.0747L154.886 30.6386L145.337 35.8612L149.722 48.9068H171.858L171.399 36.1393L171.952 31.9208Z" fill="#3366FF"/>
<path d="M154.731 31.0575V29.6526L163.703 28.3379L163.612 31.0575L154.558 32.0291L154.731 31.0575Z" fill="#3366FF"/>
<path d="M176.907 35.0336C175.621 31.9131 171.45 31.6675 171.172 31.6675L170.572 34.1126L171.685 46.5912L172.215 48.9027H181.899C180.4 43.9654 177.738 37.0634 176.907 35.0336Z" fill="#3366FF"/>
<path d="M145.337 35.8608C145.337 35.8608 144.163 37.0997 143.993 40.4622C143.824 43.8247 143.43 48.9064 143.43 48.9064H150.513L150.975 43.9078L145.337 35.8608Z" fill="#3366FF"/>
<path d="M149.928 48.7803C149.419 47.6363 148.969 46.4669 148.58 45.2769C148.129 44.1084 147.739 42.9173 147.41 41.7085C147.457 41.7085 148.06 43.2615 148.757 45.2119C149.454 47.1622 149.974 48.7586 149.928 48.7803Z" fill="#263238"/>
<path d="M171.432 36.5293C171.482 36.5293 171.627 39.2706 171.75 42.6693C171.872 46.0679 171.934 48.8092 171.883 48.8092C171.833 48.8092 171.688 46.0679 171.562 42.6693C171.435 39.2706 171.37 36.5329 171.432 36.5293Z" fill="#263238"/>
<path d="M104.051 159.816H100.815L99.616 145.26H103.426L104.051 159.816Z" fill="#263238"/>
<path d="M132.075 159.816H135.307L136.506 145.26H132.7L132.075 159.816Z" fill="#263238"/>
<path d="M138.727 147.102L97.1058 148.081L95.8417 121.199C95.8119 120.575 95.9091 119.951 96.1274 119.366C96.3458 118.78 96.6807 118.245 97.1119 117.793C97.5432 117.341 98.0617 116.981 98.6362 116.735C99.2106 116.489 99.829 116.363 100.454 116.363H135.914C136.547 116.363 137.174 116.493 137.754 116.745C138.335 116.998 138.858 117.367 139.29 117.83C139.722 118.293 140.054 118.84 140.265 119.437C140.477 120.034 140.563 120.668 140.519 121.3L138.727 147.102Z" fill="#455A64"/>
<path d="M140.862 121.105H140.746H140.403L139.092 121.123L134.267 121.141C130.193 121.141 124.566 121.102 118.354 121.246C112.138 121.452 106.507 121.416 102.433 121.354C100.396 121.322 98.7455 121.282 97.6078 121.25L96.2968 121.206H95.9573H95.8417C95.88 121.201 95.9189 121.201 95.9573 121.206H96.2968H97.6114L102.433 121.253C106.507 121.279 112.134 121.293 118.35 121.087C124.566 120.943 130.193 121.011 134.267 121.037L139.092 121.08H140.403H140.746C140.786 121.083 140.825 121.091 140.862 121.105Z" fill="#263238"/>
<path d="M111.022 116.785C110.086 116.92 109.176 117.193 108.32 117.594C107.493 118.053 106.738 118.63 106.077 119.306C106.211 119.056 106.385 118.83 106.594 118.638C107.069 118.147 107.624 117.738 108.234 117.428C108.844 117.115 109.502 116.905 110.18 116.807C110.457 116.751 110.742 116.744 111.022 116.785Z" fill="#263238"/>
<g opacity="0.3">
<path d="M105.684 116.363C106.919 117.739 108.934 118.342 110.758 118.62C114.048 119.122 117.415 119.389 120.694 118.83C122.796 118.468 124.876 117.775 127.004 117.923C129.131 118.071 131.367 119.097 133.469 118.501C134.032 118.338 134.556 118.064 135.012 117.696C135.468 117.327 135.846 116.872 136.123 116.355C136.3 116.027 136.409 115.568 136.123 115.326C135.979 115.203 135.665 115.626 135.477 115.611C125.617 114.86 115.551 117.056 105.684 116.363Z" fill="black"/>
</g>
<g opacity="0.3">
<path d="M131.074 122.824C130.897 123.738 131.341 124.681 131.992 125.352C132.677 125.984 133.446 126.517 134.278 126.938C135.614 127.715 136.947 128.603 137.785 129.903C139.374 132.374 138.785 135.613 139.461 138.47C139.461 138.47 140.02 126.136 139.905 126.447" fill="black"/>
</g>
<path d="M118.516 41.0693C119.246 41.8112 119.786 42.7185 120.09 43.714C120.393 44.7095 120.452 45.7637 120.261 46.7867C120.066 47.7763 119.657 48.8815 120.217 49.7194C120.777 50.5574 122.023 50.6766 122.558 51.5253C123.175 52.5258 122.41 53.8152 122.536 54.9817C122.612 55.5292 122.881 56.0315 123.294 56.3988C123.707 56.7661 124.237 56.9744 124.79 56.9863C123.383 57.8776 121.759 58.3661 120.094 58.3985L119.033 56.6468C119.441 57.2644 119.21 58.1456 118.671 58.6657C118.106 59.1514 117.41 59.4604 116.671 59.5542C114.927 59.8745 113.133 59.788 111.428 59.3012C109.724 58.8144 108.155 57.9406 106.843 56.7479" fill="#263238"/>
<path d="M98.7166 47.6749C99.0561 46.9526 99.5581 46.2808 99.8217 45.5079C100.382 43.8609 99.782 41.8564 100.782 40.4514C101.505 39.4329 102.801 39.0501 104.033 38.8261C105.265 38.6022 106.561 38.4433 107.533 37.6848C108.255 37.125 108.717 36.2979 109.436 35.7345C110.455 34.9363 111.842 34.7882 113.135 34.8605C114.472 34.8902 115.779 35.2634 116.931 35.944C117.5 36.2891 117.981 36.7629 118.334 37.3274C118.687 37.892 118.903 38.5315 118.964 39.1945C118.993 39.8447 118.834 40.502 118.964 41.1377C119.105 41.8347 119.571 42.4234 119.824 43.088C120.075 43.8034 120.081 44.5821 119.841 45.3014C119.601 46.0206 119.129 46.6396 118.498 47.0609L108.064 57.6903C106.077 58.1851 101.563 56.7729 100.266 55.1982C98.9694 53.6234 97.857 49.5386 98.7166 47.6749Z" fill="#263238"/>
<path d="M118.419 45.537C118.357 42.839 116.707 39.462 114.012 39.639L105.55 41.416C105.155 41.4413 104.783 41.6143 104.51 41.9006C104.236 42.187 104.08 42.5658 104.073 42.9618L104.149 63.1875H104.091C104.091 63.1875 105.756 68.9663 111.368 67.4638C112.481 67.1677 113.033 65.9866 113.304 64.7623H113.359C113.359 64.6178 113.377 64.4805 113.384 64.3397C113.531 63.4229 113.581 62.4932 113.536 61.5659C113.619 59.937 113.647 59.2688 113.647 59.2832C113.647 59.2977 117.111 58.8498 118.007 54.393C118.451 52.2042 118.487 48.5383 118.419 45.537Z" fill="#FFBE9D"/>
<path d="M111.542 49.2499C111.537 49.3997 111.474 49.5417 111.366 49.6456C111.258 49.7495 111.114 49.8071 110.964 49.8061C110.891 49.809 110.817 49.7972 110.748 49.7714C110.68 49.7456 110.617 49.7063 110.563 49.6559C110.51 49.6054 110.467 49.5448 110.437 49.4776C110.407 49.4104 110.391 49.3379 110.39 49.2643C110.396 49.1148 110.46 48.9735 110.567 48.8693C110.675 48.7652 110.818 48.7062 110.968 48.7045C111.041 48.7016 111.115 48.7135 111.184 48.7396C111.253 48.7656 111.316 48.8052 111.37 48.856C111.423 48.9068 111.466 48.9679 111.496 49.0355C111.525 49.1032 111.541 49.1761 111.542 49.2499Z" fill="#263238"/>
<path d="M117.411 49.2499C117.406 49.3997 117.343 49.5417 117.235 49.6456C117.127 49.7495 116.983 49.8071 116.833 49.8061C116.76 49.809 116.686 49.7972 116.617 49.7714C116.549 49.7456 116.486 49.7063 116.432 49.6559C116.379 49.6054 116.336 49.5448 116.306 49.4776C116.276 49.4104 116.26 49.3379 116.259 49.2643C116.265 49.1148 116.329 48.9735 116.436 48.8693C116.544 48.7652 116.687 48.7062 116.837 48.7045C116.91 48.7016 116.984 48.7135 117.053 48.7396C117.122 48.7656 117.185 48.8052 117.239 48.856C117.292 48.9068 117.335 48.9679 117.365 49.0355C117.394 49.1032 117.41 49.1761 117.411 49.2499Z" fill="#263238"/>
<path d="M117.779 47.4977C117.707 47.5952 117.212 47.1943 116.537 47.2124C115.861 47.2304 115.381 47.6385 115.305 47.5446C115.229 47.4507 115.341 47.3279 115.551 47.1401C115.821 46.9002 116.168 46.7644 116.53 46.7571C116.891 46.7499 117.243 46.8716 117.523 47.1004C117.74 47.281 117.815 47.4543 117.779 47.4977Z" fill="#263238"/>
<path d="M111.527 47.4834C111.441 47.5701 110.96 47.1222 110.242 47.0753C109.523 47.0283 108.97 47.3642 108.898 47.2667C108.826 47.1692 108.96 47.0572 109.201 46.9055C109.522 46.6988 109.901 46.6034 110.281 46.634C110.661 46.6647 111.021 46.8198 111.304 47.0753C111.509 47.2703 111.574 47.4437 111.527 47.4834Z" fill="#263238"/>
<path d="M113.518 51.9655C113.847 51.8756 114.187 51.8283 114.529 51.8247C114.688 51.8247 114.839 51.7885 114.872 51.6802C114.89 51.5174 114.86 51.3528 114.785 51.207C114.652 50.8206 114.511 50.4125 114.366 49.9863C113.785 48.2418 113.373 46.8152 113.442 46.7899C113.51 46.7646 114.041 48.1623 114.619 49.9032L115.02 51.1312C115.111 51.3265 115.131 51.5473 115.078 51.756C115.052 51.8105 115.014 51.8585 114.967 51.8966C114.92 51.9347 114.866 51.9619 114.807 51.9763C114.718 51.9973 114.627 52.007 114.536 52.0052C114.196 52.0328 113.854 52.0194 113.518 51.9655Z" fill="#263238"/>
<path d="M113.648 59.3114C111.533 59.258 109.475 58.6191 107.703 57.4658C107.703 57.4658 109.035 60.608 113.543 60.3552L113.648 59.3114Z" fill="#EB996E"/>
<path d="M113.192 53.4541C113.081 53.3011 112.932 53.1791 112.76 53.0995C112.588 53.0199 112.399 52.9853 112.21 52.999C112.071 53.0068 111.936 53.0429 111.812 53.105C111.687 53.1671 111.577 53.2539 111.488 53.3602C111.403 53.4585 111.35 53.5802 111.336 53.7091C111.322 53.838 111.347 53.9682 111.408 54.0826C111.504 54.1972 111.632 54.281 111.775 54.3234C111.918 54.3658 112.071 54.365 112.214 54.3209C112.51 54.2285 112.785 54.0788 113.023 53.8803C113.094 53.8327 113.156 53.7728 113.207 53.7033C113.23 53.669 113.242 53.6288 113.242 53.5877C113.242 53.5466 113.23 53.5065 113.207 53.4722" fill="#3366FF"/>
<path d="M111.675 52.3196C111.777 52.3196 111.751 52.9913 112.308 53.4898C112.864 53.9882 113.582 53.9448 113.582 54.0387C113.582 54.1327 113.42 54.1652 113.117 54.1616C112.717 54.1527 112.333 54.003 112.033 53.739C111.75 53.4886 111.576 53.1372 111.549 52.7602C111.549 52.4785 111.629 52.3123 111.675 52.3196Z" fill="#263238"/>
<path d="M111.715 45.3813C111.65 45.5475 111.033 45.4427 110.303 45.5005C109.574 45.5583 108.978 45.7353 108.887 45.58C108.848 45.5041 108.956 45.3524 109.198 45.1971C109.521 45.0073 109.885 44.8971 110.26 44.8757C110.63 44.8458 111.001 44.9053 111.343 45.049C111.618 45.1646 111.748 45.3055 111.715 45.3813Z" fill="#263238"/>
<path d="M117.389 45.6088C117.259 45.7425 116.779 45.5763 116.194 45.5474C115.609 45.5186 115.11 45.598 114.998 45.4463C114.951 45.3741 115.035 45.2332 115.255 45.1104C115.56 44.9581 115.901 44.8919 116.241 44.919C116.579 44.9357 116.906 45.0471 117.183 45.2404C117.386 45.3921 117.447 45.5402 117.389 45.6088Z" fill="#263238"/>
<path d="M103.672 41.8458C104.159 41.2607 104.936 41.0223 105.669 40.8345C108.845 40.0184 112.106 39.5844 115.385 39.5415C115.706 40.2639 115.229 41.109 114.568 41.5171C113.908 41.9252 113.102 42.0264 112.347 42.2142C111.592 42.402 110.798 42.7307 110.415 43.4061C110.032 44.0815 110.169 45.0602 109.801 45.8043C109.162 47.0792 107.251 47.2887 106.623 48.5708C106.146 49.5388 106.605 50.6801 106.623 51.76C106.635 52.3085 106.529 52.8532 106.314 53.3578C106.099 53.8623 105.778 54.315 105.373 54.6856C104.969 55.0563 104.49 55.3363 103.969 55.5069C103.447 55.6776 102.895 55.7349 102.35 55.6751C102.591 51.8226 102.821 47.9701 103.04 44.1176C103.108 43.3411 103.159 42.4634 103.672 41.8458Z" fill="#263238"/>
<path d="M94.834 50.5973C95.4985 50.1278 96.3112 49.7486 96.6398 49.0009C97.1238 47.9174 96.3726 46.4727 97.0769 45.5265C97.7197 44.6524 99.2836 44.8836 99.8904 43.9842C100.364 43.2619 99.9988 42.5684 100.223 41.9292C100.447 41.2899 101.447 40.824 102.104 40.9793L106.438 49.1635C106.626 51.7603 106.955 53.1689 106.236 54.5811C105.839 55.3612 105.355 56.1088 105.153 56.9576C104.95 57.8064 105.041 58.8032 105.684 59.3955C102.531 59.2727 99.7965 57.2935 97.2791 55.3937L94.6137 53.3856C94.3146 53.2002 94.0663 52.9433 93.8913 52.638C93.5518 51.9012 94.1658 51.0669 94.834 50.5973Z" fill="#263238"/>
<path d="M97.2755 54.6278C97.3809 54.6739 97.4911 54.7078 97.6042 54.7289C97.9252 54.8012 98.2564 54.8171 98.583 54.7759C99.1059 54.7144 99.6039 54.5177 100.028 54.2052C100.587 53.7803 100.979 53.1714 101.133 52.486C101.228 52.0895 101.241 51.6779 101.173 51.2761C101.081 50.8484 100.932 50.4352 100.728 50.0481C100.517 49.647 100.363 49.2177 100.273 48.7731C100.226 48.5456 100.231 48.3104 100.287 48.0849C100.342 47.8593 100.447 47.649 100.595 47.4693C100.923 47.1081 101.465 47.0901 101.978 46.9492C102.254 46.8857 102.505 46.7425 102.7 46.5375C102.883 46.311 102.992 46.0334 103.011 45.7429C103.072 45.1686 102.888 44.6196 102.848 44.0743C102.817 43.8051 102.847 43.5323 102.935 43.2761C103.036 43.0257 103.223 42.8195 103.462 42.6946C103.975 42.4728 104.537 42.3918 105.091 42.4598C105.661 42.5059 106.234 42.4078 106.756 42.1745C107.259 41.9395 107.688 41.5725 107.999 41.1126C108.266 40.6642 108.463 40.1768 108.58 39.668C108.689 39.1963 108.848 38.7374 109.053 38.2991C109.264 37.9003 109.559 37.5516 109.917 37.277C110.572 36.787 111.374 36.5325 112.192 36.5546C112.867 36.5848 113.52 36.8037 114.077 37.1867C114.498 37.4709 114.865 37.828 115.161 38.2413C115.412 38.6005 115.619 38.9885 115.778 39.3971C115.777 39.3674 115.771 39.3382 115.76 39.3104C115.742 39.2562 115.721 39.1731 115.677 39.0684C115.561 38.7616 115.407 38.4705 115.219 38.2016C114.927 37.7719 114.56 37.3987 114.135 37.1C113.504 36.6484 112.745 36.4103 111.969 36.4207C111.194 36.4311 110.441 36.6894 109.823 37.1578C109.446 37.4437 109.134 37.807 108.909 38.2233C108.698 38.6713 108.534 39.1396 108.418 39.621C108.301 40.1132 108.11 40.5846 107.851 41.0187C107.56 41.4523 107.155 41.7972 106.68 42.0156C106.183 42.236 105.637 42.3279 105.095 42.2828C104.508 42.2109 103.913 42.2996 103.372 42.5393C103.097 42.6841 102.881 42.9222 102.765 43.2111C102.666 43.4936 102.632 43.7947 102.664 44.0923C102.77 44.6315 102.827 45.1791 102.834 45.7284C102.818 45.9815 102.725 46.2235 102.567 46.4219C102.394 46.6024 102.171 46.728 101.927 46.7831C101.682 46.8517 101.425 46.8914 101.173 46.9637C100.91 47.0272 100.669 47.1608 100.476 47.3501C100.311 47.5486 100.193 47.7814 100.131 48.0314C100.068 48.2815 100.063 48.5423 100.114 48.7948C100.207 49.2553 100.368 49.6996 100.591 50.1131C100.792 50.4875 100.941 50.8871 101.035 51.3014C101.102 51.6847 101.092 52.0775 101.006 52.4571C100.865 53.1165 100.497 53.7055 99.9663 54.1221C99.5611 54.4333 99.0819 54.6337 98.5757 54.7036C98.1415 54.7614 97.7001 54.7357 97.2755 54.6278Z" fill="#455A64"/>
<path d="M93.7468 48.7583C93.685 48.8295 93.6394 48.9133 93.6132 49.0039C93.532 49.263 93.5474 49.5427 93.6565 49.7913C93.7346 49.9762 93.859 50.1379 94.0177 50.2608C94.2046 50.4057 94.4288 50.4947 94.6642 50.5172C94.9513 50.5426 95.2399 50.4886 95.4984 50.3612C95.757 50.2339 95.9756 50.038 96.1305 49.7949C96.3159 49.5172 96.4311 49.1987 96.4664 48.8667C96.4984 48.5121 96.4653 48.1547 96.3689 47.812C96.1992 47.0897 95.8272 46.3926 95.9102 45.6053C95.9175 45.4087 95.9648 45.2157 96.0492 45.0381C96.1337 44.8605 96.2535 44.702 96.4014 44.5723C96.7487 44.348 97.1702 44.2689 97.5752 44.352C98.0279 44.4336 98.4915 44.4336 98.9441 44.352C99.1848 44.2862 99.3985 44.1459 99.5545 43.9511C99.7065 43.7557 99.8127 43.5285 99.8651 43.2865C99.9408 42.8234 99.9578 42.3526 99.9156 41.8852C99.8975 41.449 99.9739 41.0141 100.14 40.6102C100.457 39.8379 101.058 39.2163 101.819 38.873C102.528 38.6114 103.292 38.5295 104.04 38.6346C104.712 38.7114 105.392 38.6846 106.056 38.5552C107.015 38.3153 107.859 37.7449 108.439 36.9443C108.657 36.6603 108.822 36.3399 108.927 35.998C108.772 36.3146 108.59 36.6168 108.382 36.901C107.794 37.6659 106.961 38.2054 106.023 38.4287C105.372 38.548 104.707 38.5663 104.051 38.4829C103.277 38.3698 102.486 38.4505 101.75 38.7177C100.949 39.0709 100.314 39.7169 99.9734 40.5236C99.798 40.9502 99.7167 41.4098 99.7351 41.8707C99.774 42.3236 99.7582 42.7796 99.6881 43.2287C99.6542 43.4416 99.5625 43.641 99.423 43.8053C99.2835 43.9696 99.1016 44.0925 98.8971 44.1606C98.4643 44.2278 98.0232 44.2192 97.5933 44.1353C97.1421 44.0501 96.6755 44.1447 96.2931 44.399C96.1279 44.5435 95.994 44.7202 95.8996 44.9183C95.8052 45.1165 95.7523 45.3318 95.7441 45.5511C95.7133 45.9567 95.7637 46.3643 95.8922 46.7502C96.0005 47.1114 96.1305 47.4725 96.2208 47.812C96.3169 48.1375 96.3524 48.4778 96.3256 48.8161C96.2947 49.1256 96.192 49.4236 96.0258 49.6865C95.8846 49.9133 95.6832 50.0965 95.4441 50.2158C95.205 50.335 94.9375 50.3856 94.6714 50.3619C94.4539 50.3456 94.2451 50.2694 94.0682 50.1416C93.9229 50.0279 93.8076 49.8804 93.7324 49.7118C93.6199 49.4792 93.5943 49.214 93.6601 48.9642C93.6857 48.8942 93.7146 48.8255 93.7468 48.7583Z" fill="#263238"/>
<path d="M126.433 54.4943C126.491 54.7704 126.454 55.058 126.328 55.3105C126.259 55.4549 126.157 55.5819 126.033 55.6825C125.908 55.783 125.762 55.8546 125.606 55.892C125.398 55.9268 125.184 55.9034 124.989 55.8244C124.793 55.7453 124.623 55.6138 124.497 55.4442C124.358 55.2435 124.29 55.0017 124.306 54.7579C124.329 54.4883 124.401 54.2252 124.519 53.9814C124.746 53.4722 125.155 52.9376 125.183 52.2406C125.203 51.8888 125.149 51.5368 125.025 51.2071C124.9 50.8775 124.708 50.5775 124.461 50.3263C124.197 50.0628 123.888 49.8498 123.547 49.6979C123.2 49.5563 122.836 49.4592 122.464 49.409C122.102 49.3616 121.745 49.2806 121.398 49.167C121.073 49.0591 120.796 48.8389 120.618 48.5458C120.467 48.2507 120.399 47.9195 120.423 47.5886C120.445 47.2635 120.511 46.9428 120.618 46.6351C120.859 46.0567 121.025 45.4498 121.113 44.8293C121.148 44.2759 121.016 43.7246 120.734 43.2473C120.494 42.8658 120.184 42.5336 119.82 42.2686C119.554 42.0679 119.304 41.847 119.072 41.6076C118.881 41.3978 118.732 41.1524 118.635 40.8853C118.635 40.8853 118.635 40.8853 118.635 40.9394C118.647 40.9947 118.663 41.0491 118.682 41.102C118.755 41.3048 118.866 41.4913 119.011 41.6509C119.233 41.8991 119.474 42.1286 119.733 42.3372C120.079 42.6158 120.369 42.9563 120.589 43.3412C120.848 43.7989 120.967 44.3228 120.929 44.8473C120.84 45.4465 120.677 46.0325 120.445 46.5918C120.33 46.913 120.259 47.2484 120.235 47.5886C120.206 47.9544 120.28 48.321 120.448 48.6469C120.643 48.9837 120.952 49.2399 121.319 49.3692C121.678 49.486 122.046 49.5694 122.42 49.6184C122.781 49.6655 123.134 49.7577 123.471 49.8929C123.791 50.0337 124.082 50.2334 124.327 50.4816C124.561 50.7139 124.743 50.9921 124.863 51.2986C124.983 51.6052 125.038 51.9333 125.025 52.2622C125.006 52.8979 124.627 53.4144 124.392 53.9489C124.268 54.2109 124.195 54.494 124.176 54.7832C124.161 55.0576 124.243 55.3285 124.407 55.5489C124.547 55.7364 124.738 55.8804 124.956 55.9641C125.175 56.0479 125.413 56.068 125.642 56.022C125.811 55.9785 125.967 55.8974 126.1 55.7848C126.232 55.6722 126.338 55.5311 126.408 55.3719C126.503 55.1756 126.539 54.9562 126.513 54.7399C126.502 54.6536 126.475 54.5701 126.433 54.4943Z" fill="#263238"/>
<path d="M142.476 94.2664L140.88 91.8538L138.319 90.568L138.222 90.4994C137.81 90.2011 137.338 89.9978 136.838 89.9041C136.338 89.8104 135.824 89.8287 135.332 89.9576C134.289 90.2357 132.894 90.5824 131.688 90.7883L128.932 90.0334V95.4149L142.838 94.5373L142.476 94.2664Z" fill="#FFBE9D"/>
<path d="M142.379 94.1151C142.203 93.9166 142.007 93.7374 141.794 93.5805C141.415 93.2663 140.887 92.8401 140.299 92.3778L139.746 91.9516C139.175 91.8433 138.662 91.7566 138.327 91.7024C138.14 91.658 137.948 91.6385 137.756 91.6447C137.931 91.7213 138.116 91.7759 138.305 91.8072C138.666 91.8902 139.143 91.9986 139.713 92.1142L139.677 92.0961C139.851 92.237 140.038 92.3814 140.226 92.5295C140.815 92.9918 141.353 93.4 141.75 93.6889C141.943 93.855 142.153 93.9981 142.379 94.1151Z" fill="#EB996E"/>
<path d="M141.295 94.5841C140.658 94.1351 139.989 93.732 139.295 93.3778L138.807 93.1105H138.789C138.197 93.0535 137.602 93.0439 137.008 93.0816C137.592 93.195 138.184 93.2614 138.778 93.2803H138.746L139.226 93.5439C139.889 93.9417 140.581 94.2894 141.295 94.5841Z" fill="#EB996E"/>
<path d="M158.661 79.0395C158.436 78.9136 158.172 78.8742 157.92 78.9287C157.668 78.9833 157.445 79.128 157.292 79.3356L146.095 94.5049L128.373 94.7433C127.65 94.7867 126.809 96.2169 127.441 96.9104L147.453 96.6359L159.011 80.5817C159.098 80.4601 159.158 80.3216 159.187 80.1751C159.217 80.0287 159.215 79.8776 159.182 79.7319C159.149 79.5863 159.085 79.4492 158.995 79.3299C158.906 79.2105 158.792 79.1116 158.661 79.0395Z" fill="#E0E0E0"/>
<path d="M158.661 79.0389C158.692 79.0528 158.722 79.0698 158.751 79.0894C158.835 79.1438 158.911 79.2108 158.975 79.2881C159.1 79.4405 159.182 79.6244 159.211 79.8198C159.239 80.0153 159.214 80.2148 159.137 80.3969C158.997 80.6484 158.839 80.8897 158.664 81.1192C158.484 81.3757 158.303 81.6538 158.076 81.9499L156.609 84.005L147.533 96.6822L147.508 96.7183H147.464L127.816 96.9964H127.455H127.412L127.383 96.9639C127.21 96.7644 127.122 96.5052 127.137 96.2416C127.149 95.9899 127.214 95.7436 127.329 95.5192C127.435 95.3006 127.58 95.1026 127.755 94.9341C127.932 94.7495 128.172 94.6375 128.427 94.6199L131.164 94.5838L136.456 94.5152L146.106 94.3924L146.041 94.4249L154.85 82.5531L157.328 79.2375C157.45 79.0964 157.606 78.989 157.781 78.9257C157.956 78.8624 158.145 78.8454 158.328 78.8763C158.458 78.8904 158.582 78.9363 158.69 79.01C158.574 78.9591 158.453 78.9227 158.328 78.9016C158.152 78.8749 157.971 78.8941 157.804 78.9574C157.637 79.0206 157.489 79.1258 157.375 79.2628C156.808 80.0393 155.981 81.1662 154.933 82.6036L146.178 94.5224L146.153 94.5549H146.088L136.441 94.6957L131.154 94.768L128.416 94.8077C128.206 94.8222 128.01 94.9166 127.867 95.0714C127.707 95.2244 127.575 95.404 127.477 95.6023C127.363 95.7851 127.304 95.9973 127.309 96.2128C127.313 96.4284 127.38 96.6379 127.502 96.8158L127.434 96.7869H127.795L147.446 96.5305L147.378 96.563C151.152 91.3477 154.308 86.9811 156.526 83.9219L158.011 81.8813L158.61 81.0578C158.785 80.8378 158.944 80.6061 159.087 80.3644C159.165 80.1885 159.194 79.9945 159.17 79.8034C159.146 79.6123 159.07 79.4315 158.95 79.2808C158.865 79.1875 158.767 79.1061 158.661 79.0389Z" fill="#263238"/>
<path d="M104.979 61.4756C103.874 61.6456 102.84 62.128 102 62.8662C100.915 63.9666 100.099 65.3028 99.616 66.7704C99.0237 68.5438 99.2909 75.547 99.2909 77.5768C99.2909 79.6066 99.8074 87.2237 100.06 88.4914C100.313 89.7592 99.8977 91.6445 99.309 92.8689C98.2544 95.0684 99.8977 96.1953 99.8977 96.1953L121.644 96.0327L121.557 95.2237C121.409 93.8079 121.918 92.3704 121.395 91.0558C120.597 89.1289 120.254 87.0437 120.394 84.9628C120.672 81.351 121.756 78.8661 121.091 76.7641C120.076 73.5569 116.728 66.2648 112.683 63.1515C112.683 63.1515 109.49 62.4689 108.768 62.216C107.128 61.6418 106.258 61.3312 104.979 61.4756Z" fill="#3366FF"/>
<path d="M130.558 89.405L111.968 85.526L111.488 69.396C111.488 69.396 110.838 62.8262 107.544 62.2158L99.616 72.0867C100.06 77.0601 99.6557 86.4723 101.942 90.1057C104.228 93.7391 106.453 96.6429 112.08 96.3865C117.707 96.13 130.117 96.0072 130.117 96.0072L130.558 89.405Z" fill="#3366FF"/>
<path d="M112.004 85.5986C112.048 85.6311 111.603 86.2126 111.228 87.0433C110.852 87.874 110.69 88.5639 110.632 88.553C110.65 87.9976 110.795 87.4537 111.058 86.9639C111.261 86.4405 111.585 85.9727 112.004 85.5986Z" fill="#263238"/>
<g opacity="0.3">
<path d="M111.361 68.7097C113.214 74.409 112.806 83.2 116.353 86.4433L111.968 85.5259C112.053 84.4963 112.065 83.462 112.004 82.4307C111.643 77.9232 111.607 73.3363 111.361 68.7061" fill="black"/>
</g>
<path d="M110.95 66.6729C111.086 67.0975 111.195 67.5306 111.275 67.9695C111.376 68.4975 111.451 69.0303 111.499 69.5659C111.56 70.1979 111.571 70.9311 111.6 71.7329C111.708 75.0232 111.86 79.7473 112.044 85.5081L111.983 85.4358L130.558 89.3148L130.637 89.3329V89.4124C130.5 91.5252 130.359 93.7464 130.211 96.0146V96.1013H130.121L127.863 96.1266C124.634 96.1699 121.481 96.2169 118.437 96.2819C116.917 96.3156 115.425 96.3553 113.958 96.4011C112.513 96.4408 111.069 96.578 109.653 96.3577C108.963 96.2609 108.285 96.0864 107.634 95.8376C107.003 95.5843 106.404 95.257 105.85 94.8625C104.813 94.0844 103.908 93.1441 103.17 92.0778C102.809 91.5686 102.448 91.0629 102.144 90.5537L101.902 90.1744C101.826 90.048 101.761 89.9108 101.689 89.7808L101.48 89.3871L101.321 88.9789C100.93 87.9363 100.652 86.8551 100.49 85.7537C100.202 83.8693 100.021 81.9701 99.9482 80.0652C99.8652 78.3857 99.8254 76.941 99.7857 75.7564C99.746 74.5717 99.7063 73.658 99.6737 73.0367C99.6521 72.7297 99.6376 72.495 99.6304 72.3144C99.6232 72.1338 99.6304 72.0724 99.6304 72.0724C99.6304 72.0724 99.6304 72.1519 99.6593 72.3108C99.6882 72.4697 99.6954 72.7117 99.7207 73.0331C99.764 73.6543 99.8218 74.5717 99.8688 75.7528C99.9157 76.9338 99.9699 78.3821 100.064 80.0616C100.149 81.9608 100.339 83.8539 100.634 85.732C100.797 86.8228 101.075 87.8931 101.465 88.9248L101.624 89.3257L101.83 89.7085C101.899 89.8385 101.964 89.9686 102.039 90.095L102.281 90.4742C102.603 90.9798 102.946 91.4819 103.307 91.9875C104.038 93.0377 104.933 93.9633 105.958 94.7288C106.501 95.1143 107.088 95.4333 107.706 95.6787C108.346 95.921 109.011 96.0918 109.689 96.188C111.065 96.4011 112.499 96.2638 113.962 96.2241C115.425 96.1844 116.923 96.1338 118.444 96.0977C121.489 96.0291 124.642 95.9785 127.871 95.9388L130.132 95.9135L130.038 96.0038C130.186 93.7356 130.33 91.5144 130.467 89.4015L130.543 89.4954L111.954 85.5984H111.892V85.5406C111.733 79.7798 111.607 75.0665 111.531 71.7654C111.506 70.9419 111.502 70.2124 111.448 69.5984C111.394 68.9844 111.322 68.4318 111.246 68.0056C111.17 67.5794 111.094 67.2507 111.04 67.034C111.015 66.9293 110.997 66.8462 110.978 66.7884C110.963 66.7515 110.953 66.7126 110.95 66.6729Z" fill="#263238"/>
<path d="M140.768 128.993L138.012 149.316L145.229 150.497L150.361 132.468L140.768 128.993Z" fill="#FFBE9D"/>
<path d="M118.888 97.77C118.888 97.77 149.667 94.8408 151.95 96.9356C154.233 99.0305 156.132 103.588 155.374 105.109C154.615 106.63 152.9 111.765 152.9 111.765L138.724 108.533L118.888 97.77Z" fill="#263238"/>
<path d="M138.724 111.765L133.014 120.48L139.735 124.832L147.027 113.658L138.724 111.765Z" fill="#FFBE9D"/>
<path d="M100.418 96.1735C100.418 96.1735 97.7558 108.341 102.13 113.286C106.503 118.23 112.965 118.23 119.625 117.28C126.285 116.331 142.079 115.998 142.079 115.998C142.079 115.998 141.375 120.332 140.858 125.237C140.342 130.142 140.237 133.273 140.237 133.273L150.13 134.097C150.13 134.097 155.638 117.324 156.486 114.001C157.335 110.678 157.046 106.218 154.117 104.564C151.632 103.159 132.042 97.7265 122.662 96.9211L121.644 96.0435L100.418 96.1735Z" fill="#263238"/>
<path d="M146.919 111.964C146.919 111.997 146.536 112.051 145.947 112.264C145.606 112.387 145.276 112.541 144.961 112.723C144.187 113.168 143.516 113.772 142.993 114.496C142.778 114.792 142.591 115.106 142.433 115.435C142.162 115.995 142.072 116.378 142.036 116.367C142.035 116.274 142.048 116.181 142.076 116.092C142.134 115.846 142.212 115.604 142.31 115.37C142.457 115.027 142.637 114.699 142.848 114.391C143.372 113.632 144.066 113.006 144.875 112.564C145.203 112.384 145.549 112.238 145.908 112.13C146.143 112.054 146.385 111.999 146.63 111.968C146.725 111.949 146.823 111.948 146.919 111.964Z" fill="#455A64"/>
<path d="M145.727 101.829C145.83 101.456 146.008 101.108 146.251 100.807C146.442 100.471 146.702 100.178 147.013 99.9478C146.848 100.291 146.644 100.615 146.406 100.912C146.217 101.244 145.989 101.552 145.727 101.829Z" fill="#455A64"/>
<path d="M156.902 109.32C156.902 109.32 156.902 109.291 156.873 109.226C156.844 109.161 156.833 109.06 156.808 108.944C156.746 108.699 156.656 108.334 156.508 107.861C156.333 107.305 156.098 106.77 155.807 106.265C155.441 105.586 154.887 105.028 154.211 104.657C152.36 103.851 150.456 103.174 148.512 102.631C146.323 101.977 143.91 101.284 141.364 100.612C136.272 99.2578 131.594 98.2898 128.188 97.7228C126.487 97.4339 125.104 97.2388 124.147 97.1052L123.045 96.9535L122.76 96.9102L122.662 96.8921H122.764L123.049 96.9174L124.158 97.033C125.118 97.1413 126.505 97.3183 128.21 97.5928C132.655 98.3141 137.061 99.2591 141.411 100.424C143.961 101.1 146.374 101.8 148.559 102.461C150.51 103.015 152.42 103.708 154.272 104.535C154.965 104.923 155.529 105.504 155.898 106.207C156.184 106.723 156.413 107.269 156.58 107.836C156.686 108.192 156.774 108.554 156.844 108.919C156.862 109.035 156.88 109.129 156.891 109.205C156.901 109.242 156.905 109.281 156.902 109.32Z" fill="#455A64"/>
<path d="M145.788 149.97L146.027 149.089C143.071 148.836 140.277 147.632 138.063 145.658L135.614 150.942L151.925 158.194C152.539 156.634 145.788 149.97 145.788 149.97Z" fill="#3366FF"/>
<path d="M135.614 150.942L136.214 149.652L151.657 157.111C151.657 157.111 152.239 157.743 151.925 158.194L135.614 150.942Z" fill="#E0E0E0"/>
<path d="M145.572 149.887C145.532 149.963 145.117 149.822 144.607 149.887C144.098 149.952 143.737 150.194 143.679 150.129C143.621 150.064 143.95 149.674 144.568 149.591C145.185 149.508 145.622 149.804 145.572 149.887Z" fill="#263238"/>
<path d="M139.226 149.302C139.169 149.412 139.072 149.496 138.955 149.536C138.838 149.577 138.71 149.57 138.597 149.518C138.542 149.494 138.493 149.458 138.451 149.414C138.41 149.369 138.378 149.317 138.358 149.26C138.337 149.203 138.328 149.143 138.332 149.082C138.335 149.022 138.35 148.962 138.377 148.908C138.433 148.798 138.529 148.714 138.646 148.674C138.762 148.633 138.89 148.64 139.002 148.691C139.057 148.716 139.107 148.751 139.149 148.796C139.191 148.84 139.223 148.892 139.244 148.949C139.265 149.006 139.274 149.067 139.271 149.127C139.268 149.188 139.252 149.247 139.226 149.302Z" fill="#E0E0E0"/>
<path d="M145.471 149.761C145.347 149.76 145.225 149.737 145.109 149.692C144.767 149.614 144.451 149.445 144.196 149.204C144.112 149.12 144.041 149.026 143.983 148.923C143.909 148.815 143.861 148.691 143.845 148.561C143.839 148.476 143.86 148.391 143.906 148.318C143.951 148.245 144.019 148.189 144.098 148.157C144.178 148.127 144.263 148.114 144.348 148.117C144.433 148.121 144.516 148.142 144.593 148.179C144.891 148.326 145.143 148.552 145.321 148.833C145.499 149.114 145.596 149.439 145.601 149.771L145.362 149.735C145.405 149.611 145.458 149.49 145.521 149.374C145.701 149.065 145.96 148.81 146.271 148.634C146.582 148.459 146.934 148.369 147.291 148.374C147.385 148.372 147.479 148.39 147.565 148.428C147.612 148.452 147.652 148.487 147.684 148.528C147.716 148.57 147.738 148.619 147.75 148.67C147.762 148.752 147.758 148.836 147.738 148.917C147.717 148.997 147.681 149.073 147.63 149.139C147.474 149.362 147.257 149.536 147.006 149.641C146.651 149.78 146.269 149.837 145.89 149.808C145.751 149.814 145.613 149.803 145.478 149.775C145.609 149.732 145.747 149.711 145.886 149.714C146.245 149.709 146.6 149.633 146.93 149.49C147.144 149.388 147.327 149.231 147.461 149.035C147.526 148.942 147.553 148.829 147.536 148.717C147.518 148.623 147.439 148.594 147.291 148.594C146.976 148.595 146.668 148.678 146.395 148.835C146.123 148.993 145.896 149.218 145.738 149.49C145.682 149.593 145.635 149.7 145.597 149.811C145.586 149.841 145.563 149.866 145.535 149.881C145.506 149.895 145.473 149.899 145.442 149.891C145.418 149.882 145.397 149.866 145.381 149.846C145.366 149.825 145.357 149.801 145.355 149.775C145.349 149.488 145.266 149.208 145.117 148.963C144.967 148.718 144.755 148.517 144.503 148.381C144.282 148.262 144.022 148.363 144.044 148.554C144.079 148.762 144.175 148.956 144.318 149.11C144.548 149.342 144.829 149.518 145.138 149.623C145.255 149.653 145.367 149.699 145.471 149.761Z" fill="#263238"/>
<path d="M146.811 151C146.448 150.993 146.085 151.018 145.727 151.075C145.385 151.19 145.055 151.337 144.741 151.516C144.845 151.352 144.983 151.211 145.146 151.104C145.308 150.997 145.492 150.926 145.684 150.895C145.868 150.833 146.064 150.81 146.258 150.828C146.452 150.846 146.641 150.904 146.811 151Z" fill="#263238"/>
<path d="M147.732 152.054C147.732 152.108 147.284 152.094 146.774 152.249C146.265 152.405 145.9 152.65 145.868 152.611C146.075 152.331 146.379 152.139 146.72 152.072C147.044 151.943 147.404 151.936 147.732 152.054Z" fill="#263238"/>
<path d="M141.032 123.85L141.418 123.023C138.547 122.276 135.994 120.618 134.144 118.299L130.847 123.099L145.698 132.988C146.547 131.558 141.032 123.85 141.032 123.85Z" fill="#3366FF"/>
<path d="M130.829 123.099L131.634 121.925L145.601 131.868C145.601 131.868 146.067 132.591 145.68 132.988L130.829 123.099Z" fill="#E0E0E0"/>
<path d="M140.815 123.713C140.764 123.782 140.382 123.572 139.865 123.561C139.349 123.55 138.959 123.72 138.908 123.648C138.857 123.576 139.251 123.24 139.876 123.265C140.501 123.29 140.876 123.659 140.815 123.713Z" fill="#263238"/>
<path d="M134.657 122.077C134.583 122.176 134.474 122.243 134.352 122.263C134.23 122.284 134.105 122.256 134.003 122.185C133.953 122.152 133.91 122.108 133.877 122.058C133.843 122.007 133.821 121.95 133.81 121.89C133.799 121.831 133.8 121.769 133.814 121.71C133.827 121.651 133.852 121.595 133.888 121.546C133.961 121.446 134.07 121.379 134.192 121.358C134.315 121.338 134.44 121.367 134.541 121.438C134.592 121.471 134.635 121.515 134.668 121.566C134.701 121.616 134.724 121.673 134.735 121.733C134.746 121.793 134.744 121.854 134.731 121.913C134.718 121.972 134.692 122.028 134.657 122.077Z" fill="#E0E0E0"/>
<path d="M140.739 123.59C140.612 123.572 140.489 123.529 140.378 123.463C140.055 123.326 139.772 123.107 139.558 122.828C139.491 122.73 139.437 122.625 139.396 122.514C139.34 122.39 139.315 122.255 139.323 122.12C139.33 122.033 139.365 121.951 139.422 121.886C139.479 121.821 139.556 121.776 139.641 121.759C139.725 121.743 139.811 121.745 139.894 121.763C139.977 121.781 140.056 121.815 140.125 121.863C140.394 122.059 140.604 122.325 140.732 122.632C140.859 122.939 140.899 123.276 140.848 123.604L140.616 123.528C140.679 123.411 140.753 123.3 140.837 123.196C141.065 122.922 141.363 122.714 141.699 122.592C142.034 122.471 142.396 122.441 142.747 122.506C142.842 122.52 142.932 122.555 143.011 122.607C143.052 122.639 143.086 122.68 143.111 122.726C143.135 122.772 143.149 122.823 143.152 122.875C143.147 123.043 143.077 123.202 142.957 123.319C142.765 123.513 142.522 123.648 142.256 123.709C141.882 123.785 141.496 123.778 141.126 123.687C140.989 123.673 140.855 123.638 140.728 123.583C140.864 123.561 141.001 123.561 141.137 123.583C141.497 123.639 141.866 123.623 142.22 123.536C142.449 123.472 142.656 123.347 142.82 123.174C142.9 123.095 142.946 122.988 142.95 122.875C142.95 122.781 142.874 122.737 142.726 122.716C142.416 122.664 142.098 122.695 141.804 122.804C141.509 122.913 141.248 123.096 141.046 123.337C140.971 123.426 140.906 123.523 140.851 123.626C140.838 123.652 140.816 123.672 140.789 123.683C140.763 123.695 140.733 123.696 140.705 123.688C140.677 123.679 140.654 123.661 140.638 123.636C140.623 123.612 140.616 123.582 140.62 123.554C140.663 123.269 140.629 122.979 140.522 122.711C140.416 122.444 140.24 122.21 140.013 122.033C139.815 121.878 139.544 121.936 139.529 122.127C139.533 122.339 139.595 122.545 139.71 122.723C139.899 122.989 140.146 123.209 140.432 123.366C140.544 123.427 140.647 123.502 140.739 123.59Z" fill="#263238"/>
<path d="M141.859 125.042C141.502 124.972 141.139 124.936 140.775 124.934C140.419 124.993 140.069 125.081 139.728 125.198C139.86 125.055 140.019 124.942 140.197 124.864C140.375 124.786 140.567 124.746 140.761 124.746C140.954 124.713 141.153 124.723 141.342 124.774C141.532 124.825 141.708 124.917 141.859 125.042Z" fill="#263238"/>
<path d="M142.581 126.212C142.581 126.266 142.133 126.18 141.606 126.245C141.079 126.31 140.678 126.494 140.652 126.443C140.923 126.233 141.245 126.101 141.585 126.06C141.924 126.02 142.269 126.072 142.581 126.212Z" fill="#263238"/>
<path d="M247.676 159.816C247.676 159.87 192.264 159.91 123.93 159.91C55.5961 159.91 0.17395 159.87 0.17395 159.816C0.17395 159.762 55.5708 159.722 123.93 159.722C192.29 159.722 247.676 159.766 247.676 159.816Z" fill="#263238"/>
</g>
<defs>
<clipPath id="clip0_350_14669">
<rect width="247.652" height="160" fill="white" transform="translate(0.17395)"/>
</clipPath>
</defs>
</svg>
