<svg xmlns="http://www.w3.org/2000/svg" width="21" height="20" viewBox="0 0 21 20" fill="none">
  <g clip-path="url(#clip0_382_523)">
    <path d="M13.8334 17.5V15.8333C13.8334 14.9493 13.4822 14.1014 12.8571 13.4763C12.2319 12.8512 11.3841 12.5 10.5 12.5H4.66671C3.78265 12.5 2.93481 12.8512 2.30968 13.4763C1.68456 14.1014 1.33337 14.9493 1.33337 15.8333V17.5M14.6667 9.16667L16.3334 10.8333L19.6667 7.5M10.9167 5.83333C10.9167 7.67428 9.42432 9.16667 7.58337 9.16667C5.74242 9.16667 4.25004 7.67428 4.25004 5.83333C4.25004 3.99238 5.74242 2.5 7.58337 2.5C9.42432 2.5 10.9167 3.99238 10.9167 5.83333Z" stroke="#344054" stroke-width="1.67" stroke-linecap="round" stroke-linejoin="round"/>
  </g>
  <defs>
    <clipPath id="clip0_382_523">
      <rect width="20" height="20" fill="white" transform="translate(0.5)"/>
    </clipPath>
  </defs>
</svg>