<svg width="670" height="490" viewBox="0 0 670 490" fill="none" xmlns="http://www.w3.org/2000/svg">
<g clip-path="url(#clip0_1216_28888)">
<path d="M595.646 368.639H353.741C351.662 368.636 349.668 367.807 348.198 366.335C346.728 364.862 345.9 362.866 345.896 360.784V7.84225C345.904 5.76221 346.733 3.76959 348.203 2.30003C349.673 0.830471 351.664 0.00353146 353.741 0H595.646C597.723 0.00353146 599.714 0.830471 601.184 2.30003C602.654 3.76959 603.483 5.76221 603.491 7.84225V360.784C603.487 362.866 602.659 364.862 601.189 366.335C599.719 367.807 597.726 368.636 595.646 368.639ZM353.741 0.335139C352.751 0.328071 351.77 0.51693 350.854 0.890867C349.937 1.2648 349.104 1.81645 348.401 2.51407C347.698 3.2117 347.14 4.04156 346.758 4.95595C346.377 5.87034 346.179 6.85124 346.178 7.84225V360.784C346.178 362.778 346.969 364.691 348.377 366.102C349.785 367.512 351.696 368.304 353.687 368.304H595.646C597.638 368.304 599.548 367.512 600.956 366.102C602.365 364.691 603.156 362.778 603.156 360.784V7.84225C603.156 5.84768 602.365 3.93482 600.956 2.52444C599.548 1.11407 597.638 0.321731 595.646 0.321731L353.741 0.335139Z" fill="#F0F0F0"/>
<path d="M316.633 368.639H74.6745C72.5951 368.636 70.6019 367.807 69.1316 366.334C67.6612 364.862 66.8336 362.866 66.8301 360.784V7.84223C66.8336 5.75987 67.6612 3.76381 69.1316 2.29136C70.6019 0.818904 72.5951 -0.00988328 74.6745 -0.0134277H316.633C318.713 -0.00988328 320.706 0.818904 322.176 2.29136C323.647 3.76381 324.474 5.75987 324.478 7.84223V360.784C324.474 362.866 323.647 364.862 322.176 366.334C320.706 367.807 318.713 368.636 316.633 368.639ZM74.6745 0.335119C72.6851 0.335116 70.777 1.12562 69.369 2.53309C67.9611 3.94056 67.1683 5.84999 67.1647 7.84223V360.784C67.1647 362.778 67.9559 364.691 69.3643 366.101C70.7726 367.512 72.6828 368.304 74.6745 368.304H316.633C318.625 368.304 320.535 367.512 321.944 366.101C323.352 364.691 324.143 362.778 324.143 360.784V7.84223C324.143 5.84766 323.352 3.93479 321.944 2.52442C320.535 1.11405 318.625 0.321711 316.633 0.321711L74.6745 0.335119Z" fill="#F0F0F0"/>
<path d="M669.659 450.521H0.339844V450.856H669.659V450.521Z" fill="#F0F0F0"/>
<path d="M467.043 123.465L461.059 171.175L419.4 129.471L467.043 123.465Z" fill="#F5F5F5"/>
<path d="M371.209 231.286L455.463 146.911L443.161 134.592L371.209 206.647V231.286Z" fill="#F5F5F5"/>
<path d="M148.233 300.164C150.58 304.681 151.882 309.669 152.043 314.758C152.204 319.848 151.22 324.908 149.163 329.564C147.106 334.221 144.029 338.354 140.161 341.659C136.292 344.963 131.731 347.353 126.814 348.652C121.265 350.124 115.433 350.156 109.867 348.746C109.091 348.545 108.301 348.317 107.538 348.062C104.14 346.932 100.941 345.272 98.0605 343.143C97.4982 342.727 96.936 342.285 96.4006 341.802C92.9905 338.941 90.179 335.433 88.1278 331.48C87.9404 331.104 87.753 330.729 87.5789 330.34C85.2644 325.417 84.1655 320.008 84.3748 314.57C84.584 309.132 86.0954 303.824 88.7815 299.093C91.4676 294.363 95.2497 290.348 99.8092 287.387C104.369 284.426 109.572 282.606 114.981 282.08C115.797 282 116.614 281.96 117.431 281.933C120.968 281.865 124.494 282.344 127.885 283.354C128.635 283.582 129.371 283.823 130.094 284.091C132.69 285.071 135.158 286.363 137.443 287.939C141.649 290.837 145.142 294.656 147.657 299.105C147.844 299.427 148.045 299.789 148.233 300.164Z" fill="#F5F5F5"/>
<path d="M142.757 304.427C142.409 303.837 142.048 303.261 141.66 302.698C139.955 300.21 137.846 298.026 135.422 296.236C132.991 294.45 130.275 293.09 127.39 292.215C126.656 291.975 125.909 291.773 125.154 291.611C121.635 290.824 117.993 290.752 114.445 291.397C113.543 291.556 112.649 291.762 111.768 292.014C108.008 293.1 104.527 294.988 101.565 297.548C98.6022 300.109 96.2281 303.281 94.6053 306.847C92.9826 310.413 92.1496 314.288 92.1637 318.207C92.1777 322.126 93.0385 325.995 94.6867 329.549L94.0843 328.45C92.4363 325.284 91.4271 321.824 91.1144 318.267C90.8017 314.71 91.1916 311.127 92.2619 307.721C93.3321 304.315 95.0618 301.153 97.352 298.417C99.6423 295.681 102.448 293.423 105.61 291.772C108.772 290.122 112.227 289.111 115.779 288.798C119.33 288.485 122.909 288.875 126.31 289.947C129.711 291.019 132.867 292.751 135.6 295.045C138.332 297.338 140.587 300.148 142.235 303.315C142.396 303.676 142.57 304.105 142.757 304.427Z" fill="#E0E0E0"/>
<g opacity="0.3">
<path d="M130.669 339.898C130.388 340.046 130.107 340.193 129.812 340.327C129.518 340.475 129.237 340.609 128.929 340.729L128.714 340.823C128.38 340.971 128.059 341.091 127.737 341.212H127.603C126.55 341.607 125.472 341.934 124.377 342.191C124.016 342.271 123.641 342.365 123.28 342.418C122.543 342.566 121.807 342.673 121.057 342.754L120.335 342.821H119.946H119.371C119.076 342.821 118.782 342.821 118.474 342.821C118.166 342.821 117.711 342.821 117.323 342.821C116.934 342.821 116.56 342.821 116.185 342.754C115.81 342.687 115.556 342.754 115.248 342.673L114.632 342.593L114.137 342.526L113.574 342.432L112.651 342.258L111.861 342.07H111.687L110.563 341.775L109.518 341.44L108.903 341.212L108.287 340.984L107.698 340.743L107.069 340.461L106.466 340.18L105.877 339.885C105.476 339.684 105.074 339.469 104.673 339.228L104.191 338.946C103.789 338.705 103.414 338.464 103.026 338.196L102.491 337.82C101.915 337.418 101.353 336.976 100.817 336.48L100.389 336.104C100.068 335.823 99.7597 335.555 99.4652 335.26C99.1573 334.965 98.8628 334.657 98.5683 334.348L98.1667 333.919L97.9793 333.705L97.5643 333.236V333.155C97.4058 332.981 97.2583 332.798 97.1226 332.606C96.9505 332.409 96.7896 332.203 96.6407 331.989C96.48 331.788 96.3328 331.573 96.1855 331.359C96.0383 331.144 95.9446 331.024 95.8375 330.849L95.6099 330.514L95.3154 330.045L94.9138 329.375C93.2656 325.821 92.4048 321.951 92.3908 318.033C92.3768 314.114 93.2097 310.238 94.8324 306.672C96.4552 303.106 98.8293 299.934 101.792 297.374C104.754 294.814 108.235 292.925 111.995 291.839C112.876 291.588 113.77 291.382 114.672 291.223C118.22 290.577 121.862 290.65 125.381 291.437C126.136 291.599 126.883 291.8 127.617 292.04C130.502 292.916 133.218 294.276 135.649 296.062C138.073 297.852 140.182 300.036 141.887 302.524C142.275 303.087 142.636 303.663 142.984 304.253C145.938 310.635 146.305 317.916 144.008 324.564C141.711 331.212 136.93 336.709 130.669 339.898Z" fill="black"/>
</g>
<path d="M130.671 339.899C130.389 340.046 130.108 340.194 129.814 340.328C129.519 340.475 129.238 340.609 128.93 340.73L128.716 340.824C128.381 340.971 128.06 341.092 127.739 341.212H127.605C126.552 341.608 125.474 341.934 124.379 342.191C124.018 342.271 123.643 342.365 123.281 342.419C122.545 342.566 121.809 342.674 121.059 342.754H120.765H120.323H119.935H119.359C119.065 342.754 118.77 342.754 118.462 342.754C118.154 342.754 117.699 342.754 117.311 342.754C116.923 342.754 116.548 342.754 116.173 342.687C115.798 342.62 115.544 342.687 115.236 342.607L114.62 342.526L114.125 342.459L113.563 342.365L112.639 342.191L111.849 342.003H111.675L110.551 341.708L109.507 341.373L108.891 341.145L108.275 340.917L107.686 340.676L107.057 340.395L106.455 340.113L105.866 339.818C105.464 339.617 105.062 339.403 104.661 339.161L104.179 338.88C103.777 338.638 103.402 338.397 103.014 338.129L102.479 337.754C101.903 337.352 101.341 336.909 100.806 336.413L100.377 336.038C100.056 335.756 99.748 335.488 99.4535 335.193C99.1456 334.898 98.8511 334.59 98.5566 334.282L98.155 333.853L97.9676 333.638L97.5526 333.169V333.089C97.3941 332.915 97.2466 332.731 97.1109 332.539C96.9388 332.343 96.7779 332.137 96.629 331.922C96.4683 331.721 96.3211 331.507 96.1738 331.292C96.0266 331.078 95.9329 330.957 95.8258 330.783L95.5982 330.448L95.3037 329.978L94.9021 329.308C93.2538 325.754 92.3931 321.885 92.3791 317.966C92.365 314.047 93.198 310.172 94.8207 306.606C96.4435 303.04 98.8176 299.868 101.78 297.307C104.743 294.747 108.223 292.859 111.983 291.773C112.864 291.521 113.758 291.315 114.66 291.156C118.209 290.511 121.85 290.584 125.37 291.371C126.125 291.532 126.871 291.734 127.605 291.974C130.49 292.85 133.206 294.209 135.637 295.995C138.062 297.785 140.17 299.969 141.875 302.457C142.263 303.02 142.625 303.596 142.973 304.186C145.948 310.574 146.328 317.87 144.032 324.533C141.737 331.197 136.946 336.706 130.671 339.899Z" fill="#F0F0F0"/>
<path d="M128.608 327.753L130.683 331.775L125.61 334.456L123.629 330.635C120.336 332.202 116.726 332.987 113.08 332.927L112.585 325.313C115.902 325.448 119.197 324.727 122.156 323.222C124.566 321.962 125.155 321.01 124.713 320.152C123.067 316.975 110.47 326.788 105.584 317.39C103.469 313.369 104.647 308.355 110.108 304.454L108.074 300.526L113.147 297.845L115.142 301.706C117.786 300.599 120.629 300.047 123.495 300.084L124.137 307.564C121.357 307.516 118.605 308.127 116.106 309.347C113.616 310.688 113.201 311.773 113.656 312.645C115.222 315.674 127.832 305.942 132.665 315.178C134.726 319.026 133.682 323.865 128.608 327.753Z" fill="#E0E0E0"/>
<path d="M127.766 326.493L129.841 330.514L124.781 333.195L122.786 329.388C119.488 330.941 115.882 331.725 112.237 331.681L111.756 324.066C115.043 324.199 118.311 323.503 121.26 322.042C123.669 320.782 124.272 319.83 123.817 318.959C122.157 315.728 109.587 325.554 104.754 316.17C102.639 312.149 103.804 307.148 109.279 303.247L107.231 299.32L112.304 296.638L114.312 300.486C116.943 299.351 119.775 298.759 122.639 298.743L123.295 306.237C120.514 306.183 117.76 306.794 115.263 308.02C112.786 309.36 112.358 310.446 112.813 311.304C114.379 314.334 126.989 304.601 131.822 313.851C133.883 317.766 132.866 322.618 127.766 326.493Z" fill="#F5F5F5"/>
<path d="M559.248 192.048C557.501 198.357 553.969 204.025 549.076 208.367C544.184 212.71 538.142 215.542 531.678 216.521C525.214 217.501 518.605 216.586 512.649 213.887C506.693 211.188 501.644 206.82 498.112 201.311C497.67 200.627 497.255 199.971 496.867 199.206C495.145 196.052 493.93 192.645 493.266 189.112C493.146 188.415 493.039 187.771 492.945 187.007C492.414 182.586 492.76 178.103 493.962 173.816C494.069 173.414 494.19 173.012 494.324 172.61C495.98 167.415 498.862 162.697 502.725 158.854C506.587 155.011 511.318 152.157 516.516 150.533C521.714 148.909 527.226 148.563 532.585 149.524C537.945 150.485 542.995 152.725 547.307 156.054C547.95 156.55 548.579 157.073 549.181 157.622C551.828 159.984 554.086 162.748 555.874 165.813C556.263 166.483 556.637 167.154 556.985 167.864C558.216 170.347 559.138 172.972 559.73 175.68C560.356 178.521 560.608 181.433 560.479 184.34C560.387 186.527 560.082 188.7 559.569 190.828C559.462 191.244 559.355 191.646 559.248 192.048Z" fill="#F5F5F5"/>
<path d="M552.341 191.418C552.488 190.748 552.622 190.077 552.716 189.407C553.177 186.426 553.127 183.389 552.569 180.425C552.024 177.453 550.983 174.593 549.49 171.966C549.115 171.296 548.7 170.626 548.272 169.996C546.231 167.014 543.619 164.466 540.588 162.502C539.825 162.033 539.048 161.577 538.245 161.161C536.636 160.345 534.95 159.689 533.212 159.204C526.498 157.334 519.323 158.124 513.176 161.412C507.029 164.699 502.383 170.231 500.201 176.859C500.308 176.457 500.402 176.055 500.509 175.653C502.439 168.72 507.039 162.838 513.299 159.302C519.559 155.767 526.965 154.866 533.888 156.798C540.811 158.73 546.684 163.338 550.215 169.606C553.746 175.875 554.646 183.292 552.716 190.225L552.341 191.418Z" fill="#E0E0E0"/>
<g opacity="0.3">
<path d="M519.329 209.059L518.406 208.791L517.482 208.483L517.255 208.403L516.291 208.027H516.144C515.109 207.592 514.103 207.09 513.132 206.526C512.81 206.338 512.476 206.15 512.168 205.949C511.525 205.547 510.923 205.118 510.32 204.676L509.758 204.233L509.45 203.979L509.022 203.563C508.794 203.362 508.567 203.174 508.353 202.96L507.523 202.169C507.255 201.901 506.987 201.619 506.733 201.338C506.479 201.056 506.305 200.882 506.104 200.627C505.903 200.373 505.836 200.319 505.716 200.158L505.394 199.769L505.046 199.314C504.859 199.072 504.671 198.818 504.497 198.563C504.323 198.308 504.189 198.12 504.042 197.879L503.935 197.732L503.319 196.74L502.797 195.788C502.69 195.587 502.596 195.386 502.503 195.198C502.409 195.01 502.302 194.796 502.208 194.595C502.115 194.394 502.034 194.219 501.941 194.018C501.847 193.817 501.753 193.603 501.673 193.388L501.432 192.772C501.352 192.571 501.271 192.37 501.204 192.155C501.044 191.726 500.896 191.297 500.763 190.814L500.602 190.265C500.481 189.836 500.374 189.38 500.267 188.924C500.267 188.71 500.174 188.495 500.133 188.281C499.986 187.584 499.879 186.94 499.785 186.19C499.785 186.002 499.785 185.814 499.785 185.626C499.785 185.211 499.705 184.795 499.692 184.366C499.692 183.937 499.692 183.522 499.692 183.106V182.516C499.692 182.409 499.692 182.315 499.692 182.221C499.692 182.128 499.692 181.806 499.692 181.591C499.686 181.56 499.686 181.529 499.692 181.498C499.692 181.27 499.692 181.028 499.692 180.801L499.772 180.023C499.772 179.755 499.772 179.5 499.866 179.245C499.959 178.991 499.866 178.843 499.959 178.629C500.053 178.414 499.959 178.374 499.959 178.24C499.959 178.106 500.026 177.878 500.066 177.69L500.227 176.926C502.409 170.298 507.055 164.766 513.202 161.479C519.349 158.191 526.524 157.401 533.238 159.271C534.976 159.756 536.662 160.412 538.271 161.228C539.074 161.644 539.851 162.1 540.614 162.569C543.645 164.533 546.256 167.08 548.298 170.063C548.726 170.693 549.141 171.403 549.516 172.033C551.009 174.66 552.05 177.52 552.595 180.492C553.153 183.456 553.203 186.493 552.742 189.474C552.648 190.144 552.514 190.814 552.367 191.485C550.167 198.102 545.509 203.618 539.358 206.889C533.208 210.161 526.036 210.938 519.329 209.059Z" fill="black"/>
</g>
<path d="M519.329 209.059L518.406 208.791L517.482 208.483L517.255 208.403L516.291 208.027H516.144C515.109 207.592 514.103 207.09 513.132 206.526C512.81 206.338 512.476 206.15 512.168 205.949C511.525 205.547 510.923 205.118 510.32 204.676L510.079 204.488C509.962 204.406 509.85 204.317 509.745 204.22L509.437 203.965L509.022 203.563C508.794 203.362 508.567 203.174 508.353 202.96L507.523 202.169C507.255 201.901 506.987 201.619 506.733 201.338C506.479 201.056 506.305 200.882 506.104 200.627C505.903 200.373 505.836 200.319 505.716 200.158L505.394 199.769L505.046 199.314C504.859 199.072 504.671 198.818 504.497 198.563C504.323 198.308 504.189 198.12 504.042 197.879L503.935 197.732L503.319 196.74L502.797 195.788C502.69 195.587 502.596 195.386 502.503 195.198C502.409 195.01 502.302 194.796 502.208 194.595C502.115 194.394 502.034 194.219 501.941 194.018C501.847 193.817 501.753 193.603 501.673 193.388L501.432 192.772C501.352 192.571 501.271 192.37 501.204 192.155C501.044 191.726 500.896 191.297 500.763 190.814L500.602 190.265C500.481 189.836 500.374 189.38 500.267 188.924C500.267 188.71 500.174 188.495 500.133 188.281C499.986 187.584 499.879 186.94 499.785 186.19C499.785 186.002 499.785 185.814 499.785 185.626C499.785 185.211 499.705 184.795 499.692 184.366C499.692 183.937 499.692 183.522 499.692 183.106V182.516C499.692 182.409 499.692 182.315 499.692 182.221C499.692 182.128 499.692 181.806 499.692 181.591C499.686 181.56 499.686 181.529 499.692 181.498C499.692 181.27 499.692 181.028 499.692 180.801L499.772 180.023C499.772 179.755 499.772 179.5 499.866 179.245C499.959 178.991 499.866 178.843 499.959 178.629C500.053 178.414 499.959 178.374 499.959 178.24C499.959 178.106 500.026 177.878 500.066 177.69L500.227 176.926C502.409 170.298 507.055 164.766 513.202 161.479C519.349 158.191 526.524 157.401 533.238 159.271C534.976 159.756 536.662 160.412 538.271 161.228C539.074 161.644 539.851 162.1 540.614 162.569C543.645 164.533 546.256 167.08 548.298 170.063C548.726 170.693 549.141 171.403 549.516 172.033C551.009 174.66 552.05 177.52 552.595 180.492C553.153 183.456 553.203 186.493 552.742 189.474C552.648 190.144 552.514 190.814 552.367 191.485C550.167 198.102 545.509 203.618 539.358 206.889C533.208 210.161 526.036 210.938 519.329 209.059Z" fill="#F0F0F0"/>
<path d="M526.104 198.778L524.899 203.108L519.384 201.579L520.548 197.437C517.073 196.322 513.899 194.423 511.271 191.887L516.104 185.989C518.412 188.34 521.276 190.07 524.43 191.016C527.108 191.74 528.138 191.458 528.446 190.52C529.397 187.075 513.507 185.64 516.398 175.425C517.63 171.001 521.86 168.186 528.513 169.071L529.705 164.808L535.206 166.35L534.042 170.532C536.755 171.513 539.238 173.042 541.337 175.023L536.706 180.935C534.723 179.005 532.309 177.575 529.664 176.766C526.987 176.015 525.889 176.565 525.648 177.503C524.738 180.787 540.614 182.262 537.803 192.356C536.518 196.579 532.449 199.408 526.104 198.778Z" fill="#E0E0E0"/>
<path d="M526.344 197.29L525.139 201.62L519.624 200.091L520.789 195.936C517.312 194.83 514.137 192.935 511.512 190.399L516.358 184.501C518.659 186.855 521.519 188.584 524.671 189.528C527.348 190.252 528.379 189.97 528.686 189.032C529.637 185.586 513.761 184.152 516.639 173.937C517.87 169.513 522.1 166.698 528.767 167.583L529.945 163.32L535.46 164.861L534.282 169.044C536.997 170.029 539.484 171.557 541.591 173.535L536.866 179.433C534.883 177.503 532.469 176.074 529.824 175.264C527.147 174.513 526.049 175.063 525.808 176.002C524.898 179.286 540.774 180.76 537.963 190.855C536.758 195.091 532.689 197.92 526.344 197.29Z" fill="#F5F5F5"/>
<path d="M203.88 73.9316L197.883 121.642L156.238 79.9239L203.88 73.9316Z" fill="#F5F5F5"/>
<path d="M67.1914 222.653L192.301 97.3778L179.998 85.0447L67.1914 198.013V222.653Z" fill="#F5F5F5"/>
<path d="M118.141 34.2779C118.141 34.5149 118.094 34.7496 118.003 34.9684C117.912 35.1873 117.779 35.3859 117.611 35.5529C117.443 35.7199 117.243 35.8519 117.024 35.9414C116.805 36.0309 116.57 36.076 116.334 36.0743H109.212V43.2328C109.173 43.6842 108.967 44.1045 108.633 44.4108C108.3 44.717 107.864 44.887 107.412 44.887C106.959 44.887 106.523 44.717 106.19 44.4108C105.857 44.1045 105.65 43.6842 105.611 43.2328V36.0743H98.4629C97.9988 36.0604 97.5582 35.8668 97.2336 35.5343C96.9091 35.2018 96.7259 34.7563 96.7227 34.2913C96.7227 33.8149 96.9116 33.358 97.248 33.0211C97.5844 32.6842 98.0407 32.495 98.5164 32.495H105.665V25.2694C105.704 24.818 105.91 24.3977 106.244 24.0914C106.577 23.7851 107.013 23.6152 107.465 23.6152C107.918 23.6152 108.354 23.7851 108.687 24.0914C109.02 24.3977 109.227 24.818 109.266 25.2694V32.4279H116.414C116.887 32.4454 117.335 32.6498 117.658 32.9964C117.982 33.343 118.155 33.8037 118.141 34.2779Z" fill="#F5F5F5"/>
<path d="M569.971 50.9411C569.971 51.1781 569.924 51.4128 569.833 51.6316C569.742 51.8505 569.609 52.0491 569.441 52.2161C569.273 52.383 569.074 52.5151 568.855 52.6046C568.635 52.6941 568.401 52.7392 568.164 52.7374H561.016V59.896C561.037 60.1459 561.007 60.3975 560.926 60.6349C560.845 60.8722 560.716 61.0903 560.547 61.275C560.378 61.4598 560.172 61.6074 559.943 61.7083C559.713 61.8093 559.466 61.8614 559.215 61.8614C558.965 61.8614 558.717 61.8093 558.488 61.7083C558.259 61.6074 558.053 61.4598 557.884 61.275C557.714 61.0903 557.585 60.8722 557.504 60.6349C557.424 60.3975 557.393 60.1459 557.415 59.896V52.7508H550.266C549.791 52.7508 549.334 52.5616 548.998 52.2247C548.662 51.8878 548.473 51.4309 548.473 50.9545C548.476 50.4792 548.666 50.0243 549.002 49.6882C549.338 49.3521 549.792 49.1617 550.266 49.1582H557.415V41.9996C557.454 41.5482 557.66 41.1279 557.994 40.8216C558.327 40.5154 558.763 40.3455 559.215 40.3455C559.668 40.3455 560.104 40.5154 560.437 40.8216C560.77 41.1279 560.977 41.5482 561.016 41.9996V49.1582H568.164C568.639 49.1581 569.094 49.3451 569.433 49.6787C569.771 50.0123 569.964 50.4658 569.971 50.9411Z" fill="#F5F5F5"/>
<path d="M435.398 286.678C435.395 287.156 435.203 287.613 434.864 287.949C434.526 288.286 434.068 288.474 433.591 288.474H426.429V295.633C426.451 295.883 426.42 296.134 426.34 296.372C426.259 296.609 426.13 296.827 425.961 297.012C425.791 297.197 425.586 297.344 425.356 297.445C425.127 297.546 424.879 297.598 424.629 297.598C424.379 297.598 424.131 297.546 423.902 297.445C423.672 297.344 423.467 297.197 423.297 297.012C423.128 296.827 422.999 296.609 422.918 296.372C422.838 296.134 422.807 295.883 422.828 295.633V288.474H415.68C415.203 288.474 414.746 288.286 414.407 287.949C414.069 287.613 413.877 287.156 413.873 286.678C413.88 286.202 414.073 285.747 414.411 285.411C414.749 285.075 415.204 284.885 415.68 284.882H422.828V277.723C422.867 277.272 423.074 276.852 423.407 276.545C423.741 276.239 424.177 276.069 424.629 276.069C425.081 276.069 425.517 276.239 425.851 276.545C426.184 276.852 426.391 277.272 426.429 277.723V284.882H433.578C434.056 284.882 434.515 285.07 434.856 285.406C435.196 285.742 435.391 286.199 435.398 286.678Z" fill="#F5F5F5"/>
<path d="M572.1 112.406C569.556 106.454 563.131 95.3269 549.852 92.2973C537.71 89.5223 528.527 104.898 521.004 106.025C513.481 107.151 514.311 103.759 499.238 98.1019C486.36 93.2491 477.726 105.85 474.66 112.406H572.1Z" fill="#F5F5F5"/>
<path d="M300.543 43.6216C300.543 43.6216 300.543 30.082 287.264 29.5055C280.906 29.2374 273.155 34.4388 268.255 26.2077C262.566 16.6496 252.62 10.9522 243.665 14.6522C233.772 18.6738 228.163 34.412 218.498 33.125C208.833 31.8381 190.387 25.4034 180.869 43.6216H300.543Z" fill="#F5F5F5"/>
<path d="M331.639 490C488.372 490 615.43 486.357 615.43 481.863C615.43 477.369 488.372 473.726 331.639 473.726C174.905 473.726 47.8477 477.369 47.8477 481.863C47.8477 486.357 174.905 490 331.639 490Z" fill="#F0F0F0"/>
<path d="M495.206 419.567C497.9 427.604 498.471 436.203 496.863 444.527C495.254 452.85 491.522 460.615 486.029 467.066C480.536 473.517 473.469 478.435 465.516 481.34C457.563 484.245 448.994 485.04 440.643 483.646C436.836 482.992 433.116 481.899 429.56 480.388C428.475 479.919 427.404 479.423 426.36 478.887C421.737 476.515 417.52 473.42 413.871 469.717C413.148 468.993 412.452 468.243 411.782 467.479C407.558 462.619 404.329 456.976 402.278 450.869C402.091 450.293 401.903 449.716 401.743 449.126C399.519 441.564 399.145 433.577 400.652 425.839C402.159 418.102 405.503 410.841 410.403 404.67C415.302 398.5 421.612 393.6 428.799 390.385C435.987 387.171 443.842 385.735 451.701 386.201C452.892 386.281 454.057 386.388 455.235 386.549C460.31 387.232 465.247 388.706 469.866 390.919C470.87 391.402 471.874 391.925 472.851 392.474C482.848 398.115 490.544 407.098 494.591 417.851C494.805 418.414 495.006 418.991 495.206 419.567Z" fill="#407BFF"/>
<path d="M495.206 419.567C497.9 427.604 498.471 436.203 496.863 444.527C495.254 452.85 491.522 460.615 486.029 467.066C480.536 473.517 473.469 478.435 465.516 481.34C457.563 484.245 448.994 485.04 440.643 483.646C436.836 482.992 433.116 481.899 429.56 480.388C428.475 479.919 427.404 479.423 426.36 478.887C421.737 476.515 417.52 473.42 413.871 469.717C413.148 468.993 412.452 468.243 411.782 467.479C407.558 462.619 404.329 456.976 402.278 450.869C402.091 450.293 401.903 449.716 401.743 449.126C399.519 441.564 399.145 433.577 400.652 425.839C402.159 418.102 405.503 410.841 410.403 404.67C415.302 398.5 421.612 393.6 428.799 390.385C435.987 387.171 443.842 385.735 451.701 386.201C452.892 386.281 454.057 386.388 455.235 386.549C460.31 387.232 465.247 388.706 469.866 390.919C470.87 391.402 471.874 391.925 472.851 392.474C482.848 398.115 490.544 407.098 494.591 417.851C494.805 418.414 495.006 418.991 495.206 419.567Z" fill="#407BFF"/>
<path opacity="0.6" d="M486.425 424.42C486.064 423.495 485.676 422.597 485.247 421.739C481.453 413.807 475.107 407.381 467.229 403.494C466.225 402.998 465.208 402.542 464.164 402.153C459.307 400.247 454.118 399.335 448.903 399.472C447.601 399.499 446.301 399.593 445.008 399.754C442.42 400.08 439.873 400.668 437.404 401.51C427.856 404.737 419.913 411.519 415.223 420.452C410.532 429.384 409.454 439.781 412.211 449.488L411.609 447.799C409.909 442.901 409.196 437.714 409.51 432.539C409.824 427.363 411.159 422.301 413.439 417.645C415.718 412.989 418.897 408.832 422.79 405.414C426.684 401.995 431.215 399.384 436.123 397.73C441.03 396.076 446.216 395.413 451.381 395.779C456.546 396.144 461.588 397.531 466.214 399.86C470.841 402.188 474.961 405.412 478.335 409.344C481.71 413.277 484.273 417.84 485.876 422.771C486.077 423.28 486.265 423.857 486.425 424.42Z" fill="black"/>
<g opacity="0.3">
<path d="M461.231 472.398C460.79 472.559 460.348 472.693 459.893 472.827L458.554 473.203L458.219 473.297L456.747 473.632H456.533C454.943 473.96 453.333 474.184 451.714 474.302C451.165 474.302 450.629 474.382 450.08 474.382C448.996 474.382 447.925 474.382 446.841 474.382L445.797 474.315H445.235L444.405 474.222C443.976 474.222 443.53 474.168 443.066 474.061C442.517 473.98 441.982 473.9 441.433 473.779C440.884 473.658 440.349 473.565 439.813 473.444C439.278 473.323 438.93 473.229 438.474 473.095L437.618 472.854L436.935 472.653L436.145 472.385L434.874 471.929C434.499 471.795 434.137 471.648 433.776 471.487L433.535 471.393C433.026 471.165 432.504 470.951 431.995 470.709C431.487 470.468 431.058 470.253 430.59 469.999H430.51L429.666 469.543L428.85 469.06L428.06 468.591L427.217 468.055L426.427 467.519L425.65 466.969C425.115 466.58 424.593 466.178 424.071 465.749L423.442 465.24C422.933 464.811 422.438 464.364 421.956 463.899L421.26 463.242C420.537 462.532 419.841 461.781 419.171 461.017L418.636 460.387C418.248 459.918 417.873 459.462 417.498 458.966V458.899C417.137 458.416 416.775 457.92 416.44 457.411L415.959 456.714L415.731 456.352C415.57 456.097 415.41 455.842 415.262 455.588L415.182 455.467C415.008 455.186 414.834 454.877 414.673 454.582C414.513 454.287 414.299 453.926 414.138 453.59C413.977 453.255 413.777 452.933 413.616 452.598C413.455 452.263 413.362 452.062 413.228 451.781C413.094 451.499 413.067 451.432 413 451.258C412.879 451.018 412.772 450.772 412.679 450.52L412.237 449.461C409.48 439.754 410.559 429.357 415.249 420.425C419.939 411.492 427.882 404.71 437.43 401.483C439.899 400.642 442.447 400.053 445.034 399.727C446.327 399.566 447.627 399.472 448.929 399.445C454.144 399.309 459.333 400.22 464.19 402.126C465.234 402.529 466.251 402.984 467.255 403.467C475.133 407.354 481.479 413.78 485.273 421.712C485.702 422.597 486.09 423.495 486.451 424.393C489.218 434.107 488.142 444.516 483.445 453.456C478.748 462.395 470.793 469.18 461.231 472.398Z" fill="black"/>
</g>
<g opacity="0.6">
<path d="M460.992 454.569L463.066 460.749L455.235 463.43L453.254 457.532C448.194 459.025 442.86 459.342 437.659 458.457L438.663 447.451C443.333 448.392 448.165 448.129 452.705 446.687C456.427 445.44 457.498 444.207 457.056 442.866C455.409 437.973 435.223 449.167 430.35 434.649C428.235 428.361 431.006 421.538 439.721 417.221L437.686 411.149L445.517 408.468L447.525 414.433C451.565 413.397 455.775 413.201 459.894 413.857L459.144 424.702C455.204 424.012 451.156 424.274 447.337 425.466C443.496 426.806 442.652 428.281 443.094 429.608C444.674 434.287 464.874 423.147 469.693 437.504C471.687 443.523 469.104 450.226 460.992 454.569Z" fill="black"/>
</g>
<path d="M460.082 452.598L462.156 458.778L454.312 461.459L452.331 455.561C447.27 457.051 441.936 457.363 436.736 456.473L437.753 445.48C442.419 446.409 447.244 446.146 451.782 444.716C455.517 443.456 456.588 442.223 456.133 440.895C454.486 435.989 434.299 447.196 429.427 432.664C427.312 426.377 430.096 419.554 438.797 415.237L436.736 409.097L444.58 406.416L446.575 412.368C450.616 411.339 454.824 411.143 458.944 411.792L458.194 422.65C454.255 421.964 450.209 422.221 446.387 423.401C442.545 424.742 441.702 426.216 442.157 427.557C443.723 432.235 463.924 421.082 468.743 435.453C470.764 441.499 468.194 448.188 460.082 452.598Z" fill="#407BFF"/>
<path d="M228.63 216.741C226.962 223.903 223.709 230.599 219.112 236.334C214.515 242.07 208.691 246.698 202.069 249.879C195.447 253.059 188.197 254.711 180.853 254.711C173.509 254.711 166.259 253.06 159.637 249.88C155.664 247.976 151.971 245.536 148.66 242.627C145.755 240.075 143.158 237.191 140.923 234.034C140.24 233.069 139.584 232.077 138.995 231.072C136.304 226.625 134.334 221.779 133.159 216.714C132.931 215.709 132.73 214.717 132.556 213.698C131.501 207.343 131.71 200.842 133.172 194.568C133.306 193.979 133.453 193.389 133.627 192.812C135.69 185.202 139.554 178.201 144.89 172.402C150.226 166.603 156.879 162.176 164.284 159.497C171.69 156.817 179.632 155.962 187.437 157.006C195.242 158.049 202.682 160.96 209.126 165.492C210.09 166.175 211.027 166.832 211.937 167.637C215.906 170.88 219.34 174.73 222.111 179.045C222.713 179.983 223.302 180.948 223.838 181.927C227.823 189.152 229.927 197.267 229.955 205.521C229.95 208.67 229.65 211.812 229.059 214.905C228.885 215.548 228.764 216.151 228.63 216.741Z" fill="#407BFF"/>
<path d="M228.63 216.741C226.962 223.903 223.709 230.599 219.112 236.334C214.515 242.07 208.691 246.698 202.069 249.879C195.447 253.059 188.197 254.711 180.853 254.711C173.509 254.711 166.259 253.06 159.637 249.88C155.664 247.976 151.971 245.536 148.66 242.627C145.755 240.075 143.158 237.191 140.923 234.034C140.24 233.069 139.584 232.077 138.995 231.072C136.304 226.625 134.334 221.779 133.159 216.714C132.931 215.709 132.73 214.717 132.556 213.698C131.501 207.343 131.71 200.842 133.172 194.568C133.306 193.979 133.453 193.389 133.627 192.812C135.69 185.202 139.554 178.201 144.89 172.402C150.226 166.603 156.879 162.176 164.284 159.497C171.69 156.817 179.632 155.962 187.437 157.006C195.242 158.049 202.682 160.96 209.126 165.492C210.09 166.175 211.027 166.832 211.937 167.637C215.906 170.88 219.34 174.73 222.111 179.045C222.713 179.983 223.302 180.948 223.838 181.927C227.823 189.152 229.927 197.267 229.955 205.521C229.95 208.67 229.65 211.812 229.059 214.905C228.885 215.548 228.764 216.151 228.63 216.741Z" fill="#407BFF"/>
<path opacity="0.6" d="M218.605 216.258C218.779 215.293 218.926 214.314 219.02 213.336C219.927 204.587 217.871 195.786 213.183 188.348C212.594 187.392 211.965 186.467 211.296 185.573C208.163 181.393 204.226 177.883 199.716 175.251C198.592 174.594 197.435 173.994 196.249 173.454C191.105 171.104 185.513 169.897 179.858 169.917C174.203 169.936 168.62 171.182 163.491 173.567C158.363 175.953 153.811 179.423 150.149 183.737C146.486 188.052 143.8 193.11 142.275 198.563C142.396 197.973 142.516 197.383 142.65 196.793C145.252 186.932 151.586 178.472 160.31 173.208C169.034 167.943 179.463 166.288 189.385 168.592C199.307 170.897 207.943 176.98 213.463 185.553C218.982 194.126 220.951 204.514 218.953 214.516C218.912 215.105 218.752 215.695 218.605 216.258Z" fill="black"/>
<g opacity="0.3">
<path d="M172.02 243.874C171.565 243.78 171.123 243.659 170.681 243.539L169.343 243.15L169.008 243.043L167.576 242.56L167.375 242.48C165.85 241.921 164.361 241.267 162.917 240.522C162.435 240.268 161.953 240.013 161.485 239.732C160.535 239.195 159.624 238.632 158.808 238.016L157.964 237.412L157.496 237.064L156.84 236.554C156.505 236.3 156.171 236.032 155.836 235.737C155.501 235.442 154.993 235.026 154.591 234.637C154.189 234.249 153.774 233.887 153.386 233.498C152.998 233.109 152.757 232.854 152.449 232.519C152.141 232.184 152.034 232.09 151.847 231.862C151.659 231.635 151.525 231.501 151.365 231.326L150.829 230.683L149.986 229.624C149.745 229.315 149.504 229.007 149.29 228.685L149.129 228.471C148.808 228.015 148.487 227.546 148.179 227.13C147.871 226.715 147.617 226.246 147.349 225.79V225.723C147.188 225.455 147.028 225.173 146.88 224.892C146.733 224.61 146.573 224.329 146.425 224.047L145.997 223.229C145.863 222.934 145.702 222.639 145.569 222.345L145.18 221.46C145.046 221.178 144.926 220.883 144.806 220.588C144.551 219.985 144.324 219.368 144.096 218.725L143.828 217.961C143.614 217.331 143.427 216.687 143.266 216.057C143.172 215.736 143.092 215.427 143.012 215.119C142.771 214.127 142.57 213.135 142.396 212.129L142.275 211.325C142.182 210.722 142.115 210.119 142.048 209.515V209.422C142.048 208.818 141.941 208.202 141.914 207.598V206.754V206.244C141.914 205.95 141.914 205.641 141.914 205.346V205.212C141.914 204.864 141.914 204.529 141.914 204.18C141.914 203.831 141.914 203.429 141.914 203.054C141.914 202.679 141.914 202.303 141.994 201.941C142.075 201.579 141.994 201.338 142.101 201.043C142.209 200.748 142.101 200.654 142.101 200.467C142.101 200.279 142.168 199.944 142.209 199.676C142.249 199.408 142.329 198.925 142.396 198.55C143.921 193.097 146.607 188.039 150.269 183.724C153.931 179.409 158.483 175.94 163.612 173.554C168.74 171.168 174.324 169.923 179.978 169.903C185.633 169.884 191.225 171.091 196.37 173.441C197.555 173.981 198.712 174.58 199.837 175.237C204.346 177.869 208.283 181.379 211.416 185.56C212.085 186.453 212.715 187.378 213.304 188.335C217.973 195.78 220.01 204.58 219.087 213.323C218.993 214.301 218.846 215.28 218.672 216.245C215.937 225.976 209.564 234.277 200.875 239.422C192.187 244.568 181.852 246.162 172.02 243.874Z" fill="black"/>
</g>
<g opacity="0.6">
<path d="M181.162 228.578L179.69 234.919L171.685 233.056L173.024 226.996C167.947 225.626 163.249 223.114 159.289 219.65L165.902 210.816C169.387 214.062 173.639 216.368 178.258 217.519C182.086 218.417 183.612 217.934 183.96 216.553C185.125 211.526 162.073 210.454 165.527 195.52C167.026 189.059 172.97 184.715 182.635 185.573L184.081 179.326L192.112 181.203L190.694 187.329C194.674 188.572 198.359 190.616 201.523 193.335L195.205 202.169C192.204 199.522 188.622 197.621 184.75 196.619C180.814 195.694 179.288 196.552 178.967 197.96C177.856 202.773 200.894 203.899 197.48 218.658C196.075 224.744 190.426 229.034 181.162 228.578Z" fill="black"/>
</g>
<path d="M181.417 226.353L179.945 232.707L171.913 230.83L173.252 224.771C168.164 223.383 163.461 220.847 159.504 217.358L166.117 208.523C169.602 211.769 173.854 214.075 178.472 215.226C182.301 216.111 183.827 215.628 184.175 214.261C185.34 209.22 162.288 208.148 165.742 193.214C167.241 186.753 173.185 182.409 182.85 183.267L184.296 177.034L192.327 178.897L190.908 185.023C194.889 186.266 198.574 188.31 201.738 191.029L195.42 199.877C192.424 197.22 188.84 195.313 184.965 194.313C181.029 193.402 179.503 194.313 179.182 195.654C178.071 200.453 201.109 201.579 197.695 216.339C196.33 222.572 190.627 226.916 181.417 226.353Z" fill="#407BFF"/>
<path d="M562.7 372.058L577.131 386.509L482.797 480.965H507.428L589.446 398.842L604.359 413.763L610.356 366.052L562.7 372.058Z" fill="#407BFF"/>
<g opacity="0.3">
<path d="M562.7 372.058L577.131 386.509L482.797 480.965H507.428L589.446 398.842L604.359 413.763L610.356 366.052L562.7 372.058Z" fill="white"/>
</g>
<path d="M200.639 329.669L215.07 344.12L78.4082 480.964H103.026L227.385 356.454L242.298 371.374L248.295 323.664L200.639 329.669Z" fill="#407BFF"/>
<g opacity="0.3">
<path d="M200.639 329.669L215.07 344.12L78.4082 480.964H103.026L227.385 356.454L242.298 371.374L248.295 323.664L200.639 329.669Z" fill="white"/>
</g>
<path d="M258.43 74.4276L262.325 73.315L259.835 64.655L255.337 65.9955C254.049 64.5353 252.435 63.4007 250.625 62.6844V58.1265H241.63V62.6844C240.218 63.2446 238.921 64.0577 237.801 65.0839L233.785 63.1536L229.85 71.1969L233.799 73.1273C233.799 73.449 233.799 73.7842 233.799 74.1059C233.799 76.2132 234.338 78.2854 235.365 80.125L232.406 83.8383L239.434 89.4553L242.312 85.8492C243.545 86.2491 244.832 86.4526 246.127 86.4524C247.074 86.4507 248.018 86.3383 248.939 86.1173L251.536 89.777L258.871 84.5622L256.341 80.9964C257.652 79.0527 258.377 76.7725 258.43 74.4276ZM238.029 74.1059C238.029 72.5179 238.498 70.9655 239.378 69.6443C240.257 68.3231 241.508 67.2922 242.972 66.6815C244.435 66.0707 246.047 65.9076 247.603 66.2126C249.159 66.5175 250.59 67.2769 251.716 68.3951C252.842 69.5133 253.612 70.9402 253.93 72.496C254.247 74.0518 254.098 75.6669 253.5 77.1378C252.902 78.6086 251.883 79.8694 250.571 80.7612C249.259 81.653 247.713 82.136 246.127 82.1492C243.992 82.1458 241.944 81.2994 240.428 79.7936C238.912 78.2879 238.05 76.2442 238.029 74.1059Z" fill="#407BFF"/>
<path opacity="0.6" d="M258.43 74.4276L262.325 73.315L259.835 64.655L255.337 65.9955C254.049 64.5353 252.435 63.4007 250.625 62.6844V58.1265H241.63V62.6844C240.218 63.2446 238.921 64.0577 237.801 65.0839L233.785 63.1536L229.85 71.1969L233.799 73.1273C233.799 73.449 233.799 73.7842 233.799 74.1059C233.799 76.2132 234.338 78.2854 235.365 80.125L232.406 83.8383L239.434 89.4553L242.312 85.8492C243.545 86.2491 244.832 86.4526 246.127 86.4524C247.074 86.4507 248.018 86.3383 248.939 86.1173L251.536 89.777L258.871 84.5622L256.341 80.9964C257.652 79.0527 258.377 76.7725 258.43 74.4276ZM238.029 74.1059C238.029 72.5179 238.498 70.9655 239.378 69.6443C240.257 68.3231 241.508 67.2922 242.972 66.6815C244.435 66.0707 246.047 65.9076 247.603 66.2126C249.159 66.5175 250.59 67.2769 251.716 68.3951C252.842 69.5133 253.612 70.9402 253.93 72.496C254.247 74.0518 254.098 75.6669 253.5 77.1378C252.902 78.6086 251.883 79.8694 250.571 80.7612C249.259 81.653 247.713 82.136 246.127 82.1492C243.992 82.1458 241.944 81.2994 240.428 79.7936C238.912 78.2879 238.05 76.2442 238.029 74.1059Z" fill="white"/>
<path d="M452.237 244.102L456.119 242.989L453.643 234.396L449.145 235.737C447.857 234.276 446.242 233.142 444.433 232.426V227.693H435.397V232.251C433.984 232.808 432.686 233.622 431.569 234.651L427.553 232.72L423.617 240.764L427.633 242.694C427.633 243.016 427.633 243.338 427.633 243.673C427.627 245.781 428.167 247.855 429.199 249.692L426.228 253.405L433.269 259.022L436.147 255.416C437.379 255.816 438.667 256.02 439.962 256.019C440.909 256.017 441.852 255.904 442.773 255.684L445.37 259.344L452.706 254.129L450.122 250.657C451.44 248.72 452.174 246.445 452.237 244.102ZM431.836 243.78C431.85 242.195 432.33 240.649 433.218 239.337C434.105 238.024 435.361 237.004 436.825 236.403C438.29 235.803 439.9 235.649 441.451 235.962C443.003 236.274 444.428 237.039 445.547 238.16C446.667 239.281 447.43 240.708 447.742 242.262C448.054 243.816 447.901 245.427 447.301 246.894C446.702 248.361 445.683 249.618 444.372 250.507C443.062 251.396 441.518 251.877 439.935 251.89C438.869 251.899 437.812 251.696 436.825 251.291C435.839 250.887 434.942 250.29 434.189 249.535C433.435 248.78 432.839 247.882 432.435 246.894C432.031 245.906 431.827 244.848 431.836 243.78Z" fill="#407BFF"/>
<path opacity="0.6" d="M452.237 244.102L456.119 242.989L453.643 234.396L449.145 235.737C447.857 234.276 446.242 233.142 444.433 232.426V227.693H435.397V232.251C433.984 232.808 432.686 233.622 431.569 234.651L427.553 232.72L423.617 240.764L427.633 242.694C427.633 243.016 427.633 243.338 427.633 243.673C427.627 245.781 428.167 247.855 429.199 249.692L426.228 253.405L433.269 259.022L436.147 255.416C437.379 255.816 438.667 256.02 439.962 256.019C440.909 256.017 441.852 255.904 442.773 255.684L445.37 259.344L452.706 254.129L450.122 250.657C451.44 248.72 452.174 246.445 452.237 244.102ZM431.836 243.78C431.85 242.195 432.33 240.649 433.218 239.337C434.105 238.024 435.361 237.004 436.825 236.403C438.29 235.803 439.9 235.649 441.451 235.962C443.003 236.274 444.428 237.039 445.547 238.16C446.667 239.281 447.43 240.708 447.742 242.262C448.054 243.816 447.901 245.427 447.301 246.894C446.702 248.361 445.683 249.618 444.372 250.507C443.062 251.396 441.518 251.877 439.935 251.89C438.869 251.899 437.812 251.696 436.825 251.291C435.839 250.887 434.942 250.29 434.189 249.535C433.435 248.78 432.839 247.882 432.435 246.894C432.031 245.906 431.827 244.848 431.836 243.78Z" fill="white"/>
<path d="M547.174 245.362L541.177 293.072L527.055 278.93L387.475 418.696H243.866L181.673 480.965H157.068L236.65 401.269H380.273L514.739 266.596L499.532 251.368L547.174 245.362Z" fill="#407BFF"/>
<path d="M351.68 371.844V391.778L359.712 392.421L363.647 373.761L351.68 371.844Z" fill="#FF8B7B"/>
<path d="M357.382 390.544C357.382 390.544 359.912 385.678 361.398 386.201C362.884 386.724 363.5 392.622 363.5 392.622C363.5 392.622 371.532 395.303 373.861 395.478C376.19 395.652 377.957 396.899 378.252 401.336H350.582C350.582 401.336 350.769 391.335 350.823 389.619C350.877 387.903 353.313 390.048 353.313 390.048L357.382 390.544Z" fill="#263238"/>
<path d="M350.89 393.413C351.387 393.686 351.824 394.058 352.173 394.507C352.521 394.955 352.774 395.471 352.916 396.021C353.058 396.571 353.085 397.145 352.997 397.706C352.909 398.268 352.706 398.805 352.402 399.285C352.385 399.309 352.372 399.336 352.366 399.364C352.359 399.393 352.358 399.423 352.364 399.452C352.369 399.481 352.38 399.509 352.397 399.533C352.414 399.558 352.435 399.578 352.46 399.594C352.485 399.61 352.513 399.62 352.542 399.625C352.571 399.629 352.601 399.627 352.63 399.62C352.658 399.612 352.685 399.599 352.708 399.58C352.731 399.562 352.75 399.539 352.764 399.513C353.099 398.99 353.324 398.403 353.426 397.79C353.527 397.176 353.503 396.549 353.354 395.945C353.204 395.342 352.934 394.775 352.559 394.28C352.183 393.784 351.711 393.371 351.171 393.065C350.943 392.931 350.675 393.306 350.903 393.44L350.89 393.413Z" fill="white"/>
<path d="M350.85 399.74L372.549 399.968H377.596C377.877 399.968 377.944 399.526 377.663 399.526L355.95 399.298H350.903C350.622 399.298 350.569 399.74 350.903 399.74H350.85Z" fill="white"/>
<path d="M362.309 394.365C362.517 394.043 362.789 393.768 363.108 393.556C363.426 393.344 363.784 393.2 364.161 393.132C364.537 393.064 364.923 393.074 365.296 393.162C365.668 393.249 366.018 393.412 366.325 393.641C366.526 393.815 366.794 393.426 366.593 393.265C365.174 392.099 363.233 392.595 361.935 394.137C361.747 394.365 362.095 394.593 362.296 394.365H362.309Z" fill="white"/>
<path d="M364.596 395.076C364.807 394.757 365.08 394.485 365.399 394.275C365.718 394.065 366.076 393.923 366.452 393.857C366.828 393.79 367.213 393.801 367.584 393.888C367.956 393.976 368.306 394.138 368.612 394.365C368.827 394.539 369.094 394.151 368.88 393.99C367.461 392.81 365.52 393.32 364.222 394.861C364.034 395.089 364.382 395.304 364.583 395.076H364.596Z" fill="white"/>
<path d="M366.967 395.799C367.177 395.48 367.45 395.208 367.769 394.998C368.088 394.789 368.447 394.646 368.822 394.58C369.198 394.514 369.583 394.524 369.955 394.612C370.326 394.699 370.676 394.861 370.983 395.089C371.197 395.249 371.465 394.874 371.25 394.7C369.831 393.534 367.89 394.043 366.605 395.585C366.404 395.813 366.753 396.027 366.953 395.799H366.967Z" fill="white"/>
<path d="M346.848 174.286C347.075 177.838 346.593 188.764 347.075 194.622C347.972 205.802 349.19 220.294 350.154 234.839C351.279 251.649 352.082 268.473 351.68 280.163C350.649 310.151 350.877 378.131 350.877 378.131H363.875C363.875 378.131 379.136 310.567 381.987 280.163C384.37 254.947 383.111 189.997 382.71 174.259L346.848 174.286Z" fill="#263238"/>
<path opacity="0.2" d="M347.047 194.622C347.944 205.802 349.162 220.294 350.126 234.839C356.524 215.883 350.581 187.236 350.581 187.236L347.047 194.622Z" fill="black"/>
<path d="M349.751 378.573H364.998L366.109 373.693L349.35 373.492L349.751 378.573Z" fill="#407BFF"/>
<path d="M279.941 368.13L276.902 387.836L284.747 389.7L291.48 371.857L279.941 368.13Z" fill="#FF8B7B"/>
<path d="M282.792 387.474C282.792 387.474 286.032 383.064 287.424 383.801C288.816 384.538 288.522 390.504 288.522 390.504C288.522 390.504 296.112 394.418 298.334 394.914C300.556 395.41 302.162 396.952 301.774 401.376L274.426 397.139C274.426 397.139 276.139 387.286 276.447 385.597C276.755 383.908 278.843 386.402 278.843 386.402L282.792 387.474Z" fill="#263238"/>
<path d="M275.872 389.324C276.318 389.671 276.688 390.104 276.96 390.599C277.233 391.093 277.402 391.638 277.457 392.2C277.512 392.762 277.452 393.33 277.281 393.868C277.11 394.406 276.831 394.903 276.461 395.33C276.287 395.558 276.595 395.839 276.782 395.598C277.195 395.134 277.507 394.589 277.702 393.999C277.896 393.409 277.968 392.785 277.913 392.166C277.858 391.547 277.677 390.946 277.381 390.4C277.085 389.854 276.681 389.373 276.193 388.989C275.993 388.815 275.671 389.15 275.872 389.324Z" fill="white"/>
<path d="M274.869 395.571L296.287 399.11L301.267 399.928C301.548 399.928 301.669 399.553 301.387 399.513L279.969 395.96L274.989 395.142C274.708 395.142 274.588 395.518 274.869 395.571Z" fill="white"/>
<path d="M287.01 392.006C287.267 391.72 287.579 391.489 287.928 391.328C288.277 391.168 288.655 391.08 289.038 391.072C289.422 391.063 289.804 391.133 290.159 391.277C290.515 391.422 290.838 391.638 291.107 391.912C291.281 392.113 291.602 391.778 291.428 391.577C291.11 391.269 290.734 391.028 290.322 390.869C289.909 390.709 289.469 390.634 289.028 390.648C288.586 390.662 288.151 390.764 287.75 390.949C287.348 391.134 286.987 391.397 286.689 391.724C286.462 391.925 286.783 392.207 287.01 392.006Z" fill="white"/>
<path d="M289.165 393.065C289.421 392.778 289.733 392.548 290.082 392.387C290.431 392.227 290.809 392.139 291.193 392.13C291.576 392.122 291.958 392.192 292.314 392.336C292.669 392.481 292.992 392.697 293.261 392.971C293.435 393.172 293.756 392.837 293.582 392.636C292.351 391.295 290.356 391.469 288.844 392.796C288.616 392.998 288.937 393.266 289.165 393.065Z" fill="white"/>
<path d="M291.388 394.137C291.646 393.851 291.961 393.622 292.311 393.462C292.661 393.303 293.041 393.216 293.425 393.209C293.81 393.201 294.193 393.273 294.549 393.418C294.905 393.564 295.228 393.781 295.498 394.057C295.672 394.244 295.993 393.909 295.819 393.722C294.587 392.381 292.593 392.542 291.08 393.869C290.852 394.07 291.174 394.338 291.388 394.137Z" fill="white"/>
<path d="M325.697 282.764C317.665 312.256 290.678 375.932 290.678 375.932L277.867 373.707C277.867 373.707 291.254 307.403 297.358 278.045C302.9 251.542 308.991 190.668 310.958 172.543L353.929 176.417C351.64 191.941 332.363 258.325 325.697 282.764Z" fill="#263238"/>
<path d="M276.676 373.975L291.709 376.589L293.636 371.978L276.903 368.921L276.676 373.975Z" fill="#407BFF"/>
<path d="M308.455 172.543C308.281 174.433 312.136 178.683 314.024 178.763L380.728 179.93C382.736 180.023 385.092 178.589 385.025 176.632C384.342 152.944 378.827 71.4653 376.993 66.331C374.704 60.0169 362.014 57.738 356.472 57.242C347.718 56.6505 338.935 56.6505 330.181 57.242C325.911 57.4431 322.015 57.8184 318.776 58.2206C317.611 58.3642 316.487 58.7417 315.471 59.3304C314.455 59.9191 313.568 60.7069 312.863 61.6468C312.159 62.5867 311.65 63.6593 311.369 64.8004C311.088 65.9415 311.039 67.1278 311.226 68.2882C312.665 77.3541 313.604 86.4927 314.037 95.6623C314.037 96.1181 314.037 96.5471 314.037 97.0029C314.184 100.086 314.332 103.129 314.345 106.145C314.345 106.735 314.345 107.352 314.345 107.942C314.104 138.547 310.128 153.574 308.455 172.543Z" fill="white"/>
<path d="M335 180.238C326.085 180.787 302.484 180.238 302.484 176.511C302.484 170.291 310.971 127.272 311.774 118.666C311.895 117.326 312.015 115.569 312.149 113.438C312.377 109.416 312.604 104.336 312.819 98.8124C313.475 81.5997 314.01 60.687 314.01 60.687C314.01 60.687 314.532 55.9548 335.281 56.9603C335.281 56.9603 340.448 82.2163 340.636 104.443C340.823 126.669 338.039 180.05 335 180.238Z" fill="#407BFF"/>
<path d="M356.418 57.2419C356.418 57.2419 365.561 81.4658 364.557 118.157C363.553 154.848 363.098 181.565 363.098 181.565C363.098 181.565 384.998 182.906 386.912 179.648C387.943 177.865 385.413 145.866 383.967 127.112C382.321 105.757 379.014 70.6877 377.769 66.4784C375.654 59.1992 356.418 57.2419 356.418 57.2419Z" fill="#407BFF"/>
<path d="M464.955 51.2361C458.53 56.8932 451.97 62.3225 445.184 67.5507C441.81 70.2318 438.357 72.7252 434.836 75.2588C433.069 76.519 431.275 77.7389 429.414 78.9722C427.554 80.2055 425.68 81.3986 423.324 82.6185C421.875 83.3765 420.343 83.9614 418.759 84.3612C417.349 84.697 415.918 84.9344 414.475 85.0717C412.011 85.3107 409.533 85.3868 407.059 85.2996C402.531 85.1003 398.018 84.6528 393.539 83.9591C389.751 83.4094 386.043 82.7392 382.361 81.975L379.804 81.4254C375.789 80.5541 371.88 79.5486 367.891 78.4226L371.826 60.9953C375.915 62.4527 380.114 63.578 384.383 64.3601C388.399 65.2583 392.414 66.1029 396.363 66.8402C400.312 67.5775 404.275 68.1807 408.023 68.5695C409.77 68.7544 411.527 68.8394 413.284 68.8242C413.951 68.8114 414.617 68.7622 415.278 68.6767C415.741 68.6204 416.192 68.4938 416.617 68.3014C418.103 67.7115 419.923 66.7999 421.677 65.8884C423.431 64.9768 425.251 63.9446 427.032 62.9525C430.659 60.9685 434.274 58.837 437.915 56.7592C445.17 52.5364 452.519 48.3003 459.868 44.1445L464.955 51.2361Z" fill="#407BFF"/>
<path opacity="0.2" d="M382.36 82.0287L379.803 81.4791L378.465 71.9612L382.36 82.0287Z" fill="black"/>
<path d="M475.317 34.6536C475.317 34.6536 476.508 38.5948 475.625 40.6861C474.741 42.7773 470.564 43.823 470.564 43.823C470.564 43.823 472.88 37.3347 475.317 34.6536Z" fill="#FF8B7B"/>
<path opacity="0.2" d="M475.317 34.6536C475.317 34.6536 476.508 38.5948 475.625 40.6861C474.741 42.7773 470.564 43.823 470.564 43.823C470.564 43.823 472.88 37.3347 475.317 34.6536Z" fill="black"/>
<path d="M474.875 38.3535C473.348 39.7681 472.083 41.4429 471.14 43.3002C473.122 43.957 476.334 42.3484 477.057 43.1527C477.78 43.957 475.719 45.3244 472.492 46.9331C470.792 47.7508 470.203 49.6946 467.941 50.4856C466.968 50.8264 465.97 51.0908 464.956 51.2765C462.466 50.3381 459.775 44.1983 459.775 44.1983L465.719 39.6539C465.719 39.6539 471.194 35.4847 473.51 34.6536C475.826 33.8224 481.863 29.8812 482.278 30.8866C482.867 32.2942 478.757 35.4847 474.875 38.3535Z" fill="#FF8B7B"/>
<path opacity="0.2" d="M324.009 84.053L312.162 113.438C312.39 109.416 312.617 104.336 312.831 98.8125L324.009 84.053Z" fill="black"/>
<path d="M357.208 11.3814C354.783 10.7607 352.256 10.6462 349.785 11.0452C347.314 11.4442 344.951 12.348 342.844 13.7006C340.086 15.5103 337.784 18.0976 338.199 21.5696C339.333 28.7997 340.87 35.9606 342.804 43.0185L368.934 27.0525C368.934 27.0525 372.83 22.2801 366.766 15.9259C364.811 13.9284 360.835 12.2796 357.208 11.3814Z" fill="#263238"/>
<path d="M354.772 61.8667C354.394 60.1917 354.304 58.4645 354.505 56.7591L355.776 52.0806V51.9868L348.186 43.6753L342.966 37.9243C343.26 43.9702 341.426 51.3299 339.244 57.6305C339.632 60.4323 352.791 67.9394 354.772 61.8667Z" fill="#FF8B7B"/>
<g opacity="0.2">
<path d="M355.776 52.0807L354.504 56.7592C351.626 55.4187 348.627 52.5499 347.958 49.4666C347.489 47.2413 348.507 45.1768 349.404 45.0696L355.776 52.0807Z" fill="black"/>
</g>
<path d="M367.53 42.3615C367.248 43.3804 366.927 44.3724 366.593 45.3644C363.621 54.078 352.858 54.7483 346.205 48.3002C345.607 47.711 345.052 47.0793 344.545 46.41C340.328 40.7663 341.426 36.4631 342.149 26.6904C342.302 24.4228 343.029 22.2316 344.26 20.3225C345.492 18.4134 347.188 16.8491 349.189 15.7768C351.19 14.7045 353.43 14.1592 355.7 14.1923C357.969 14.2254 360.193 14.8358 362.162 15.966C370.274 20.6177 370.341 32.1867 367.53 42.3615Z" fill="#FF8B7B"/>
<path d="M349.445 20.3766C349.445 20.3766 358.895 27.4681 369.872 24.2374C375.441 22.6019 374.504 11.1669 370.126 8.95501C366.552 7.14526 363.647 11.5423 363.647 11.5423C360.066 9.57989 355.992 8.6998 351.921 9.00864C344.559 9.33037 341.506 13.5799 341.506 13.5799C340.399 13.5518 339.313 13.8954 338.423 14.5561C337.533 15.2168 336.889 16.1567 336.594 17.2262C335.603 20.591 339.271 27.0123 339.271 27.0123L349.445 20.3766Z" fill="#263238"/>
<path d="M357.757 31.8517C357.65 32.6158 357.971 33.2861 358.466 33.3531C358.962 33.4202 359.457 32.8571 359.564 32.093C359.671 31.3289 359.35 30.6586 358.841 30.5916C358.333 30.5246 357.864 31.0876 357.757 31.8517Z" fill="#263238"/>
<path d="M361.357 44.0372H361.625C361.701 44.0272 361.77 43.988 361.817 43.9279C361.864 43.8679 361.887 43.7917 361.879 43.7155C361.876 43.6772 361.865 43.64 361.847 43.6061C361.829 43.5722 361.804 43.5424 361.774 43.5186C361.743 43.4947 361.709 43.4773 361.672 43.4673C361.635 43.4574 361.596 43.4552 361.558 43.4608C360.992 43.5102 360.421 43.4441 359.881 43.2666C359.342 43.089 358.843 42.8037 358.416 42.4277C357.99 42.0518 357.644 41.5932 357.399 41.0795C357.154 40.5658 357.016 40.0078 356.993 39.4391C356.99 39.4008 356.979 39.3636 356.961 39.3297C356.942 39.2958 356.918 39.2661 356.887 39.2422C356.857 39.2183 356.823 39.2009 356.786 39.191C356.749 39.181 356.71 39.1788 356.672 39.1844C356.596 39.1945 356.527 39.2337 356.48 39.2937C356.432 39.3538 356.41 39.43 356.417 39.5062C356.487 40.7579 357.042 41.9327 357.965 42.7795C358.889 43.6263 360.106 44.0777 361.357 44.0372Z" fill="#263238"/>
<path d="M342.002 27.5755C342.002 27.5755 344.947 27.7363 345.054 30.2566C345.161 32.7768 344.906 33.1119 344.906 33.1119L348.481 33.3667C348.481 33.3667 346.473 25.8193 349.003 25.9534C351.533 26.0874 347.838 20.5241 351.332 19.5321C355.067 18.4731 364.718 18.0307 368.48 23.9559C367.771 20.3718 365.776 17.1719 362.871 14.9608C358.239 11.7971 348.896 11.0866 345.094 15.6713C341.292 20.256 342.002 27.5755 342.002 27.5755Z" fill="#263238"/>
<path d="M337.089 32.5621C337.461 35.0037 338.779 37.2001 340.757 38.675C343.435 40.592 345.844 38.5007 346.112 35.404C346.299 32.6291 345.161 28.2857 342.096 27.5886C341.415 27.4501 340.711 27.4838 340.047 27.6866C339.382 27.8894 338.779 28.2549 338.291 28.75C337.804 29.2451 337.447 29.8542 337.253 30.5221C337.06 31.1901 337.036 31.8958 337.183 32.5755" fill="#FF8B7B"/>
<path d="M365.614 32.7633C365.507 33.5274 365.829 34.1977 366.324 34.2648C366.819 34.3318 367.314 33.7687 367.422 33.0046C367.529 32.2405 367.194 31.5702 366.699 31.5032C366.203 31.4362 365.708 31.9992 365.614 32.7633Z" fill="#263238"/>
<path d="M368.466 30.9C368.402 30.8852 368.342 30.854 368.293 30.8094C368.244 30.7648 368.207 30.7083 368.185 30.6453C368.13 30.3638 368.015 30.0978 367.846 29.8662C367.677 29.6345 367.459 29.4429 367.208 29.3048C366.705 29.0866 366.141 29.0534 365.615 29.2109C365.567 29.2278 365.516 29.235 365.465 29.232C365.413 29.229 365.363 29.2159 365.317 29.1935C365.271 29.1711 365.23 29.1397 365.196 29.1013C365.162 29.0629 365.136 29.0181 365.12 28.9696C365.089 28.8718 365.097 28.7659 365.142 28.6737C365.187 28.5815 365.265 28.51 365.361 28.4736C366.084 28.2486 366.865 28.2963 367.556 28.6077C367.885 28.7894 368.174 29.0365 368.404 29.3339C368.634 29.6313 368.801 29.9726 368.895 30.337C368.911 30.3854 368.918 30.4366 368.914 30.4875C368.91 30.5384 368.895 30.588 368.871 30.6332C368.848 30.6784 368.815 30.7182 368.775 30.7503C368.735 30.7823 368.69 30.8059 368.64 30.8196C368.591 30.8622 368.531 30.8901 368.466 30.9Z" fill="#263238"/>
<path d="M355.735 29.6799C355.682 29.692 355.628 29.692 355.575 29.6799C355.527 29.661 355.484 29.6325 355.448 29.5962C355.411 29.5599 355.383 29.5165 355.364 29.4687C355.345 29.421 355.336 29.3699 355.338 29.3186C355.34 29.2673 355.352 29.2169 355.374 29.1705C355.7 28.4876 356.261 27.9451 356.953 27.6423C357.313 27.5223 357.693 27.4771 358.07 27.5094C358.448 27.5416 358.815 27.6507 359.149 27.8299C359.196 27.8515 359.238 27.8823 359.273 27.9204C359.308 27.9585 359.335 28.0032 359.352 28.0519C359.37 28.1006 359.377 28.1523 359.375 28.2039C359.372 28.2556 359.359 28.3062 359.336 28.3528C359.313 28.3986 359.282 28.4395 359.243 28.4731C359.205 28.5067 359.16 28.5323 359.111 28.5485C359.063 28.5647 359.012 28.5712 358.961 28.5675C358.91 28.5638 358.86 28.55 358.814 28.527C358.574 28.397 358.311 28.317 358.039 28.2916C357.768 28.2663 357.494 28.2962 357.235 28.3796C356.728 28.5966 356.318 28.9926 356.083 29.4922C356.046 29.5509 355.995 29.599 355.934 29.6319C355.873 29.6648 355.805 29.6813 355.735 29.6799Z" fill="#263238"/>
<path d="M362.121 32.884C363.047 35.0007 363.843 37.1719 364.504 39.3857C364.624 40.2973 361.76 40.2705 361.76 40.2705L362.121 32.884Z" fill="#FF5652"/>
<path d="M311.909 62.8052C307.398 70.6608 303.155 78.6774 299.018 86.7341C296.93 90.7558 294.909 94.7774 292.861 98.7991L289.849 104.832L288.349 107.781L287.6 109.215L287.252 109.885C287.162 110.055 287.082 110.23 287.011 110.408L286.81 110.891L286.663 111.266L286.422 111.977L286.234 112.607C285.779 114.189 285.538 115.435 285.297 116.695C285.056 117.956 284.869 119.135 284.681 120.328C284.32 122.701 284.012 125.007 283.758 127.326C283.236 131.951 282.781 136.522 282.419 141.107C281.723 150.263 281.228 159.379 281.08 168.575C281.065 169.834 281.51 171.056 282.333 172.009C283.156 172.961 284.299 173.578 285.546 173.744C286.793 173.909 288.057 173.61 289.099 172.905C290.141 172.199 290.889 171.136 291.201 169.916C293.383 161.108 295.364 152.234 297.358 143.44C298.389 139.056 299.353 134.659 300.397 130.342C300.932 128.184 301.441 126.039 301.99 123.975C302.258 122.929 302.539 121.91 302.833 120.958C303.075 120.113 303.361 119.28 303.69 118.465C303.712 118.405 303.739 118.346 303.77 118.291C303.77 118.291 303.77 118.197 303.77 118.21V118.304V118.438C303.727 118.539 303.678 118.638 303.623 118.733L303.757 118.519L304.025 118.103L304.547 117.285L306.394 114.296L309.968 108.438C312.298 104.51 314.627 100.595 316.876 96.6542C321.414 88.7717 325.818 80.8356 329.941 72.7253C330.98 70.3604 331.097 67.6917 330.268 65.2449C329.44 62.798 327.727 60.7505 325.466 59.5059C323.205 58.2612 320.561 57.9095 318.054 58.5202C315.547 59.1309 313.36 60.6596 311.923 62.8052H311.909Z" fill="#407BFF"/>
<path d="M269.675 194.18V185.774C269.675 185.636 269.73 185.503 269.827 185.405C269.925 185.307 270.058 185.251 270.197 185.251H274.761V183.911H270.21C269.713 183.911 269.236 184.109 268.885 184.461C268.533 184.813 268.336 185.29 268.336 185.788V194.18H269.675Z" fill="#263238"/>
<path d="M301.145 185.707V194.18H302.484V185.774C302.484 185.276 302.287 184.799 301.935 184.447C301.584 184.095 301.107 183.897 300.61 183.897H296.059V185.238H300.61C300.741 185.237 300.868 185.284 300.967 185.371C301.065 185.457 301.129 185.577 301.145 185.707Z" fill="#263238"/>
<path d="M320.343 197.665V240.027C320.343 240.973 319.968 241.88 319.3 242.548C318.632 243.217 317.726 243.593 316.782 243.593H255.727C254.784 243.589 253.88 243.212 253.213 242.544C252.546 241.876 252.17 240.971 252.166 240.027V197.665C252.17 196.722 252.546 195.818 253.214 195.152C253.881 194.487 254.785 194.113 255.727 194.113H316.782C317.249 194.111 317.712 194.202 318.144 194.379C318.576 194.557 318.968 194.819 319.299 195.149C319.63 195.479 319.892 195.871 320.072 196.303C320.251 196.735 320.343 197.198 320.343 197.665Z" fill="#263238"/>
<g opacity="0.5">
<path d="M320.343 197.665V240.027C320.343 240.973 319.968 241.88 319.3 242.548C318.632 243.217 317.726 243.593 316.782 243.593H255.727C254.784 243.589 253.88 243.212 253.213 242.544C252.546 241.876 252.17 240.971 252.166 240.027V197.665C252.17 196.722 252.546 195.818 253.214 195.152C253.881 194.487 254.785 194.113 255.727 194.113H316.782C317.249 194.111 317.712 194.202 318.144 194.379C318.576 194.557 318.968 194.819 319.299 195.149C319.63 195.479 319.892 195.871 320.072 196.303C320.251 196.735 320.343 197.198 320.343 197.665Z" fill="white"/>
</g>
<path d="M311.386 194.113H308.682V243.593H311.386V194.113Z" fill="#263238"/>
<path d="M263.839 194.113H261.135V243.593H263.839V194.113Z" fill="#263238"/>
<path d="M290.344 171.685C290.344 171.685 294.708 181.552 294.226 183.75C293.744 185.949 290.786 181.86 290.786 181.86L290.344 171.685Z" fill="#FF8B7B"/>
<path d="M297.464 182.249H272.873V186.766H297.464V182.249Z" fill="#263238"/>
<path opacity="0.3" d="M297.464 182.249H272.873V186.766H297.464V182.249Z" fill="white"/>
<path d="M281.373 170.184L277.973 180.238C277.291 183.107 286.554 187.302 290.128 184.822C292.953 182.879 290.516 171.216 290.516 171.216C289.19 170.315 287.665 169.75 286.072 169.57C284.479 169.391 282.867 169.601 281.373 170.184Z" fill="#FF8B7B"/>
<path d="M277.975 180.238C277.265 183.442 277.68 189.716 282.794 190.373C283.909 190.553 285.045 190.576 286.167 190.44C287.174 190.863 288.289 190.957 289.353 190.708C291.923 189.89 290.973 183.415 290.973 183.415L277.975 180.238Z" fill="#FF8B7B"/>
<path d="M340.823 52.7375C340.823 52.7375 333.541 51.1824 331.961 57.2418V77.2563L336.151 82.4978L332.844 85.7956L332.751 111.521L340.488 114.202C340.649 107.043 341.827 94.2009 340.033 75.2052C339.367 67.7121 339.632 60.1652 340.823 52.7375Z" fill="#407BFF"/>
<path opacity="0.3" d="M340.823 52.7375C340.823 52.7375 333.541 51.1824 331.961 57.2418V77.2563L336.151 82.4978L332.844 85.7956L332.751 111.521L340.488 114.202C340.649 107.043 341.827 94.2009 340.033 75.2052C339.367 67.7121 339.632 60.1652 340.823 52.7375Z" fill="black"/>
<path d="M354.504 56.7591C354.504 56.7591 357.917 60.2312 359.618 68.1673C361.318 76.1034 364.758 110.81 364.651 115.221L372.308 109.47L369.202 81.908L364.664 79.0928L368.479 74.0791C368.479 74.0791 364.972 61.4243 362.71 58.1935C360.447 54.9628 355.213 54.1719 355.213 54.1719L354.504 56.7591Z" fill="#407BFF"/>
<path opacity="0.3" d="M354.504 56.7591C354.504 56.7591 357.917 60.2312 359.618 68.1673C361.318 76.1034 364.758 110.81 364.651 115.221L372.308 109.47L369.202 81.908L364.664 79.0928L368.479 74.0791C368.479 74.0791 364.972 61.4243 362.71 58.1935C360.447 54.9628 355.213 54.1719 355.213 54.1719L354.504 56.7591Z" fill="black"/>
</g>
<defs>
<clipPath id="clip0_1216_28888">
<rect width="669.319" height="490" fill="white" transform="translate(0.339844)"/>
</clipPath>
</defs>
</svg>
